<svg width="1035" height="332" viewBox="0 0 1035 332" fill="none" xmlns="http://www.w3.org/2000/svg">
<mask id="mask0_92_30" style="mask-type:luminance" maskUnits="userSpaceOnUse" x="26" y="274" width="109" height="35">
<path d="M134.364 274.216H26.2446V308.427H134.364V274.216Z" fill="white"/>
</mask>
<g mask="url(#mask0_92_30)">
<mask id="mask1_92_30" style="mask-type:luminance" maskUnits="userSpaceOnUse" x="26" y="274" width="109" height="35">
<path d="M134.364 274.216H26.2446V308.427H134.364V274.216Z" fill="white"/>
</mask>
<g mask="url(#mask1_92_30)">
<path d="M57.1387 298.469C55.0782 293.285 48.0564 279.271 46.5774 276.995C45.084 274.697 43.2603 274.216 41.9823 274.216C38.5217 274.216 36.777 277.612 36.6263 277.921C36.1883 278.775 27.5654 295.54 26.6105 298.613C25.5767 301.951 26.9767 304.543 27.1059 304.78C27.2495 305.046 29.2168 308.427 33.4959 308.427C33.6682 308.427 33.8477 308.42 34.0272 308.413C37.3801 308.198 40.4674 305.254 41.9177 303.639C44.7178 307.214 47.683 308.133 49.7508 308.241C52.1847 308.37 53.9222 307.437 54.0874 307.35C54.1951 307.293 55.4731 306.568 56.4782 305.153C57.4618 303.796 58.3593 301.528 57.1387 298.469ZM42.0254 300.436C40.5249 298.505 38.1771 294.973 38.1771 292.531C38.1771 288.82 41.6736 288.776 41.8172 288.776C42.9372 288.776 45.5363 289.179 45.5363 292.941C45.5363 295.877 43.246 298.986 42.0254 300.436ZM54.8771 303.926C54.1304 305.01 53.1325 305.57 53.1109 305.584C52.8955 305.706 47.9272 308.334 43.2819 302.088C44.5742 300.616 47.5538 296.818 47.5538 292.948C47.5538 288.382 44.4593 286.759 41.81 286.759C41.3577 286.759 39.7782 286.838 38.3422 287.872C37.3371 288.59 36.138 289.99 36.138 292.546C36.138 295.985 39.3474 300.357 40.6613 302.009C39.5412 303.308 36.7124 306.223 33.8908 306.403C30.4876 306.618 28.9368 303.926 28.8722 303.811C28.865 303.796 28.865 303.804 28.865 303.789C28.8219 303.71 27.7521 301.772 28.5419 299.223C29.267 296.882 35.3196 284.871 38.4284 278.847C38.4356 278.84 38.4356 278.825 38.4427 278.818C38.4571 278.789 39.6992 276.248 41.9752 276.248C43.0952 276.248 44.0645 276.873 44.8686 278.1C46.2471 280.225 53.2473 294.19 55.2505 299.216C55.9541 300.968 55.8249 302.554 54.8771 303.926Z" fill="#E56069"/>
</g>
<mask id="mask2_92_30" style="mask-type:luminance" maskUnits="userSpaceOnUse" x="26" y="274" width="109" height="35">
<path d="M134.364 274.216H26.2446V308.427H134.364V274.216Z" fill="white"/>
</mask>
<g mask="url(#mask2_92_30)">
<path d="M74.6362 286.429C74.6291 286.436 74.0044 286.465 73.9973 287.053V287.412C73.9973 287.412 73.3295 286.091 70.7664 286.091C68.2032 286.091 64.2041 287.958 64.2041 292.812C64.2041 297.665 68.5407 299.496 70.5941 299.496C72.6475 299.496 73.2793 298.878 73.9901 298.117V298.57C73.9973 299.158 74.6219 299.194 74.6219 299.194H77.2712V286.429H74.6362ZM71.111 296.459C69.2227 296.459 67.4781 295.052 67.4781 292.654C67.4781 290.256 69.7612 289.107 71.2546 289.107C72.748 289.107 74.0044 290.428 74.0044 290.428V295.188C73.9973 295.188 72.9921 296.459 71.111 296.459Z" fill="#E56069"/>
</g>
<mask id="mask3_92_30" style="mask-type:luminance" maskUnits="userSpaceOnUse" x="26" y="274" width="109" height="35">
<path d="M134.364 274.216H26.2446V308.427H134.364V274.216Z" fill="white"/>
</mask>
<g mask="url(#mask3_92_30)">
<path d="M82.541 286.429H79.3604V299.194H82.541V286.429Z" fill="#E56069"/>
</g>
<mask id="mask4_92_30" style="mask-type:luminance" maskUnits="userSpaceOnUse" x="26" y="274" width="109" height="35">
<path d="M134.364 274.216H26.2446V308.427H134.364V274.216Z" fill="white"/>
</mask>
<g mask="url(#mask4_92_30)">
<path d="M87.7894 287.499V287.053C87.7823 286.465 87.1576 286.429 87.1576 286.429L87.1504 286.422H84.5083V299.187H87.1576C87.1576 299.187 87.7823 299.151 87.7894 298.562V290.263C87.7894 290.263 88.9885 288.547 92.1763 289.25V286.235C92.1763 286.235 89.29 285.503 87.7894 287.499Z" fill="#E56069"/>
</g>
<mask id="mask5_92_30" style="mask-type:luminance" maskUnits="userSpaceOnUse" x="26" y="274" width="109" height="35">
<path d="M134.364 274.216H26.2446V308.427H134.364V274.216Z" fill="white"/>
</mask>
<g mask="url(#mask5_92_30)">
<path d="M100.059 286.106C98.1134 286.106 96.7924 287.506 96.7924 287.506V280.383H93.5112V299.201H96.1606C96.1606 299.201 96.7852 299.165 96.7924 298.577V298.124C96.7924 298.124 98.1422 299.503 100.059 299.503C101.976 299.503 106.65 298.067 106.65 292.941C106.65 287.814 101.998 286.106 100.059 286.106ZM99.5207 296.487C97.8334 296.487 96.7924 295.195 96.7924 295.195V290.435C96.7924 290.435 98.0345 289.143 99.6643 289.143C101.294 289.143 103.326 290.385 103.326 292.819C103.326 295.253 101.215 296.487 99.5207 296.487Z" fill="#E56069"/>
</g>
<mask id="mask6_92_30" style="mask-type:luminance" maskUnits="userSpaceOnUse" x="26" y="274" width="109" height="35">
<path d="M134.364 274.216H26.2446V308.427H134.364V274.216Z" fill="white"/>
</mask>
<g mask="url(#mask6_92_30)">
<path d="M127.773 286.106C125.828 286.106 124.507 287.506 124.507 287.506V280.383H121.226V299.201H123.875C123.875 299.201 124.5 299.165 124.507 298.577V298.124C124.507 298.124 125.857 299.503 127.773 299.503C129.69 299.503 134.364 298.067 134.364 292.941C134.364 287.814 129.712 286.106 127.773 286.106ZM127.235 296.487C125.548 296.487 124.507 295.195 124.507 295.195V290.435C124.507 290.435 125.749 289.143 127.379 289.143C129.008 289.143 131.04 290.385 131.04 292.819C131.04 295.253 128.922 296.487 127.235 296.487Z" fill="#E56069"/>
</g>
<mask id="mask7_92_30" style="mask-type:luminance" maskUnits="userSpaceOnUse" x="26" y="274" width="109" height="35">
<path d="M134.364 274.216H26.2446V308.427H134.364V274.216Z" fill="white"/>
</mask>
<g mask="url(#mask7_92_30)">
<path d="M119.517 290.715C119.517 287.843 116.983 286.106 114.477 286.106C111.971 286.106 111.016 287.534 111.016 287.534V287.06C111.009 286.472 110.384 286.436 110.384 286.436L110.377 286.429H107.986V299.194H111.267V290.27C111.648 289.782 112.481 289.013 113.96 289.013C116.114 289.013 116.2 291.253 116.2 291.253V299.201H119.524V290.715H119.517Z" fill="#E56069"/>
</g>
<mask id="mask8_92_30" style="mask-type:luminance" maskUnits="userSpaceOnUse" x="26" y="274" width="109" height="35">
<path d="M134.364 274.216H26.2446V308.427H134.364V274.216Z" fill="white"/>
</mask>
<g mask="url(#mask8_92_30)">
<path d="M83.1224 282.552C83.1224 283.751 82.146 284.727 80.9469 284.727C79.7479 284.727 78.7715 283.751 78.7715 282.552C78.7715 281.353 79.7479 280.376 80.9469 280.376C82.1531 280.376 83.1224 281.353 83.1224 282.552Z" fill="#E56069"/>
</g>
</g>
<path d="M73.9316 177.723H86.1526V260.826C86.1526 264.2 83.4168 266.936 80.0421 266.936V266.936C76.6674 266.936 73.9316 264.2 73.9316 260.826V177.723Z" fill="#0461FF" fill-opacity="0.15"/>
<path d="M284.131 177.723H296.352V260.826C296.352 264.2 293.617 266.936 290.242 266.936V266.936C286.867 266.936 284.131 264.2 284.131 260.826V177.723Z" fill="#0461FF" fill-opacity="0.15"/>
<path d="M499.22 177.723H511.441V260.826C511.441 264.2 508.705 266.936 505.33 266.936V266.936C501.955 266.936 499.22 264.2 499.22 260.826V177.723Z" fill="#0461FF" fill-opacity="0.15"/>
<path d="M511.441 165.502L499.22 165.502L499.22 65.2907C499.22 61.916 501.956 59.1802 505.33 59.1802V59.1802C508.705 59.1802 511.441 61.916 511.441 65.2907L511.441 165.502Z" fill="#0461FF" fill-opacity="0.15"/>
<path d="M726.529 177.723H738.75V260.826C738.75 264.2 736.014 266.936 732.64 266.936V266.936C729.265 266.936 726.529 264.2 726.529 260.826V177.723Z" fill="#0461FF" fill-opacity="0.15"/>
<path d="M950.172 177.723H962.393V260.826C962.393 264.2 959.657 266.936 956.282 266.936V266.936C952.908 266.936 950.172 264.2 950.172 260.826V177.723Z" fill="#0461FF" fill-opacity="0.15"/>
<rect x="73.9316" y="177.723" width="12.2209" height="888.462" transform="rotate(-90 73.9316 177.723)" fill="#0461FF" fill-opacity="0.15"/>
<g clip-path="url(#clip0_92_30)">
<path d="M375.171 297.569C374.637 297.569 374.204 298.004 374.204 298.541C374.204 299.077 374.637 299.513 375.171 299.513C375.704 299.513 376.138 299.077 376.138 298.541C376.138 298.004 375.704 297.569 375.171 297.569ZM375.171 299.358C374.721 299.358 374.357 298.991 374.357 298.541C374.357 298.088 374.723 297.723 375.171 297.723C375.62 297.723 375.986 298.091 375.986 298.541C375.986 298.991 375.62 299.358 375.171 299.358ZM375.485 298.374C375.485 298.197 375.361 298.093 375.177 298.093H374.868V298.978H375.019V298.658H375.185L375.344 298.978H375.508L375.332 298.625C375.426 298.582 375.485 298.495 375.485 298.374ZM375.171 298.52H375.021V298.226H375.171C375.273 298.226 375.334 298.277 375.334 298.372C375.334 298.469 375.271 298.52 375.171 298.52ZM258.658 287.731V285.38H255.073V299.367H258.658V290.98C258.658 289.461 259.627 288.715 261.138 288.715H263.101V285.38H261.424C260.112 285.38 258.971 286.069 258.658 287.731ZM266.459 279.848C265.233 279.848 264.292 280.822 264.292 282.055C264.292 283.259 265.233 284.234 266.459 284.234C267.686 284.234 268.626 283.259 268.626 282.055C268.626 280.822 267.686 279.848 266.459 279.848ZM264.671 299.367H268.248V285.38H264.671V299.367ZM285.29 292.373C285.29 296.366 282.07 299.603 278.098 299.603C276.495 299.603 275.042 299.075 273.876 298.183V303.473H270.299V285.38H273.876V286.564C275.042 285.672 276.495 285.144 278.098 285.144C282.07 285.144 285.29 288.381 285.29 292.373ZM281.69 292.373C281.69 290.205 279.94 288.446 277.783 288.446C275.626 288.446 273.876 290.205 273.876 292.373C273.876 294.541 275.626 296.301 277.783 296.301C279.94 296.301 281.69 294.544 281.69 292.373ZM347.47 291.147L345.383 290.571C344.009 290.212 343.475 289.788 343.475 289.059C343.475 288.348 344.228 287.85 345.303 287.85C346.327 287.85 347.131 288.524 347.131 289.387V289.468H350.428V289.387C350.428 286.849 348.37 285.144 345.303 285.144C342.267 285.144 340.061 286.847 340.061 289.196C340.061 291.023 341.265 292.4 343.367 292.971L345.366 293.52C346.885 293.943 347.45 294.412 347.45 295.252C347.45 296.138 346.634 296.734 345.419 296.734C344.154 296.734 343.302 295.929 343.302 294.733V294.652H339.802V294.733C339.802 297.601 342.1 299.607 345.391 299.607C348.562 299.607 350.864 297.649 350.864 294.952C350.864 293.629 350.275 291.899 347.47 291.147ZM297.981 285.38H301.558V299.367H297.981V298.183C296.816 299.075 295.362 299.603 293.759 299.603C289.787 299.603 286.568 296.366 286.568 292.373C286.568 288.38 289.787 285.144 293.759 285.144C295.362 285.144 296.816 285.672 297.981 286.564V285.38ZM297.981 292.373C297.981 290.203 296.231 288.446 294.074 288.446C291.917 288.446 290.168 290.205 290.168 292.373C290.168 294.541 291.917 296.301 294.074 296.301C296.233 296.301 297.981 294.544 297.981 292.373ZM314.477 280.403H318.054V299.369H314.477V298.185C313.311 299.077 311.858 299.605 310.255 299.605C306.283 299.605 303.063 296.368 303.063 292.375C303.063 288.382 306.283 285.146 310.255 285.146C311.858 285.146 313.311 285.674 314.477 286.566V280.403ZM314.477 292.373C314.477 290.205 312.727 288.446 310.57 288.446C308.413 288.446 306.663 290.205 306.663 292.373C306.663 294.541 308.411 296.301 310.57 296.301C312.727 296.301 314.477 294.544 314.477 292.373ZM334.664 299.367H338.242V285.38H334.664V299.367ZM336.453 279.848C335.226 279.848 334.286 280.822 334.286 282.055C334.286 283.259 335.226 284.234 336.453 284.234C337.68 284.234 338.62 283.259 338.62 282.055C338.62 280.822 337.68 279.848 336.453 279.848ZM366.327 292.373C366.327 296.366 363.107 299.603 359.135 299.603C355.163 299.603 351.943 296.366 351.943 292.373C351.943 288.38 355.163 285.144 359.135 285.144C363.107 285.144 366.327 288.381 366.327 292.373ZM363.042 292.373C363.042 290.205 361.292 288.446 359.135 288.446C356.978 288.446 355.228 290.205 355.228 292.373C355.228 294.541 356.976 296.301 359.135 296.301C361.292 296.301 363.042 294.544 363.042 292.373ZM256.827 280.403H243.103V283.611H248.183V299.367H251.749V283.611H256.829V280.403H256.827ZM326.229 295.536L323.046 285.38H319.289L324.062 299.367H328.368L333.17 285.38H329.412L326.229 295.536ZM371.568 287.731V285.38H367.983V299.367H371.568V290.98C371.568 289.461 372.538 288.715 374.048 288.715H376.011V285.38H374.334C373.022 285.38 371.883 286.069 371.568 287.731Z" fill="black"/>
<path d="M222.243 309.672C232.376 309.672 240.59 301.458 240.59 291.325C240.59 281.193 232.376 272.979 222.243 272.979C212.111 272.979 203.896 281.193 203.896 291.325C203.896 301.458 212.111 309.672 222.243 309.672Z" fill="#34E0A1"/>
<path d="M233.359 287.723L235.563 285.333H230.674C228.227 283.667 225.27 282.696 222.074 282.696C218.881 282.696 215.933 283.669 213.489 285.333H208.588L210.793 287.723C209.441 288.951 208.594 290.721 208.594 292.686C208.594 296.394 211.611 299.401 215.333 299.401C217.101 299.401 218.711 298.721 219.914 297.611L222.074 299.954L224.233 297.613C225.436 298.723 227.045 299.401 228.812 299.401C232.534 299.401 235.555 296.394 235.555 292.686C235.557 290.719 234.71 288.949 233.359 287.723ZM215.335 297.23C212.816 297.23 210.774 295.196 210.774 292.686C210.774 290.176 212.816 288.142 215.335 288.142C217.854 288.142 219.895 290.176 219.895 292.686C219.895 295.196 217.854 297.23 215.335 297.23ZM222.076 292.554C222.076 289.564 219.893 286.997 217.013 285.9C218.571 285.251 220.279 284.891 222.074 284.891C223.868 284.891 225.579 285.251 227.136 285.9C224.258 286.999 222.076 289.564 222.076 292.554ZM228.814 297.23C226.295 297.23 224.254 295.196 224.254 292.686C224.254 290.176 226.295 288.142 228.814 288.142C231.334 288.142 233.375 290.176 233.375 292.686C233.375 295.196 231.334 297.23 228.814 297.23ZM228.814 290.302C227.494 290.302 226.424 291.368 226.424 292.684C226.424 294 227.494 295.066 228.814 295.066C230.135 295.066 231.205 294 231.205 292.684C231.205 291.37 230.135 290.302 228.814 290.302ZM217.725 292.686C217.725 294.002 216.656 295.068 215.335 295.068C214.014 295.068 212.944 294.002 212.944 292.686C212.944 291.37 214.014 290.304 215.335 290.304C216.656 290.302 217.725 291.37 217.725 292.686Z" fill="black"/>
</g>
<mask id="mask9_92_30" style="mask-type:luminance" maskUnits="userSpaceOnUse" x="438" y="275" width="143" height="33">
<path d="M580.808 275.215H438.559V307.106H580.808V275.215Z" fill="white"/>
</mask>
<g mask="url(#mask9_92_30)">
<mask id="mask10_92_30" style="mask-type:luminance" maskUnits="userSpaceOnUse" x="438" y="275" width="143" height="33">
<path d="M580.807 275.215H438.558V307.106H580.807V275.215Z" fill="white"/>
</mask>
<g mask="url(#mask10_92_30)">
<path fill-rule="evenodd" clip-rule="evenodd" d="M556.568 287.306C556.592 287.274 556.624 287.282 556.657 287.282C557.221 287.29 557.793 287.249 558.356 287.314C558.92 287.378 559.492 287.684 559.637 288.369C559.653 288.45 559.686 288.53 559.702 288.611C559.718 288.691 559.742 288.748 559.839 288.643C560.153 288.297 560.483 287.966 560.886 287.709C561.425 287.362 562.005 287.137 562.65 287.048C563.093 286.992 563.536 287 563.971 287.072C565.075 287.249 565.912 287.821 566.436 288.828C566.565 289.07 566.573 289.078 566.734 288.86C567.193 288.256 567.757 287.797 568.442 287.475C568.901 287.257 569.376 287.129 569.875 287.056C570.335 286.992 570.794 287.008 571.245 287.072C572.574 287.266 573.533 287.942 574.016 289.231C574.209 289.739 574.298 290.27 574.354 290.802C574.354 290.826 574.354 290.858 574.378 290.874V299.123C573.815 299.123 573.243 299.131 572.679 299.115C572.22 299.099 571.785 299.002 571.47 298.624C571.245 298.35 571.14 298.027 571.14 297.673C571.132 295.885 571.132 294.096 571.132 292.3C571.132 291.857 571.116 291.414 571.011 290.987C570.89 290.472 570.584 290.085 569.94 290.053C568.965 289.996 568.281 290.472 567.765 291.253C567.459 291.72 567.306 292.236 567.193 292.775C567.104 293.186 567.08 293.597 567.08 294.016C567.08 295.659 567.08 297.302 567.088 298.946C567.088 299.091 567.048 299.123 566.911 299.123C565.944 299.115 564.978 299.115 564.003 299.123C563.874 299.123 563.826 299.107 563.826 298.954C563.834 296.69 563.834 294.427 563.826 292.163C563.826 291.704 563.786 291.253 563.6 290.826C563.335 290.214 562.827 290.004 562.207 290.045C561.522 290.085 561.031 290.455 560.644 290.987C560.29 291.47 560.08 292.01 559.943 292.59C559.814 293.13 559.774 293.678 559.774 294.225C559.774 295.804 559.774 297.383 559.782 298.954C559.782 299.091 559.75 299.123 559.613 299.123C558.646 299.115 557.68 299.115 556.705 299.123C556.576 299.123 556.528 299.099 556.528 298.954C556.536 297.496 556.528 296.038 556.536 294.58C556.536 294.531 556.52 294.475 556.552 294.427C556.576 294.451 556.576 294.475 556.576 294.499C556.576 295.989 556.576 297.488 556.576 298.978C556.576 299.002 556.608 298.978 556.592 298.978C556.584 298.978 556.584 298.978 556.584 298.97C556.576 298.922 556.584 298.881 556.584 298.833C556.584 295.055 556.584 291.269 556.584 287.491C556.552 287.427 556.536 287.362 556.568 287.306Z" fill="#0098D1"/>
</g>
<mask id="mask11_92_30" style="mask-type:luminance" maskUnits="userSpaceOnUse" x="438" y="275" width="143" height="33">
<path d="M580.807 275.215H438.558V307.106H580.807V275.215Z" fill="white"/>
</mask>
<g mask="url(#mask11_92_30)">
<path fill-rule="evenodd" clip-rule="evenodd" d="M498.006 282.191C498.24 282.263 498.482 282.32 498.699 282.449C499.4 282.859 499.795 283.681 499.658 284.495C499.521 285.292 498.9 285.936 498.111 286.098C497.015 286.323 495.976 285.63 495.775 284.503C495.574 283.423 496.282 282.432 497.33 282.215C497.362 282.207 497.394 282.215 497.41 282.183H498.006V282.191Z" fill="#244482"/>
</g>
<mask id="mask12_92_30" style="mask-type:luminance" maskUnits="userSpaceOnUse" x="438" y="275" width="143" height="33">
<path d="M580.807 275.215H438.558V307.106H580.807V275.215Z" fill="white"/>
</mask>
<g mask="url(#mask12_92_30)">
<path fill-rule="evenodd" clip-rule="evenodd" d="M495.171 299.115C494.099 299.091 493.06 299.147 492.021 299.083C491.441 299.05 490.998 298.76 490.692 298.269C490.354 297.729 490.088 297.157 489.79 296.602C489.419 295.909 489.049 295.224 488.694 294.523C488.59 294.322 488.437 294.233 488.227 294.209C488.074 294.193 487.929 294.177 487.776 294.185C487.534 294.193 487.567 294.145 487.567 294.386C487.567 295.788 487.567 297.19 487.567 298.583C487.567 298.712 487.558 298.841 487.567 298.97C487.575 299.067 487.55 299.107 487.438 299.107C486.382 299.099 485.327 299.107 484.272 299.107C484.175 299.107 484.143 299.075 484.151 298.986C484.159 298.833 484.151 298.688 484.151 298.535C484.151 293.323 484.151 288.103 484.151 282.891C484.151 282.658 484.127 282.69 484.344 282.69C484.965 282.698 485.585 282.666 486.205 282.714C486.914 282.763 487.341 283.085 487.502 283.705C487.558 283.915 487.567 284.124 487.567 284.341C487.567 286.573 487.567 288.796 487.567 291.027C487.567 291.237 487.567 291.245 487.784 291.237C487.961 291.237 488.138 291.229 488.316 291.221C488.598 291.197 488.823 291.084 488.984 290.826C489.717 289.674 490.466 288.522 491.208 287.37C491.256 287.29 491.312 287.257 491.401 287.257C492.609 287.257 493.817 287.257 495.026 287.257C495.05 287.257 495.074 287.257 495.122 287.266C495.026 287.411 494.945 287.539 494.857 287.668C493.89 289.11 492.923 290.544 491.949 291.986C491.796 292.211 491.626 292.429 491.425 292.622C491.385 292.663 491.344 292.695 491.401 292.743C491.844 293.178 492.086 293.75 492.351 294.29C493.101 295.788 493.995 297.198 494.857 298.632C494.969 298.777 495.066 298.93 495.171 299.115Z" fill="#244482"/>
</g>
<mask id="mask13_92_30" style="mask-type:luminance" maskUnits="userSpaceOnUse" x="438" y="275" width="143" height="33">
<path d="M580.807 275.215H438.558V307.106H580.807V275.215Z" fill="white"/>
</mask>
<g mask="url(#mask13_92_30)">
<path fill-rule="evenodd" clip-rule="evenodd" d="M504.789 288.595C504.982 288.409 505.159 288.216 505.361 288.055C506.174 287.378 507.117 287.048 508.164 287C508.889 286.968 509.598 287.032 510.283 287.29C511.37 287.701 512.047 288.49 512.393 289.585C512.586 290.19 512.659 290.81 512.659 291.446C512.659 292.55 512.659 293.653 512.659 294.757C512.659 296.142 512.667 297.536 512.675 298.922C512.675 299.147 512.699 299.115 512.474 299.115C511.894 299.107 511.322 299.139 510.742 299.091C509.84 299.026 509.316 298.487 509.276 297.584C509.235 296.714 509.268 295.836 509.26 294.958C509.26 293.976 509.26 292.993 509.26 292.01C509.26 291.712 509.235 291.422 509.155 291.132C508.986 290.488 508.575 290.174 507.906 290.149C506.577 290.109 505.393 290.866 504.998 292.445C504.902 292.824 504.853 293.21 504.853 293.605C504.853 295.377 504.853 297.157 504.853 298.93C504.853 299.075 504.821 299.123 504.668 299.123C503.653 299.115 502.638 299.115 501.623 299.123C501.494 299.123 501.462 299.083 501.462 298.962C501.462 295.514 501.462 292.058 501.462 288.611C501.462 288.2 501.462 287.789 501.454 287.378C501.454 287.314 501.438 287.257 501.543 287.257C502.147 287.274 502.751 287.225 503.355 287.29C504.016 287.362 504.588 287.692 504.749 288.498C504.765 288.514 504.781 288.546 504.789 288.595Z" fill="#244482"/>
</g>
<mask id="mask14_92_30" style="mask-type:luminance" maskUnits="userSpaceOnUse" x="438" y="275" width="143" height="33">
<path d="M580.807 275.215H438.558V307.106H580.807V275.215Z" fill="white"/>
</mask>
<g mask="url(#mask14_92_30)">
<path fill-rule="evenodd" clip-rule="evenodd" d="M542.021 290.391C542.021 290.673 542.021 290.955 542.021 291.237C542.021 291.333 542.005 291.374 541.892 291.374C541.352 291.366 540.813 291.382 540.265 291.366C539.685 291.35 539.242 291.052 539.073 290.431C539.008 290.19 538.791 290.085 538.573 290.004C537.438 289.61 536.06 289.972 535.287 290.898C534.957 291.293 534.739 291.752 534.618 292.26C534.489 292.816 534.465 293.371 534.578 293.927C534.779 294.926 535.319 295.675 536.245 296.118C536.938 296.449 537.679 296.537 538.428 296.424C539.178 296.304 539.846 295.973 540.458 295.522C540.716 295.329 540.974 295.119 541.183 294.878C541.24 294.813 541.264 294.797 541.32 294.886C541.755 295.603 542.19 296.32 542.617 297.045C542.666 297.125 542.641 297.19 542.577 297.262C542.174 297.721 541.691 298.084 541.175 298.406C540.603 298.76 539.991 299.018 539.347 299.179C538.453 299.405 537.542 299.445 536.624 299.324C535.649 299.204 534.747 298.897 533.926 298.358C532.846 297.657 532.081 296.698 531.63 295.49C531.332 294.693 531.203 293.879 531.227 293.033C531.275 291.398 531.839 289.964 533.015 288.804C533.7 288.136 534.505 287.668 535.424 287.37C536.092 287.153 536.777 287.048 537.47 287.024C538.42 286.992 539.339 287.145 540.217 287.515C540.861 287.789 541.433 288.168 541.771 288.812C541.932 289.118 542.013 289.44 542.005 289.779C542.013 289.98 542.021 290.19 542.021 290.391Z" fill="#0098D1"/>
</g>
<mask id="mask15_92_30" style="mask-type:luminance" maskUnits="userSpaceOnUse" x="438" y="275" width="143" height="33">
<path d="M580.807 275.215H438.558V307.106H580.807V275.215Z" fill="white"/>
</mask>
<g mask="url(#mask15_92_30)">
<path fill-rule="evenodd" clip-rule="evenodd" d="M496.146 293.186C496.146 291.253 496.146 289.328 496.146 287.394C496.146 287.33 496.121 287.249 496.242 287.249C496.862 287.266 497.483 287.217 498.095 287.274C498.917 287.346 499.416 287.854 499.505 288.675C499.521 288.828 499.529 288.973 499.529 289.126C499.529 292.397 499.529 295.675 499.529 298.946C499.529 299.083 499.497 299.115 499.36 299.115C498.345 299.107 497.33 299.107 496.315 299.115C496.17 299.115 496.146 299.075 496.146 298.938C496.154 297.021 496.146 295.095 496.146 293.178C496.154 293.186 496.146 293.186 496.146 293.186Z" fill="#244482"/>
</g>
<mask id="mask16_92_30" style="mask-type:luminance" maskUnits="userSpaceOnUse" x="438" y="275" width="143" height="33">
<path d="M580.807 275.215H438.558V307.106H580.807V275.215Z" fill="white"/>
</mask>
<g mask="url(#mask16_92_30)">
<path fill-rule="evenodd" clip-rule="evenodd" d="M528.73 299.244C527.682 299.284 526.748 298.39 526.748 297.27C526.748 296.159 527.666 295.305 528.714 295.297C529.801 295.289 530.711 296.215 530.703 297.278C530.703 298.325 529.817 299.276 528.73 299.244Z" fill="#0098D1"/>
</g>
<mask id="mask17_92_30" style="mask-type:luminance" maskUnits="userSpaceOnUse" x="438" y="275" width="143" height="33">
<path d="M580.807 275.215H438.558V307.106H580.807V275.215Z" fill="white"/>
</mask>
<g mask="url(#mask17_92_30)">
<path fill-rule="evenodd" clip-rule="evenodd" d="M525.41 298.519C525.378 298.43 525.394 298.334 525.394 298.245C525.394 294.652 525.394 291.06 525.394 287.459C525.394 287.241 525.394 287.241 525.177 287.241C524.685 287.241 524.186 287.241 523.694 287.241C523.735 287.201 523.791 287.217 523.839 287.217C524.323 287.217 524.806 287.217 525.289 287.217C525.394 287.217 525.434 287.233 525.434 287.354C525.426 291.003 525.426 294.652 525.426 298.309C525.426 298.374 525.418 298.446 525.41 298.519Z" fill="#294268"/>
</g>
<mask id="mask18_92_30" style="mask-type:luminance" maskUnits="userSpaceOnUse" x="438" y="275" width="143" height="33">
<path d="M580.807 275.215H438.558V307.106H580.807V275.215Z" fill="white"/>
</mask>
<g mask="url(#mask18_92_30)">
<path fill-rule="evenodd" clip-rule="evenodd" d="M556.569 287.306V299.083C556.52 299.002 556.536 298.946 556.536 298.889C556.536 297.472 556.536 296.046 556.536 294.628C556.536 294.564 556.536 294.491 556.528 294.427C556.528 293.025 556.528 291.615 556.528 290.214C556.528 289.32 556.528 288.426 556.528 287.531C556.528 287.451 556.504 287.37 556.569 287.306Z" fill="#008BAB"/>
</g>
<mask id="mask19_92_30" style="mask-type:luminance" maskUnits="userSpaceOnUse" x="438" y="275" width="143" height="33">
<path d="M580.807 275.215H438.558V307.106H580.807V275.215Z" fill="white"/>
</mask>
<g mask="url(#mask19_92_30)">
<path d="M454.274 290.617C454.161 290.552 454.049 290.488 453.92 290.415C454 290.343 454.073 290.278 454.145 290.222C454.411 290.004 454.661 289.771 454.87 289.497C455.499 288.667 455.74 287.725 455.684 286.702C455.603 285.228 454.919 284.132 453.638 283.407C452.736 282.9 451.753 282.722 450.73 282.706C449.385 282.69 448.047 282.698 446.702 282.706C446.154 282.706 445.711 282.94 445.365 283.359C445.172 283.592 445.083 283.874 445.002 284.156V299.058C445.059 299.058 445.115 299.05 445.172 299.05C447.032 299.05 448.901 299.05 450.762 299.05C451.568 299.05 452.357 298.938 453.122 298.68C454.242 298.293 455.168 297.649 455.764 296.594C456.352 295.546 456.481 294.419 456.232 293.259C455.974 292.083 455.345 291.188 454.274 290.617ZM448.152 287.765C448.152 287.314 448.144 286.871 448.16 286.42C448.176 285.767 448.482 285.429 449.127 285.397C449.755 285.364 450.383 285.332 451.012 285.429C451.793 285.542 452.301 286.033 452.446 286.798C452.574 287.475 452.486 288.119 452.051 288.675C451.704 289.118 451.213 289.295 450.665 289.303C449.868 289.312 449.07 289.303 448.281 289.312C448.168 289.312 448.144 289.279 448.144 289.175C448.152 288.699 448.152 288.232 448.152 287.765ZM452.631 295.53C452.236 296.038 451.68 296.247 451.06 296.263C450.126 296.279 449.199 296.263 448.265 296.271C448.16 296.271 448.144 296.239 448.144 296.151C448.144 295.587 448.144 295.023 448.144 294.467H448.152C448.152 293.927 448.144 293.396 448.152 292.856C448.168 292.187 448.531 291.849 449.191 291.849C449.779 291.849 450.367 291.841 450.955 291.849C451.713 291.865 452.349 292.131 452.76 292.8C453.259 293.573 453.195 294.821 452.631 295.53Z" fill="#244482"/>
</g>
<mask id="mask20_92_30" style="mask-type:luminance" maskUnits="userSpaceOnUse" x="438" y="275" width="143" height="33">
<path d="M580.807 275.215H438.558V307.106H580.807V275.215Z" fill="white"/>
</mask>
<g mask="url(#mask20_92_30)">
<path d="M525.266 287.225C524.895 287.233 524.516 287.225 524.146 287.225C523.993 287.225 523.848 287.209 523.695 287.233C523.075 287.241 522.648 287.547 522.39 288.103C522.156 287.894 521.915 287.7 521.649 287.555C520.618 286.984 519.506 286.839 518.362 287C516.365 287.274 515.011 288.393 514.294 290.262C513.706 291.793 513.69 293.371 514.133 294.95C514.431 296.022 514.987 296.94 515.841 297.665C516.904 298.559 518.161 298.905 519.53 298.841C520.432 298.801 521.262 298.543 521.971 297.955C521.987 297.939 522.003 297.915 522.043 297.931C522.06 298.14 522.052 298.35 522.027 298.559C521.939 299.381 521.552 300.001 520.787 300.347C519.957 300.726 519.079 300.71 518.201 300.581C517.71 300.508 517.243 300.347 516.775 300.21C516.195 300.041 515.809 300.226 515.543 300.766C515.519 300.815 515.495 300.871 515.47 300.919C515.269 301.427 515.068 301.934 514.866 302.434C514.826 302.538 514.842 302.579 514.947 302.635C515.817 303.102 516.751 303.4 517.718 303.569C518 303.618 518.282 303.65 518.564 303.69H519.844C519.869 303.658 519.901 303.666 519.925 303.666C520.336 303.634 520.739 303.569 521.141 303.473C522.197 303.207 523.155 302.756 523.936 301.991C524.903 301.04 525.346 299.856 525.419 298.511C525.411 298.446 525.419 298.39 525.419 298.325C525.419 294.709 525.419 291.084 525.419 287.467C525.419 287.435 525.419 287.402 525.419 287.37C525.427 287.265 525.386 287.225 525.266 287.225ZM521.858 294.499C521.536 295.377 520.819 295.885 519.885 295.893C518.709 295.909 517.895 295.337 517.524 294.217C517.202 293.234 517.186 292.252 517.573 291.285C517.919 290.415 518.58 289.98 519.506 289.948C519.989 289.932 520.473 289.98 520.916 290.206C521.528 290.52 521.826 291.06 521.987 291.696C522.084 292.091 522.108 292.485 522.116 292.92C522.108 293.436 522.052 293.976 521.858 294.499Z" fill="#244482"/>
</g>
<mask id="mask21_92_30" style="mask-type:luminance" maskUnits="userSpaceOnUse" x="438" y="275" width="143" height="33">
<path d="M580.807 275.215H438.558V307.106H580.807V275.215Z" fill="white"/>
</mask>
<g mask="url(#mask21_92_30)">
<path d="M555.175 291.559C555.062 291.06 554.877 290.584 554.635 290.133C554.103 289.142 553.354 288.369 552.372 287.813C551.598 287.378 550.777 287.137 549.891 287.04C549.286 286.976 548.698 286.984 548.102 287.072C547.466 287.161 546.854 287.346 546.274 287.628C545.283 288.103 544.485 288.796 543.897 289.73C543.237 290.778 542.931 291.93 542.955 293.162C542.963 293.468 542.971 293.774 543.011 294.08C543.1 294.757 543.293 295.401 543.591 296.014C544.034 296.924 544.671 297.665 545.508 298.229C546.411 298.841 547.418 299.171 548.497 299.276C549.568 299.373 550.624 299.244 551.63 298.849C552.605 298.462 553.435 297.866 554.079 297.037C554.538 296.449 554.877 295.804 555.086 295.087C555.223 294.62 555.304 294.153 555.344 293.67C555.4 292.953 555.328 292.252 555.175 291.559ZM552.017 293.057C552.017 293.935 551.848 294.66 551.389 295.289C551.01 295.82 550.495 296.159 549.858 296.312C549.214 296.465 548.578 296.433 547.973 296.159C547.361 295.885 546.926 295.426 546.636 294.821C546.362 294.258 546.25 293.653 546.274 293.025C546.306 292.115 546.564 291.269 547.248 290.617C547.869 290.029 548.618 289.819 549.448 289.908C550.64 290.037 551.397 290.729 551.808 291.817C551.969 292.26 552.041 292.711 552.017 293.057Z" fill="#0098D1"/>
</g>
<mask id="mask22_92_30" style="mask-type:luminance" maskUnits="userSpaceOnUse" x="438" y="275" width="143" height="33">
<path d="M580.807 275.215H438.558V307.106H580.807V275.215Z" fill="white"/>
</mask>
<g mask="url(#mask22_92_30)">
<path d="M479.665 287.668C478.046 286.871 476.346 286.79 474.63 287.338C472.874 287.902 471.65 289.062 470.973 290.778C470.498 291.978 470.425 293.226 470.675 294.483C470.965 295.941 471.682 297.141 472.866 298.044C474.002 298.905 475.307 299.268 476.724 299.284C477.264 299.284 477.796 299.236 478.319 299.107C480.124 298.672 481.485 297.657 482.307 295.981C482.975 294.628 483.104 293.186 482.79 291.712C482.395 289.875 481.364 288.498 479.665 287.668ZM479.624 293.17C479.616 293.984 479.439 294.749 478.924 295.401C478.327 296.142 477.53 296.449 476.588 296.408C475.258 296.352 474.252 295.417 473.97 294.024C473.768 293.033 473.857 292.066 474.405 291.18C475.001 290.206 476.016 289.763 477.143 289.924C478.4 290.101 479.141 290.874 479.496 292.058C479.592 292.421 479.632 292.791 479.624 293.17Z" fill="#244482"/>
</g>
<mask id="mask23_92_30" style="mask-type:luminance" maskUnits="userSpaceOnUse" x="438" y="275" width="143" height="33">
<path d="M580.807 275.215H438.558V307.106H580.807V275.215Z" fill="white"/>
</mask>
<g mask="url(#mask23_92_30)">
<path d="M466.43 287.684C464.972 286.951 463.433 286.823 461.863 287.201C459.994 287.644 458.624 288.748 457.827 290.512C457.295 291.688 457.182 292.92 457.368 294.185C457.577 295.579 458.173 296.779 459.22 297.729C460.429 298.825 461.871 299.276 463.474 299.292C464.094 299.3 464.706 299.22 465.31 299.051C467.042 298.559 468.331 297.52 469.104 295.877C469.708 294.58 469.837 293.21 469.555 291.809C469.169 289.948 468.146 288.538 466.43 287.684ZM465.914 295.007C465.455 295.861 464.714 296.312 463.748 296.4C462.193 296.537 461.049 295.546 460.719 294.113C460.695 294 460.678 293.887 460.654 293.774C460.622 293.565 460.606 293.363 460.614 293.154C460.614 292.316 460.807 291.535 461.355 290.882C462.008 290.093 462.878 289.803 463.876 289.932C465.004 290.077 465.753 290.737 466.124 291.793C466.519 292.88 466.47 293.976 465.914 295.007Z" fill="#244482"/>
</g>
</g>
<mask id="mask24_92_30" style="mask-type:luminance" maskUnits="userSpaceOnUse" x="677" y="273" width="111" height="37">
<path d="M677.589 273.305H787.17V309.379H677.589V273.305Z" fill="#315394"/>
</mask>
<g mask="url(#mask24_92_30)">
<path fill-rule="evenodd" clip-rule="evenodd" d="M700.916 278.288C702.611 279.998 702.016 282.799 700.123 289.083L700.065 289.275L699.983 289.221C701.785 282.12 701.209 279.355 698.569 278.371L698.489 278.342V278.288H700.916ZM705.331 278.288V278.342C704.093 280.194 703.295 282.142 700.32 289.168L700.229 289.382L700.147 289.328C702.09 283.936 703.089 281.293 702.863 278.461L702.855 278.362L702.856 278.288H705.331ZM711.034 278.288V278.342C706.28 279.765 704.151 282.493 700.504 289.283L700.393 289.49L700.311 289.436C703.519 282.644 705.055 279.844 707.586 278.334L707.663 278.288H711.034ZM695.867 278.288V278.342C692.738 278.939 691.819 280.672 692.588 284.639L695.363 298.735L694.538 300.451L691.362 284.662C690.367 279.956 692.14 278.701 692.977 278.288H695.867ZM690.809 278.288V278.342C689.684 279.338 689.386 281.082 690.031 284.405L690.06 284.551L693.719 302.156L692.902 303.858L688.767 284.218C688.086 280.891 688.252 279.599 688.835 278.345L688.862 278.288H690.809ZM687.228 278.288C686.908 279.312 686.727 280.804 687.485 284.023L687.521 284.173L692.079 305.571L691.271 307.253L686.157 283.61C685.518 280.812 685.441 279.684 685.465 278.359L685.467 278.288H687.228ZM748.068 273.289L736.355 303.099C735.917 304.214 734.919 306.492 734.807 307.753C734.763 308.241 734.934 308.598 735.086 308.714L735.107 308.728L735.068 308.809C734.966 308.778 734.897 308.745 734.797 308.697C734.25 308.435 733.832 307.782 733.856 307.239C733.911 305.999 734.797 303.8 735.244 302.701L735.28 302.614L743.246 282.163C743.376 281.779 746.484 274.151 746.462 273.626L746.46 273.612L748.068 273.289ZM775.685 285.336L775.657 285.393C771.426 286.241 765.794 298.769 765.669 305.896C765.645 307.28 766.155 308.441 767.829 308.761L767.918 308.778L767.892 308.832C765.336 308.555 764.488 306.676 764.517 305.023C764.645 297.68 770.439 286.106 775.685 285.336ZM747.439 288.488C748.458 288.627 749.069 289.438 748.94 290.82C748.442 296.137 742.647 306.925 736.428 308.784L736.239 308.838L736.275 308.764C741.734 306.417 747.176 295.499 747.616 290.793C747.712 289.77 747.231 289.134 746.503 289.034C745.41 288.884 743.885 289.82 742.731 291.171L742.661 291.255L742.617 291.197C744.012 289.418 745.936 288.282 747.439 288.488ZM776.836 285.409C779.296 285.813 780.237 287.506 780.208 289.158C780.077 296.663 774.593 307.887 769.212 308.866L769.048 308.892L769.075 308.837C773.445 308.028 778.877 295.746 779.007 288.333C779.031 286.956 778.436 285.928 776.895 285.493L776.807 285.468L776.836 285.409ZM744.775 273.935C745.194 274.391 742.287 281.437 742.042 282.096L742.035 282.115L734.2 302.177C733.819 303.196 732.93 305.46 732.82 306.721C732.707 308.006 733.682 308.633 734.956 308.878L735.029 308.891L735.003 308.944C733.086 308.648 731.659 307.765 731.801 306.139C731.912 304.87 732.639 302.933 733.082 301.799L733.124 301.692L740.78 282.018C741.186 280.906 743.173 276.238 743.168 274.425L743.167 274.35V274.259L744.775 273.935ZM724.406 284.905C726.01 284.905 727.327 285.924 727.445 288.155C727.686 292.716 723.546 296.422 719.018 297.155L718.88 297.176L718.829 297.128C722.72 296.254 726.57 292.762 726.352 288.64C726.25 286.7 725.084 285.778 723.674 285.778C721.061 285.778 718.793 287.976 717.355 290.879C717.344 291.027 717.34 291.181 717.324 291.325C718.626 288.639 720.64 286.603 722.891 286.603C724.155 286.603 725.122 287.427 725.212 289.125C725.399 292.678 722.056 296.136 718.824 297.005L718.727 297.031L718.676 296.982C721.347 296.012 724.283 292.714 724.119 289.61C724.045 288.203 723.229 287.476 722.159 287.476C720.204 287.476 718.434 289.441 717.234 291.927C717.205 292.112 717.175 292.298 717.138 292.478C718.208 290.163 719.771 288.3 721.376 288.3C722.349 288.3 722.965 288.931 723.027 290.095C723.164 292.684 720.814 295.84 718.649 296.85L718.573 296.885L718.522 296.837C720.121 295.818 722.047 292.714 721.934 290.58C721.888 289.707 721.423 289.174 720.645 289.174C719.344 289.174 717.978 290.994 716.989 293.131C716.902 293.473 716.806 293.812 716.698 294.151C717.629 292.014 718.878 289.998 719.862 289.998C720.494 289.998 720.76 290.434 720.793 291.065C720.876 292.638 719.624 295.618 718.479 296.686L718.42 296.739L718.368 296.69C719.365 294.913 719.83 292.84 719.728 291.577C719.701 291.238 719.568 290.871 719.131 290.871C718.557 290.871 717.471 292.748 716.559 294.609L716.514 294.702H716.511C716.283 295.365 716.028 296.038 715.756 296.759L715.653 297.031L711.083 308.961H709.819L714.433 296.933C715.415 294.363 716.367 292.132 716.216 289.27C716.101 287.088 714.601 285.39 711.879 285.39C706.249 285.39 703.304 289.282 702.179 293.645L702.145 293.778H702.094C703.13 289.066 706.26 284.905 712.583 284.905C715.596 284.905 717.252 286.797 717.38 289.222C717.4 289.604 717.405 289.971 717.394 290.325C718.943 287.203 721.49 284.905 724.406 284.905ZM709.861 286.748C711.708 286.748 712.742 287.912 712.824 289.464C712.937 291.599 711.732 294.338 710.88 296.544L710.823 296.69L706.027 308.961H704.714L709.605 296.643C710.465 294.508 711.762 291.453 711.662 289.561C711.59 288.203 710.713 287.233 709.157 287.233C705.904 287.233 703.639 290.343 702.519 293.671L702.483 293.778H702.427C703.478 290.161 705.896 286.748 709.861 286.748ZM711.221 285.827C713.652 285.827 714.998 287.379 715.103 289.367C715.236 291.88 714.248 294.301 713.282 296.72L713.216 296.885L708.555 308.961H707.291L712.044 296.788C712.939 294.411 714.064 291.792 713.939 289.416C713.844 287.621 712.657 286.312 710.518 286.312C706.055 286.312 703.491 289.792 702.347 293.66L702.313 293.778H702.253C703.275 289.568 706.175 285.827 711.221 285.827ZM708.503 287.718C709.766 287.718 710.488 288.494 710.547 289.61C710.635 291.276 709.257 294.437 708.432 296.434L708.386 296.545L703.451 308.961H702.187L707.213 296.448C707.94 294.557 709.462 291.162 709.382 289.658C709.334 288.737 708.771 288.203 707.799 288.203C705.607 288.203 703.784 290.928 702.7 293.676L702.66 293.778H702.598C703.627 290.662 705.752 287.718 708.503 287.718ZM707.141 288.64C707.822 288.64 708.231 289.028 708.27 289.755C708.333 290.948 706.779 294.487 706.033 296.31L705.996 296.4L700.923 308.961H699.659L704.775 296.303C705.466 294.654 707.16 290.822 707.106 289.804C707.08 289.319 706.827 289.125 706.438 289.125C705.519 289.125 703.938 291.379 702.89 293.675L702.844 293.778H702.78C703.819 291.159 705.546 288.64 707.141 288.64ZM775.757 285.185L775.731 285.239C769.567 286.088 763.496 296.659 763.364 304.198C763.331 306.079 764.479 308.461 767.733 308.914L767.846 308.929L767.819 308.984C763.623 308.642 762.175 305.47 762.213 303.325C762.347 295.627 768.52 285.95 775.757 285.185ZM683.874 278.288C684.044 279.528 684.171 280.417 684.911 283.541L684.947 283.689L690.438 308.988H689.211L683.735 283.767C683.023 280.849 682.756 279.49 681.871 278.399L681.824 278.342V278.288H683.874ZM679.779 278.288C680.626 278.9 681.598 279.683 682.524 283.848L682.554 283.986L687.983 308.988H686.754C686.754 308.988 681.371 284.215 681.363 284.181C680.586 280.692 679.618 279.167 677.67 278.374L677.589 278.342V278.288H679.779ZM749.363 287.352C750.866 287.558 751.886 288.735 751.68 290.936C751.059 297.572 744.849 307.799 736.408 308.988L736.151 309.022L736.176 308.97C743.929 307.355 749.743 296.94 750.313 290.852C750.48 289.06 749.689 288.071 748.379 287.891C746.566 287.643 744.28 288.885 742.611 290.978L742.53 291.081L742.486 291.023C744.238 288.568 747.084 287.039 749.363 287.352ZM776.91 285.254C781.146 285.727 782.55 288.712 782.512 290.856C782.376 298.665 776.521 308.082 769.199 309.017L768.976 309.043L769.002 308.99C775.402 308.135 781.225 297.761 781.359 290.031C781.393 288.151 780.245 285.864 776.998 285.325L776.884 285.307L776.91 285.254ZM741.583 274.584C742.093 276.056 740.004 280.826 739.584 281.928L739.568 281.969L732.044 301.256C731.606 302.371 730.902 304.199 730.783 305.557C730.658 306.978 731.375 307.986 732.829 308.513C733.778 308.857 734.61 308.978 734.938 309.012L734.969 309.015L734.947 309.06C731.413 308.811 729.519 307.229 729.72 304.926C729.831 303.662 730.483 302.005 730.923 300.888L730.969 300.771L738.309 281.921C738.802 280.676 740.787 276.264 740.056 275.031L740.026 274.983V274.893L741.583 274.584ZM775.828 285.037L775.803 285.09C767.644 285.945 761.198 294.609 761.06 302.5C761.019 304.869 762.487 308.529 767.618 309.062L767.774 309.078L767.749 309.13C761.679 308.732 759.814 304.26 759.86 301.627C760.002 293.533 766.689 285.73 775.828 285.037ZM738.429 275.226C739.424 276.566 737.615 280.528 736.961 282.217L736.936 282.283L729.889 300.334C729.455 301.401 728.82 302.986 728.702 304.344C728.477 306.908 730.697 308.865 734.787 309.129L734.911 309.136L734.887 309.186C729.943 308.999 727.431 306.643 727.683 303.762C727.801 302.412 728.331 301.076 728.76 299.984L728.814 299.849L735.634 282.305C736.364 280.497 737.865 277.257 736.872 275.705L736.827 275.639V275.549L738.429 275.226ZM776.982 285.104C783.045 285.594 784.911 289.922 784.865 292.554C784.723 300.661 778.504 308.34 769.188 309.169L768.905 309.192L768.93 309.139C777.326 308.279 783.572 299.763 783.713 291.73C783.754 289.364 782.012 285.754 777.106 285.172L776.957 285.155L776.982 285.104ZM751.238 286.209C753.324 286.495 754.655 288.026 754.377 290.995C753.627 298.998 746.428 308.936 736.373 309.191L736.067 309.196L736.093 309.144C745.274 308.579 752.358 298.388 753.053 290.969C753.297 288.358 752.097 287.001 750.303 286.755C747.718 286.401 744.512 288.082 742.479 290.8L742.399 290.908L742.355 290.85C744.572 287.628 748.231 285.797 751.238 286.209ZM775.899 284.889L775.874 284.94C766.055 285.728 758.901 292.515 758.756 300.802C758.706 303.651 760.718 308.634 767.497 309.209L767.704 309.225L767.68 309.275C759.781 308.819 757.5 303.047 757.555 299.929C757.703 291.489 764.903 285.571 775.899 284.889ZM735.368 275.842C736.55 277.38 735.09 280.477 734.269 282.563L734.235 282.649L727.734 299.412C727.296 300.528 726.788 301.774 726.669 303.132C726.394 306.272 729.172 308.986 734.675 309.272L734.842 309.28L734.818 309.331C728.428 309.136 725.347 306.012 725.65 302.55C725.768 301.202 726.188 300.091 726.604 299.062L726.658 298.928L733.134 282.296C733.978 279.988 735.12 277.716 733.951 276.302L733.899 276.241V276.15L735.368 275.842ZM777.053 284.954C784.944 285.413 787.224 291.135 787.169 294.252C787.022 302.653 780.444 308.537 769.177 309.317L768.834 309.339L768.859 309.289C779.351 308.498 785.823 301.762 785.968 293.427C786.018 290.58 784.052 285.691 777.236 285.026L777.027 285.008L777.053 284.954ZM753.162 285.073C755.733 285.426 757.471 287.323 757.122 291.06C756.263 300.234 748.238 309.624 736.352 309.368L735.99 309.358L736.021 309.293C747.666 309.322 754.943 299.637 755.749 291.028C756.065 287.649 754.507 285.932 752.227 285.619C748.869 285.159 744.797 287.187 742.347 290.62L742.267 290.734L742.224 290.676C744.799 286.778 749.379 284.554 753.162 285.073Z" fill="#315394"/>
</g>
<mask id="mask25_92_30" style="mask-type:luminance" maskUnits="userSpaceOnUse" x="887" y="271" width="127" height="36">
<path d="M1013.97 271.559H887.009V306.872H1013.97V271.559Z" fill="white"/>
</mask>
<g mask="url(#mask25_92_30)">
<mask id="mask26_92_30" style="mask-type:luminance" maskUnits="userSpaceOnUse" x="887" y="271" width="127" height="36">
<path d="M1013.97 271.559H887.008V306.872H1013.97V271.559Z" fill="white"/>
</mask>
<g mask="url(#mask26_92_30)">
<path d="M905.672 297.255L915.114 281.245C914.962 280.804 914.787 280.371 914.59 279.945L897.872 272.882L887.176 288.201C887.214 288.452 887.259 288.695 887.305 288.946L905.672 297.255Z" fill="#F7B916"/>
</g>
<mask id="mask27_92_30" style="mask-type:luminance" maskUnits="userSpaceOnUse" x="887" y="271" width="127" height="36">
<path d="M1013.97 271.559H887.008V306.872H1013.97V271.559Z" fill="white"/>
</mask>
<g mask="url(#mask27_92_30)">
<path d="M946.991 299.171H943.106C943.091 299.171 943.076 299.163 943.068 299.156L939.723 295.073L936.378 299.156C936.371 299.171 936.355 299.171 936.34 299.171H933.231C933.208 299.171 933.193 299.163 933.185 299.141C933.178 299.125 933.178 299.103 933.193 299.087L938.127 293.036L933.254 287.038C933.238 287.023 933.238 287 933.246 286.985C933.254 286.977 933.269 286.954 933.284 286.954H937.169C937.184 286.954 937.199 286.962 937.207 286.977L940.141 290.611L943.129 286.969C943.137 286.954 943.152 286.947 943.167 286.947H946.337C946.352 286.947 946.375 286.962 946.383 286.977C946.39 286.992 946.39 287.015 946.375 287.03L941.745 292.595L947.029 299.087C947.044 299.103 947.044 299.125 947.037 299.141C947.029 299.163 947.014 299.171 946.991 299.171Z" fill="#1F3562"/>
</g>
<mask id="mask28_92_30" style="mask-type:luminance" maskUnits="userSpaceOnUse" x="887" y="271" width="127" height="36">
<path d="M1013.97 271.559H887.008V306.872H1013.97V271.559Z" fill="white"/>
</mask>
<g mask="url(#mask28_92_30)">
<path d="M968.02 289.113C966.302 289.113 965.123 290.155 964.789 291.972H970.643V291.85C970.643 290.398 969.571 289.113 968.02 289.113ZM973.661 293.834C973.653 293.849 973.638 293.857 973.615 293.857H964.728C964.91 295.925 966.256 297.103 968.438 297.103C969.776 297.103 971.198 296.647 973.212 295.575C973.243 295.56 973.288 295.59 973.288 295.628L973.281 298.358C973.273 298.38 973.265 298.396 973.25 298.403C971.38 299.194 969.502 299.726 968.027 299.726C964.203 299.726 961.421 296.944 961.421 293.097C961.421 289.258 964.203 286.468 968.027 286.468C971.517 286.468 973.76 288.817 973.76 292.055C973.76 292.572 973.661 293.789 973.661 293.834Z" fill="#1F3562"/>
</g>
<mask id="mask29_92_30" style="mask-type:luminance" maskUnits="userSpaceOnUse" x="887" y="271" width="127" height="36">
<path d="M1013.97 271.559H887.008V306.872H1013.97V271.559Z" fill="white"/>
</mask>
<g mask="url(#mask29_92_30)">
<path d="M991.723 284.438C990.628 284.438 989.746 283.564 989.746 282.492C989.746 281.389 990.628 280.485 991.723 280.485C992.81 280.485 993.699 281.382 993.699 282.492C993.692 283.564 992.81 284.438 991.723 284.438ZM990.119 299.171C990.088 299.171 990.065 299.148 990.065 299.118V287.007C990.065 286.985 990.081 286.962 990.103 286.962H993.319C993.342 286.969 993.357 286.985 993.357 287.007V299.118C993.357 299.148 993.334 299.171 993.312 299.171H990.119Z" fill="#1F3562"/>
</g>
<mask id="mask30_92_30" style="mask-type:luminance" maskUnits="userSpaceOnUse" x="887" y="271" width="127" height="36">
<path d="M1013.97 271.559H887.008V306.872H1013.97V271.559Z" fill="white"/>
</mask>
<g mask="url(#mask30_92_30)">
<path d="M952.868 297.347C952.282 297.347 951.689 297.263 951.013 297.08L951.02 289.311C951.819 289.06 952.51 288.938 953.202 288.938C955.43 288.938 956.92 290.58 956.92 293.021C956.92 295.651 955.331 297.347 952.868 297.347ZM953.742 286.468C952.837 286.468 951.925 286.627 950.967 286.962H947.774C947.744 286.962 947.729 286.985 947.729 287.007V306.872C948.694 306.743 949.872 306.401 951.028 305.58V299.536C951.811 299.65 952.465 299.718 953.088 299.718C957.467 299.718 960.295 297.096 960.295 293.036C960.288 289.174 957.596 286.468 953.742 286.468Z" fill="#1F3562"/>
</g>
<mask id="mask31_92_30" style="mask-type:luminance" maskUnits="userSpaceOnUse" x="887" y="271" width="127" height="36">
<path d="M1013.97 271.559H887.008V306.872H1013.97V271.559Z" fill="white"/>
</mask>
<g mask="url(#mask31_92_30)">
<path d="M984.273 296.343C983.269 296.868 982.38 297.118 981.544 297.118C979.559 297.118 978.373 295.72 978.373 293.371C978.373 290.664 979.886 288.908 982.235 288.908C982.882 288.908 983.513 289.068 984.28 289.41V296.343H984.273ZM984.273 280.545V286.886C983.338 286.612 982.509 286.49 981.68 286.49C977.872 286.49 974.998 289.364 974.998 293.173C974.998 296.966 977.537 299.711 981.019 299.711C982.228 299.711 983.361 299.407 984.691 298.723L984.683 299.817C985.565 299.65 986.569 299.293 987.565 298.586V279.253C986.592 279.382 985.436 279.709 984.273 280.545Z" fill="#1F3562"/>
</g>
<mask id="mask32_92_30" style="mask-type:luminance" maskUnits="userSpaceOnUse" x="887" y="271" width="127" height="36">
<path d="M1013.97 271.559H887.008V306.872H1013.97V271.559Z" fill="white"/>
</mask>
<g mask="url(#mask32_92_30)">
<path d="M1004.49 296.32C1003.52 296.875 1002.69 297.149 1001.95 297.149C999.827 297.149 998.558 295.75 998.558 293.401C998.558 290.733 1000.06 288.938 1002.28 288.938C1002.88 288.938 1003.61 289.166 1004.49 289.638V296.32ZM1007.79 286.817C1007.79 286.741 1007.72 286.681 1007.65 286.681L1005.06 286.688C1004.97 286.688 1004.91 286.749 1004.91 286.825V287.266H1004.84C1003.65 286.741 1002.62 286.498 1001.61 286.498C998.026 286.498 995.205 289.478 995.205 293.295C995.205 297.149 997.721 299.726 1001.48 299.726C1002.47 299.726 1003.77 299.658 1004.97 298.274V299.833C1005.82 299.65 1006.82 299.293 1007.78 298.609L1007.79 286.817Z" fill="#1F3562"/>
</g>
<mask id="mask33_92_30" style="mask-type:luminance" maskUnits="userSpaceOnUse" x="887" y="271" width="127" height="36">
<path d="M1013.97 271.559H887.008V306.872H1013.97V271.559Z" fill="white"/>
</mask>
<g mask="url(#mask33_92_30)">
<path d="M924.351 296.1H932.394C932.273 296.997 931.969 298.054 931.269 299.125H924.366H922.998H922.907C921.88 299.125 921.036 298.335 920.938 297.331C920.938 297.316 920.93 297.301 920.922 297.293V289.045V281.42C920.922 281.404 920.93 281.397 920.938 281.382C921.036 280.378 921.88 279.58 922.907 279.58C922.945 279.58 922.967 279.587 922.998 279.587H932.379C932.257 280.485 931.953 281.564 931.254 282.628H924.351V286.947H931.186C931.216 286.947 931.239 286.969 931.239 286.992V289.987C931.239 290.01 931.216 290.033 931.186 290.033H924.351V296.1Z" fill="#1F3562"/>
</g>
<mask id="mask34_92_30" style="mask-type:luminance" maskUnits="userSpaceOnUse" x="887" y="271" width="127" height="36">
<path d="M1013.97 271.559H887.008V306.872H1013.97V271.559Z" fill="white"/>
</mask>
<g mask="url(#mask34_92_30)">
<path d="M946.999 299.171H943.114C943.099 299.171 943.083 299.171 943.076 299.156L939.731 295.073L936.386 299.156C936.378 299.171 936.363 299.171 936.348 299.171H933.231C933.216 299.171 933.193 299.163 933.185 299.141C933.178 299.125 933.178 299.103 933.193 299.087L938.119 293.036L933.246 287.038C933.231 287.023 933.231 287 933.238 286.985C933.246 286.969 933.261 286.954 933.284 286.954H937.169C937.184 286.954 937.199 286.962 937.207 286.977L940.141 290.611L943.129 286.969C943.137 286.962 943.152 286.947 943.167 286.947H946.337C946.352 286.947 946.375 286.962 946.383 286.977C946.39 286.992 946.39 287.015 946.375 287.03L941.745 292.595L947.029 299.087C947.044 299.103 947.044 299.125 947.037 299.141C947.029 299.163 947.014 299.171 946.999 299.171Z" fill="#1F3562"/>
</g>
<mask id="mask35_92_30" style="mask-type:luminance" maskUnits="userSpaceOnUse" x="887" y="271" width="127" height="36">
<path d="M1013.97 271.559H887.008V306.872H1013.97V271.559Z" fill="white"/>
</mask>
<g mask="url(#mask35_92_30)">
<path d="M968.019 289.106C966.301 289.106 965.123 290.147 964.788 291.964H970.642V291.842C970.642 290.398 969.57 289.106 968.019 289.106ZM973.66 293.827C973.652 293.842 973.637 293.849 973.614 293.849H964.727C964.91 295.917 966.255 297.096 968.43 297.096C969.768 297.096 971.189 296.64 973.204 295.568C973.234 295.545 973.28 295.583 973.28 295.621L973.272 298.35C973.272 298.373 973.257 298.388 973.242 298.396C971.372 299.186 969.494 299.719 968.019 299.719C964.187 299.719 961.413 296.936 961.413 293.089C961.413 289.25 964.187 286.46 968.019 286.46C971.509 286.46 973.751 288.809 973.751 292.048C973.759 292.572 973.66 293.789 973.66 293.827Z" fill="#1F3562"/>
</g>
<mask id="mask36_92_30" style="mask-type:luminance" maskUnits="userSpaceOnUse" x="887" y="271" width="127" height="36">
<path d="M1013.97 271.559H887.008V306.872H1013.97V271.559Z" fill="white"/>
</mask>
<g mask="url(#mask36_92_30)">
<path d="M991.723 284.438C990.628 284.438 989.746 283.564 989.746 282.492C989.746 281.389 990.636 280.485 991.723 280.485C992.81 280.485 993.699 281.382 993.699 282.492C993.692 283.564 992.81 284.438 991.723 284.438ZM990.119 299.171C990.088 299.171 990.065 299.156 990.065 299.125V287.007C990.065 286.985 990.081 286.962 990.103 286.962H993.319C993.342 286.969 993.357 286.985 993.357 287.007V299.118C993.357 299.148 993.334 299.164 993.312 299.164H990.119V299.171Z" fill="#1F3562"/>
</g>
<mask id="mask37_92_30" style="mask-type:luminance" maskUnits="userSpaceOnUse" x="887" y="271" width="127" height="36">
<path d="M1013.97 271.559H887.008V306.872H1013.97V271.559Z" fill="white"/>
</mask>
<g mask="url(#mask37_92_30)">
<path d="M952.868 297.347C952.282 297.347 951.697 297.271 951.013 297.088L951.02 289.318C951.819 289.06 952.51 288.946 953.202 288.946C955.43 288.946 956.92 290.588 956.92 293.028C956.92 295.651 955.331 297.347 952.868 297.347ZM953.742 286.468C952.837 286.468 951.925 286.635 950.967 286.962H947.774C947.744 286.962 947.729 286.985 947.729 287.015V306.872C948.694 306.743 949.872 306.401 951.028 305.58V299.544C951.811 299.658 952.465 299.726 953.088 299.726C957.467 299.726 960.295 297.103 960.295 293.044C960.288 289.166 957.596 286.468 953.742 286.468Z" fill="#1F3562"/>
</g>
<mask id="mask38_92_30" style="mask-type:luminance" maskUnits="userSpaceOnUse" x="887" y="271" width="127" height="36">
<path d="M1013.97 271.559H887.008V306.872H1013.97V271.559Z" fill="white"/>
</mask>
<g mask="url(#mask38_92_30)">
<path d="M984.273 296.343C983.269 296.868 982.38 297.118 981.544 297.118C979.559 297.118 978.373 295.72 978.373 293.371C978.373 290.664 979.894 288.9 982.235 288.9C982.882 288.9 983.513 289.052 984.28 289.402V296.343H984.273ZM984.273 280.545V286.886C983.338 286.612 982.509 286.49 981.68 286.49C977.872 286.49 974.998 289.356 974.998 293.173C974.998 296.966 977.537 299.718 981.027 299.718C982.235 299.718 983.368 299.414 984.699 298.73L984.691 299.825C985.573 299.658 986.576 299.3 987.572 298.601V279.245C986.592 279.382 985.436 279.709 984.273 280.545Z" fill="#1F3562"/>
</g>
<mask id="mask39_92_30" style="mask-type:luminance" maskUnits="userSpaceOnUse" x="887" y="271" width="127" height="36">
<path d="M1013.97 271.559H887.008V306.872H1013.97V271.559Z" fill="white"/>
</mask>
<g mask="url(#mask39_92_30)">
<path d="M1004.49 296.313C1003.52 296.868 1002.69 297.141 1001.95 297.141C999.827 297.141 998.558 295.742 998.558 293.393C998.558 290.725 1000.06 288.923 1002.28 288.923C1002.88 288.923 1003.61 289.151 1004.49 289.623V296.313ZM1007.79 286.81C1007.79 286.734 1007.72 286.673 1007.65 286.673L1005.06 286.68C1004.98 286.68 1004.91 286.741 1004.91 286.817V287.258H1004.84C1003.65 286.734 1002.62 286.49 1001.61 286.49C998.026 286.49 995.205 289.471 995.205 293.287C995.205 297.141 997.721 299.718 1001.48 299.718C1002.48 299.718 1003.77 299.65 1004.97 298.266V299.825C1005.82 299.642 1006.82 299.285 1007.77 298.601L1007.79 286.81Z" fill="#1F3562"/>
</g>
<mask id="mask40_92_30" style="mask-type:luminance" maskUnits="userSpaceOnUse" x="887" y="271" width="127" height="36">
<path d="M1013.97 271.559H887.008V306.872H1013.97V271.559Z" fill="white"/>
</mask>
<g mask="url(#mask40_92_30)">
<path d="M924.359 296.1H932.403C932.281 296.997 931.977 298.054 931.277 299.125H924.375H923.006H922.915C921.889 299.125 921.052 298.335 920.946 297.324C920.946 297.308 920.938 297.293 920.931 297.286V289.045V281.42C920.931 281.404 920.938 281.389 920.946 281.382C921.045 280.378 921.889 279.58 922.915 279.58C922.945 279.58 922.976 279.587 923.006 279.587L932.387 279.58C932.266 280.477 931.962 281.556 931.262 282.628H924.359V286.947H931.194C931.224 286.947 931.247 286.969 931.247 286.992V289.987C931.247 290.01 931.224 290.033 931.194 290.033H924.359V296.1Z" fill="#1F3562"/>
</g>
<mask id="mask41_92_30" style="mask-type:luminance" maskUnits="userSpaceOnUse" x="887" y="271" width="127" height="36">
<path d="M1013.97 271.559H887.008V306.872H1013.97V271.559Z" fill="white"/>
</mask>
<g mask="url(#mask41_92_30)">
<path d="M1011.22 286.49H1011.59C1012.01 286.49 1012.2 286.376 1012.2 286.087C1012.2 285.791 1011.99 285.662 1011.57 285.662H1011.22V286.49H1011.22ZM1011.66 285.304C1012.41 285.304 1012.78 285.555 1012.78 286.019C1012.78 286.407 1012.58 286.665 1012.2 286.749L1012.78 287.942H1012.15L1011.63 286.84H1011.22V287.942H1010.65V285.297H1011.66V285.304ZM1010.21 285.228C1009.82 285.624 1009.6 286.133 1009.6 286.665C1009.6 287.197 1009.81 287.692 1010.18 288.072C1010.56 288.459 1011.07 288.672 1011.57 288.672C1012.13 288.672 1012.63 288.467 1013.03 288.087C1013.41 287.722 1013.61 287.228 1013.61 286.696C1013.61 286.125 1013.41 285.639 1013.04 285.251C1012.65 284.863 1012.16 284.651 1011.6 284.651C1011.06 284.658 1010.58 284.848 1010.21 285.228ZM1013.3 285.016C1013.73 285.464 1013.97 286.034 1013.97 286.665C1013.97 287.319 1013.72 287.897 1013.28 288.338C1012.81 288.786 1012.22 289.03 1011.6 289.03C1010.98 289.03 1010.39 288.779 1009.94 288.323C1009.49 287.874 1009.25 287.289 1009.25 286.673C1009.25 286.049 1009.51 285.449 1009.96 284.993C1010.4 284.552 1010.96 284.324 1011.6 284.324C1012.25 284.309 1012.84 284.552 1013.3 285.016Z" fill="#1F3562"/>
</g>
<mask id="mask42_92_30" style="mask-type:luminance" maskUnits="userSpaceOnUse" x="887" y="271" width="127" height="36">
<path d="M1013.97 271.559H887.008V306.872H1013.97V271.559Z" fill="white"/>
</mask>
<g mask="url(#mask42_92_30)">
<path d="M903.931 282.674L903.346 281.024L898.404 274.418L899.294 274.197L907.816 281.564L912.826 280.127C913.411 279.975 914.08 279.945 914.597 279.945C913.024 276.546 910.135 273.756 906.334 272.396C898.807 269.712 890.536 273.65 887.852 281.176C887.024 283.503 886.826 285.905 887.176 288.193L899.187 284.02L903.931 282.674Z" fill="#1F3561"/>
</g>
<mask id="mask43_92_30" style="mask-type:luminance" maskUnits="userSpaceOnUse" x="887" y="271" width="127" height="36">
<path d="M1013.97 271.559H887.008V306.872H1013.97V271.559Z" fill="white"/>
</mask>
<g mask="url(#mask43_92_30)">
<path d="M915.122 281.245C914.681 281.526 914.035 281.906 913.396 282.111L908.371 283.541L905.018 294.306L904.152 294.587L904.859 286.369L904.463 284.666L899.758 286.011L887.312 288.938C888.301 293.728 891.691 297.901 896.633 299.658C904.159 302.341 912.431 298.403 915.107 290.885C916.255 287.646 916.179 284.263 915.122 281.245Z" fill="#1F3561"/>
</g>
<mask id="mask44_92_30" style="mask-type:luminance" maskUnits="userSpaceOnUse" x="887" y="271" width="127" height="36">
<path d="M1013.97 271.559H887.008V306.872H1013.97V271.559Z" fill="white"/>
</mask>
<g mask="url(#mask44_92_30)">
<path d="M914.301 299.422C913.51 299.422 913.016 298.799 913.016 298.038C913.016 297.225 913.579 296.655 914.301 296.655C915.016 296.655 915.578 297.225 915.578 298.038C915.578 298.859 915.016 299.422 914.301 299.422ZM914.301 296.503C913.488 296.503 912.788 297.118 912.788 298.038C912.788 298.913 913.419 299.566 914.301 299.566C915.107 299.566 915.806 298.958 915.806 298.038C915.799 297.118 915.107 296.503 914.301 296.503Z" fill="#1F3561"/>
</g>
<mask id="mask45_92_30" style="mask-type:luminance" maskUnits="userSpaceOnUse" x="887" y="271" width="127" height="36">
<path d="M1013.97 271.559H887.008V306.872H1013.97V271.559Z" fill="white"/>
</mask>
<g mask="url(#mask45_92_30)">
<path d="M913.936 297.917V297.354H914.316C914.506 297.354 914.734 297.385 914.734 297.613C914.734 297.886 914.521 297.909 914.293 297.909H913.936V297.917ZM915.015 297.651C915.015 297.286 914.787 297.126 914.354 297.126H913.662V298.943H913.959V298.168H914.24L914.711 298.943H915.046L914.536 298.145C914.81 298.114 915.015 297.985 915.015 297.651Z" fill="#1F3561"/>
</g>
</g>
<path d="M394.857 30.9823L417.582 8.41853C418.337 7.66371 419.577 7.66371 420.332 8.41853L430.899 18.986C431.654 19.7409 431.654 20.9809 430.899 21.7358L408.174 44.2995C407.419 45.0544 406.179 45.0544 405.424 44.2995L394.857 33.732C394.102 32.9772 394.102 31.7371 394.857 30.9823Z" fill="url(#paint0_linear_92_30)" stroke="white" stroke-width="1.79548" stroke-miterlimit="10"/>
<path d="M414.481 25.1595L437.045 2.59566C437.8 1.84084 439.04 1.84084 439.795 2.59566L450.362 13.1632C451.117 13.918 451.117 15.1581 450.362 15.9129L427.798 38.4767C427.044 39.2315 425.803 39.2315 425.049 38.4767L414.481 27.9092C413.726 27.1543 413.726 25.9143 414.481 25.1595Z" fill="url(#paint1_linear_92_30)" stroke="white" stroke-width="1.79548" stroke-miterlimit="10"/>
<path d="M489.021 8.74219V33.193H483.063V18.5279L477.591 33.193H472.792L467.293 18.501V33.193H461.335V8.74219H468.371L475.218 25.6718L482.012 8.74219H489.021Z" fill="#002159"/>
<path d="M513.606 13.7563L501.421 42.4126H495.005L499.453 32.5191L491.554 13.7563H498.213L502.715 25.9144L507.163 13.7563H513.606Z" fill="#002159"/>
<path d="M534.364 22.7603C535.227 23.8656 535.658 25.1326 535.658 26.5344C535.658 28.5832 534.957 30.2007 533.528 31.3869C532.1 32.573 530.105 33.193 527.571 33.193H516.194V8.74219H527.193C529.673 8.74219 531.614 9.3083 533.016 10.4405C534.418 11.5728 535.119 13.1094 535.119 15.0773C535.119 16.5061 534.741 17.7192 533.987 18.6627C533.232 19.6062 532.234 20.2802 530.967 20.6576C532.369 20.9541 533.501 21.655 534.364 22.7603ZM522.098 18.6357H526.007C526.978 18.6357 527.732 18.4201 528.245 17.9888C528.757 17.5574 529.026 16.9374 529.026 16.1017C529.026 15.266 528.757 14.619 528.245 14.1877C527.732 13.7564 526.978 13.5137 526.007 13.5137H522.098V18.6357ZM528.811 27.6936C529.35 27.2353 529.619 26.5883 529.619 25.7257C529.619 24.863 529.323 24.1891 528.757 23.7038C528.191 23.2186 527.409 22.976 526.411 22.976H522.098V28.3676H526.492C527.49 28.3945 528.271 28.1519 528.811 27.6936Z" fill="#002159"/>
<path d="M548.275 14.4842C549.326 13.8642 550.485 13.5676 551.752 13.5676V19.8758H550.108C548.625 19.8758 547.52 20.1993 546.765 20.8463C546.01 21.4933 545.66 22.5985 545.66 24.216V33.22H539.702V13.7563H545.66V16.9913C546.361 15.9399 547.223 15.1042 548.275 14.4842Z" fill="#002159"/>
<path d="M555.013 10.818C554.339 10.198 554.016 9.44315 554.016 8.52658C554.016 7.61001 554.339 6.82823 555.013 6.2082C555.687 5.58816 556.523 5.29163 557.574 5.29163C558.598 5.29163 559.434 5.58816 560.108 6.2082C560.782 6.82823 561.106 7.58305 561.106 8.52658C561.106 9.44315 560.782 10.198 560.108 10.818C559.434 11.438 558.598 11.7346 557.574 11.7346C556.523 11.7346 555.66 11.438 555.013 10.818ZM560.512 13.7564V33.1931H554.555V13.7564H560.512Z" fill="#002159"/>
<path d="M565.257 18.1774C566.093 16.6677 567.225 15.5085 568.708 14.6998C570.19 13.8911 571.862 13.4867 573.776 13.4867C576.202 13.4867 578.251 14.1337 579.895 15.4007C581.54 16.6677 582.618 18.4739 583.103 20.7923H576.768C576.229 19.3096 575.205 18.5548 573.668 18.5548C572.59 18.5548 571.7 18.9861 571.053 19.8218C570.406 20.6575 570.083 21.8706 570.083 23.4611C570.083 25.0516 570.406 26.2648 571.053 27.1005C571.7 27.9361 572.563 28.3675 573.668 28.3675C575.205 28.3675 576.229 27.6127 576.768 26.13H583.103C582.591 28.3944 581.513 30.2006 579.868 31.4946C578.224 32.7886 576.202 33.4356 573.776 33.4356C571.862 33.4356 570.19 33.0312 568.708 32.2225C567.225 31.4137 566.093 30.2545 565.257 28.7449C564.421 27.2352 564.017 25.483 564.017 23.4611C564.044 21.4662 564.448 19.687 565.257 18.1774Z" fill="#002159"/>
<path d="M598.443 33.1929L592.512 25.0516V33.1929H586.555V7.42114H592.512V21.6549L598.389 13.7563H605.722L597.634 23.515L605.776 33.1929H598.443Z" fill="#002159"/>
<path d="M610.708 32.5999C609.387 32.0068 608.336 31.225 607.581 30.2276C606.826 29.2301 606.395 28.0979 606.287 26.8309H612.164C612.245 27.5048 612.541 28.044 613.107 28.4753C613.674 28.9066 614.348 29.0953 615.156 29.0953C615.911 29.0953 616.477 28.9605 616.882 28.664C617.286 28.3675 617.502 27.9901 617.502 27.5318C617.502 26.9657 617.205 26.5613 616.639 26.2917C616.046 26.0221 615.129 25.7256 613.808 25.4021C612.407 25.0786 611.247 24.7282 610.331 24.3777C609.414 24.0272 608.605 23.4611 607.932 22.6793C607.258 21.8976 606.934 20.8462 606.934 19.5253C606.934 18.42 607.231 17.3956 607.851 16.479C608.471 15.5625 609.36 14.8346 610.573 14.2954C611.76 13.7563 613.188 13.4867 614.833 13.4867C617.259 13.4867 619.2 14.0798 620.602 15.2929C622.004 16.506 622.812 18.0965 623.028 20.0914H617.529C617.448 19.4174 617.151 18.8783 616.639 18.5009C616.127 18.0965 615.48 17.9078 614.671 17.9078C613.97 17.9078 613.431 18.0426 613.081 18.3122C612.703 18.5817 612.514 18.9322 612.514 19.4174C612.514 19.9836 612.811 20.3879 613.404 20.6575C613.997 20.9271 614.914 21.2236 616.181 21.4932C617.609 21.8706 618.796 22.2211 619.685 22.5985C620.602 22.9489 621.384 23.542 622.058 24.3507C622.731 25.1595 623.109 26.2378 623.109 27.5587C623.109 28.691 622.785 29.7154 622.138 30.605C621.491 31.4946 620.575 32.1955 619.389 32.7077C618.203 33.2199 616.801 33.4625 615.237 33.4625C613.539 33.4625 612.029 33.166 610.708 32.5999Z" fill="#002159"/>
<defs>
<linearGradient id="paint0_linear_92_30" x1="412.205" y1="14.1936" x2="423.761" y2="33.333" gradientUnits="userSpaceOnUse">
<stop stop-color="#FF915A"/>
<stop offset="1" stop-color="#FF5A5A"/>
</linearGradient>
<linearGradient id="paint1_linear_92_30" x1="431.737" y1="8.4034" x2="443.296" y2="27.52" gradientUnits="userSpaceOnUse">
<stop stop-color="#FF915A"/>
<stop offset="1" stop-color="#FF5A5A"/>
</linearGradient>
<clipPath id="clip0_92_30">
<rect width="171.571" height="47.7517" fill="white" transform="translate(204.23 267.449)"/>
</clipPath>
</defs>
</svg>
