<svg width="52" height="74" viewBox="0 0 52 74" fill="none" xmlns="http://www.w3.org/2000/svg">
<path d="M0.9 61.3C3.16667 59.5 4.2 58.6667 4 58.8C10.5333 53.4 15.6667 48.9667 19.4 45.5C23.2 42.0333 26.4 38.4 29 34.6C31.6 30.8 32.9 27.1 32.9 23.5C32.9 20.7667 32.2667 18.6333 31 17.1C29.7333 15.5667 27.8333 14.8 25.3 14.8C22.7667 14.8 20.7667 15.7667 19.3 17.7C17.9 19.5667 17.2 22.2333 17.2 25.7H0.7C0.833333 20.0333 2.03333 15.3 4.3 11.5C6.63333 7.7 9.66667 4.9 13.4 3.1C17.2 1.3 21.4 0.399995 26 0.399995C33.9333 0.399995 39.9 2.43333 43.9 6.49999C47.9667 10.5667 50 15.8667 50 22.4C50 29.5333 47.5667 36.1667 42.7 42.3C37.8333 48.3667 31.6333 54.3 24.1 60.1H51.1V74H0.9V61.3Z" fill="#FA7436" fill-opacity="0.3"/>
</svg>
