<svg width="51" height="76" viewBox="0 0 51 76" fill="none" xmlns="http://www.w3.org/2000/svg">
<path d="M1.1 22.6C1.36667 15.4667 3.7 9.96666 8.1 6.1C12.5 2.23333 18.4667 0.299996 26 0.299996C31 0.299996 35.2667 1.16666 38.8 2.9C42.4 4.63333 45.1 7 46.9 10C48.7667 13 49.7 16.3667 49.7 20.1C49.7 24.5 48.6 28.1 46.4 30.9C44.2 33.6333 41.6333 35.5 38.7 36.5V36.9C42.5 38.1667 45.5 40.2667 47.7 43.2C49.9 46.1333 51 49.9 51 54.5C51 58.6333 50.0333 62.3 48.1 65.5C46.2333 68.6333 43.4667 71.1 39.8 72.9C36.2 74.7 31.9 75.6 26.9 75.6C18.9 75.6 12.5 73.6333 7.7 69.7C2.96667 65.7667 0.466667 59.8333 0.2 51.9H16.8C16.8667 54.8333 17.7 57.1667 19.3 58.9C20.9 60.5667 23.2333 61.4 26.3 61.4C28.9 61.4 30.9 60.6667 32.3 59.2C33.7667 57.6667 34.5 55.6667 34.5 53.2C34.5 50 33.4667 47.7 31.4 46.3C29.4 44.8333 26.1667 44.1 21.7 44.1H18.5V30.2H21.7C25.1 30.2 27.8333 29.6333 29.9 28.5C32.0333 27.3 33.1 25.2 33.1 22.2C33.1 19.8 32.4333 17.9333 31.1 16.6C29.7667 15.2667 27.9333 14.6 25.6 14.6C23.0667 14.6 21.1667 15.3667 19.9 16.9C18.7 18.4333 18 20.3333 17.8 22.6H1.1Z" fill="#FA7436" fill-opacity="0.3"/>
</svg>
