<svg width="186" height="60" viewBox="0 0 186 60" fill="none" xmlns="http://www.w3.org/2000/svg">
<mask id="mask0_2_1562" style="mask-type:luminance" maskUnits="userSpaceOnUse" x="0" y="0" width="186" height="60">
<path d="M185.817 0.804932H0.0513916V59.5854H185.817V0.804932Z" fill="white"/>
</mask>
<g mask="url(#mask0_2_1562)">
<mask id="mask1_2_1562" style="mask-type:luminance" maskUnits="userSpaceOnUse" x="0" y="0" width="186" height="60">
<path d="M185.817 0.804932H0.0513916V59.5854H185.817V0.804932Z" fill="white"/>
</mask>
<g mask="url(#mask1_2_1562)">
<path d="M53.1324 42.4755C49.592 33.569 37.5275 9.48939 34.9863 5.57892C32.4204 1.63144 29.2871 0.804932 27.0913 0.804932C21.1454 0.804932 18.1478 6.6398 17.8887 7.17025C17.1363 8.63822 2.32086 37.4425 0.680186 42.7223C-1.09618 48.4584 1.30931 52.9117 1.53136 53.3188C1.77808 53.7752 5.15811 59.5854 12.5103 59.5854C12.8064 59.5854 13.1148 59.5731 13.4232 59.5607C19.184 59.1907 24.4884 54.133 26.9803 51.3574C31.7913 57.5007 36.886 59.0796 40.4387 59.2647C44.6206 59.4867 47.6059 57.8831 47.8896 57.735C48.0746 57.6363 50.2704 56.3904 51.9975 53.9603C53.6875 51.6288 55.2295 47.7306 53.1324 42.4755ZM27.1653 45.8556C24.5871 42.5372 20.5533 36.468 20.5533 32.2738C20.5533 25.8961 26.5609 25.8221 26.8076 25.8221C28.732 25.8221 33.1976 26.5129 33.1976 32.9769C33.1976 38.0223 29.2624 43.3637 27.1653 45.8556ZM49.2466 51.8508C47.9636 53.7135 46.2489 54.6757 46.2119 54.7004C45.8419 54.9101 37.3054 59.425 29.3241 48.6928C31.5446 46.164 36.664 39.6383 36.664 32.9892C36.664 25.1436 31.3472 22.3557 26.7952 22.3557C26.0181 22.3557 23.3042 22.4914 20.837 24.2678C19.11 25.5014 17.0499 27.9069 17.0499 32.2984C17.0499 38.2073 22.564 45.7199 24.8215 48.5571C22.8971 50.7899 18.0368 55.7983 13.1888 56.1067C7.34156 56.4768 4.67701 51.8508 4.56599 51.6534C4.55365 51.6288 4.55365 51.6411 4.55365 51.6164C4.47964 51.4807 2.64159 48.15 3.99854 43.7708C5.24446 39.7493 15.6436 19.1114 20.985 8.76157C20.9974 8.74924 20.9974 8.72457 21.0097 8.71223C21.0344 8.66289 23.1685 4.29599 27.079 4.29599C29.0034 4.29599 30.6687 5.36921 32.0503 7.47864C34.4188 11.1301 46.4463 35.1234 49.888 43.7585C51.0969 46.7684 50.8749 49.4947 49.2466 51.8508Z" fill="#E56069"/>
</g>
<mask id="mask2_2_1562" style="mask-type:luminance" maskUnits="userSpaceOnUse" x="0" y="0" width="186" height="60">
<path d="M185.817 0.804932H0.0513916V59.5854H185.817V0.804932Z" fill="white"/>
</mask>
<g mask="url(#mask2_2_1562)">
<path d="M83.1953 21.7883C83.1829 21.8006 82.1097 21.85 82.0974 22.8615V23.4783C82.0974 23.4783 80.9501 21.2085 76.5462 21.2085C72.1423 21.2085 65.2712 24.4158 65.2712 32.7549C65.2712 41.0939 72.7221 44.2396 76.2502 44.2396C79.7782 44.2396 80.8638 43.1787 82.085 41.8711V42.6483C82.0974 43.6598 83.1706 43.7215 83.1706 43.7215H87.7225V21.7883H83.1953ZM77.1384 39.0215C73.894 39.0215 70.8964 36.6037 70.8964 32.4835C70.8964 28.3633 74.8192 26.3896 77.3851 26.3896C79.9509 26.3896 82.1097 28.6594 82.1097 28.6594V36.8381C82.0974 36.8381 80.3704 39.0215 77.1384 39.0215Z" fill="#E56069"/>
</g>
<mask id="mask3_2_1562" style="mask-type:luminance" maskUnits="userSpaceOnUse" x="0" y="0" width="186" height="60">
<path d="M185.817 0.804932H0.0513916V59.5854H185.817V0.804932Z" fill="white"/>
</mask>
<g mask="url(#mask3_2_1562)">
<path d="M96.7769 21.7883H91.3121V43.7215H96.7769V21.7883Z" fill="#E56069"/>
</g>
<mask id="mask4_2_1562" style="mask-type:luminance" maskUnits="userSpaceOnUse" x="0" y="0" width="186" height="60">
<path d="M185.817 0.804932H0.0513916V59.5854H185.817V0.804932Z" fill="white"/>
</mask>
<g mask="url(#mask4_2_1562)">
<path d="M105.794 23.6262V22.8614C105.782 21.8499 104.709 21.7882 104.709 21.7882L104.696 21.7759H100.157V43.7091H104.709C104.709 43.7091 105.782 43.6474 105.794 42.6358V28.3756C105.794 28.3756 107.854 25.4273 113.331 26.6362V21.4551C113.331 21.4551 108.372 20.1969 105.794 23.6262Z" fill="#E56069"/>
</g>
<mask id="mask5_2_1562" style="mask-type:luminance" maskUnits="userSpaceOnUse" x="0" y="0" width="186" height="60">
<path d="M185.817 0.804932H0.0513916V59.5854H185.817V0.804932Z" fill="white"/>
</mask>
<g mask="url(#mask5_2_1562)">
<path d="M126.876 21.2331C123.533 21.2331 121.263 23.6386 121.263 23.6386V11.4014H115.626V43.7337H120.178C120.178 43.7337 121.251 43.672 121.263 42.6605V41.8833C121.263 41.8833 123.583 44.2518 126.876 44.2518C130.17 44.2518 138.201 41.7846 138.201 32.9768C138.201 24.169 130.207 21.2331 126.876 21.2331ZM125.951 39.0708C123.052 39.0708 121.263 36.8503 121.263 36.8503V28.6716C121.263 28.6716 123.398 26.4511 126.198 26.4511C128.998 26.4511 132.489 28.5853 132.489 32.7671C132.489 36.949 128.862 39.0708 125.951 39.0708Z" fill="#E56069"/>
</g>
<mask id="mask6_2_1562" style="mask-type:luminance" maskUnits="userSpaceOnUse" x="0" y="0" width="186" height="60">
<path d="M185.817 0.804932H0.0513916V59.5854H185.817V0.804932Z" fill="white"/>
</mask>
<g mask="url(#mask6_2_1562)">
<path d="M174.493 21.2331C171.15 21.2331 168.88 23.6386 168.88 23.6386V11.4014H163.243V43.7337H167.795C167.795 43.7337 168.868 43.672 168.88 42.6605V41.8833C168.88 41.8833 171.199 44.2518 174.493 44.2518C177.787 44.2518 185.817 41.7846 185.817 32.9768C185.817 24.169 177.824 21.2331 174.493 21.2331ZM173.568 39.0708C170.669 39.0708 168.88 36.8503 168.88 36.8503V28.6716C168.88 28.6716 171.014 26.4511 173.815 26.4511C176.615 26.4511 180.106 28.5853 180.106 32.7671C180.106 36.949 176.467 39.0708 173.568 39.0708Z" fill="#E56069"/>
</g>
<mask id="mask7_2_1562" style="mask-type:luminance" maskUnits="userSpaceOnUse" x="0" y="0" width="186" height="60">
<path d="M185.817 0.804932H0.0513916V59.5854H185.817V0.804932Z" fill="white"/>
</mask>
<g mask="url(#mask7_2_1562)">
<path d="M160.307 29.1528C160.307 24.2184 155.952 21.2332 151.647 21.2332C147.342 21.2332 145.701 23.688 145.701 23.688V22.8738C145.689 21.8623 144.616 21.8006 144.616 21.8006L144.603 21.7883H140.495V43.7215H146.133V28.388C146.787 27.5491 148.218 26.2292 150.759 26.2292C154.46 26.2292 154.608 30.078 154.608 30.078V43.7338H160.319V29.1528H160.307Z" fill="#E56069"/>
</g>
<mask id="mask8_2_1562" style="mask-type:luminance" maskUnits="userSpaceOnUse" x="0" y="0" width="186" height="60">
<path d="M185.817 0.804932H0.0513916V59.5854H185.817V0.804932Z" fill="white"/>
</mask>
<g mask="url(#mask8_2_1562)">
<path d="M97.7763 15.1268C97.7763 17.1869 96.0986 18.8646 94.0386 18.8646C91.9785 18.8646 90.3008 17.1869 90.3008 15.1268C90.3008 13.0667 91.9785 11.389 94.0386 11.389C96.111 11.389 97.7763 13.0667 97.7763 15.1268Z" fill="#E56069"/>
</g>
</g>
</svg>
