<svg width="225" height="223" viewBox="0 0 225 223" fill="none" xmlns="http://www.w3.org/2000/svg">
<path d="M1.18115 209.67H223.017V214.206C223.017 215.163 222.828 216.111 222.462 216.995C222.096 217.879 221.559 218.683 220.882 219.36C220.205 220.036 219.402 220.573 218.517 220.94C217.633 221.306 216.685 221.494 215.728 221.494H8.46935C6.5364 221.494 4.68262 220.726 3.31582 219.36C1.94902 217.993 1.18115 216.139 1.18115 214.206V209.67Z" fill="#D0CDE1"/>
<path d="M215.728 222.664H8.46943C6.22524 222.664 4.0728 221.773 2.48481 220.187C0.896824 218.601 0.00312997 216.45 0 214.206V209.67C0 209.357 0.12445 209.056 0.345974 208.835C0.567498 208.613 0.86795 208.489 1.18123 208.489H223.017C223.33 208.489 223.63 208.613 223.852 208.835C224.073 209.056 224.198 209.357 224.198 209.67V214.206C224.195 216.45 223.301 218.601 221.713 220.187C220.125 221.773 217.973 222.664 215.728 222.664ZM2.36246 210.851V214.206C2.36559 215.824 3.01039 217.374 4.15533 218.517C5.30027 219.659 6.85181 220.301 8.46943 220.301H215.728C217.346 220.301 218.898 219.659 220.043 218.517C221.187 217.374 221.832 215.824 221.835 214.206V210.851H2.36246Z" fill="#D0CDE1"/>
<path d="M193.911 25.2087H30.2867C24.8524 25.2087 20.447 29.6141 20.447 35.0484V138.548C20.447 143.982 24.8524 148.388 30.2867 148.388H193.911C199.345 148.388 203.751 143.982 203.751 138.548V35.0484C203.751 29.6141 199.345 25.2087 193.911 25.2087Z" fill="#75F5ED"/>
<path d="M193.911 149.557H30.2868C27.3659 149.557 24.5645 148.398 22.498 146.334C20.4315 144.269 19.269 141.469 19.2659 138.548V35.0369C19.269 32.116 20.4315 29.3159 22.498 27.2516C24.5645 25.1873 27.3659 24.0278 30.2868 24.0278H193.911C196.832 24.0278 199.633 25.1873 201.7 27.2516C203.766 29.3159 204.929 32.116 204.932 35.0369V138.501C204.937 139.951 204.655 141.388 204.103 142.729C203.551 144.071 202.74 145.29 201.717 146.317C200.693 147.344 199.476 148.159 198.137 148.715C196.797 149.271 195.361 149.557 193.911 149.557ZM30.2868 26.3903C27.9934 26.3934 25.7947 27.305 24.1719 28.9256C22.5492 30.5461 21.6346 32.7436 21.6283 35.0369V138.501C21.6315 140.795 22.5451 142.995 24.1685 144.616C25.7919 146.237 27.9925 147.148 30.2868 147.148H193.911C196.205 147.148 198.406 146.237 200.029 144.616C201.653 142.995 202.566 140.795 202.569 138.501V35.0369C202.563 32.7436 201.649 30.5461 200.026 28.9256C198.403 27.305 196.204 26.3934 193.911 26.3903H30.2868Z" fill="#D0CDE1"/>
<path d="M197.644 148.376H26.554C24.8743 148.319 23.2192 148.791 21.8224 149.726C20.4256 150.661 19.3578 152.011 18.7696 153.585L1.50003 207.012C0.0234887 211.607 3.86249 216.179 9.29616 216.179H214.866C220.252 216.179 224.139 211.607 222.662 207.012L205.416 153.585C204.829 152.013 203.763 150.664 202.368 149.73C200.974 148.795 199.321 148.322 197.644 148.376Z" fill="white"/>
<path d="M214.866 217.301H9.33178C7.82935 217.324 6.34253 216.993 4.99205 216.335C3.64157 215.676 2.46548 214.708 1.55927 213.509C0.825172 212.533 0.334977 211.395 0.129508 210.191C-0.0759605 208.987 0.00924594 207.752 0.378034 206.587L17.6004 153.219C18.2741 151.411 19.4957 149.858 21.0946 148.778C22.6935 147.698 24.5898 147.145 26.5187 147.195H197.644C199.573 147.145 201.469 147.698 203.068 148.778C204.667 149.858 205.888 151.411 206.562 153.219L223.82 206.587C224.189 207.752 224.274 208.987 224.068 210.191C223.863 211.395 223.373 212.533 222.639 213.509C221.732 214.708 220.556 215.676 219.206 216.335C217.855 216.993 216.369 217.324 214.866 217.301ZM26.5541 149.557C25.1245 149.505 23.7144 149.901 22.5202 150.689C21.326 151.476 20.4072 152.617 19.892 153.951L2.63419 207.319C2.36793 208.126 2.30192 208.985 2.44187 209.823C2.58181 210.66 2.9235 211.451 3.43743 212.127C4.12966 213.029 5.02585 213.754 6.05249 214.243C7.07914 214.732 8.20701 214.97 9.34359 214.938H214.866C216.003 214.97 217.131 214.732 218.157 214.243C219.184 213.754 220.08 213.029 220.772 212.127C221.286 211.451 221.628 210.66 221.768 209.823C221.908 208.985 221.842 208.126 221.576 207.319L204.318 153.951C203.803 152.617 202.884 151.476 201.69 150.689C200.495 149.901 199.085 149.505 197.656 149.557H26.5541Z" fill="#D0CDE1"/>
<path d="M191.336 36.4424H32.8499V137.142H191.336V36.4424Z" fill="#093F68"/>
<path d="M191.348 138.324H32.8502C32.5369 138.324 32.2364 138.199 32.0149 137.978C31.7934 137.756 31.6689 137.456 31.6689 137.143V36.4425C31.6689 36.1292 31.7934 35.8287 32.0149 35.6072C32.2364 35.3857 32.5369 35.2612 32.8502 35.2612H191.348C191.661 35.2612 191.962 35.3857 192.183 35.6072C192.405 35.8287 192.529 36.1292 192.529 36.4425V137.143C192.529 137.456 192.405 137.756 192.183 137.978C191.962 138.199 191.661 138.324 191.348 138.324ZM34.0314 135.961H190.167V37.6237H34.0314V135.961Z" fill="#093F68"/>
<path d="M195.317 188.999H28.8812C27.9455 189.024 27.0168 188.831 26.1695 188.433C25.3223 188.035 24.5802 187.444 24.0027 186.707C23.5866 186.168 23.3062 185.537 23.1849 184.866C23.0636 184.196 23.1051 183.507 23.3057 182.856L30.8538 158.31C31.2804 157.192 32.0491 156.237 33.0502 155.582C34.0514 154.926 35.2339 154.604 36.4292 154.66H187.769C188.964 154.604 190.147 154.926 191.148 155.582C192.149 156.237 192.918 157.192 193.344 158.31L200.892 182.856C201.093 183.507 201.134 184.196 201.013 184.866C200.892 185.537 200.611 186.168 200.195 186.707C199.618 187.444 198.876 188.035 198.028 188.433C197.181 188.831 196.252 189.024 195.317 188.999ZM36.4292 157.023C35.7407 156.973 35.0537 157.137 34.4618 157.492C33.8699 157.847 33.4019 158.376 33.1218 159.007L25.5737 183.553C25.4821 183.849 25.4644 184.163 25.522 184.468C25.5797 184.773 25.711 185.059 25.9045 185.301C26.2649 185.737 26.7209 186.084 27.2371 186.316C27.7533 186.547 28.3158 186.657 28.8812 186.636H195.317C195.882 186.657 196.445 186.547 196.961 186.316C197.477 186.084 197.933 185.737 198.293 185.301C198.487 185.059 198.618 184.773 198.676 184.468C198.734 184.163 198.716 183.849 198.624 183.553L191.076 159.007C190.796 158.376 190.328 157.847 189.736 157.492C189.144 157.137 188.457 156.973 187.769 157.023H36.4292Z" fill="#DFEAEF"/>
<path d="M138.298 210.851H85.899C85.7218 210.855 85.5461 210.819 85.3849 210.745C85.2237 210.672 85.0811 210.563 84.9676 210.427C84.8542 210.29 84.7728 210.13 84.7296 209.959C84.6863 209.787 84.6823 209.607 84.7178 209.434L87.8598 193.523C87.9151 193.252 88.0635 193.009 88.2793 192.836C88.4952 192.664 88.7647 192.572 89.0411 192.578H135.109C135.385 192.572 135.655 192.664 135.871 192.836C136.087 193.009 136.235 193.252 136.29 193.523L139.432 209.434C139.468 209.607 139.464 209.787 139.421 209.959C139.377 210.13 139.296 210.29 139.183 210.427C139.069 210.563 138.927 210.672 138.765 210.745C138.604 210.819 138.428 210.855 138.251 210.851H138.298ZM87.3401 208.489H136.905L134.235 194.94H90.0097L87.3401 208.489Z" fill="#DFEAEF"/>
<path d="M166.696 1.18262V137.131H57.5024V1.18262L66.5979 9.16774L75.7052 1.18262L84.8007 9.16774L93.8962 1.18262L103.004 9.16774L112.111 1.18262L121.218 9.16774L130.302 1.18262L139.409 9.16774L148.516 1.18262L157.624 9.16774L166.696 1.18262Z" fill="white"/>
<path d="M166.696 138.312H57.5025C57.1892 138.312 56.8888 138.187 56.6673 137.966C56.4457 137.744 56.3213 137.444 56.3213 137.131V1.18264C56.3207 0.956709 56.385 0.735355 56.5064 0.544832C56.6279 0.354309 56.8014 0.202609 57.0064 0.107719C57.2145 0.0121926 57.4459 -0.0208001 57.6723 0.012754C57.8988 0.0463081 58.1107 0.144963 58.2821 0.296716L66.5508 7.59673L74.9257 0.296716C75.1413 0.107342 75.4184 0.0029038 75.7053 0.0029038C75.9922 0.0029038 76.2694 0.107342 76.4849 0.296716L84.7536 7.59673L93.1285 0.296716C93.3441 0.107342 93.6212 0.0029038 93.9081 0.0029038C94.195 0.0029038 94.4721 0.107342 94.6877 0.296716L102.956 7.59673L111.225 0.296716C111.441 0.107342 111.718 0.0029038 112.005 0.0029038C112.292 0.0029038 112.569 0.107342 112.784 0.296716L121.112 7.59673L129.381 0.296716C129.596 0.107342 129.873 0.0029038 130.16 0.0029038C130.447 0.0029038 130.724 0.107342 130.94 0.296716L139.267 7.59673L147.536 0.296716C147.752 0.107342 148.029 0.0029038 148.316 0.0029038C148.603 0.0029038 148.88 0.107342 149.095 0.296716L157.364 7.59673L165.633 0.296716C165.803 0.146892 166.013 0.0493806 166.238 0.0158542C166.462 -0.0176723 166.692 0.0142079 166.898 0.107674C167.105 0.20114 167.281 0.352233 167.404 0.542876C167.527 0.733519 167.593 0.955634 167.593 1.18264V137.131C167.601 137.4 167.516 137.665 167.353 137.88C167.19 138.095 166.958 138.247 166.696 138.312ZM58.6838 135.949H165.514V3.84041L158.427 10.1009C158.211 10.2903 157.934 10.3948 157.647 10.3948C157.36 10.3948 157.083 10.2903 156.868 10.1009L148.599 2.80093L140.271 10.1009C140.056 10.2903 139.779 10.3948 139.492 10.3948C139.205 10.3948 138.928 10.2903 138.712 10.1009L130.444 2.80093L122.175 10.1009C121.959 10.2903 121.682 10.3948 121.395 10.3948C121.108 10.3948 120.831 10.2903 120.616 10.1009L112.099 2.75368L103.83 10.0537C103.615 10.2431 103.338 10.3475 103.051 10.3475C102.764 10.3475 102.487 10.2431 102.271 10.0537L94.0026 2.75368L85.734 10.0537C85.5184 10.2431 85.2413 10.3475 84.9544 10.3475C84.6674 10.3475 84.3903 10.2431 84.1747 10.0537L75.9061 2.75368L67.5784 10.0537C67.3629 10.2431 67.0857 10.3475 66.7988 10.3475C66.5119 10.3475 66.2348 10.2431 66.0192 10.0537L58.9318 3.79316L58.6838 135.949Z" fill="#D0CDE1"/>
<path d="M140.531 97.5947H84.5527C76.672 97.5947 70.2834 103.983 70.2834 111.864C70.2834 119.745 76.672 126.133 84.5527 126.133H140.531C148.412 126.133 154.801 119.745 154.801 111.864C154.801 103.983 148.412 97.5947 140.531 97.5947Z" fill="#778AD1"/>
<path d="M140.531 127.303H84.5407C80.5185 127.192 76.6983 125.516 73.8927 122.631C71.0871 119.747 69.5173 115.882 69.5173 111.858C69.5173 107.834 71.0871 103.969 73.8927 101.085C76.6983 98.2009 80.5185 96.5249 84.5407 96.4136H140.531C142.595 96.3565 144.65 96.7138 146.574 97.4643C148.497 98.2148 150.251 99.3433 151.731 100.783C153.212 102.223 154.388 103.945 155.191 105.847C155.995 107.749 156.409 109.793 156.409 111.858C156.409 113.923 155.995 115.967 155.191 117.869C154.388 119.772 153.212 121.494 151.731 122.933C150.251 124.373 148.497 125.502 146.574 126.252C144.65 127.003 142.595 127.36 140.531 127.303ZM84.5407 98.7761C81.1391 98.8783 77.9111 100.301 75.5412 102.744C73.1713 105.186 71.8458 108.455 71.8458 111.858C71.8458 115.261 73.1713 118.531 75.5412 120.973C77.9111 123.415 81.1391 124.838 84.5407 124.94H140.531C142.282 124.993 144.026 124.694 145.659 124.06C147.292 123.426 148.782 122.471 150.039 121.251C151.296 120.031 152.296 118.571 152.978 116.958C153.661 115.344 154.012 113.61 154.012 111.858C154.012 110.106 153.661 108.372 152.978 106.759C152.296 105.146 151.296 103.686 150.039 102.466C148.782 101.246 147.292 100.29 145.659 99.6567C144.026 99.0229 142.282 98.7235 140.531 98.7761H84.5407Z" fill="#D0CDE1"/>
<path d="M97.1211 105.143H102.035C102.685 105.144 103.334 105.207 103.972 105.332C104.541 105.441 105.083 105.662 105.567 105.982C106.02 106.281 106.393 106.686 106.654 107.163C106.937 107.772 107.074 108.44 107.055 109.112C107.075 109.778 106.945 110.439 106.677 111.049C106.452 111.55 106.098 111.983 105.65 112.301C105.184 112.624 104.657 112.849 104.102 112.963C103.465 113.098 102.816 113.166 102.165 113.163H100.039V118.42H97.1211V105.143ZM100.039 110.742H101.976C102.23 110.742 102.483 110.719 102.732 110.671C102.962 110.628 103.182 110.544 103.382 110.423C103.578 110.305 103.741 110.138 103.854 109.939C103.979 109.698 104.04 109.43 104.031 109.159C104.042 108.869 103.959 108.583 103.795 108.344C103.635 108.14 103.429 107.978 103.193 107.871C102.941 107.75 102.668 107.678 102.389 107.659C102.102 107.642 101.814 107.642 101.527 107.659H100.039V110.742Z" fill="#FF835B"/>
<path d="M111.851 105.143H114.213L120.001 118.42H116.718L115.536 115.62H110.445L109.347 118.42H106.193L111.851 105.143ZM112.961 108.994L111.367 113.093H114.591L112.961 108.994Z" fill="#FF835B"/>
<path d="M123.191 112.726L118.229 105.143H121.844L124.644 110.092L127.608 105.143H131.069L126.108 112.726V118.42H123.191V112.726Z" fill="#FF835B"/>
<path d="M137.058 21.0627H90.9903C90.677 21.0627 90.3766 20.9382 90.1551 20.7167C89.9335 20.4952 89.8091 20.1947 89.8091 19.8814C89.8091 19.5681 89.9335 19.2677 90.1551 19.0462C90.3766 18.8246 90.677 18.7002 90.9903 18.7002H137.058C137.372 18.7002 137.672 18.8246 137.894 19.0462C138.115 19.2677 138.24 19.5681 138.24 19.8814C138.24 20.1947 138.115 20.4952 137.894 20.7167C137.672 20.9382 137.372 21.0627 137.058 21.0627Z" fill="#DFEAEF"/>
<path d="M111.792 36.7614H76.9337C76.6204 36.7614 76.3199 36.6369 76.0984 36.4154C75.8769 36.1939 75.7524 35.8934 75.7524 35.5802C75.7524 35.2669 75.8769 34.9664 76.0984 34.7449C76.3199 34.5234 76.6204 34.3989 76.9337 34.3989H111.792C112.105 34.3989 112.406 34.5234 112.627 34.7449C112.849 34.9664 112.973 35.2669 112.973 35.5802C112.973 35.8934 112.849 36.1939 112.627 36.4154C112.406 36.6369 112.105 36.7614 111.792 36.7614Z" fill="#DFEAEF"/>
<path d="M148.15 36.7614H132.392C132.079 36.7614 131.779 36.6369 131.557 36.4154C131.336 36.1939 131.211 35.8934 131.211 35.5802C131.211 35.2669 131.336 34.9664 131.557 34.7449C131.779 34.5234 132.079 34.3989 132.392 34.3989H148.15C148.463 34.3989 148.764 34.5234 148.985 34.7449C149.207 34.9664 149.331 35.2669 149.331 35.5802C149.331 35.8934 149.207 36.1939 148.985 36.4154C148.764 36.6369 148.463 36.7614 148.15 36.7614Z" fill="#DFEAEF"/>
<path d="M108.39 48.6564H97.1563C96.843 48.6564 96.5426 48.532 96.3211 48.3104C96.0995 48.0889 95.9751 47.7885 95.9751 47.4752C95.9751 47.1619 96.0995 46.8614 96.3211 46.6399C96.5426 46.4184 96.843 46.2939 97.1563 46.2939H108.39C108.703 46.2939 109.004 46.4184 109.225 46.6399C109.447 46.8614 109.571 47.1619 109.571 47.4752C109.571 47.7885 109.447 48.0889 109.225 48.3104C109.004 48.532 108.703 48.6564 108.39 48.6564Z" fill="#DFEAEF"/>
<path d="M90.9431 48.6564H76.9337C76.6204 48.6564 76.3199 48.532 76.0984 48.3104C75.8769 48.0889 75.7524 47.7885 75.7524 47.4752C75.7524 47.1619 75.8769 46.8614 76.0984 46.6399C76.3199 46.4184 76.6204 46.2939 76.9337 46.2939H90.9431C91.2564 46.2939 91.5568 46.4184 91.7783 46.6399C91.9999 46.8614 92.1243 47.1619 92.1243 47.4752C92.1243 47.7885 91.9999 48.0889 91.7783 48.3104C91.5568 48.532 91.2564 48.6564 90.9431 48.6564Z" fill="#DFEAEF"/>
<path d="M148.15 48.6564H135.913C135.599 48.6564 135.299 48.532 135.077 48.3104C134.856 48.0889 134.731 47.7885 134.731 47.4752C134.731 47.1619 134.856 46.8614 135.077 46.6399C135.299 46.4184 135.599 46.2939 135.913 46.2939H148.15C148.464 46.2939 148.764 46.4184 148.986 46.6399C149.207 46.8614 149.331 47.1619 149.331 47.4752C149.331 47.7885 149.207 48.0889 148.986 48.3104C148.764 48.532 148.464 48.6564 148.15 48.6564Z" fill="#DFEAEF"/>
<path d="M104.055 60.5397H76.8863C76.573 60.5397 76.2726 60.4153 76.0511 60.1937C75.8295 59.9722 75.7051 59.6718 75.7051 59.3585C75.7051 59.0452 75.8295 58.7447 76.0511 58.5232C76.2726 58.3017 76.573 58.1772 76.8863 58.1772H104.055C104.368 58.1772 104.668 58.3017 104.89 58.5232C105.111 58.7447 105.236 59.0452 105.236 59.3585C105.236 59.6718 105.111 59.9722 104.89 60.1937C104.668 60.4153 104.368 60.5397 104.055 60.5397Z" fill="#DFEAEF"/>
<path d="M148.15 60.5397H132.392C132.079 60.5397 131.779 60.4153 131.557 60.1937C131.336 59.9722 131.211 59.6718 131.211 59.3585C131.211 59.0452 131.336 58.7447 131.557 58.5232C131.779 58.3017 132.079 58.1772 132.392 58.1772H148.15C148.463 58.1772 148.764 58.3017 148.985 58.5232C149.207 58.7447 149.331 59.0452 149.331 59.3585C149.331 59.6718 149.207 59.9722 148.985 60.1937C148.764 60.4153 148.463 60.5397 148.15 60.5397Z" fill="#DFEAEF"/>
<path d="M148.15 74.0412H76.9337C76.6204 74.0412 76.3199 73.9167 76.0984 73.6952C75.8769 73.4737 75.7524 73.1732 75.7524 72.8599C75.7524 72.5467 75.8769 72.2462 76.0984 72.0247C76.3199 71.8032 76.6204 71.6787 76.9337 71.6787H148.15C148.463 71.6787 148.764 71.8032 148.985 72.0247C149.207 72.2462 149.331 72.5467 149.331 72.8599C149.331 73.1732 149.207 73.4737 148.985 73.6952C148.764 73.9167 148.463 74.0412 148.15 74.0412Z" fill="#DFEAEF"/>
<path d="M148.15 86.3258H131.093C130.78 86.3258 130.479 86.2014 130.258 85.9799C130.036 85.7583 129.912 85.4579 129.912 85.1446C129.912 84.8313 130.036 84.5309 130.258 84.3094C130.479 84.0878 130.78 83.9634 131.093 83.9634H148.15C148.463 83.9634 148.764 84.0878 148.985 84.3094C149.207 84.5309 149.331 84.8313 149.331 85.1446C149.331 85.4579 149.207 85.7583 148.985 85.9799C148.764 86.2014 148.463 86.3258 148.15 86.3258Z" fill="#DFEAEF"/>
<path d="M66.4799 49.4241H14.0213C11.9207 49.4241 10.2178 51.127 10.2178 53.2276V85.0855C10.2178 87.1861 11.9207 88.889 14.0213 88.889H66.4799C68.5805 88.889 70.2834 87.1861 70.2834 85.0855V53.2276C70.2834 51.127 68.5805 49.4241 66.4799 49.4241Z" fill="#FF835B"/>
<path d="M66.4678 90.0704H14.0566C12.7345 90.0704 11.4666 89.5452 10.5318 88.6103C9.59696 87.6755 9.07178 86.4076 9.07178 85.0856V53.1923C9.08421 51.8773 9.6145 50.6203 10.5477 49.6938C11.4808 48.7673 12.7416 48.246 14.0566 48.2429H66.5033C67.8255 48.246 69.0928 48.7718 70.0288 49.7057C70.9649 50.6395 71.4937 51.9055 71.4999 53.2277V85.121C71.4874 86.4441 70.9506 87.7083 70.0072 88.6362C69.0639 89.564 67.791 90.0798 66.4678 90.0704ZM14.0566 50.6054C13.3611 50.6054 12.6941 50.8817 12.2023 51.3735C11.7105 51.8652 11.4342 52.5322 11.4342 53.2277V85.121C11.4436 85.8103 11.7239 86.4682 12.2147 86.9524C12.7055 87.4365 13.3672 87.708 14.0566 87.7079H66.5033C67.1999 87.7079 67.8681 87.432 68.3617 86.9405C68.8554 86.4491 69.1343 85.7821 69.1374 85.0856V53.1923C69.1343 52.4957 68.8554 51.8287 68.3617 51.3373C67.8681 50.8458 67.1999 50.5699 66.5033 50.5699L14.0566 50.6054Z" fill="#778AD1"/>
<path d="M70.2834 57.374H10.2178V65.4655H70.2834V57.374Z" fill="white"/>
<path d="M70.2833 66.6465H10.2176C9.90433 66.6465 9.60387 66.5221 9.38235 66.3006C9.16083 66.079 9.03638 65.7786 9.03638 65.4653V57.3739C9.03638 57.0606 9.16083 56.7601 9.38235 56.5386C9.60387 56.3171 9.90433 56.1926 10.2176 56.1926H70.2833C70.5965 56.1926 70.897 56.3171 71.1185 56.5386C71.34 56.7601 71.4645 57.0606 71.4645 57.3739V65.4653C71.4645 65.7786 71.34 66.079 71.1185 66.3006C70.897 66.5221 70.5965 66.6465 70.2833 66.6465ZM11.3988 64.2841H69.102V58.5551H11.3988V64.2841Z" fill="#778AD1"/>
<path d="M51.1236 84.1405C54.0397 84.1405 56.4037 81.7766 56.4037 78.8604C56.4037 75.9443 54.0397 73.5803 51.1236 73.5803C48.2075 73.5803 45.8435 75.9443 45.8435 78.8604C45.8435 81.7766 48.2075 84.1405 51.1236 84.1405Z" fill="white"/>
<path d="M60.432 84.1405C63.3481 84.1405 65.7121 81.7766 65.7121 78.8604C65.7121 75.9443 63.3481 73.5803 60.432 73.5803C57.5158 73.5803 55.1519 75.9443 55.1519 78.8604C55.1519 81.7766 57.5158 84.1405 60.432 84.1405Z" fill="white"/>
<path d="M188.029 123.83L179.736 132.11L193.179 145.553L184.379 154.353L170.936 140.922L162.644 149.215L157.175 118.361L188.029 123.83Z" fill="#FF835B"/>
<path d="M184.378 155.534C184.223 155.535 184.069 155.505 183.925 155.447C183.781 155.388 183.65 155.301 183.54 155.192L170.936 142.588L163.482 150.042C163.33 150.197 163.138 150.307 162.927 150.361C162.716 150.414 162.494 150.408 162.287 150.343C162.079 150.278 161.893 150.157 161.75 149.994C161.607 149.83 161.511 149.63 161.474 149.415L156.017 118.562C155.984 118.375 155.998 118.182 156.055 118.001C156.113 117.821 156.213 117.656 156.348 117.522C156.482 117.388 156.646 117.287 156.827 117.23C157.008 117.172 157.2 117.159 157.387 117.191L188.229 122.661C188.444 122.697 188.644 122.793 188.807 122.936C188.971 123.08 189.092 123.265 189.156 123.473C189.221 123.681 189.227 123.902 189.174 124.113C189.121 124.324 189.011 124.516 188.855 124.669L181.413 132.11L194.005 144.714C194.116 144.824 194.204 144.955 194.264 145.099C194.324 145.243 194.355 145.397 194.355 145.553C194.355 145.709 194.324 145.863 194.264 146.007C194.204 146.151 194.116 146.282 194.005 146.392L185.205 155.192C184.985 155.41 184.688 155.533 184.378 155.534ZM170.936 139.741C171.091 139.74 171.245 139.77 171.389 139.829C171.533 139.888 171.664 139.974 171.775 140.084L184.378 152.676L191.466 145.588L178.909 132.949C178.689 132.728 178.566 132.428 178.566 132.116C178.566 131.804 178.689 131.505 178.909 131.284L185.583 124.598L158.639 119.873L163.364 146.829L170.05 140.143C170.161 140.017 170.297 139.916 170.45 139.847C170.602 139.777 170.768 139.741 170.936 139.741Z" fill="white"/>
</svg>
