<svg width="245" height="56" viewBox="0 0 245 56" fill="none" xmlns="http://www.w3.org/2000/svg">
<mask id="mask0_2_1489" style="mask-type:luminance" maskUnits="userSpaceOnUse" x="0" y="0" width="245" height="56">
<path d="M244.88 0.520752H0.474609V55.3143H244.88V0.520752Z" fill="white"/>
</mask>
<g mask="url(#mask0_2_1489)">
<mask id="mask1_2_1489" style="mask-type:luminance" maskUnits="userSpaceOnUse" x="0" y="0" width="245" height="56">
<path d="M244.88 0.520752H0.474609V55.3143H244.88V0.520752Z" fill="white"/>
</mask>
<g mask="url(#mask1_2_1489)">
<path fill-rule="evenodd" clip-rule="evenodd" d="M203.234 21.295C203.276 21.2397 203.331 21.2535 203.387 21.2535C204.356 21.2674 205.338 21.1982 206.307 21.3089C207.276 21.4196 208.259 21.9455 208.508 23.122C208.535 23.2604 208.591 23.3988 208.618 23.5372C208.646 23.6756 208.688 23.7724 208.854 23.5925C209.393 22.9974 209.961 22.4299 210.653 21.9871C211.58 21.3919 212.577 21.0044 213.684 20.8522C214.445 20.7553 215.206 20.7691 215.954 20.8937C217.85 21.1982 219.289 22.1808 220.189 23.9109C220.41 24.3261 220.424 24.3399 220.701 23.9662C221.49 22.9282 222.459 22.1393 223.635 21.5857C224.424 21.212 225.241 20.9906 226.099 20.866C226.888 20.7553 227.676 20.783 228.451 20.8937C230.735 21.2258 232.382 22.3884 233.212 24.6029C233.545 25.4748 233.697 26.3883 233.794 27.3017C233.794 27.3432 233.794 27.3986 233.835 27.4263V41.5987C232.866 41.5987 231.884 41.6125 230.915 41.5849C230.126 41.5572 229.379 41.3911 228.839 40.7406C228.451 40.27 228.272 39.7164 228.272 39.1075C228.258 36.0349 228.258 32.9624 228.258 29.876C228.258 29.1148 228.23 28.3536 228.05 27.62C227.842 26.7343 227.317 26.0699 226.209 26.0146C224.535 25.9177 223.358 26.7343 222.472 28.0768C221.947 28.8795 221.684 29.7653 221.49 30.6926C221.338 31.3984 221.296 32.1043 221.296 32.824C221.296 35.6474 221.296 38.4708 221.31 41.2942C221.31 41.5433 221.241 41.5987 221.005 41.5987C219.345 41.5849 217.684 41.5849 216.009 41.5987C215.788 41.5987 215.705 41.571 215.705 41.3081C215.718 37.4189 215.718 33.5298 215.705 29.6407C215.705 28.8518 215.635 28.0768 215.317 27.3432C214.86 26.2914 213.988 25.9315 212.923 26.0007C211.746 26.0699 210.902 26.7066 210.238 27.62C209.629 28.4505 209.269 29.3778 209.034 30.3743C208.812 31.3015 208.743 32.2427 208.743 33.1838C208.743 35.8965 208.743 38.6092 208.757 41.3081C208.757 41.5433 208.701 41.5987 208.466 41.5987C206.805 41.5849 205.144 41.5849 203.47 41.5987C203.248 41.5987 203.165 41.5572 203.165 41.3081C203.179 38.803 203.165 36.2979 203.179 33.7928C203.179 33.7098 203.151 33.6129 203.207 33.5298C203.248 33.5714 203.248 33.6129 203.248 33.6544C203.248 36.2148 203.248 38.7891 203.248 41.3496C203.248 41.3911 203.304 41.3496 203.276 41.3496C203.262 41.3496 203.262 41.3496 203.262 41.3357C203.248 41.2527 203.262 41.1835 203.262 41.1005C203.262 34.6094 203.262 28.1045 203.262 21.6134C203.207 21.5026 203.179 21.3919 203.234 21.295Z" fill="#0098D1"/>
</g>
<mask id="mask2_2_1489" style="mask-type:luminance" maskUnits="userSpaceOnUse" x="0" y="0" width="245" height="56">
<path d="M244.88 0.520752H0.474609V55.3143H244.88V0.520752Z" fill="white"/>
</mask>
<g mask="url(#mask2_2_1489)">
<path fill-rule="evenodd" clip-rule="evenodd" d="M102.615 12.5065C103.017 12.6311 103.432 12.728 103.806 12.9494C105.01 13.6553 105.688 15.067 105.453 16.4648C105.217 17.835 104.152 18.9422 102.795 19.219C100.913 19.6066 99.1277 18.4163 98.7817 16.4787C98.4357 14.6241 99.6537 12.9217 101.453 12.548C101.508 12.5342 101.564 12.548 101.591 12.4927H102.615V12.5065Z" fill="#244482"/>
</g>
<mask id="mask3_2_1489" style="mask-type:luminance" maskUnits="userSpaceOnUse" x="0" y="0" width="245" height="56">
<path d="M244.88 0.520752H0.474609V55.3143H244.88V0.520752Z" fill="white"/>
</mask>
<g mask="url(#mask3_2_1489)">
<path fill-rule="evenodd" clip-rule="evenodd" d="M97.7441 41.5848C95.9033 41.5433 94.118 41.6402 92.3326 41.5295C91.3361 41.4741 90.5749 40.9759 90.0489 40.1316C89.4676 39.2043 89.0109 38.2217 88.4988 37.2667C87.8622 36.0764 87.2255 34.9 86.6165 33.6959C86.4366 33.3499 86.1737 33.1977 85.8138 33.1561C85.5508 33.1285 85.3017 33.1008 85.0387 33.1146C84.6235 33.1284 84.6789 33.0454 84.6789 33.4606C84.6789 35.8688 84.6789 38.277 84.6789 40.6714C84.6789 40.8928 84.6651 41.1143 84.6789 41.3357C84.6927 41.5018 84.6512 41.571 84.4575 41.571C82.6444 41.5572 80.8313 41.571 79.0182 41.571C78.8522 41.571 78.7968 41.5156 78.8106 41.3634C78.8245 41.1004 78.8106 40.8513 78.8106 40.5884C78.8106 31.6337 78.8106 22.6652 78.8106 13.7106C78.8106 13.3092 78.7691 13.3646 79.1428 13.3646C80.2085 13.3784 81.2742 13.323 82.3399 13.4061C83.5578 13.4891 84.2914 14.0427 84.5682 15.1084C84.6651 15.4683 84.6789 15.8281 84.6789 16.2018C84.6789 20.0356 84.6789 23.8555 84.6789 27.6892C84.6789 28.0491 84.6789 28.0629 85.0526 28.0491C85.3571 28.0491 85.6616 28.0352 85.966 28.0214C86.4504 27.9799 86.838 27.7861 87.1148 27.3432C88.3742 25.3641 89.6614 23.3849 90.9347 21.4057C91.0177 21.2673 91.1146 21.212 91.2669 21.212C93.3429 21.212 95.4189 21.212 97.495 21.212C97.5365 21.212 97.578 21.212 97.6611 21.2258C97.495 21.4749 97.3566 21.6964 97.2043 21.9178C95.5435 24.3952 93.8827 26.8588 92.208 29.3362C91.945 29.7237 91.6544 30.0974 91.3084 30.4296C91.2392 30.4988 91.17 30.5542 91.2669 30.6372C92.0281 31.3846 92.4433 32.3672 92.9 33.2945C94.1872 35.8688 95.7234 38.2909 97.2043 40.7544C97.3981 41.0036 97.5642 41.2665 97.7441 41.5848Z" fill="#244482"/>
</g>
<mask id="mask4_2_1489" style="mask-type:luminance" maskUnits="userSpaceOnUse" x="0" y="0" width="245" height="56">
<path d="M244.88 0.520752H0.474609V55.3143H244.88V0.520752Z" fill="white"/>
</mask>
<g mask="url(#mask4_2_1489)">
<path fill-rule="evenodd" clip-rule="evenodd" d="M114.269 23.5095C114.602 23.1912 114.906 22.859 115.252 22.5822C116.65 21.4196 118.269 20.8522 120.069 20.7691C121.314 20.7138 122.532 20.8245 123.709 21.2674C125.577 21.9732 126.74 23.3296 127.335 25.2119C127.667 26.2499 127.791 27.3156 127.791 28.409C127.791 30.3051 127.791 32.2012 127.791 34.0973C127.791 36.4778 127.805 38.8722 127.819 41.2527C127.819 41.6402 127.861 41.5849 127.473 41.5849C126.477 41.571 125.494 41.6264 124.497 41.5434C122.947 41.4326 122.048 40.5053 121.979 38.9552C121.909 37.4605 121.965 35.9519 121.951 34.4433C121.951 32.7548 121.951 31.0663 121.951 29.3778C121.951 28.8657 121.909 28.3674 121.771 27.8692C121.48 26.762 120.774 26.2222 119.626 26.1807C117.342 26.1115 115.308 27.4125 114.629 30.1251C114.463 30.7756 114.38 31.44 114.38 32.1181C114.38 35.163 114.38 38.2217 114.38 41.2666C114.38 41.5157 114.325 41.5987 114.062 41.5987C112.318 41.5849 110.574 41.5849 108.83 41.5987C108.609 41.5987 108.553 41.5295 108.553 41.3219C108.553 35.3983 108.553 29.4608 108.553 23.5372C108.553 22.8313 108.553 22.1255 108.54 21.4196C108.54 21.3089 108.512 21.212 108.692 21.212C109.73 21.2397 110.768 21.1567 111.806 21.2674C112.941 21.3919 113.923 21.9594 114.2 23.3434C114.228 23.3711 114.256 23.4265 114.269 23.5095Z" fill="#244482"/>
</g>
<mask id="mask5_2_1489" style="mask-type:luminance" maskUnits="userSpaceOnUse" x="0" y="0" width="245" height="56">
<path d="M244.88 0.520752H0.474609V55.3143H244.88V0.520752Z" fill="white"/>
</mask>
<g mask="url(#mask5_2_1489)">
<path fill-rule="evenodd" clip-rule="evenodd" d="M178.239 26.5959C178.239 27.0803 178.239 27.5647 178.239 28.0491C178.239 28.2152 178.211 28.2844 178.018 28.2844C177.09 28.2706 176.163 28.2982 175.222 28.2706C174.225 28.2429 173.464 27.7308 173.174 26.6651C173.063 26.2499 172.689 26.07 172.315 25.9315C170.364 25.2534 167.997 25.8762 166.669 27.4678C166.101 28.146 165.727 28.9349 165.52 29.8068C165.298 30.7618 165.257 31.7168 165.451 32.6718C165.797 34.3879 166.724 35.6751 168.316 36.4363C169.506 37.0038 170.779 37.156 172.066 36.9622C173.353 36.7546 174.502 36.1872 175.554 35.4121C175.997 35.08 176.44 34.7201 176.8 34.3049C176.897 34.1942 176.938 34.1665 177.035 34.3187C177.782 35.5505 178.53 36.7823 179.263 38.0279C179.346 38.1663 179.305 38.2771 179.194 38.4016C178.502 39.1905 177.672 39.8133 176.786 40.3669C175.803 40.9759 174.751 41.4188 173.644 41.6956C172.108 42.0831 170.544 42.1523 168.966 41.9447C167.291 41.7371 165.741 41.2112 164.33 40.2839C162.475 39.0798 161.16 37.4328 160.385 35.3568C159.873 33.9866 159.652 32.5887 159.693 31.1355C159.776 28.3259 160.745 25.8623 162.766 23.8693C163.942 22.7206 165.326 21.9179 166.904 21.4058C168.053 21.0321 169.229 20.8522 170.419 20.8107C172.052 20.7553 173.63 21.0183 175.139 21.6549C176.246 22.1255 177.229 22.776 177.81 23.8832C178.087 24.4091 178.225 24.9627 178.211 25.544C178.225 25.89 178.239 26.2499 178.239 26.5959Z" fill="#0098D1"/>
</g>
<mask id="mask6_2_1489" style="mask-type:luminance" maskUnits="userSpaceOnUse" x="0" y="0" width="245" height="56">
<path d="M244.88 0.520752H0.474609V55.3143H244.88V0.520752Z" fill="white"/>
</mask>
<g mask="url(#mask6_2_1489)">
<path fill-rule="evenodd" clip-rule="evenodd" d="M99.4182 31.3984C99.4182 28.0768 99.4182 24.7689 99.4182 21.4473C99.4182 21.3365 99.3767 21.1981 99.5843 21.1981C100.65 21.2258 101.716 21.1428 102.768 21.2397C104.179 21.3642 105.037 22.2362 105.19 23.6479C105.217 23.9108 105.231 24.16 105.231 24.4229C105.231 30.0421 105.231 35.6751 105.231 41.2942C105.231 41.5295 105.176 41.5848 104.94 41.5848C103.197 41.571 101.453 41.571 99.7088 41.5848C99.4597 41.5848 99.4182 41.5156 99.4182 41.2804C99.432 37.9864 99.4182 34.6786 99.4182 31.3846C99.432 31.3984 99.4182 31.3984 99.4182 31.3984Z" fill="#244482"/>
</g>
<mask id="mask7_2_1489" style="mask-type:luminance" maskUnits="userSpaceOnUse" x="0" y="0" width="245" height="56">
<path d="M244.88 0.520752H0.474609V55.3143H244.88V0.520752Z" fill="white"/>
</mask>
<g mask="url(#mask7_2_1489)">
<path fill-rule="evenodd" clip-rule="evenodd" d="M155.403 41.8062C153.603 41.8754 151.998 40.3392 151.998 38.4154C151.998 36.5054 153.576 35.0383 155.375 35.0245C157.243 35.0107 158.807 36.6023 158.793 38.4292C158.793 40.2284 157.271 41.8616 155.403 41.8062Z" fill="#0098D1"/>
</g>
<mask id="mask8_2_1489" style="mask-type:luminance" maskUnits="userSpaceOnUse" x="0" y="0" width="245" height="56">
<path d="M244.88 0.520752H0.474609V55.3143H244.88V0.520752Z" fill="white"/>
</mask>
<g mask="url(#mask8_2_1489)">
<path fill-rule="evenodd" clip-rule="evenodd" d="M149.7 40.5607C149.645 40.4084 149.672 40.2424 149.672 40.0901C149.672 33.9174 149.672 27.7446 149.672 21.558C149.672 21.1843 149.672 21.1843 149.299 21.1843C148.454 21.1843 147.596 21.1843 146.752 21.1843C146.821 21.1151 146.918 21.1428 147.001 21.1428C147.831 21.1428 148.662 21.1428 149.492 21.1428C149.672 21.1428 149.741 21.1705 149.741 21.3781C149.728 27.6477 149.728 33.9174 149.728 40.2008C149.728 40.3116 149.714 40.4361 149.7 40.5607Z" fill="#294268"/>
</g>
<mask id="mask9_2_1489" style="mask-type:luminance" maskUnits="userSpaceOnUse" x="0" y="0" width="245" height="56">
<path d="M244.88 0.520752H0.474609V55.3143H244.88V0.520752Z" fill="white"/>
</mask>
<g mask="url(#mask9_2_1489)">
<path fill-rule="evenodd" clip-rule="evenodd" d="M203.234 21.295V41.5295C203.151 41.3911 203.179 41.2942 203.179 41.1973C203.179 38.7615 203.179 36.3117 203.179 33.8758C203.179 33.7651 203.179 33.6406 203.165 33.5298C203.165 31.1216 203.165 28.6996 203.165 26.2914C203.165 24.7551 203.165 23.2188 203.165 21.6826C203.165 21.5442 203.123 21.4058 203.234 21.295Z" fill="#008BAB"/>
</g>
<mask id="mask10_2_1489" style="mask-type:luminance" maskUnits="userSpaceOnUse" x="0" y="0" width="245" height="56">
<path d="M244.88 0.520752H0.474609V55.3143H244.88V0.520752Z" fill="white"/>
</mask>
<g mask="url(#mask10_2_1489)">
<path d="M27.4768 26.9833C27.283 26.8726 27.0892 26.7619 26.8678 26.6373C27.0062 26.5128 27.1308 26.402 27.2553 26.3052C27.7121 25.9315 28.1411 25.5301 28.5009 25.0595C29.5805 23.634 29.9957 22.0147 29.8988 20.257C29.7604 17.7242 28.584 15.8419 26.3834 14.5963C24.8333 13.7244 23.1448 13.4199 21.3871 13.3922C19.0757 13.3645 16.7782 13.3784 14.4669 13.3922C13.5258 13.3922 12.7646 13.7936 12.1694 14.5133C11.8373 14.9146 11.685 15.399 11.5466 15.8834V41.4879C11.6435 41.4879 11.7404 41.4741 11.8373 41.4741C15.0344 41.4741 18.2453 41.4741 21.4424 41.4741C22.8264 41.4741 24.1828 41.2803 25.4976 40.8374C27.4214 40.1731 29.013 39.0659 30.0372 37.2528C31.0476 35.4536 31.269 33.5159 30.84 31.5229C30.3971 29.5023 29.3175 27.966 27.4768 26.9833ZM16.9582 22.0839C16.9582 21.3088 16.9443 20.5476 16.972 19.7726C16.9997 18.6515 17.5256 18.0702 18.6328 18.0148C19.7124 17.9595 20.7919 17.9041 21.8715 18.0702C23.214 18.264 24.0859 19.1082 24.335 20.4231C24.5565 21.5856 24.4042 22.6929 23.6569 23.6478C23.0617 24.409 22.2175 24.7135 21.2763 24.7274C19.9061 24.7412 18.536 24.7274 17.1796 24.7412C16.9859 24.7412 16.9443 24.6859 16.9443 24.5059C16.9582 23.6894 16.9582 22.8866 16.9582 22.0839ZM24.6534 35.4259C23.9752 36.2978 23.0202 36.6577 21.9545 36.6854C20.349 36.713 18.7574 36.6854 17.1519 36.6992C16.972 36.6992 16.9443 36.6438 16.9443 36.4916C16.9443 35.5228 16.9443 34.554 16.9443 33.599H16.9582C16.9582 32.6717 16.9443 31.7582 16.9582 30.8309C16.9859 29.6822 17.6087 29.1009 18.7436 29.1009C19.7539 29.1009 20.7642 29.0871 21.7746 29.1009C23.0756 29.1286 24.1689 29.5853 24.8748 30.7341C25.7329 32.0627 25.6222 34.208 24.6534 35.4259Z" fill="#244482"/>
</g>
<mask id="mask11_2_1489" style="mask-type:luminance" maskUnits="userSpaceOnUse" x="0" y="0" width="245" height="56">
<path d="M244.88 0.520752H0.474609V55.3143H244.88V0.520752Z" fill="white"/>
</mask>
<g mask="url(#mask11_2_1489)">
<path d="M149.451 21.1566C148.815 21.1704 148.164 21.1566 147.528 21.1566C147.265 21.1566 147.015 21.1289 146.752 21.1704C145.687 21.1843 144.953 21.7102 144.51 22.6652C144.109 22.3053 143.694 21.9732 143.237 21.7241C141.465 20.7414 139.556 20.4923 137.59 20.7691C134.158 21.2396 131.833 23.1634 130.601 26.3744C129.591 29.004 129.563 31.7167 130.324 34.4294C130.836 36.2702 131.791 37.848 133.258 39.0936C135.085 40.6298 137.244 41.225 139.597 41.1143C141.147 41.0451 142.573 40.6022 143.791 39.5918C143.818 39.5641 143.846 39.5226 143.915 39.5503C143.943 39.9102 143.929 40.27 143.888 40.6299C143.735 42.0416 143.071 43.1073 141.756 43.7024C140.331 44.3529 138.822 44.3252 137.313 44.1038C136.469 43.9792 135.666 43.7024 134.864 43.4671C133.867 43.1765 133.203 43.4948 132.746 44.4221C132.705 44.5051 132.663 44.602 132.622 44.685C132.276 45.557 131.93 46.4289 131.584 47.287C131.514 47.4669 131.542 47.5361 131.722 47.633C133.217 48.4358 134.822 48.9478 136.483 49.2385C136.967 49.3215 137.452 49.3769 137.936 49.4461H140.137C140.178 49.3907 140.234 49.4046 140.275 49.4046C140.981 49.3492 141.673 49.2385 142.365 49.0724C144.178 48.6157 145.825 47.8406 147.168 46.5258C148.829 44.8927 149.59 42.8581 149.714 40.5468C149.7 40.4361 149.714 40.3392 149.714 40.2285C149.714 34.0142 149.714 27.7861 149.714 21.5718C149.714 21.5165 149.714 21.4611 149.714 21.4057C149.728 21.2258 149.659 21.1566 149.451 21.1566ZM143.597 33.6544C143.043 35.1629 141.811 36.0349 140.206 36.0487C138.185 36.0764 136.787 35.0937 136.151 33.17C135.597 31.4814 135.57 29.7929 136.234 28.1321C136.829 26.6373 137.964 25.89 139.556 25.8346C140.386 25.8069 141.216 25.89 141.978 26.2775C143.029 26.8173 143.542 27.7446 143.818 28.8379C143.984 29.5161 144.026 30.1943 144.04 30.9417C144.026 31.8274 143.929 32.7547 143.597 33.6544Z" fill="#244482"/>
</g>
<mask id="mask12_2_1489" style="mask-type:luminance" maskUnits="userSpaceOnUse" x="0" y="0" width="245" height="56">
<path d="M244.88 0.520752H0.474609V55.3143H244.88V0.520752Z" fill="white"/>
</mask>
<g mask="url(#mask12_2_1489)">
<path d="M200.84 28.6027C200.646 27.7446 200.328 26.928 199.912 26.1529C198.999 24.4506 197.712 23.1219 196.023 22.1669C194.695 21.4196 193.283 21.0044 191.761 20.8383C190.723 20.7275 189.712 20.7414 188.688 20.8936C187.595 21.0459 186.543 21.3642 185.546 21.8486C183.844 22.6652 182.474 23.8554 181.463 25.4609C180.328 27.2601 179.803 29.2393 179.844 31.3569C179.858 31.8828 179.872 32.4087 179.941 32.9347C180.093 34.0972 180.425 35.2045 180.937 36.2563C181.699 37.8203 182.792 39.0936 184.231 40.0624C185.782 41.1142 187.512 41.6817 189.366 41.8616C191.207 42.0277 193.02 41.8063 194.75 41.1281C196.425 40.4638 197.85 39.4396 198.957 38.014C199.746 37.0037 200.328 35.8965 200.688 34.6647C200.923 33.8619 201.061 33.0592 201.13 32.2288C201.227 30.997 201.103 29.7929 200.84 28.6027ZM195.414 31.1769C195.414 32.6855 195.124 33.9311 194.335 35.0107C193.684 35.9241 192.799 36.5054 191.705 36.7684C190.598 37.0314 189.505 36.976 188.467 36.5054C187.415 36.0349 186.667 35.246 186.169 34.208C185.698 33.2391 185.505 32.2011 185.546 31.1216C185.602 29.5576 186.044 28.1044 187.221 26.9833C188.287 25.973 189.574 25.6132 190.999 25.7654C193.048 25.9868 194.349 27.1771 195.055 29.0455C195.331 29.8068 195.456 30.5818 195.414 31.1769Z" fill="#0098D1"/>
</g>
<mask id="mask13_2_1489" style="mask-type:luminance" maskUnits="userSpaceOnUse" x="0" y="0" width="245" height="56">
<path d="M244.88 0.520752H0.474609V55.3143H244.88V0.520752Z" fill="white"/>
</mask>
<g mask="url(#mask13_2_1489)">
<path d="M71.1014 21.9178C68.3195 20.5476 65.3992 20.4092 62.4512 21.3504C59.4341 22.3192 57.3304 24.3122 56.1678 27.2602C55.3512 29.3224 55.2266 31.4676 55.6557 33.6267C56.1539 36.1318 57.3857 38.194 59.4202 39.7441C61.3717 41.225 63.6138 41.8478 66.0497 41.8755C66.977 41.8755 67.8905 41.7924 68.7901 41.571C71.8903 40.8236 74.2293 39.0797 75.641 36.201C76.7898 33.8758 77.0112 31.3984 76.4714 28.8656C75.7933 25.7101 74.0217 23.3434 71.1014 21.9178ZM71.0322 31.3707C71.0184 32.7686 70.7139 34.0834 69.8281 35.2045C68.8039 36.4778 67.4337 37.0037 65.8144 36.9345C63.5308 36.8376 61.8008 35.2321 61.3163 32.8378C60.9703 31.1354 61.1226 29.4746 62.0637 27.9522C63.0879 26.2775 64.8318 25.5163 66.7694 25.7931C68.9285 26.0976 70.2018 27.4262 70.8108 29.4608C70.9769 30.0836 71.0461 30.7202 71.0322 31.3707Z" fill="#244482"/>
</g>
<mask id="mask14_2_1489" style="mask-type:luminance" maskUnits="userSpaceOnUse" x="0" y="0" width="245" height="56">
<path d="M244.88 0.520752H0.474609V55.3143H244.88V0.520752Z" fill="white"/>
</mask>
<g mask="url(#mask14_2_1489)">
<path d="M48.3622 21.9456C45.8571 20.6861 43.2136 20.4647 40.5147 21.1152C37.3038 21.8764 34.9509 23.7725 33.5808 26.8035C32.6673 28.8242 32.4735 30.9418 32.7919 33.1147C33.1517 35.509 34.1759 37.5712 35.9751 39.2044C38.0512 41.0867 40.5286 41.8617 43.2828 41.8894C44.3485 41.9032 45.4003 41.7648 46.4384 41.4742C49.414 40.6299 51.6285 38.8445 52.9571 36.0211C53.9951 33.7929 54.2166 31.44 53.7322 29.0318C53.0679 25.8347 51.3101 23.4127 48.3622 21.9456ZM47.4764 34.5264C46.6875 35.9935 45.4142 36.7685 43.7534 36.9207C41.0822 37.156 39.1169 35.4537 38.5494 32.9901C38.5079 32.7964 38.4802 32.6026 38.4387 32.4088C38.3833 32.049 38.3557 31.703 38.3695 31.3431C38.3695 29.9037 38.7017 28.5612 39.6428 27.4402C40.7639 26.0838 42.2586 25.5856 43.9748 25.807C45.9124 26.0561 47.1996 27.1911 47.8362 29.0041C48.5144 30.8726 48.4314 32.7548 47.4764 34.5264Z" fill="#244482"/>
</g>
</g>
</svg>
