<svg width="358" height="157" viewBox="0 0 358 157" fill="none" xmlns="http://www.w3.org/2000/svg">
<path d="M287.812 9.51617H113.831C112.844 9.49054 111.864 9.68352 110.961 10.0813C110.058 10.479 109.254 11.0717 108.607 11.8168C107.96 12.5619 107.486 13.4409 107.218 14.3909C106.951 15.3408 106.897 16.3382 107.061 17.3114L123.707 144.186C124.022 146.317 125.08 148.268 126.694 149.694C128.308 151.12 130.374 151.931 132.527 151.982H306.508C307.495 152.007 308.475 151.814 309.378 151.416C310.281 151.019 311.085 150.426 311.732 149.681C312.379 148.936 312.853 148.057 313.121 147.107C313.388 146.157 313.442 145.16 313.278 144.186L296.632 17.3114C296.317 15.1807 295.259 13.23 293.645 11.8037C292.031 10.3773 289.965 9.56716 287.812 9.51617Z" fill="#778AD1"/>
<path d="M306.508 152.438H132.527C130.267 152.376 128.101 151.521 126.407 150.024C124.714 148.527 123.6 146.482 123.26 144.247L106.614 17.3722C106.453 16.3275 106.52 15.2603 106.811 14.244C107.102 13.2278 107.61 12.2866 108.299 11.4852C108.994 10.7121 109.849 10.0986 110.804 9.68687C111.759 9.27515 112.791 9.07494 113.831 9.09999H287.812C290.061 9.15953 292.219 10.0039 293.912 11.4868C295.604 12.9698 296.724 14.9979 297.079 17.22L313.725 144.095C313.886 145.14 313.819 146.207 313.528 147.223C313.237 148.239 312.729 149.181 312.04 149.982C311.351 150.768 310.5 151.395 309.545 151.819C308.589 152.243 307.553 152.454 306.508 152.438ZM113.831 9.96274C112.918 9.94336 112.011 10.122 111.174 10.4865C110.336 10.8509 109.587 11.3925 108.979 12.0739C108.379 12.7764 107.937 13.599 107.681 14.4866C107.426 15.3742 107.363 16.3062 107.497 17.22L124.143 144.095C124.452 146.116 125.46 147.966 126.992 149.32C128.524 150.674 130.483 151.447 132.527 151.504H306.508C307.421 151.524 308.328 151.345 309.166 150.981C310.003 150.616 310.752 150.075 311.36 149.393C311.968 148.687 312.415 147.858 312.671 146.963C312.926 146.067 312.985 145.127 312.842 144.207L296.196 17.3316C295.888 15.3102 294.879 13.4611 293.347 12.107C291.815 10.7529 289.856 9.97961 287.812 9.92214L113.831 9.96274Z" fill="#231F20"/>
<path d="M98.5349 29.7249H290.37L271.227 144.197C270.817 146.341 269.689 148.281 268.029 149.698C266.368 151.116 264.274 151.924 262.092 151.992H85.9083C84.9299 152.025 83.9568 151.835 83.0633 151.435C82.1698 151.035 81.3795 150.436 80.7528 149.684C80.1261 148.932 79.6796 148.046 79.4472 147.095C79.2149 146.144 79.203 145.153 79.4123 144.197L98.5349 29.7249Z" fill="white"/>
<path d="M262.122 152.459H85.9083C84.8778 152.483 83.8546 152.279 82.9122 151.862C81.9699 151.444 81.1316 150.823 80.4577 150.043C79.7856 149.227 79.3023 148.272 79.0426 147.247C78.7829 146.223 78.7531 145.153 78.9555 144.115L98.0781 29.6538C98.0971 29.5462 98.1532 29.4487 98.2367 29.3782C98.3201 29.3078 98.4256 29.2688 98.5349 29.2681H290.37C290.437 29.2692 290.503 29.2842 290.564 29.3121C290.626 29.3401 290.68 29.3803 290.725 29.4305C290.766 29.483 290.797 29.5434 290.814 29.6079C290.832 29.6724 290.836 29.7398 290.827 29.806L271.684 144.268C271.245 146.51 270.062 148.538 268.326 150.025C266.591 151.511 264.405 152.369 262.122 152.459ZM98.8901 30.1917L79.869 144.268C79.6909 145.172 79.7141 146.105 79.9369 146.999C80.1596 147.894 80.5766 148.729 81.1581 149.444C81.7527 150.11 82.4864 150.637 83.3073 150.988C84.1281 151.338 85.0161 151.505 85.9083 151.474H262.122C264.19 151.401 266.171 150.628 267.742 149.282C269.313 147.936 270.381 146.096 270.77 144.065L289.801 30.141L98.8901 30.1917Z" fill="#231F20"/>
<path d="M109.71 9.51621H285.924C286.903 9.48274 287.876 9.67328 288.769 10.0733C289.663 10.4733 290.453 11.0722 291.08 11.8242C291.706 12.5763 292.153 13.4616 292.385 14.4126C292.618 15.3636 292.63 16.3551 292.42 17.3114L290.39 29.7147H98.5552L100.585 17.3114C100.993 15.168 102.119 13.2276 103.778 11.8104C105.437 10.3933 107.529 9.584 109.71 9.51621Z" fill="#75F5ED"/>
<path d="M290.349 30.1816H98.5144C98.4457 30.1828 98.3778 30.1678 98.3161 30.1378C98.2544 30.1078 98.2006 30.0637 98.1591 30.009C98.1129 29.9594 98.0795 29.8993 98.0618 29.8339C98.0441 29.7684 98.0427 29.6996 98.0576 29.6335L100.088 17.2403C100.527 14.9919 101.72 12.9604 103.469 11.4806C105.218 10.0009 107.42 9.16124 109.71 9.10003H285.924C286.956 9.07607 287.98 9.28016 288.924 9.69774C289.868 10.1153 290.708 10.7361 291.385 11.5157C292.055 12.3326 292.536 13.2877 292.794 14.3125C293.052 15.3373 293.08 16.4064 292.877 17.4433L290.847 29.8365C290.82 29.9448 290.755 30.0397 290.663 30.1033C290.572 30.1668 290.46 30.1947 290.349 30.1816ZM99.0828 29.2478H289.964L291.994 17.2403C292.174 16.3358 292.152 15.4027 291.929 14.5077C291.706 13.6128 291.288 12.7782 290.705 12.0638C290.11 11.398 289.376 10.871 288.555 10.5202C287.735 10.1694 286.847 10.0034 285.954 10.0338H109.71C107.644 10.1094 105.665 10.8834 104.096 12.2292C102.527 13.5751 101.461 15.4132 101.072 17.4433L99.0828 29.2478Z" fill="#231F20"/>
<path d="M115.049 134.96H114.968C114.908 134.95 114.851 134.929 114.8 134.897C114.749 134.865 114.705 134.823 114.67 134.774C114.635 134.725 114.61 134.67 114.597 134.611C114.584 134.552 114.582 134.491 114.592 134.432L129.959 42.4427C129.981 42.3213 130.05 42.2133 130.15 42.1414C130.251 42.0694 130.375 42.0392 130.497 42.057C130.618 42.0793 130.725 42.1482 130.795 42.2489C130.866 42.3496 130.893 42.4739 130.873 42.5949L115.506 134.584C115.484 134.69 115.427 134.785 115.344 134.854C115.261 134.922 115.157 134.96 115.049 134.96Z" fill="#231F20"/>
<path d="M140.749 134.96H140.667C140.607 134.951 140.549 134.931 140.497 134.899C140.445 134.868 140.399 134.826 140.363 134.777C140.327 134.728 140.302 134.672 140.288 134.613C140.274 134.554 140.272 134.492 140.282 134.432L155.659 42.4427C155.661 42.3764 155.678 42.3114 155.707 42.2519C155.737 42.1925 155.779 42.1401 155.83 42.0981C155.882 42.0561 155.942 42.0256 156.006 42.0086C156.07 41.9915 156.137 41.9884 156.202 41.9993C156.268 42.0102 156.33 42.0349 156.385 42.0718C156.44 42.1088 156.487 42.157 156.522 42.2134C156.557 42.2698 156.58 42.333 156.588 42.3988C156.597 42.4646 156.592 42.5314 156.572 42.595L141.195 134.584C141.176 134.689 141.121 134.784 141.04 134.853C140.958 134.921 140.855 134.959 140.749 134.96Z" fill="#231F20"/>
<path d="M166.438 134.96H166.367C166.307 134.951 166.249 134.931 166.197 134.899C166.144 134.868 166.099 134.826 166.063 134.777C166.027 134.728 166.001 134.672 165.987 134.613C165.973 134.554 165.971 134.492 165.981 134.432L181.349 42.4427C181.371 42.3213 181.439 42.2133 181.54 42.1414C181.64 42.0694 181.764 42.0392 181.886 42.057C181.947 42.0667 182.005 42.0885 182.057 42.1211C182.108 42.1536 182.153 42.1963 182.188 42.2464C182.223 42.2966 182.248 42.3533 182.26 42.4132C182.273 42.4731 182.274 42.5349 182.262 42.5949L166.895 134.584C166.874 134.69 166.817 134.785 166.734 134.854C166.65 134.922 166.546 134.96 166.438 134.96Z" fill="#231F20"/>
<path d="M192.138 134.96H192.057C191.997 134.951 191.939 134.931 191.888 134.899C191.836 134.868 191.791 134.826 191.756 134.777C191.721 134.727 191.696 134.671 191.683 134.612C191.67 134.553 191.67 134.492 191.681 134.432L207.048 42.4427C207.051 42.3764 207.067 42.3114 207.097 42.2519C207.127 42.1925 207.168 42.1401 207.22 42.0981C207.271 42.0561 207.331 42.0256 207.395 42.0086C207.459 41.9915 207.526 41.9884 207.592 41.9993C207.657 42.0102 207.72 42.0349 207.775 42.0718C207.83 42.1088 207.877 42.157 207.912 42.2134C207.947 42.2698 207.969 42.333 207.978 42.3988C207.987 42.4646 207.981 42.5314 207.962 42.595L192.595 134.584C192.574 134.69 192.517 134.785 192.434 134.854C192.35 134.922 192.246 134.96 192.138 134.96Z" fill="#231F20"/>
<path d="M217.828 134.96H217.757C217.696 134.951 217.639 134.931 217.586 134.899C217.534 134.868 217.489 134.826 217.453 134.777C217.417 134.728 217.391 134.672 217.377 134.613C217.363 134.554 217.361 134.492 217.371 134.432L232.748 42.4427C232.751 42.3764 232.767 42.3114 232.797 42.2519C232.826 42.1925 232.868 42.1401 232.92 42.0981C232.971 42.0561 233.031 42.0256 233.095 42.0086C233.159 41.9915 233.226 41.9884 233.292 41.9993C233.357 42.0102 233.42 42.0349 233.475 42.0718C233.53 42.1088 233.576 42.157 233.611 42.2134C233.647 42.2698 233.669 42.333 233.678 42.3988C233.686 42.4646 233.681 42.5314 233.662 42.595L218.285 134.584C218.263 134.69 218.206 134.785 218.123 134.854C218.04 134.922 217.936 134.96 217.828 134.96Z" fill="#231F20"/>
<path d="M243.528 134.96H243.446C243.387 134.95 243.33 134.929 243.279 134.897C243.228 134.865 243.184 134.823 243.149 134.774C243.114 134.725 243.089 134.67 243.076 134.611C243.062 134.552 243.061 134.491 243.071 134.432L258.438 42.4427C258.44 42.3764 258.457 42.3114 258.486 42.2519C258.516 42.1925 258.558 42.1401 258.609 42.0981C258.661 42.0561 258.72 42.0256 258.785 42.0086C258.849 41.9915 258.916 41.9884 258.981 41.9993C259.047 42.0102 259.109 42.0349 259.164 42.0718C259.219 42.1088 259.266 42.157 259.301 42.2134C259.336 42.2698 259.359 42.333 259.367 42.3988C259.376 42.4646 259.371 42.5314 259.351 42.595L244.035 134.584C244.013 134.699 243.948 134.801 243.854 134.871C243.76 134.941 243.644 134.972 243.528 134.96Z" fill="#231F20"/>
<path d="M115.049 134.96H114.968C114.908 134.95 114.851 134.929 114.8 134.897C114.749 134.865 114.705 134.823 114.67 134.774C114.635 134.725 114.61 134.67 114.597 134.611C114.584 134.552 114.582 134.491 114.592 134.432L129.959 42.4427C129.981 42.3213 130.05 42.2133 130.15 42.1414C130.251 42.0694 130.375 42.0392 130.497 42.057C130.618 42.0793 130.725 42.1482 130.795 42.2489C130.866 42.3496 130.893 42.4739 130.873 42.5949L115.506 134.584C115.484 134.69 115.427 134.785 115.344 134.854C115.261 134.922 115.157 134.96 115.049 134.96Z" stroke="#D1D3D4" stroke-width="0.9338" stroke-linecap="round" stroke-linejoin="round"/>
<path d="M140.749 134.96H140.667C140.607 134.951 140.549 134.931 140.497 134.899C140.445 134.868 140.399 134.826 140.363 134.777C140.327 134.728 140.302 134.672 140.288 134.613C140.274 134.554 140.272 134.492 140.282 134.432L155.659 42.4427C155.661 42.3764 155.678 42.3114 155.707 42.2519C155.737 42.1925 155.779 42.1401 155.83 42.0981C155.882 42.0561 155.942 42.0256 156.006 42.0086C156.07 41.9915 156.137 41.9884 156.202 41.9993C156.268 42.0102 156.33 42.0349 156.385 42.0718C156.44 42.1088 156.487 42.157 156.522 42.2134C156.557 42.2698 156.58 42.333 156.588 42.3988C156.597 42.4646 156.592 42.5314 156.572 42.595L141.195 134.584C141.176 134.689 141.121 134.784 141.04 134.853C140.958 134.921 140.855 134.959 140.749 134.96Z" stroke="#D1D3D4" stroke-width="0.9338" stroke-linecap="round" stroke-linejoin="round"/>
<path d="M166.438 134.96H166.367C166.307 134.951 166.249 134.931 166.197 134.899C166.144 134.868 166.099 134.826 166.063 134.777C166.027 134.728 166.001 134.672 165.987 134.613C165.973 134.554 165.971 134.492 165.981 134.432L181.349 42.4427C181.371 42.3213 181.439 42.2133 181.54 42.1414C181.64 42.0694 181.764 42.0392 181.886 42.057C181.947 42.0667 182.005 42.0885 182.057 42.1211C182.108 42.1536 182.153 42.1963 182.188 42.2464C182.223 42.2966 182.248 42.3533 182.26 42.4132C182.273 42.4731 182.274 42.5349 182.262 42.5949L166.895 134.584C166.874 134.69 166.817 134.785 166.734 134.854C166.65 134.922 166.546 134.96 166.438 134.96Z" stroke="#D1D3D4" stroke-width="0.9338" stroke-linecap="round" stroke-linejoin="round"/>
<path d="M192.138 134.96H192.057C191.997 134.951 191.939 134.931 191.888 134.899C191.836 134.868 191.791 134.826 191.756 134.777C191.721 134.727 191.696 134.671 191.683 134.612C191.67 134.553 191.67 134.492 191.681 134.432L207.048 42.4427C207.051 42.3764 207.067 42.3114 207.097 42.2519C207.127 42.1925 207.168 42.1401 207.22 42.0981C207.271 42.0561 207.331 42.0256 207.395 42.0086C207.459 41.9915 207.526 41.9884 207.592 41.9993C207.657 42.0102 207.72 42.0349 207.775 42.0718C207.83 42.1088 207.877 42.157 207.912 42.2134C207.947 42.2698 207.969 42.333 207.978 42.3988C207.987 42.4646 207.981 42.5314 207.962 42.595L192.595 134.584C192.574 134.69 192.517 134.785 192.434 134.854C192.35 134.922 192.246 134.96 192.138 134.96Z" stroke="#D1D3D4" stroke-width="0.9338" stroke-linecap="round" stroke-linejoin="round"/>
<path d="M217.828 134.96H217.757C217.696 134.951 217.639 134.931 217.586 134.899C217.534 134.868 217.489 134.826 217.453 134.777C217.417 134.728 217.391 134.672 217.377 134.613C217.363 134.554 217.361 134.492 217.371 134.432L232.748 42.4427C232.751 42.3764 232.767 42.3114 232.797 42.2519C232.826 42.1925 232.868 42.1401 232.92 42.0981C232.971 42.0561 233.031 42.0256 233.095 42.0086C233.159 41.9915 233.226 41.9884 233.292 41.9993C233.357 42.0102 233.42 42.0349 233.475 42.0718C233.53 42.1088 233.576 42.157 233.611 42.2134C233.647 42.2698 233.669 42.333 233.678 42.3988C233.686 42.4646 233.681 42.5314 233.662 42.595L218.285 134.584C218.263 134.69 218.206 134.785 218.123 134.854C218.04 134.922 217.936 134.96 217.828 134.96Z" stroke="#D1D3D4" stroke-width="0.9338" stroke-linecap="round" stroke-linejoin="round"/>
<path d="M243.528 134.96H243.446C243.387 134.95 243.33 134.929 243.279 134.897C243.228 134.865 243.184 134.823 243.149 134.774C243.114 134.725 243.089 134.67 243.076 134.611C243.062 134.552 243.061 134.491 243.071 134.432L258.438 42.4427C258.44 42.3764 258.457 42.3114 258.486 42.2519C258.516 42.1925 258.558 42.1401 258.609 42.0981C258.661 42.0561 258.72 42.0256 258.785 42.0086C258.849 41.9915 258.916 41.9884 258.981 41.9993C259.047 42.0102 259.109 42.0349 259.164 42.0718C259.219 42.1088 259.266 42.157 259.301 42.2134C259.336 42.2698 259.359 42.333 259.367 42.3988C259.376 42.4646 259.371 42.5314 259.351 42.595L244.035 134.584C244.013 134.699 243.948 134.801 243.854 134.871C243.76 134.941 243.644 134.972 243.528 134.96Z" stroke="#D1D3D4" stroke-width="0.9338" stroke-linecap="round" stroke-linejoin="round"/>
<path d="M274.861 64.3059H107.325C107.258 64.3158 107.19 64.3112 107.126 64.2926C107.062 64.2739 107.002 64.2415 106.951 64.1977C106.9 64.1538 106.859 64.0996 106.831 64.0386C106.804 63.9775 106.789 63.9112 106.789 63.8441C106.789 63.777 106.804 63.7107 106.831 63.6496C106.859 63.5886 106.9 63.5343 106.951 63.4905C107.002 63.4467 107.062 63.4143 107.126 63.3957C107.19 63.377 107.258 63.3724 107.325 63.3823H274.861C274.927 63.3724 274.995 63.377 275.059 63.3957C275.124 63.4143 275.183 63.4467 275.234 63.4905C275.285 63.5343 275.326 63.5886 275.354 63.6496C275.382 63.7107 275.396 63.777 275.396 63.8441C275.396 63.9112 275.382 63.9775 275.354 64.0386C275.326 64.0996 275.285 64.1538 275.234 64.1977C275.183 64.2415 275.124 64.2739 275.059 64.2926C274.995 64.3112 274.927 64.3158 274.861 64.3059Z" fill="#231F20"/>
<path d="M270.74 88.9702H103.204C103.137 88.9801 103.07 88.9755 103.005 88.9569C102.941 88.9382 102.881 88.9058 102.83 88.862C102.779 88.8182 102.739 88.7639 102.711 88.7029C102.683 88.6419 102.668 88.5755 102.668 88.5084C102.668 88.4413 102.683 88.375 102.711 88.3139C102.739 88.2529 102.779 88.1987 102.83 88.1548C102.881 88.111 102.941 88.0786 103.005 88.0599C103.07 88.0413 103.137 88.0367 103.204 88.0466H270.74C270.806 88.0367 270.874 88.0413 270.938 88.0599C271.003 88.0786 271.062 88.111 271.113 88.1548C271.164 88.1987 271.205 88.2529 271.233 88.3139C271.261 88.375 271.275 88.4413 271.275 88.5084C271.275 88.5755 271.261 88.6419 271.233 88.7029C271.205 88.7639 271.164 88.8182 271.113 88.862C271.062 88.9058 271.003 88.9382 270.938 88.9569C270.874 88.9755 270.806 88.9801 270.74 88.9702Z" fill="#231F20"/>
<path d="M266.619 113.645H99.0829C98.959 113.645 98.8403 113.596 98.7527 113.508C98.6652 113.421 98.616 113.302 98.616 113.178C98.616 113.054 98.6652 112.935 98.7527 112.848C98.8403 112.76 98.959 112.711 99.0829 112.711H266.619C266.743 112.711 266.861 112.76 266.949 112.848C267.036 112.935 267.086 113.054 267.086 113.178C267.086 113.302 267.036 113.421 266.949 113.508C266.861 113.596 266.743 113.645 266.619 113.645Z" fill="#231F20"/>
<path d="M107.325 63.8389H274.861" stroke="#D1D3D4" stroke-width="0.9338" stroke-linecap="round" stroke-linejoin="round"/>
<path d="M274.861 64.3059H107.325C107.258 64.3158 107.19 64.3112 107.126 64.2926C107.062 64.2739 107.002 64.2415 106.951 64.1977C106.9 64.1538 106.859 64.0996 106.831 64.0386C106.804 63.9775 106.789 63.9112 106.789 63.8441C106.789 63.777 106.804 63.7107 106.831 63.6496C106.859 63.5886 106.9 63.5343 106.951 63.4905C107.002 63.4467 107.062 63.4143 107.126 63.3957C107.19 63.377 107.258 63.3724 107.325 63.3823H274.861C274.927 63.3724 274.995 63.377 275.059 63.3957C275.124 63.4143 275.183 63.4467 275.234 63.4905C275.285 63.5343 275.326 63.5886 275.354 63.6496C275.382 63.7107 275.396 63.777 275.396 63.8441C275.396 63.9112 275.382 63.9775 275.354 64.0386C275.326 64.0996 275.285 64.1538 275.234 64.1977C275.183 64.2415 275.124 64.2739 275.059 64.2926C274.995 64.3112 274.927 64.3158 274.861 64.3059Z" stroke="#D1D3D4" stroke-width="0.9338" stroke-linecap="round" stroke-linejoin="round"/>
<path d="M103.204 88.5137H270.74" stroke="#D1D3D4" stroke-width="0.9338" stroke-linecap="round" stroke-linejoin="round"/>
<path d="M270.74 88.9702H103.204C103.137 88.9801 103.07 88.9755 103.005 88.9569C102.941 88.9382 102.881 88.9058 102.83 88.862C102.779 88.8182 102.739 88.7639 102.711 88.7029C102.683 88.6419 102.668 88.5755 102.668 88.5084C102.668 88.4413 102.683 88.375 102.711 88.3139C102.739 88.2529 102.779 88.1987 102.83 88.1548C102.881 88.111 102.941 88.0786 103.005 88.0599C103.07 88.0413 103.137 88.0367 103.204 88.0466H270.74C270.806 88.0367 270.874 88.0413 270.938 88.0599C271.003 88.0786 271.062 88.111 271.113 88.1548C271.164 88.1987 271.205 88.2529 271.233 88.3139C271.261 88.375 271.275 88.4413 271.275 88.5084C271.275 88.5755 271.261 88.6419 271.233 88.7029C271.205 88.7639 271.164 88.8182 271.113 88.862C271.062 88.9058 271.003 88.9382 270.938 88.9569C270.874 88.9755 270.806 88.9801 270.74 88.9702Z" stroke="#D1D3D4" stroke-width="0.9338" stroke-linecap="round" stroke-linejoin="round"/>
<path d="M99.083 113.178H266.619" stroke="#D1D3D4" stroke-width="0.9338" stroke-linecap="round" stroke-linejoin="round"/>
<path d="M266.619 113.645H99.0829C98.959 113.645 98.8403 113.596 98.7527 113.508C98.6652 113.421 98.616 113.302 98.616 113.178C98.616 113.054 98.6652 112.935 98.7527 112.848C98.8403 112.76 98.959 112.711 99.0829 112.711H266.619C266.743 112.711 266.861 112.76 266.949 112.848C267.036 112.935 267.086 113.054 267.086 113.178C267.086 113.302 267.036 113.421 266.949 113.508C266.861 113.596 266.743 113.645 266.619 113.645Z" stroke="#D1D3D4" stroke-width="0.9338" stroke-linecap="round" stroke-linejoin="round"/>
<path d="M155.07 83.8243C155.003 83.8259 154.935 83.8121 154.874 83.784C154.812 83.7558 154.758 83.7141 154.715 83.6619C154.638 83.5671 154.602 83.4461 154.613 83.3247C154.625 83.2033 154.683 83.0912 154.776 83.0123L172.691 68.1019C172.785 68.0253 172.906 67.9887 173.028 68.0001C173.149 68.0115 173.261 68.0699 173.34 68.1628C173.418 68.2593 173.454 68.3819 173.443 68.505C173.432 68.6281 173.373 68.7419 173.279 68.8226L155.375 83.7228C155.288 83.7908 155.18 83.8266 155.07 83.8243Z" fill="#FF835B"/>
<path d="M170.488 83.8242C170.423 83.8243 170.359 83.8107 170.3 83.7845C170.24 83.7583 170.187 83.72 170.143 83.672L157.212 68.7616C157.128 68.6745 157.081 68.5581 157.081 68.4368C157.081 68.3156 157.128 68.1991 157.212 68.112C157.257 68.0709 157.31 68.0394 157.368 68.0196C157.426 67.9997 157.487 67.992 157.548 67.9967C157.609 68.0015 157.668 68.0187 157.722 68.0472C157.776 68.0758 157.823 68.1151 157.862 68.1628L170.793 83.063C170.877 83.1501 170.924 83.2666 170.924 83.3878C170.924 83.509 170.877 83.6255 170.793 83.7126C170.752 83.7506 170.704 83.7801 170.652 83.7993C170.6 83.8185 170.544 83.827 170.488 83.8242Z" fill="#FF835B"/>
<path d="M228.495 109.869C228.427 109.868 228.36 109.852 228.299 109.822C228.237 109.792 228.183 109.75 228.14 109.697C228.101 109.65 228.071 109.596 228.053 109.539C228.035 109.481 228.029 109.42 228.034 109.359C228.04 109.299 228.058 109.24 228.086 109.186C228.115 109.133 228.154 109.085 228.201 109.047L246.065 94.1468C246.111 94.1001 246.165 94.0634 246.226 94.039C246.286 94.0147 246.351 94.0034 246.416 94.0057C246.482 94.008 246.546 94.0239 246.604 94.0525C246.663 94.081 246.715 94.1215 246.757 94.1714C246.799 94.2212 246.83 94.2794 246.848 94.342C246.866 94.4046 246.871 94.4703 246.863 94.535C246.854 94.5996 246.832 94.6617 246.797 94.7172C246.763 94.7727 246.718 94.8204 246.664 94.8573L228.81 109.758C228.723 109.832 228.611 109.872 228.495 109.869Z" fill="#FF835B"/>
<path d="M243.913 109.869C243.847 109.869 243.782 109.855 243.722 109.827C243.663 109.799 243.61 109.758 243.568 109.707L230.637 94.8066C230.55 94.7191 230.5 94.6004 230.5 94.4767C230.5 94.353 230.55 94.2344 230.637 94.1468C230.732 94.0683 230.854 94.0298 230.977 94.0392C231.1 94.0487 231.215 94.1055 231.297 94.1976L244.218 109.098C244.305 109.185 244.354 109.304 244.354 109.428C244.354 109.551 244.305 109.67 244.218 109.758C244.132 109.828 244.024 109.868 243.913 109.869Z" fill="#FF835B"/>
<path d="M247.973 151.626L272.871 132.148H258.468C256.447 132.219 254.51 132.975 252.976 134.292C251.441 135.609 250.4 137.409 250.023 139.396L247.973 151.626Z" fill="white"/>
<path d="M247.973 152.093C247.891 152.094 247.811 152.073 247.74 152.032C247.66 151.984 247.596 151.912 247.556 151.827C247.517 151.743 247.503 151.648 247.516 151.555L249.546 139.314C249.947 137.223 251.047 135.331 252.664 133.946C254.281 132.561 256.32 131.766 258.448 131.692H272.851C272.948 131.69 273.043 131.719 273.122 131.776C273.2 131.833 273.259 131.914 273.287 132.006C273.321 132.096 273.324 132.194 273.297 132.286C273.269 132.378 273.213 132.458 273.135 132.514L248.247 151.992C248.169 152.054 248.073 152.09 247.973 152.093ZM258.468 132.615C256.557 132.683 254.726 133.398 253.275 134.642C251.823 135.887 250.838 137.588 250.48 139.467L248.633 150.53L271.531 132.615H258.468Z" fill="#231F20"/>
<path d="M235.682 24.2438C235.325 24.2432 234.975 24.1487 234.667 23.9698C232.954 22.973 231.499 21.5891 230.418 19.929C229.337 18.2688 228.66 16.3784 228.44 14.4094C228.221 12.4403 228.466 10.4473 229.155 8.58987C229.845 6.73246 230.96 5.06232 232.41 3.71323C233.861 2.36415 235.608 1.37362 237.511 0.820972C239.413 0.268327 241.419 0.168929 243.367 0.530749C245.315 0.892569 247.151 1.70555 248.728 2.90456C250.305 4.10357 251.58 5.6553 252.45 7.43544C252.686 7.91999 252.721 8.4788 252.546 8.98894C252.371 9.49907 252 9.91875 251.516 10.1556C251.031 10.3925 250.472 10.4272 249.962 10.2521C249.452 10.077 249.032 9.70639 248.796 9.22184C247.941 7.46881 246.517 6.05714 244.757 5.21711C242.997 4.37707 241.004 4.15823 239.103 4.59627C237.203 5.03431 235.507 6.1034 234.292 7.62914C233.077 9.15489 232.415 11.0473 232.413 12.9976C232.416 14.5091 232.813 15.9937 233.566 17.3041C234.319 18.6145 235.402 19.7052 236.707 20.468C237.088 20.6941 237.385 21.0386 237.552 21.449C237.718 21.8593 237.747 22.3131 237.632 22.7409C237.517 23.1688 237.265 23.5473 236.915 23.8186C236.564 24.09 236.135 24.2393 235.692 24.2438H235.682Z" fill="#D0CDE1"/>
<path d="M190.017 24.2439C189.66 24.2433 189.31 24.1488 189.002 23.9699C186.588 22.5686 184.704 20.4109 183.641 17.8307C182.578 15.2504 182.396 12.3917 183.122 9.69721C183.848 7.00269 185.442 4.62266 187.657 2.92567C189.872 1.22868 192.585 0.309408 195.376 0.310199C197.754 0.29897 200.087 0.96001 202.105 2.2171C204.124 3.47418 205.746 5.27613 206.785 7.4152C207.021 7.89975 207.056 8.45856 206.881 8.9687C206.706 9.47883 206.335 9.89851 205.851 10.1354C205.366 10.3723 204.807 10.407 204.297 10.2319C203.787 10.0568 203.367 9.68615 203.131 9.2016C202.276 7.44857 200.852 6.03691 199.092 5.19688C197.332 4.35684 195.339 4.138 193.438 4.57604C191.538 5.01408 189.842 6.08316 188.627 7.60891C187.412 9.13466 186.75 11.027 186.748 12.9774C186.751 14.49 187.149 15.9757 187.904 17.2864C188.659 18.5971 189.745 19.6871 191.052 20.4478C191.433 20.6738 191.73 21.0183 191.897 21.4287C192.064 21.8391 192.092 22.2928 191.977 22.7207C191.862 23.1486 191.61 23.527 191.26 23.7984C190.909 24.0697 190.48 24.2191 190.037 24.2236L190.017 24.2439Z" fill="#D0CDE1"/>
<path d="M144.352 24.2438C143.995 24.2477 143.644 24.1528 143.337 23.9697C141.622 22.9746 140.165 21.5917 139.081 19.9317C137.998 18.2717 137.318 16.381 137.097 14.411C136.876 12.4411 137.12 10.4467 137.809 8.58794C138.498 6.72915 139.612 5.05763 141.064 3.70739C142.515 2.35716 144.263 1.36579 146.166 0.812785C148.07 0.259777 150.077 0.160513 152.026 0.522957C153.974 0.8854 155.811 1.69946 157.389 2.89987C158.966 4.10028 160.241 5.65364 161.11 7.43538C161.236 7.67564 161.314 7.93893 161.337 8.20963C161.36 8.48032 161.329 8.75292 161.245 9.01128C161.161 9.26963 161.026 9.50849 160.847 9.71367C160.669 9.91886 160.452 10.0862 160.208 10.2058C159.964 10.3254 159.699 10.3948 159.427 10.4099C159.156 10.425 158.884 10.3855 158.629 10.2938C158.373 10.202 158.138 10.0598 157.939 9.8757C157.739 9.69156 157.578 9.4692 157.466 9.22178C156.614 7.46304 155.19 6.04556 153.428 5.2014C151.665 4.35724 149.669 4.1364 147.764 4.57503C145.86 5.01367 144.161 6.08579 142.946 7.61589C141.73 9.14599 141.07 11.0434 141.073 12.9976C141.078 14.5098 141.477 15.9946 142.232 17.305C142.987 18.6153 144.071 19.7057 145.377 20.468C145.758 20.694 146.055 21.0385 146.222 21.4489C146.389 21.8593 146.417 22.313 146.302 22.7409C146.187 23.1687 145.935 23.5472 145.585 23.8186C145.234 24.0899 144.805 24.2393 144.362 24.2438H144.352Z" fill="#D0CDE1"/>
<path d="M140.505 6.54229C140.417 6.54271 140.33 6.52182 140.251 6.48138C140.134 6.41333 140.047 6.30175 140.011 6.17072C139.975 6.03968 139.992 5.89972 140.058 5.78104C141.027 4.30287 142.377 3.11399 143.966 2.34018C144.027 2.30252 144.095 2.27819 144.166 2.26879C144.237 2.25939 144.309 2.26514 144.378 2.28565C144.447 2.30616 144.51 2.34096 144.565 2.38778C144.619 2.4346 144.662 2.49238 144.693 2.55729C144.723 2.62221 144.739 2.69281 144.74 2.76444C144.741 2.83608 144.727 2.90712 144.699 2.97291C144.67 3.03869 144.628 3.09772 144.576 3.14611C144.523 3.19451 144.46 3.23116 144.392 3.25368C142.999 3.95448 141.81 5.00337 140.941 6.29868C140.896 6.3735 140.832 6.43526 140.755 6.47794C140.679 6.52063 140.592 6.5428 140.505 6.54229Z" fill="white"/>
<path d="M186.759 6.54221C186.67 6.54168 186.583 6.51784 186.506 6.47308C186.429 6.42832 186.366 6.3642 186.321 6.28714C186.277 6.21008 186.254 6.12277 186.254 6.03395C186.254 5.94512 186.278 5.85789 186.322 5.78096C187.291 4.29939 188.646 3.10984 190.24 2.34011C190.361 2.28452 190.5 2.27891 190.625 2.3245C190.75 2.37009 190.853 2.46321 190.91 2.58371C190.939 2.64354 190.955 2.70855 190.959 2.77491C190.962 2.84127 190.952 2.90764 190.93 2.97008C190.907 3.03253 190.872 3.08979 190.827 3.13849C190.781 3.18719 190.727 3.22633 190.666 3.25361C189.273 3.95441 188.084 5.0033 187.215 6.29861C187.168 6.37646 187.101 6.44016 187.02 6.48302C186.94 6.52588 186.85 6.54633 186.759 6.54221Z" fill="white"/>
<path d="M231.936 6.54221C231.848 6.5415 231.761 6.52066 231.682 6.4813C231.567 6.41158 231.483 6.29926 231.448 6.16837C231.414 6.03747 231.433 5.89842 231.5 5.78096C232.466 4.30417 233.812 3.11542 235.397 2.3401C235.458 2.31099 235.524 2.29422 235.591 2.29072C235.658 2.28723 235.725 2.2971 235.788 2.31976C235.852 2.34243 235.91 2.37743 235.959 2.42273C236.009 2.46804 236.049 2.52276 236.077 2.5837C236.106 2.64353 236.123 2.70854 236.126 2.7749C236.13 2.84126 236.12 2.90763 236.097 2.97008C236.074 3.03252 236.039 3.08978 235.994 3.13848C235.949 3.18718 235.894 3.22632 235.834 3.2536C234.44 3.9544 233.252 5.00329 232.383 6.2986C232.335 6.37354 232.269 6.43517 232.191 6.47776C232.113 6.52035 232.025 6.54252 231.936 6.54221Z" fill="white"/>
<path d="M30.8841 21.0868L7.50879 22.2832L13.441 138.187L36.8163 136.99L30.8841 21.0868Z" fill="white"/>
<path d="M13.4575 138.655C13.3371 138.655 13.2213 138.608 13.1343 138.525C13.0473 138.442 12.9959 138.328 12.9906 138.208L7.05287 22.295C7.04774 22.2346 7.05499 22.1737 7.07419 22.1161C7.09338 22.0585 7.12412 22.0054 7.16452 21.9601C7.24714 21.8653 7.36388 21.8069 7.48932 21.7977L30.8343 20.6C30.9585 20.597 31.0792 20.6415 31.1717 20.7245C31.2641 20.8076 31.3213 20.9228 31.3317 21.0466L37.2999 136.99C37.3056 137.051 37.2977 137.113 37.2766 137.171C37.2556 137.229 37.2219 137.282 37.1781 137.325C37.1388 137.374 37.0894 137.414 37.0334 137.442C36.9773 137.47 36.9159 137.485 36.8533 137.487L13.5083 138.685L13.4575 138.655ZM8.00697 22.7213L13.9041 137.69L36.3458 136.543L30.4486 21.5744L8.00697 22.7213Z" fill="#D1D3D4"/>
<path d="M10.4129 138.163L13.5391 138.007L7.73631 21.9515L4.61011 22.1078L10.4129 138.163Z" fill="white"/>
<path d="M10.3413 138.807C10.227 138.805 10.1163 138.766 10.0266 138.695C9.93805 138.609 9.88392 138.494 9.8744 138.37L3.93665 22.4675C3.93071 22.4054 3.93754 22.3428 3.95675 22.2834C3.97595 22.2241 4.00711 22.1693 4.0483 22.1224C4.13442 22.0338 4.24991 21.9797 4.3731 21.9702L7.48915 21.8078C7.61336 21.8047 7.73404 21.8493 7.82649 21.9323C7.91894 22.0153 7.97618 22.1305 7.9865 22.2544L13.9242 138.157C13.9298 138.282 13.8861 138.404 13.8026 138.497C13.7191 138.59 13.6024 138.647 13.4776 138.655L10.3616 138.807H10.3413ZM4.89075 22.8837L10.7879 137.853L12.9701 137.741L7.073 22.772L4.89075 22.8837Z" fill="#D1D3D4"/>
<path d="M8.55503 28.9433C8.4312 28.9433 8.31245 28.8942 8.22489 28.8066C8.13733 28.719 8.08813 28.6003 8.08813 28.4764C8.08813 28.3526 8.13733 28.2339 8.22489 28.1463C8.31245 28.0587 8.4312 28.0095 8.55503 28.0095L12.9601 27.7761C13.0215 27.7734 13.0827 27.7828 13.1404 27.8037C13.1981 27.8247 13.2511 27.8569 13.2964 27.8984C13.3416 27.9398 13.3782 27.9898 13.4041 28.0455C13.43 28.1011 13.4447 28.1614 13.4473 28.2227C13.4515 28.2835 13.4434 28.3445 13.4235 28.4022C13.4037 28.4598 13.3725 28.5129 13.3318 28.5583C13.2912 28.6037 13.2418 28.6405 13.1867 28.6666C13.1316 28.6926 13.0718 28.7073 13.0109 28.7099L8.60578 28.9433H8.55503Z" fill="#D1D3D4"/>
<path d="M8.9103 36.7283C8.79065 36.726 8.67623 36.6788 8.58974 36.5961C8.50325 36.5134 8.45102 36.4012 8.4434 36.2817C8.43927 36.2201 8.44769 36.1582 8.46815 36.0999C8.48861 36.0416 8.52069 35.9881 8.56244 35.9425C8.60419 35.897 8.65474 35.8604 8.71105 35.835C8.76735 35.8095 8.82823 35.7958 8.89001 35.7945L13.4474 35.5509C13.5716 35.5479 13.6922 35.5925 13.7847 35.6755C13.8772 35.7585 13.9344 35.8737 13.9447 35.9975C13.9474 36.0589 13.938 36.1201 13.9171 36.1778C13.8961 36.2355 13.8639 36.2885 13.8224 36.3337C13.781 36.379 13.731 36.4156 13.6753 36.4415C13.6197 36.4674 13.5594 36.4821 13.4981 36.4847L8.9306 36.7283H8.9103Z" fill="#D1D3D4"/>
<path d="M9.30609 44.5132C9.19281 44.4966 9.0893 44.4397 9.01446 44.3531C8.93961 44.2664 8.89844 44.1558 8.89844 44.0413C8.89844 43.9268 8.93961 43.8161 9.01446 43.7294C9.0893 43.6428 9.19281 43.5859 9.30609 43.5693L16.9795 43.1836C17.1017 43.178 17.2212 43.2206 17.3123 43.3022C17.4034 43.3839 17.4588 43.498 17.4667 43.62C17.4724 43.7433 17.4301 43.8639 17.3487 43.9567C17.2673 44.0494 17.1532 44.107 17.0302 44.1174L9.35684 44.5031L9.30609 44.5132Z" fill="#D1D3D4"/>
<path d="M9.7121 52.2882C9.59265 52.2909 9.47687 52.2468 9.38959 52.1652C9.30231 52.0836 9.25047 51.9711 9.2452 51.8517C9.24106 51.7904 9.24909 51.7288 9.26881 51.6706C9.28853 51.6124 9.31955 51.5586 9.36011 51.5124C9.40066 51.4662 9.44994 51.4284 9.50512 51.4013C9.5603 51.3742 9.62029 51.3582 9.68165 51.3544L14.0867 51.1311C14.1481 51.1284 14.2093 51.1377 14.267 51.1587C14.3247 51.1797 14.3777 51.2119 14.423 51.2533C14.4682 51.2948 14.5048 51.3448 14.5308 51.4005C14.5567 51.4561 14.5713 51.5163 14.5739 51.5777C14.5781 51.6385 14.57 51.6995 14.5501 51.7572C14.5303 51.8148 14.4991 51.8679 14.4584 51.9133C14.4178 51.9587 14.3684 51.9955 14.3133 52.0215C14.2582 52.0476 14.1984 52.0623 14.1375 52.0649L9.7324 52.2882H9.7121Z" fill="#D1D3D4"/>
<path d="M10.108 60.0732C9.98927 60.0735 9.8749 60.0285 9.78817 59.9474C9.70143 59.8663 9.64884 59.7553 9.6411 59.6368C9.63553 59.5119 9.67921 59.3898 9.76273 59.2968C9.84625 59.2038 9.96294 59.1473 10.0877 59.1395L14.7465 58.906C14.8704 58.906 14.9891 58.9552 15.0767 59.0427C15.1643 59.1303 15.2135 59.2491 15.2135 59.3729C15.2135 59.4967 15.1643 59.6155 15.0767 59.703C14.9891 59.7906 14.8704 59.8398 14.7465 59.8398L10.0775 60.0732H10.108Z" fill="#D1D3D4"/>
<path d="M10.504 67.8584C10.386 67.8563 10.2729 67.8105 10.1867 67.7299C10.1004 67.6493 10.0471 67.5396 10.0371 67.4219C10.0315 67.2971 10.0752 67.175 10.1587 67.082C10.2422 66.9889 10.3589 66.9324 10.4837 66.9246L18.1571 66.5389C18.2179 66.5348 18.2789 66.5429 18.3366 66.5627C18.3942 66.5825 18.4473 66.6137 18.4927 66.6544C18.5381 66.6951 18.5749 66.7444 18.601 66.7995C18.627 66.8547 18.6417 66.9144 18.6443 66.9753C18.6499 67.1002 18.6062 67.2223 18.5227 67.3153C18.4391 67.4083 18.3225 67.4648 18.1977 67.4727L10.5344 67.8584H10.504Z" fill="#D1D3D4"/>
<path d="M61.5936 51.6392L51.8765 50.7908L43.5634 146.001L53.2806 146.849L61.5936 51.6392Z" fill="white"/>
<path d="M53.2658 147.333L43.5522 146.49C43.4916 146.486 43.4325 146.469 43.3785 146.441C43.3245 146.413 43.2765 146.375 43.2376 146.328C43.1573 146.232 43.1173 146.108 43.1259 145.983L51.3982 50.715C51.4134 50.593 51.4741 50.4813 51.5682 50.4022C51.6624 50.3232 51.7829 50.2826 51.9057 50.2887L61.6294 51.1413C61.6904 51.1463 61.7498 51.1636 61.804 51.192C61.8582 51.2205 61.9061 51.2595 61.9449 51.3069C61.9838 51.3542 62.0127 51.4089 62.0299 51.4676C62.0472 51.5263 62.0525 51.588 62.0455 51.6488L53.7327 146.866C53.7327 146.99 53.6835 147.109 53.5959 147.196C53.5083 147.284 53.3896 147.333 53.2658 147.333ZM44.08 145.587L52.8598 146.358L61.1015 52.0751L52.3117 51.3037L44.08 145.587Z" fill="#D1D3D4"/>
<path d="M61.5889 51.6488C60.1274 52.611 58.3921 53.0707 56.6459 52.9582C55.7343 53.0059 54.8245 52.8345 53.9928 52.4583C53.161 52.0822 52.4315 51.5122 51.8652 50.7962L55.5091 41.4887L58.1684 34.7085L59.6097 41.8135L61.5889 51.6488Z" fill="white"/>
<path d="M56.6456 53.4352C55.6553 53.4883 54.6671 53.2988 53.7667 52.8831C52.8663 52.4674 52.0811 51.8381 51.4792 51.05C51.4365 50.9885 51.4095 50.9175 51.4007 50.8431C51.3918 50.7688 51.4014 50.6934 51.4285 50.6237L57.7316 34.5359C57.7656 34.4398 57.8315 34.3581 57.9182 34.3046C58.005 34.251 58.1075 34.2288 58.2087 34.2416C58.3088 34.2522 58.403 34.2943 58.4777 34.3618C58.5525 34.4292 58.604 34.5186 58.6248 34.6171L62.0454 51.5473C62.0605 51.631 62.0535 51.7172 62.025 51.7973C61.9965 51.8774 61.9476 51.9487 61.883 52.0041C61.8221 52.065 60.1473 53.4352 56.6456 53.4352ZM52.3927 50.715C52.9289 51.303 53.5878 51.766 54.3227 52.0712C55.0576 52.3764 55.8506 52.5163 56.6456 52.4811C58.1859 52.5547 59.7167 52.2036 61.071 51.4661L58.026 36.3832L52.3927 50.715Z" fill="#D1D3D4"/>
<path d="M59.6094 41.8439L55.5088 41.4887L58.1681 34.7085L59.6094 41.8439Z" fill="#FF835B"/>
<path d="M59.6097 42.3107L55.5497 41.9554C55.4791 41.9463 55.4115 41.9215 55.3518 41.8829C55.2921 41.8442 55.2418 41.7927 55.2046 41.7321C55.1725 41.6693 55.1558 41.5997 55.1558 41.5291C55.1558 41.4585 55.1725 41.389 55.2046 41.3261L57.8537 34.5358C57.8892 34.4407 57.9554 34.3601 58.0418 34.3068C58.1282 34.2535 58.2298 34.2305 58.3308 34.2414C58.4296 34.2526 58.5223 34.2951 58.5954 34.3626C58.6684 34.4302 58.7179 34.5193 58.7368 34.617L60.1882 41.722C60.2017 41.7896 60.2 41.8594 60.1834 41.9263C60.1667 41.9932 60.1354 42.0556 60.0917 42.109C60.048 42.1624 59.9931 42.2054 59.9308 42.235C59.8685 42.2646 59.8004 42.2801 59.7315 42.2802L59.6097 42.3107ZM56.1688 41.0825L59.0311 41.3363L58.0161 36.3425L56.1688 41.0825Z" fill="#FF835B"/>
<path d="M48.7205 49.2754L41.0762 48.6079L34.5341 123.534L42.1784 124.202L48.7205 49.2754Z" fill="white"/>
<path d="M42.1821 124.668L34.529 123.998C34.468 123.993 34.4086 123.976 34.3544 123.947C34.3002 123.919 34.2522 123.88 34.2134 123.832C34.1746 123.785 34.1457 123.73 34.1284 123.672C34.1111 123.613 34.1059 123.551 34.1129 123.49L40.6495 48.5632C40.6623 48.4402 40.7224 48.327 40.8171 48.2475C40.9118 48.168 41.0336 48.1283 41.157 48.1369L48.8101 48.8068C48.9319 48.8185 49.0446 48.8767 49.1247 48.9692C49.1659 49.016 49.1971 49.0708 49.2163 49.1302C49.2355 49.1895 49.2423 49.2522 49.2364 49.3143L42.6896 124.242C42.6842 124.303 42.666 124.363 42.6363 124.417C42.6066 124.471 42.566 124.519 42.5171 124.556C42.4718 124.597 42.4187 124.627 42.3611 124.647C42.3035 124.666 42.2426 124.673 42.1821 124.668ZM35.0771 123.105L41.7964 123.693L48.2214 49.7L41.5021 49.1214L35.0771 123.105Z" fill="#D1D3D4"/>
<path d="M48.7289 49.2635C48.2693 49.7936 47.6923 50.2092 47.0439 50.477C46.3954 50.7449 45.6934 50.8576 44.9937 50.8063C44.2161 50.7337 43.4622 50.4994 42.7805 50.1183C42.0988 49.7373 41.5043 49.2179 41.0352 48.5936L43.9076 41.2754L45.9376 35.9365L47.1759 41.5799L48.7289 49.2635Z" fill="white"/>
<path d="M45.2881 51.2834H44.9734C44.1333 51.2005 43.3196 50.9438 42.584 50.5297C41.8484 50.1156 41.2069 49.5531 40.7003 48.8778C40.6558 48.8153 40.627 48.743 40.6164 48.6671C40.6058 48.5911 40.6137 48.5137 40.6394 48.4414L45.6027 35.7742C45.6394 35.674 45.7108 35.5903 45.8038 35.5381C45.8969 35.486 46.0056 35.4689 46.1102 35.49C46.2121 35.4986 46.3086 35.5398 46.3854 35.6074C46.4621 35.675 46.5151 35.7655 46.5365 35.8655L49.1552 49.1722C49.1705 49.2369 49.1711 49.3042 49.1571 49.3691C49.143 49.4341 49.1146 49.4951 49.074 49.5477C48.6064 50.094 48.0256 50.5322 47.3719 50.8319C46.7182 51.1316 46.0072 51.2856 45.2881 51.2834ZM41.6138 48.5124C42.4647 49.5479 43.6907 50.2047 45.0242 50.3394C45.6133 50.3876 46.2058 50.3042 46.7587 50.0953C47.3117 49.8864 47.8113 49.5572 48.2214 49.1316L45.8869 37.591L41.6138 48.5124Z" fill="#D1D3D4"/>
<path d="M47.1759 41.5596L43.9482 41.2754L46.029 35.9365L47.1759 41.5596Z" fill="white"/>
<path d="M47.1251 42.0267L43.9076 41.7425C43.8342 41.739 43.7628 41.7167 43.7006 41.6775C43.6384 41.6384 43.5873 41.5838 43.5524 41.5192C43.5202 41.4545 43.5034 41.3833 43.5034 41.3111C43.5034 41.2389 43.5202 41.1676 43.5524 41.103L45.6432 35.7641C45.6803 35.6736 45.7461 35.5978 45.8304 35.5483C45.9148 35.4988 46.0131 35.4783 46.1101 35.4901C46.2121 35.4987 46.3085 35.5398 46.3853 35.6074C46.4621 35.6751 46.515 35.7656 46.5364 35.8656L47.6732 41.4887C47.6877 41.5604 47.6852 41.6345 47.6658 41.705C47.6464 41.7755 47.6107 41.8405 47.5616 41.8947C47.5046 41.9499 47.4353 41.9907 47.3594 42.0136C47.2835 42.0366 47.2031 42.0411 47.1251 42.0267ZM44.5674 40.8696L46.5974 41.0421L45.897 37.5911L44.5674 40.8696Z" fill="#D1D3D4"/>
<path d="M38.396 124.424C38.3341 124.42 38.2736 124.404 38.2182 124.376C38.1628 124.348 38.1137 124.31 38.0738 124.262C38.0339 124.215 38.0041 124.16 37.9862 124.1C37.9683 124.041 37.9627 123.978 37.9697 123.917L44.5672 50.7657C44.5867 50.6456 44.6486 50.5365 44.7418 50.4582C44.8349 50.38 44.9531 50.3378 45.0747 50.3394C45.1996 50.3522 45.3144 50.4138 45.3942 50.5107C45.474 50.6076 45.5124 50.732 45.501 50.857L38.9035 124.008C38.8985 124.069 38.8812 124.128 38.8528 124.183C38.8243 124.237 38.7853 124.285 38.7379 124.324C38.6906 124.363 38.6359 124.391 38.5772 124.409C38.5184 124.426 38.4568 124.431 38.396 124.424Z" fill="#D1D3D4"/>
<path d="M35.3111 69.3616L27.1973 69.0442L26.0789 97.6352L34.1927 97.9526L35.3111 69.3616Z" fill="white"/>
<path d="M34.1838 98.4199L26.0638 98.0951C26.0026 98.0961 25.942 98.084 25.8859 98.0594C25.8299 98.0349 25.7798 97.9986 25.739 97.953C25.6959 97.9087 25.6621 97.8563 25.6394 97.7988C25.6168 97.7413 25.6058 97.6799 25.607 97.6181L26.7337 68.9849C26.7414 68.8638 26.7951 68.7501 26.8837 68.6671C26.9724 68.5841 27.0893 68.5381 27.2107 68.5383L35.3307 68.853C35.4546 68.8607 35.5708 68.9155 35.6557 69.006C35.7406 69.0966 35.7877 69.2161 35.7875 69.3402L34.6608 97.9226C34.6651 97.9873 34.6558 98.0521 34.6336 98.113C34.6114 98.174 34.5768 98.2296 34.5319 98.2764C34.487 98.3232 34.4329 98.3601 34.3729 98.3848C34.313 98.4095 34.2486 98.4215 34.1838 98.4199ZM26.5611 97.1816L33.7372 97.4658L34.8232 69.8172L27.6472 69.533L26.5611 97.1816Z" fill="#D1D3D4"/>
<path d="M38.0604 40.8273L26.6909 40.3826L25.5726 68.9736L36.942 69.4183L38.0604 40.8273Z" fill="white"/>
<path d="M36.9749 69.8882L25.6069 69.4416C25.4832 69.434 25.367 69.3796 25.2821 69.2894C25.2404 69.2446 25.2081 69.1918 25.1872 69.1343C25.1662 69.0767 25.1571 69.0156 25.1603 68.9544L26.2768 40.372C26.2868 40.249 26.3423 40.1341 26.4323 40.0497C26.5224 39.9653 26.6406 39.9174 26.764 39.9153L38.132 40.3619C38.2557 40.3695 38.3718 40.4239 38.4568 40.5141C38.4985 40.5589 38.5308 40.6117 38.5517 40.6692C38.5726 40.7268 38.5818 40.7879 38.5786 40.8491L37.4621 69.4315C37.4608 69.4937 37.4471 69.555 37.4218 69.6118C37.3964 69.6687 37.36 69.7198 37.3146 69.7624C37.2692 69.8049 37.2158 69.838 37.1575 69.8596C37.0991 69.8812 37.037 69.8909 36.9749 69.8882ZM26.0941 68.5281L36.5283 68.9341L37.6042 41.2754L27.17 40.8694L26.0941 68.5281Z" fill="#D1D3D4"/>
<path d="M21.9531 66.204C21.831 66.1987 21.7159 66.1458 21.6324 66.0566C21.5489 65.9674 21.5037 65.8491 21.5065 65.7269L22.2779 45.8431C22.3174 44.9177 22.722 44.0457 23.403 43.418C24.0841 42.7902 24.986 42.4578 25.9116 42.4936H26.4597C26.5835 42.4936 26.7023 42.5428 26.7898 42.6303C26.8774 42.7179 26.9266 42.8366 26.9266 42.9605C26.9266 43.0843 26.8774 43.2031 26.7898 43.2906C26.7023 43.3782 26.5835 43.4274 26.4597 43.4274H25.9116C25.5761 43.4124 25.241 43.4639 24.9255 43.5789C24.61 43.6939 24.3204 43.8701 24.0732 44.0975C23.8261 44.3248 23.6263 44.5987 23.4855 44.9035C23.3446 45.2083 23.2653 45.538 23.2523 45.8735L22.4809 65.7574C22.4786 65.8225 22.4627 65.8863 22.4343 65.9449C22.4059 66.0035 22.3655 66.0555 22.3158 66.0975C22.2661 66.1396 22.2082 66.1708 22.1457 66.1891C22.0832 66.2075 22.0176 66.2125 21.9531 66.204Z" fill="#D1D3D4"/>
<path d="M1.37891 71.8574H65.395L61.6902 148.155C61.6875 150.167 60.8864 152.095 59.4629 153.517C58.0394 154.939 56.1098 155.737 54.098 155.737H12.7063C10.6954 155.737 8.7669 154.938 7.34499 153.516C5.92308 152.094 5.12425 150.166 5.12425 148.155L1.37891 71.8574Z" fill="white"/>
<path d="M54.0982 156.204H12.7065C10.5726 156.201 8.52691 155.352 7.01802 153.844C5.50913 152.335 4.66026 150.289 4.65757 148.155L0.912224 71.888C0.909457 71.7605 0.956808 71.6369 1.04411 71.544C1.1314 71.451 1.25169 71.3959 1.37913 71.3906H65.3952C65.4585 71.3914 65.521 71.4053 65.5787 71.4315C65.6363 71.4578 65.6879 71.4957 65.7301 71.5429C65.776 71.5873 65.8116 71.6412 65.8344 71.7008C65.8572 71.7604 65.8667 71.8243 65.8621 71.888L62.1573 148.155C62.1546 150.291 61.3044 152.338 59.7933 153.847C58.2822 155.356 56.2339 156.204 54.0982 156.204ZM1.87647 72.3244L5.59138 148.155C5.59138 150.039 6.33994 151.847 7.67238 153.179C9.00483 154.512 10.812 155.26 12.6964 155.26H54.0982C55.9826 155.26 57.7898 154.512 59.1222 153.179C60.4547 151.847 61.2032 150.039 61.2032 148.155L64.9283 72.3244H1.87647Z" fill="#D1D3D4"/>
<path d="M64.228 86.24H2.72911C2.60528 86.24 2.48652 86.1908 2.39896 86.1032C2.3114 86.0156 2.26221 85.8969 2.26221 85.773C2.2648 85.65 2.31482 85.5328 2.40183 85.4458C2.48883 85.3588 2.60609 85.3087 2.72911 85.3062H64.228C64.3518 85.3062 64.4705 85.3553 64.5581 85.4429C64.6457 85.5305 64.6949 85.6492 64.6949 85.773C64.6962 85.8347 64.6851 85.8961 64.6621 85.9534C64.6392 86.0106 64.6048 86.0627 64.5612 86.1063C64.5176 86.1499 64.4655 86.1843 64.4083 86.2072C64.351 86.2302 64.2896 86.2413 64.228 86.24Z" fill="#D1D3D4"/>
<path d="M357.187 35.3784H313.887V78.2926H357.187V35.3784Z" fill="white"/>
<path d="M357.197 78.7594H313.887C313.764 78.7568 313.647 78.7068 313.56 78.6198C313.473 78.5328 313.423 78.4155 313.42 78.2925V35.3783C313.423 35.2553 313.473 35.138 313.56 35.051C313.647 34.964 313.764 34.914 313.887 34.9114H357.197C357.32 34.914 357.438 34.964 357.525 35.051C357.612 35.138 357.662 35.2553 357.664 35.3783V78.2925C357.662 78.4155 357.612 78.5328 357.525 78.6198C357.438 78.7068 357.32 78.7568 357.197 78.7594ZM314.364 77.8256H356.7V35.8452H314.364V77.8256Z" fill="#D1D3D4"/>
<path d="M339.882 28.3748H332.005V40.5345H339.882V28.3748Z" fill="#FF835B"/>
<path d="M350.194 45.7617H327.022C326.898 45.7617 326.779 45.7125 326.691 45.6249C326.604 45.5374 326.555 45.4186 326.555 45.2948C326.555 45.171 326.604 45.0522 326.691 44.9646C326.779 44.8771 326.898 44.8279 327.022 44.8279H350.194C350.318 44.8279 350.437 44.8771 350.524 44.9646C350.612 45.0522 350.661 45.171 350.661 45.2948C350.661 45.4186 350.612 45.5374 350.524 45.6249C350.437 45.7125 350.318 45.7617 350.194 45.7617Z" fill="#D1D3D4"/>
<path d="M350.194 53.8921H320.454C320.331 53.8921 320.212 53.8429 320.124 53.7553C320.037 53.6677 319.988 53.549 319.988 53.4251C319.988 53.3013 320.037 53.1826 320.124 53.095C320.212 53.0074 320.331 52.9583 320.454 52.9583H350.194C350.318 52.9583 350.437 53.0074 350.524 53.095C350.612 53.1826 350.661 53.3013 350.661 53.4251C350.661 53.549 350.612 53.6677 350.524 53.7553C350.437 53.8429 350.318 53.8921 350.194 53.8921Z" fill="#D1D3D4"/>
<path d="M350.417 62.0222H320.454C320.331 62.0222 320.212 61.973 320.124 61.8854C320.037 61.7979 319.988 61.6791 319.988 61.5553C319.988 61.4314 320.037 61.3127 320.124 61.2251C320.212 61.1376 320.331 61.0884 320.454 61.0884H350.417C350.479 61.0884 350.539 61.1005 350.596 61.1239C350.653 61.1474 350.704 61.1818 350.747 61.2251C350.791 61.2685 350.825 61.32 350.849 61.3766C350.872 61.4333 350.884 61.494 350.884 61.5553C350.884 61.6166 350.872 61.6773 350.849 61.734C350.825 61.7906 350.791 61.8421 350.747 61.8854C350.704 61.9288 350.653 61.9632 350.596 61.9866C350.539 62.0101 350.479 62.0222 350.417 62.0222Z" fill="#D1D3D4"/>
<path d="M338.806 70.1523H320.454C320.331 70.1523 320.212 70.1031 320.124 70.0156C320.037 69.928 319.988 69.8092 319.988 69.6854C319.988 69.5616 320.037 69.4428 320.124 69.3553C320.212 69.2677 320.331 69.2185 320.454 69.2185H338.806C338.929 69.2185 339.048 69.2677 339.136 69.3553C339.223 69.4428 339.273 69.5616 339.273 69.6854C339.273 69.8092 339.223 69.928 339.136 70.0156C339.048 70.1031 338.929 70.1523 338.806 70.1523Z" fill="#D1D3D4"/>
</svg>
