<svg width="260" height="183" viewBox="0 0 260 183" fill="none" xmlns="http://www.w3.org/2000/svg">
<path d="M142 167.755C142 167.755 151.963 178.182 166.514 183H179L161.585 173.274C160.793 172.829 159.971 172.426 159.123 172.066C156.896 171.095 154.985 169.663 153.564 167.9C153.23 167.485 152.931 167.048 152.67 166.596C151.341 164.339 146.567 156.196 145.68 154L142 167.755Z" fill="#F9B499"/>
<path d="M99.0066 160C99.0066 160 98.4247 168.294 108.189 183H119C116.574 179.644 114.39 176.179 112.456 172.624C110.843 169.525 110.191 166.159 110.556 162.814L110.863 160H99.0066Z" fill="#F9B499"/>
<path d="M100 140.169C100 140.169 105.037 125.851 130.979 129.637C130.979 129.637 142.674 130.886 146.165 141.201C146.813 143.168 147.087 145.212 146.976 147.253C146.882 149.229 146.564 152.173 145.559 154.732C145.254 155.507 144.96 156.285 144.717 157.078C143.259 161.831 139.081 176.655 141.621 183H105.189C105.189 183 103.949 157.56 107.784 147.94L100 140.169Z" fill="#FF835B"/>
<path d="M138 139.052C138 139.052 141.453 137.643 145.626 131C145.626 131 147.259 131.267 145.626 133.614C145.626 133.614 143.305 136.229 146.352 136.028C146.352 136.028 148.089 136.348 152.414 133.638C152.567 133.537 152.747 133.469 152.938 133.439C153.129 133.408 153.326 133.417 153.512 133.463C153.814 133.548 153.974 133.754 153.411 134.219L149.798 136.769C149.798 136.769 155.107 134.48 156.18 134.771C156.18 134.771 157.538 135.198 154.37 136.426C155.09 136.288 155.828 136.231 156.566 136.255C156.661 136.265 156.751 136.297 156.825 136.349C156.899 136.401 156.952 136.47 156.98 136.547C157.007 136.625 157.007 136.707 156.979 136.784C156.951 136.861 156.897 136.93 156.823 136.981C156.35 137.324 155.19 137.797 152.449 138.317C152.449 138.317 155.277 138.082 155.051 138.744C155.051 138.744 154.704 139.738 146.171 141.155C146.171 141.155 140.515 142.291 139.893 143L138 139.052Z" fill="#F9B499"/>
<path d="M159.978 136.856C159.978 136.856 158.311 133.968 159.978 133C159.978 133 160.128 133.712 162.625 137.913C162.625 137.913 164.822 140.951 164.368 145.412C164.368 145.412 166.412 149.161 172.315 152.856L184.046 160.096L194.416 149.107C194.416 149.107 201.76 138.828 206 137.601L204.706 155.301C204.706 155.301 199.559 158.598 196.456 161.257C196.456 161.257 188.736 169.273 180.939 166.364C180.939 166.364 176.322 164.003 170.307 158.187C170.307 158.187 162.698 150.042 160.997 147.618C160.997 147.618 157.401 143.673 159.86 140.54C159.863 140.531 161.467 139.388 159.978 136.856Z" fill="#F9B499"/>
<path d="M253.493 169.288C253.493 169.288 240.561 157.295 239 153.668L242.79 141C242.79 141 258.287 160.524 259.961 168.571C260.057 169.207 259.976 169.854 259.723 170.459C259.471 171.063 259.055 171.608 258.509 172.049L249.501 183H245.245C245.245 183 249.035 172.622 253.493 169.288Z" fill="#F9B499"/>
<path d="M214 127.671C214.71 129.049 215.125 130.512 215.227 132C215.227 132 222.155 130.846 228 131.818C228 131.818 221.728 126.274 222.629 120C222.386 120.209 222.054 120.34 221.698 120.366C221.342 120.392 220.986 120.312 220.7 120.141C220.7 120.141 219.143 125.593 214 127.671Z" fill="#F9B499"/>
<path d="M138.371 138.98C138.371 138.98 132.402 136.974 110.892 147.954C110.892 147.954 108.754 147.001 102.67 140.889C102.67 140.889 89.5268 127.481 78.483 126C78.483 126 80.489 128.68 74.8962 128.455C74.1284 128.422 73.3605 128.419 72.5962 128.455C70.6178 128.543 69.4176 128.246 70.642 126.003C70.642 126.003 51.8056 129.464 43.5461 145.634L42 171.096L51.5047 179.753C51.5047 179.753 52.7048 181.918 54.5069 183H92.4979C92.4979 183 93.698 182.044 93.2484 179.498C93.2484 179.498 94.3517 163.046 93.3487 158.606C93.3487 158.606 100.007 163.386 108.114 161.448C108.114 161.448 136.345 152.761 141 142.831C141 142.831 138.371 141.476 138.371 138.98ZM55.1018 162.148C55.1018 162.148 52.2552 156.65 56.7516 152.259C56.7516 152.274 56.9142 158.486 55.1018 162.163V162.148Z" fill="#778AD1"/>
<path d="M36.7726 136L40 129.099L35.2802 125L34 134.497L36.7726 136Z" fill="#F9B499"/>
<path d="M50 121.508C50 126.749 46.6324 131 42.4789 131C38.3254 131 34.9613 126.761 34.9613 121.508C34.9613 121.123 34.9785 120.745 35.0164 120.37H34.9613C33.879 120.37 33 119.277 33 117.928C33 116.579 33.879 115.489 34.9613 115.489C35.2198 115.495 35.4733 115.555 35.7026 115.664C35.932 115.773 36.1311 115.929 36.2849 116.119C37.6361 113.629 39.9075 112 42.4893 112C46.6324 112.028 50 116.277 50 121.508Z" fill="#F9B499"/>
<path d="M8 183C8 183 14.8966 173.99 12.5624 159.889L17.7912 151.937V141.092L26.1368 137.735L34.4995 134C34.4995 134 41.0202 138.545 44.7829 147.516C45.9649 150.344 46.293 153.384 45.7364 156.351C44.9865 160.489 43.5332 164.51 41.4234 168.283C39.4417 171.697 38.2101 175.397 37.7906 179.198C37.6488 180.46 37.6213 181.731 37.7086 182.997L8 183Z" fill="#D0CDE1"/>
<path d="M13.0658 135.67C12.7474 133.987 13.2058 130.046 20.9323 123.881C20.9323 123.881 23.5498 122.425 25.261 117.373C25.261 117.373 24.4631 104.161 34.4887 106.298C34.4887 106.298 38.7054 107.676 41.3264 106.065C41.3264 106.065 48.5035 102.607 49.8718 108.154C50.1127 109.307 50.013 110.493 49.5817 111.605C49.1504 112.717 48.401 113.721 47.4012 114.524C47.4012 114.524 44.9727 116.314 43.377 115.434C43.377 115.434 41.5084 119.734 36.5183 116.613C36.5183 116.613 35.507 115.386 34.0863 116.38C34.0863 116.38 32.802 117.197 33.3409 119.214C33.4235 119.489 33.5748 119.745 33.7844 119.965C33.994 120.185 34.257 120.363 34.5552 120.489C35.1446 120.689 35.652 121.032 36.0144 121.476C36.6583 122.309 37.4142 123.666 36.9592 125.149C36.9592 125.149 36.4763 134.444 33.1835 137.033C33.1835 137.033 29.1732 139.949 28.9458 141.957C28.9458 141.957 27.0457 154.068 20.7399 154.65C20.7399 154.65 18.3113 154.715 16.8661 157.824C16.8661 157.824 15.1164 164.108 6.15816 161.259C6.15816 161.259 -0.602545 159.638 3.11724 151.672C4.31614 149.677 5.74384 147.788 7.37942 146.033C8.10591 145.307 8.94261 144.666 9.86744 144.129C10.7703 143.589 12.254 142.309 12.9923 139.48C13.3002 138.226 13.3251 136.932 13.0658 135.67Z" fill="#2F2E41"/>
<path d="M33.2974 149.353C32.8706 148.514 32.4572 147.669 32.0913 146.81C28.5611 138.518 22.6051 140.125 22.6051 140.125C20.7451 140.555 19.8101 142.119 19.3459 143.712C18.7633 145.756 18.9194 147.905 19.7931 149.87C23.6202 158.413 29.5913 166.12 37.2782 172.437C37.2782 172.437 46.158 179.478 55.6442 183H68C68 183 50.4234 173.288 47.3133 171.516C47.1168 171.402 46.9169 171.294 46.717 171.189C45.9378 170.777 43.2139 169.143 41.5233 165.49L33.2974 149.353Z" fill="#F9B499"/>
<path d="M206.427 183C206.427 183 209.731 175.028 203.045 153.389C203.045 153.389 196.469 136.56 216.31 131.567C216.31 131.567 234.923 127.729 244.176 140.026C244.734 140.321 246.963 147.044 240.496 155.119C240.496 155.119 236.046 164.254 238.825 183H206.427Z" fill="#778AD1"/>
<path d="M0 89C0 89 15.7187 78.9386 7.51658 41.2689C7.51658 41.2689 0.115428 15.3502 22.6337 3.9878C32.7246 -1.10175 45.2429 -1.26659 55.7465 3.19007C64.8055 7.03446 74.4767 14.6261 75.3336 29.5621C75.4246 31.1193 75.547 32.6765 75.7289 34.2307C76.9356 44.5364 77.4428 88.2405 0 89Z" fill="#75F5ED"/>
<path d="M94.2439 59.9483C94.2439 59.9483 81.3449 59.4113 75.6693 59.9483C75.6693 59.9483 36.6935 61.9444 36.0102 41.1337C36.0102 41.1337 34.1416 14.9094 81.0485 22.3191C81.0485 22.3191 105.236 24.7355 120 44.338C119.983 44.338 108.189 47.4052 94.2439 59.9483Z" fill="#75F5ED"/>
<path d="M65.5 45C66.8807 45 68 44.1046 68 43C68 41.8954 66.8807 41 65.5 41C64.1193 41 63 41.8954 63 43C63 44.1046 64.1193 45 65.5 45Z" fill="white"/>
<path d="M76.5 45C77.8807 45 79 44.1046 79 43C79 41.8954 77.8807 41 76.5 41C75.1193 41 74 41.8954 74 43C74 44.1046 75.1193 45 76.5 45Z" fill="white"/>
<path d="M87 45C88.1046 45 89 44.1046 89 43C89 41.8954 88.1046 41 87 41C85.8954 41 85 41.8954 85 43C85 44.1046 85.8954 45 87 45Z" fill="white"/>
<path d="M78 80.4534C78 80.4534 101.31 29.9589 164.115 39.1086C169.117 39.8003 173.773 41.7016 177.519 44.5817C181.264 47.4618 183.937 51.1968 185.214 55.3332C185.214 55.3332 191.58 78.247 168.083 82.7532C166.568 83.0454 165.075 83.3961 163.578 83.7848C157.644 85.3541 139.848 88.6709 111.991 81.9496C109.732 81.406 107.486 80.7982 105.278 80.1553C102.239 79.2786 92.0567 76.9817 78 80.4534Z" fill="#75F5ED"/>
<path d="M233 90.3294C233 90.3294 176.344 98.2599 168.202 59.5775C168.202 59.5775 158.436 28.0205 194.577 22.2665C194.577 22.2665 219.07 17.5211 224.053 48.0813C224.717 52.3091 224.872 56.5826 224.518 60.8368C224.046 66.8091 224.207 80.0365 233 90.3294Z" fill="#75F5ED"/>
<path d="M208.5 62C209.881 62 211 60.8807 211 59.5C211 58.1193 209.881 57 208.5 57C207.119 57 206 58.1193 206 59.5C206 60.8807 207.119 62 208.5 62Z" fill="white"/>
<path d="M197.5 62C199.433 62 201 60.8807 201 59.5C201 58.1193 199.433 57 197.5 57C195.567 57 194 58.1193 194 59.5C194 60.8807 195.567 62 197.5 62Z" fill="white"/>
<path d="M186.5 62C187.881 62 189 60.8807 189 59.5C189 58.1193 187.881 57 186.5 57C185.119 57 184 58.1193 184 59.5C184 60.8807 185.119 62 186.5 62Z" fill="white"/>
<path d="M119.012 121H128V130.468C128 131.065 127.883 131.655 127.657 132.206C127.43 132.757 127.098 133.257 126.679 133.678C126.26 134.099 125.763 134.432 125.216 134.659C124.67 134.886 124.084 135.002 123.493 135C122.301 135 121.158 134.523 120.316 133.673C119.473 132.823 119 131.67 119 130.468V121H119.012Z" fill="#F9B499"/>
<path d="M68 118H79V127.844C79 128.946 78.4205 130.003 77.3891 130.783C76.3576 131.562 74.9587 132 73.5 132C72.0413 132 70.6424 131.562 69.6109 130.783C68.5795 130.003 68 128.946 68 127.844V118Z" fill="#F9B499"/>
<path d="M77.5 124C83.299 124 88 119.075 88 113C88 106.925 83.299 102 77.5 102C71.701 102 67 106.925 67 113C67 119.075 71.701 124 77.5 124Z" fill="#F9B499"/>
<path d="M77.1242 100.092C79.1403 100.601 83.7276 100.561 85.0456 100.512C85.3732 100.504 85.6977 100.457 86.0094 100.371C86.9184 100.075 87.7342 99.6058 88.3933 99C88.5871 99.2079 88.7243 99.4494 88.7951 99.7071C89.1501 100.778 89.0413 101.921 88.4883 102.93C87.9353 103.939 86.9744 104.749 85.7778 105.214C82.4778 106.462 78.3025 105.364 78.3025 105.364C78.3025 105.364 78.0505 111.34 77.962 113.389C77.9244 114.05 78.1099 114.706 78.4966 115.281C80.0905 117.563 83.2645 115.692 84.1125 115.125C84.3288 114.974 84.5757 114.858 84.8413 114.781C85.1875 114.689 85.5538 114.664 85.9129 114.709C86.2719 114.753 86.6146 114.865 86.9153 115.036C88.802 116.379 82.9614 117.408 82.9614 117.408C83.479 118.345 86.9153 117.695 86.9153 117.695C88.3558 119.132 87.5078 123.122 87.5078 123.122C86.5475 126.991 80.6319 123.683 80.6319 123.683C73.4666 120.434 74.7403 115.131 74.7403 115.131C75.9969 107.393 72.0158 108.454 72.0158 108.454C68.5421 108.578 72.0158 118.313 72.0158 118.313C72.0158 118.313 69.356 119.374 67.8031 118.75C67.8031 118.75 59.2278 112.139 64.9935 103.711C64.9662 103.711 68.9508 98.0342 77.1242 100.092Z" fill="#2F2E41"/>
<path d="M39.3957 131L40 130.189C40 130.189 36.9832 129.293 36 128C36.1256 128.608 36.4958 129.193 37.0833 129.712C37.6708 130.231 38.4609 130.671 39.3957 131Z" fill="#F7A48B"/>
<path d="M79 125V123.601C79 123.601 74.1178 123.795 72 122C72 121.99 72.4214 124.183 79 125Z" fill="#F7A48B"/>
<path d="M128 126.758V125.108C128 125.108 123.66 126.114 122 124C122 124 124.415 128.008 128 126.758Z" fill="#F7A48B"/>
<path d="M127 126C132.523 126 137 121.523 137 116C137 110.477 132.523 106 127 106C121.477 106 117 110.477 117 116C117 121.523 121.477 126 127 126Z" fill="#F9B499"/>
<path d="M118.404 122C118.404 122 106.69 111.79 112.73 105.894C112.73 105.894 115.984 102.192 125.059 102.98C125.059 102.98 128.539 103.769 130.354 102.553C131.29 101.953 132.342 101.481 133.468 101.155C134.453 100.9 135.524 100.962 136.454 101.327C137.383 101.693 138.101 102.334 138.455 103.116C139.285 104.93 139.821 108.009 134.971 109.418C133.171 109.45 131.373 109.326 129.607 109.049C128.655 108.888 127.665 108.971 126.776 109.287C125.886 109.603 125.144 110.136 124.652 110.81C124.639 110.834 124.623 110.856 124.605 110.877C124.605 110.877 123.61 114.404 120.866 114.193C120.272 114.135 119.669 114.192 119.108 114.36C118.242 114.649 117.354 115.166 118.253 116.093C118.253 116.105 121.125 119.022 118.404 122Z" fill="#2F2E41"/>
<path d="M214.737 129C214.737 129 214.548 127.867 214 127.296C214 127.296 216.925 126.812 220 122C219.903 123.407 219.375 124.775 218.46 125.992C217.545 127.21 216.268 128.241 214.737 129Z" fill="#F7A48B"/>
<path d="M224 118.167C224 119.308 223.206 120.234 222.229 120.234C221.914 120.231 221.609 120.138 221.366 119.971C220.565 124.547 217.018 128 212.768 128C207.924 128 204 123.52 204 118C204 112.48 207.924 108 212.768 108C216.846 108 220.27 111.172 221.251 115.467C221.297 115.651 221.42 115.815 221.597 115.93C221.775 116.046 221.996 116.105 222.221 116.097C223.217 116.1 224 117.023 224 118.167Z" fill="#F9B499"/>
<path d="M228.58 113.92C228.58 113.92 228.781 121.979 223.004 122C222.866 122 222.729 121.976 222.602 121.929C222.474 121.882 222.36 121.814 222.264 121.728C222.168 121.642 222.094 121.54 222.046 121.428C221.997 121.316 221.975 121.197 221.982 121.078C222.06 120.363 222.328 119.672 222.766 119.059C223.039 118.644 223.137 118.161 223.045 117.69C222.952 117.22 222.675 116.791 222.258 116.477L222.22 116.447C222.22 116.447 220.247 117.072 218.25 113.92C218.25 113.92 216.887 111.317 214.198 113.154C214.198 113.154 210.316 116.882 203.046 113.348C203.046 113.348 198.442 110.384 203.046 107.851C203.046 107.851 205.933 107.279 206.598 105.894C206.598 105.894 210.592 97.7698 219.746 102.835C219.746 102.835 221.58 96.2877 226.961 100.303C226.961 100.303 227.517 100.972 229.125 100.399C229.125 100.399 235.942 99.34 233.454 108.35C233.464 108.35 232.741 112.201 228.58 113.92Z" fill="#2F2E41"/>
</svg>
