<svg width="220" height="61" viewBox="0 0 220 61" fill="none" xmlns="http://www.w3.org/2000/svg">
<mask id="mask0_2_1948" style="mask-type:luminance" maskUnits="userSpaceOnUse" x="0" y="0" width="220" height="61">
<path d="M219.117 0.240112H0.981201V60.9131H219.117V0.240112Z" fill="white"/>
</mask>
<g mask="url(#mask0_2_1948)">
<mask id="mask1_2_1948" style="mask-type:luminance" maskUnits="userSpaceOnUse" x="0" y="0" width="220" height="61">
<path d="M219.117 0.240112H0.981201V60.9131H219.117V0.240112Z" fill="white"/>
</mask>
<g mask="url(#mask1_2_1948)">
<path d="M33.0486 44.3897L49.2716 16.8811C49.0104 16.1235 48.71 15.379 48.3703 14.6475L19.647 2.51294L1.2688 28.8329C1.33411 29.2639 1.41248 29.6819 1.49085 30.1129L33.0486 44.3897Z" fill="#F7B916"/>
</g>
<mask id="mask2_2_1948" style="mask-type:luminance" maskUnits="userSpaceOnUse" x="0" y="0" width="220" height="61">
<path d="M219.117 0.240112H0.981201V60.9131H219.117V0.240112Z" fill="white"/>
</mask>
<g mask="url(#mask2_2_1948)">
<path d="M104.04 47.6813H97.3658C97.3396 47.6813 97.3135 47.6682 97.3005 47.6552L91.5532 40.6409L85.8059 47.6552C85.7928 47.6813 85.7667 47.6813 85.7406 47.6813H80.3982C80.3591 47.6813 80.3329 47.6682 80.3199 47.629C80.3068 47.6029 80.3068 47.5637 80.3329 47.5376L88.8102 37.1403L80.4374 26.8344C80.4113 26.8082 80.4113 26.769 80.4244 26.7429C80.4374 26.7299 80.4635 26.6907 80.4897 26.6907H87.1644C87.1905 26.6907 87.2166 26.7037 87.2297 26.7299L92.2716 32.9735L97.4049 26.7168C97.418 26.6907 97.4441 26.6776 97.4703 26.6776H102.917C102.943 26.6776 102.982 26.7037 102.995 26.7299C103.009 26.756 103.009 26.7952 102.982 26.8213L95.0277 36.3827L104.106 47.5376C104.132 47.5637 104.132 47.6029 104.119 47.629C104.106 47.6682 104.08 47.6813 104.04 47.6813Z" fill="#1F3562"/>
</g>
<mask id="mask3_2_1948" style="mask-type:luminance" maskUnits="userSpaceOnUse" x="0" y="0" width="220" height="61">
<path d="M219.117 0.240112H0.981201V60.9131H219.117V0.240112Z" fill="white"/>
</mask>
<g mask="url(#mask3_2_1948)">
<path d="M140.17 30.4003C137.218 30.4003 135.193 32.1898 134.618 35.3116H144.676V35.1026C144.676 32.6078 142.834 30.4003 140.17 30.4003ZM149.862 38.5118C149.849 38.5379 149.823 38.551 149.783 38.551H134.514C134.827 42.1039 137.139 44.1285 140.888 44.1285C143.187 44.1285 145.63 43.3447 149.091 41.503C149.143 41.4769 149.222 41.5291 149.222 41.5944L149.209 46.2837C149.196 46.3229 149.183 46.349 149.157 46.3621C145.943 47.7205 142.717 48.6349 140.183 48.6349C133.613 48.6349 128.832 43.8542 128.832 37.2448C128.832 30.6485 133.613 25.8547 140.183 25.8547C146.178 25.8547 150.032 29.8909 150.032 35.4553C150.032 36.3435 149.862 38.4334 149.862 38.5118Z" fill="#1F3562"/>
</g>
<mask id="mask4_2_1948" style="mask-type:luminance" maskUnits="userSpaceOnUse" x="0" y="0" width="220" height="61">
<path d="M219.117 0.240112H0.981201V60.9131H219.117V0.240112Z" fill="white"/>
</mask>
<g mask="url(#mask4_2_1948)">
<path d="M180.897 22.3672C179.016 22.3672 177.501 20.8651 177.501 19.0233C177.501 17.1293 179.016 15.575 180.897 15.575C182.765 15.575 184.293 17.1163 184.293 19.0233C184.28 20.8651 182.765 22.3672 180.897 22.3672ZM178.141 47.6813C178.089 47.6813 178.05 47.6421 178.05 47.5899V26.7821C178.05 26.743 178.076 26.7038 178.115 26.7038H183.64C183.68 26.7168 183.706 26.743 183.706 26.7821V47.5899C183.706 47.6421 183.666 47.6813 183.627 47.6813H178.141Z" fill="#1F3562"/>
</g>
<mask id="mask5_2_1948" style="mask-type:luminance" maskUnits="userSpaceOnUse" x="0" y="0" width="220" height="61">
<path d="M219.117 0.240112H0.981201V60.9131H219.117V0.240112Z" fill="white"/>
</mask>
<g mask="url(#mask5_2_1948)">
<path d="M114.138 44.5464C113.132 44.5464 112.113 44.4028 110.95 44.0893L110.963 30.7399C112.335 30.3089 113.524 30.0999 114.712 30.0999C118.539 30.0999 121.1 32.9213 121.1 37.1142C121.1 41.6336 118.37 44.5464 114.138 44.5464ZM115.64 25.8547C114.085 25.8547 112.518 26.129 110.872 26.7038H105.386C105.334 26.7038 105.308 26.743 105.308 26.7821V60.9131C106.966 60.6911 108.991 60.1033 110.977 58.6926V48.3083C112.322 48.5042 113.445 48.6218 114.516 48.6218C122.04 48.6218 126.899 44.1154 126.899 37.1403C126.886 30.5048 122.262 25.8547 115.64 25.8547Z" fill="#1F3562"/>
</g>
<mask id="mask6_2_1948" style="mask-type:luminance" maskUnits="userSpaceOnUse" x="0" y="0" width="220" height="61">
<path d="M219.117 0.240112H0.981201V60.9131H219.117V0.240112Z" fill="white"/>
</mask>
<g mask="url(#mask6_2_1948)">
<path d="M168.097 42.8222C166.373 43.7235 164.844 44.1545 163.408 44.1545C159.998 44.1545 157.961 41.7511 157.961 37.715C157.961 33.0649 160.56 30.0476 164.596 30.0476C165.706 30.0476 166.791 30.3219 168.11 30.9097V42.8222H168.097ZM168.097 15.6794V26.5731C166.49 26.1029 165.066 25.8939 163.643 25.8939C157.099 25.8939 152.161 30.8313 152.161 37.3754C152.161 43.8933 156.524 48.6087 162.506 48.6087C164.583 48.6087 166.529 48.0862 168.815 46.9106L168.802 48.7916C170.317 48.5042 172.041 47.8903 173.753 46.6755V13.4589C172.081 13.6809 170.095 14.2426 168.097 15.6794Z" fill="#1F3562"/>
</g>
<mask id="mask7_2_1948" style="mask-type:luminance" maskUnits="userSpaceOnUse" x="0" y="0" width="220" height="61">
<path d="M219.117 0.240112H0.981201V60.9131H219.117V0.240112Z" fill="white"/>
</mask>
<g mask="url(#mask7_2_1948)">
<path d="M202.828 42.7831C201.169 43.7366 199.732 44.2068 198.465 44.2068C194.821 44.2068 192.64 41.8034 192.64 37.7673C192.64 33.1825 195.213 30.0999 199.04 30.0999C200.072 30.0999 201.313 30.4917 202.828 31.3016V42.7831ZM208.497 26.4556C208.497 26.325 208.379 26.2205 208.262 26.2205L203.808 26.2335C203.664 26.2335 203.56 26.338 203.56 26.4686V27.2262H203.442C201.391 26.325 199.628 25.907 197.891 25.907C191.725 25.907 186.879 31.0273 186.879 37.5844C186.879 44.2068 191.203 48.6349 197.656 48.6349C199.367 48.6349 201.587 48.5173 203.651 46.14V48.8177C205.114 48.5042 206.838 47.8903 208.484 46.7147L208.497 26.4556Z" fill="#1F3562"/>
</g>
<mask id="mask8_2_1948" style="mask-type:luminance" maskUnits="userSpaceOnUse" x="0" y="0" width="220" height="61">
<path d="M219.117 0.240112H0.981201V60.9131H219.117V0.240112Z" fill="white"/>
</mask>
<g mask="url(#mask8_2_1948)">
<path d="M65.1417 42.4042H78.9613C78.7523 43.9455 78.2298 45.7612 77.0281 47.6029H65.1678H62.8167H62.6599C60.8965 47.6029 59.4467 46.2445 59.2769 44.5203C59.2769 44.4941 59.2638 44.468 59.2507 44.455V30.2827V17.1815C59.2507 17.1554 59.2638 17.1423 59.2769 17.1162C59.4467 15.392 60.8965 14.0205 62.6599 14.0205C62.7252 14.0205 62.7644 14.0336 62.8167 14.0336H78.9352C78.7262 15.5749 78.2037 17.4297 77.002 19.2584H65.1417V26.6776H76.8844C76.9367 26.6776 76.9759 26.7168 76.9759 26.756V31.9024C76.9759 31.9416 76.9367 31.9808 76.8844 31.9808H65.1417V42.4042Z" fill="#1F3562"/>
</g>
<mask id="mask9_2_1948" style="mask-type:luminance" maskUnits="userSpaceOnUse" x="0" y="0" width="220" height="61">
<path d="M219.117 0.240112H0.981201V60.9131H219.117V0.240112Z" fill="white"/>
</mask>
<g mask="url(#mask9_2_1948)">
<path d="M104.054 47.6813H97.3788C97.3527 47.6813 97.3266 47.6813 97.3135 47.6552L91.5662 40.6409L85.819 47.6552C85.8059 47.6813 85.7798 47.6813 85.7537 47.6813H80.3982C80.3721 47.6813 80.3329 47.6682 80.3199 47.629C80.3068 47.6029 80.3068 47.5637 80.3329 47.5376L88.7971 37.1403L80.4244 26.8344C80.3982 26.8082 80.3982 26.769 80.4113 26.7429C80.4244 26.7168 80.4505 26.6907 80.4897 26.6907H87.1644C87.1905 26.6907 87.2166 26.7037 87.2297 26.7299L92.2716 32.9735L97.4049 26.7168C97.418 26.7037 97.4441 26.6776 97.4703 26.6776H102.917C102.943 26.6776 102.982 26.7037 102.995 26.7299C103.009 26.756 103.009 26.7952 102.982 26.8213L95.0277 36.3827L104.106 47.5376C104.132 47.5637 104.132 47.6029 104.119 47.629C104.106 47.6682 104.08 47.6813 104.054 47.6813Z" fill="#1F3562"/>
</g>
<mask id="mask10_2_1948" style="mask-type:luminance" maskUnits="userSpaceOnUse" x="0" y="0" width="220" height="61">
<path d="M219.117 0.240112H0.981201V60.9131H219.117V0.240112Z" fill="white"/>
</mask>
<g mask="url(#mask10_2_1948)">
<path d="M140.17 30.3873C137.218 30.3873 135.194 32.1767 134.619 35.2986H144.677V35.0896C144.677 32.6078 142.835 30.3873 140.17 30.3873ZM149.862 38.4988C149.849 38.5249 149.823 38.5379 149.784 38.5379H134.514C134.828 42.0908 137.14 44.1154 140.876 44.1154C143.174 44.1154 145.617 43.3317 149.078 41.49C149.131 41.4508 149.209 41.5161 149.209 41.5814L149.196 46.2706C149.196 46.3098 149.17 46.3359 149.144 46.349C145.931 47.7075 142.704 48.6218 140.17 48.6218C133.587 48.6218 128.819 43.8411 128.819 37.2317C128.819 30.6354 133.587 25.8417 140.17 25.8417C146.166 25.8417 150.019 29.8778 150.019 35.4422C150.032 36.3435 149.862 38.4334 149.862 38.4988Z" fill="#1F3562"/>
</g>
<mask id="mask11_2_1948" style="mask-type:luminance" maskUnits="userSpaceOnUse" x="0" y="0" width="220" height="61">
<path d="M219.117 0.240112H0.981201V60.9131H219.117V0.240112Z" fill="white"/>
</mask>
<g mask="url(#mask11_2_1948)">
<path d="M180.897 22.3672C179.016 22.3672 177.501 20.8651 177.501 19.0233C177.501 17.1293 179.029 15.575 180.897 15.575C182.765 15.575 184.293 17.1163 184.293 19.0233C184.28 20.8651 182.765 22.3672 180.897 22.3672ZM178.141 47.6813C178.089 47.6813 178.05 47.6552 178.05 47.603V26.7821C178.05 26.743 178.076 26.7038 178.115 26.7038H183.64C183.68 26.7168 183.706 26.743 183.706 26.7821V47.5899C183.706 47.6421 183.666 47.6683 183.627 47.6683H178.141V47.6813Z" fill="#1F3562"/>
</g>
<mask id="mask12_2_1948" style="mask-type:luminance" maskUnits="userSpaceOnUse" x="0" y="0" width="220" height="61">
<path d="M219.117 0.240112H0.981201V60.9131H219.117V0.240112Z" fill="white"/>
</mask>
<g mask="url(#mask12_2_1948)">
<path d="M114.138 44.5464C113.132 44.5464 112.126 44.4158 110.95 44.1023L110.963 30.753C112.335 30.3089 113.524 30.1129 114.712 30.1129C118.539 30.1129 121.1 32.9343 121.1 37.1272C121.1 41.6336 118.37 44.5464 114.138 44.5464ZM115.64 25.8547C114.085 25.8547 112.518 26.1421 110.872 26.7038H105.386C105.334 26.7038 105.308 26.743 105.308 26.7952V60.9131C106.966 60.6911 108.991 60.1033 110.977 58.6926V48.3214C112.322 48.5173 113.445 48.6349 114.516 48.6349C122.04 48.6349 126.899 44.1285 126.899 37.1534C126.886 30.4917 122.262 25.8547 115.64 25.8547Z" fill="#1F3562"/>
</g>
<mask id="mask13_2_1948" style="mask-type:luminance" maskUnits="userSpaceOnUse" x="0" y="0" width="220" height="61">
<path d="M219.117 0.240112H0.981201V60.9131H219.117V0.240112Z" fill="white"/>
</mask>
<g mask="url(#mask13_2_1948)">
<path d="M168.097 42.8222C166.373 43.7235 164.844 44.1546 163.408 44.1546C159.998 44.1546 157.961 41.7511 157.961 37.715C157.961 33.0649 160.573 30.0345 164.596 30.0345C165.706 30.0345 166.791 30.2958 168.11 30.8966V42.8222H168.097ZM168.097 15.6794V26.5731C166.49 26.1029 165.066 25.8939 163.643 25.8939C157.099 25.8939 152.161 30.8183 152.161 37.3754C152.161 43.8933 156.524 48.6218 162.519 48.6218C164.596 48.6218 166.542 48.0993 168.828 46.9237L168.815 48.8046C170.33 48.5173 172.055 47.9033 173.766 46.7016V13.4458C172.081 13.6809 170.095 14.2426 168.097 15.6794Z" fill="#1F3562"/>
</g>
<mask id="mask14_2_1948" style="mask-type:luminance" maskUnits="userSpaceOnUse" x="0" y="0" width="220" height="61">
<path d="M219.117 0.240112H0.981201V60.9131H219.117V0.240112Z" fill="white"/>
</mask>
<g mask="url(#mask14_2_1948)">
<path d="M202.828 42.77C201.169 43.7235 199.732 44.1938 198.465 44.1938C194.821 44.1938 192.64 41.7904 192.64 37.7542C192.64 33.1695 195.213 30.0738 199.04 30.0738C200.072 30.0738 201.313 30.4656 202.828 31.2755V42.77ZM208.497 26.4425C208.497 26.3119 208.379 26.2074 208.262 26.2074L203.808 26.2205C203.677 26.2205 203.56 26.325 203.56 26.4556V27.2132H203.442C201.391 26.3119 199.628 25.8939 197.891 25.8939C191.725 25.8939 186.879 31.0142 186.879 37.5713C186.879 44.1938 191.203 48.6218 197.656 48.6218C199.38 48.6218 201.587 48.5042 203.651 46.127V48.8047C205.114 48.4912 206.838 47.8773 208.471 46.7017L208.497 26.4425Z" fill="#1F3562"/>
</g>
<mask id="mask15_2_1948" style="mask-type:luminance" maskUnits="userSpaceOnUse" x="0" y="0" width="220" height="61">
<path d="M219.117 0.240112H0.981201V60.9131H219.117V0.240112Z" fill="white"/>
</mask>
<g mask="url(#mask15_2_1948)">
<path d="M65.1551 42.4042H78.9747C78.7657 43.9455 78.2432 45.7612 77.0415 47.6029H65.1812H62.8301H62.6733C60.91 47.6029 59.4731 46.2444 59.2903 44.5072C59.2903 44.4811 59.2772 44.455 59.2642 44.4419V30.2827V17.1815C59.2642 17.1554 59.2772 17.1293 59.2903 17.1162C59.4601 15.392 60.91 14.0205 62.6733 14.0205C62.7256 14.0205 62.7778 14.0336 62.8301 14.0336L78.9486 14.0205C78.7396 15.5618 78.2171 17.4166 77.0154 19.2584H65.1551V26.6776H76.8979C76.9501 26.6776 76.9893 26.7168 76.9893 26.756V31.9024C76.9893 31.9416 76.9501 31.9808 76.8979 31.9808H65.1551V42.4042Z" fill="#1F3562"/>
</g>
<mask id="mask16_2_1948" style="mask-type:luminance" maskUnits="userSpaceOnUse" x="0" y="0" width="220" height="61">
<path d="M219.117 0.240112H0.981201V60.9131H219.117V0.240112Z" fill="white"/>
</mask>
<g mask="url(#mask16_2_1948)">
<path d="M214.388 25.8939H215.028C215.746 25.8939 216.086 25.6979 216.086 25.2016C216.086 24.6922 215.72 24.4701 214.989 24.4701H214.401V25.8939H214.388ZM215.158 23.8562C216.439 23.8562 217.079 24.2872 217.079 25.084C217.079 25.7502 216.726 26.1943 216.073 26.338L217.079 28.3887H215.994L215.093 26.4947H214.388V28.3887H213.408V23.8431H215.158V23.8562ZM212.664 23.7256C211.984 24.4048 211.619 25.28 211.619 26.1943C211.619 27.1086 211.971 27.9577 212.611 28.6108C213.264 29.2769 214.14 29.6427 215.002 29.6427C215.955 29.6427 216.817 29.29 217.497 28.6369C218.15 28.0099 218.502 27.1609 218.502 26.2465C218.502 25.2669 218.163 24.4309 217.523 23.7648C216.843 23.0986 216.007 22.7329 215.054 22.7329C214.127 22.7459 213.304 23.0725 212.664 23.7256ZM217.967 23.3598C218.711 24.1305 219.116 25.1101 219.116 26.1943C219.116 27.3176 218.698 28.3103 217.928 29.0679C217.131 29.8386 216.112 30.2566 215.054 30.2566C213.983 30.2566 212.964 29.8255 212.193 29.0418C211.423 28.2711 211.018 27.2654 211.018 26.2074C211.018 25.1363 211.449 24.1044 212.233 23.3207C212.99 22.5631 213.957 22.1712 215.054 22.1712C216.164 22.1451 217.17 22.5631 217.967 23.3598Z" fill="#1F3562"/>
</g>
<mask id="mask17_2_1948" style="mask-type:luminance" maskUnits="userSpaceOnUse" x="0" y="0" width="220" height="61">
<path d="M219.117 0.240112H0.981201V60.9131H219.117V0.240112Z" fill="white"/>
</mask>
<g mask="url(#mask17_2_1948)">
<path d="M30.0574 19.3367L29.0516 16.5022L20.5613 5.15136L22.0896 4.77256L36.7321 17.4296L45.3399 14.9609C46.3457 14.6997 47.4951 14.6474 48.3834 14.6474C45.6795 8.80872 40.716 4.01496 34.185 1.67687C21.2536 -2.93402 7.04214 3.8321 2.43126 16.7635C1.0075 20.7604 0.667887 24.888 1.26874 28.8197L21.9067 21.6487L30.0574 19.3367Z" fill="#1F3561"/>
</g>
<mask id="mask18_2_1948" style="mask-type:luminance" maskUnits="userSpaceOnUse" x="0" y="0" width="220" height="61">
<path d="M219.117 0.240112H0.981201V60.9131H219.117V0.240112Z" fill="white"/>
</mask>
<g mask="url(#mask18_2_1948)">
<path d="M49.2844 16.8811C48.5268 17.3644 47.4166 18.0175 46.3194 18.3702L37.6854 20.8258L31.925 39.3216L30.436 39.8049L31.6507 25.6849L30.9715 22.759L22.8862 25.071L1.50366 30.0998C3.20172 38.3289 9.02737 45.4999 17.5177 48.5173C30.449 53.1281 44.6605 46.362 49.2583 33.4437C51.2307 27.8793 51.1001 22.0667 49.2844 16.8811Z" fill="#1F3561"/>
</g>
<mask id="mask19_2_1948" style="mask-type:luminance" maskUnits="userSpaceOnUse" x="0" y="0" width="220" height="61">
<path d="M219.117 0.240112H0.981201V60.9131H219.117V0.240112Z" fill="white"/>
</mask>
<g mask="url(#mask19_2_1948)">
<path d="M47.874 48.1124C46.5156 48.1124 45.6665 47.0413 45.6665 45.7351C45.6665 44.3374 46.6331 43.3578 47.874 43.3578C49.1018 43.3578 50.0684 44.3374 50.0684 45.7351C50.0684 47.1458 49.1018 48.1124 47.874 48.1124ZM47.874 43.0966C46.4764 43.0966 45.2747 44.1546 45.2747 45.7351C45.2747 47.2372 46.3588 48.3605 47.874 48.3605C49.2586 48.3605 50.4603 47.3156 50.4603 45.7351C50.4472 44.1546 49.2586 43.0966 47.874 43.0966Z" fill="#1F3561"/>
</g>
<mask id="mask20_2_1948" style="mask-type:luminance" maskUnits="userSpaceOnUse" x="0" y="0" width="220" height="61">
<path d="M219.117 0.240112H0.981201V60.9131H219.117V0.240112Z" fill="white"/>
</mask>
<g mask="url(#mask20_2_1948)">
<path d="M47.2468 45.5262V44.5596H47.8999C48.2265 44.5596 48.6184 44.6118 48.6184 45.0037C48.6184 45.4739 48.2526 45.5131 47.8608 45.5131H47.2468V45.5262ZM49.1016 45.069C49.1016 44.442 48.7098 44.1677 47.9653 44.1677H46.7766V47.2895H47.286V45.9572H47.7693L48.5792 47.2895H49.1539L48.2787 45.918C48.749 45.8658 49.1016 45.6437 49.1016 45.069Z" fill="#1F3561"/>
</g>
</g>
</svg>
