<svg width="474" height="442" viewBox="0 0 474 442" fill="none" xmlns="http://www.w3.org/2000/svg">
<g opacity="0.2">
<path d="M34.6882 360.555H34.3105V370.786H34.6882V360.555Z" fill="white"/>
<path d="M24.7526 370.779H24.375V381.01H24.7526V370.779Z" fill="white"/>
<path d="M35.9104 381.01H35.5327V391.24H35.9104V381.01Z" fill="white"/>
<path d="M35.9104 402.398H35.5327V412.629H35.9104V402.398Z" fill="white"/>
<path d="M35.9104 423.787H35.5327V433.084H35.9104V423.787Z" fill="white"/>
<path d="M24.7526 412.629H24.375V423.787H24.7526V412.629Z" fill="white"/>
<path d="M24.7526 391.241H24.375V402.398H24.7526V391.241Z" fill="white"/>
</g>
<path d="M16.905 406.841C16.905 406.841 12.03 408.406 4.40838 403.359C-3.21319 398.313 8.15737 371.891 13.053 365.595C17.9487 359.298 32.4228 389.38 28.8867 396.397C25.3505 403.414 21.0385 405.673 16.905 406.841Z" fill="#FF835B"/>
<path d="M12.7438 434.587L13.5197 399.789L10.1484 396.157L13.7806 398.23V392.003L9.11157 386.544L13.5197 389.929L13.0048 385.507L14.3025 387.594L15.0784 375.125L15.6002 394.083L24.1693 389.407L15.6002 396.678V400.05V435.624" fill="#778AD1"/>
<path d="M14.6252 419.529C14.8381 418.973 13.4442 418.911 13.0803 418.898V420.552C13.5404 420.388 14.4604 419.989 14.6252 419.529Z" fill="#808080"/>
<path d="M15.6003 405.488C14.9137 405.66 13.4374 406.085 13.87 406.518C14.3863 406.849 14.9868 407.026 15.6003 407.026V405.488Z" fill="#808080"/>
<path d="M14.7557 410.171C14.9685 409.621 13.3069 409.621 13.3069 409.621V411.077C13.6639 410.967 14.584 410.603 14.7557 410.171Z" fill="#808080"/>
<path d="M14.6253 403.003C14.8038 402.591 13.9386 402.481 13.458 402.46V403.833C13.8769 403.621 14.4948 403.305 14.6253 403.003Z" fill="#808080"/>
<path d="M13.0527 427.117L12.9497 427.893V428.847C13.3274 428.717 14.5152 428.27 14.7212 427.762C14.9272 427.254 13.0527 427.117 13.0527 427.117Z" fill="#808080"/>
<path d="M13.6434 415.369C14.2267 415.746 14.9057 415.948 15.6002 415.952V414.201C14.7832 414.407 13.1559 414.895 13.6434 415.369Z" fill="#808080"/>
<path d="M13.7463 399.294C14.3011 399.644 14.9445 399.828 15.6002 399.823V398.244C14.9479 398.409 13.3069 398.848 13.7463 399.294Z" fill="#808080"/>
<path d="M15.4698 389.407C14.742 389.613 13.8563 389.963 14.1927 390.306C14.578 390.586 15.0358 390.748 15.511 390.773L15.4698 389.407Z" fill="#808080"/>
<path d="M15.6002 422.461C14.7832 422.66 13.1559 423.148 13.6434 423.622C14.2267 424 14.9048 424.207 15.6002 424.219V422.461Z" fill="#808080"/>
<path d="M13.7808 393.438V394.811C14.2271 394.639 14.9343 394.31 15.0785 393.946C15.2227 393.582 14.1378 393.438 13.7808 393.438Z" fill="#808080"/>
<path d="M34.5375 435.576C34.4658 435.577 34.3959 435.554 34.3378 435.512C34.2798 435.47 34.2367 435.411 34.2147 435.343L30.4177 424.206C30.3892 424.12 30.3956 424.027 30.4354 423.946C30.4753 423.865 30.5453 423.803 30.6305 423.773C30.7171 423.744 30.8114 423.75 30.8935 423.79C30.9756 423.83 31.0389 423.9 31.07 423.986L34.8808 435.123C34.8958 435.165 34.9022 435.21 34.8996 435.255C34.897 435.3 34.8855 435.344 34.8656 435.384C34.8458 435.424 34.8181 435.46 34.7841 435.49C34.7502 435.519 34.7107 435.542 34.6679 435.556C34.6267 435.573 34.582 435.58 34.5375 435.576Z" fill="#778AD1"/>
<path d="M33.5005 432.939H33.3838C33.2993 432.907 33.2307 432.843 33.1923 432.761C33.1539 432.679 33.1487 432.585 33.1778 432.5L35.6908 425.75C35.7218 425.665 35.7855 425.595 35.8679 425.556C35.9503 425.518 36.0447 425.513 36.1303 425.544C36.2152 425.578 36.284 425.643 36.3223 425.726C36.3606 425.809 36.3656 425.904 36.3362 425.99L33.8507 432.713C33.8274 432.785 33.7798 432.847 33.716 432.888C33.6522 432.93 33.576 432.948 33.5005 432.939Z" fill="#778AD1"/>
<path d="M33.006 431.284H32.9236L24.2378 429.142C24.1934 429.132 24.1515 429.112 24.1147 429.086C24.0778 429.059 24.0466 429.025 24.0229 428.986C23.9993 428.947 23.9836 428.904 23.9769 428.859C23.9702 428.813 23.9725 428.767 23.9837 428.723C23.9949 428.68 24.0147 428.638 24.0418 428.602C24.0689 428.566 24.1029 428.536 24.1419 428.513C24.1808 428.49 24.2238 428.475 24.2686 428.468C24.3133 428.462 24.3589 428.465 24.4026 428.476L33.1159 430.639C33.1599 430.648 33.2015 430.667 33.238 430.693C33.2746 430.719 33.3055 430.753 33.3286 430.791C33.3518 430.83 33.3668 430.873 33.3727 430.918C33.3786 430.962 33.3754 431.008 33.3631 431.051C33.3397 431.125 33.2914 431.189 33.2263 431.231C33.1612 431.274 33.0834 431.293 33.006 431.284Z" fill="#778AD1"/>
<path d="M31.4889 424.095C31.4889 424.245 31.4446 424.391 31.3616 424.515C31.2786 424.639 31.1606 424.736 31.0226 424.793C30.8846 424.85 30.7327 424.865 30.5862 424.836C30.4397 424.807 30.3051 424.735 30.1995 424.629C30.0939 424.524 30.0219 424.389 29.9928 424.243C29.9636 424.096 29.9786 423.944 30.0358 423.806C30.0929 423.668 30.1897 423.55 30.314 423.467C30.4382 423.384 30.5842 423.34 30.7336 423.34C30.9339 423.34 31.126 423.42 31.2676 423.561C31.4093 423.703 31.4889 423.895 31.4889 424.095Z" fill="#778AD1"/>
<path d="M36.6385 425.867C36.6385 426.016 36.5942 426.162 36.5112 426.286C36.4282 426.411 36.3103 426.507 36.1723 426.565C36.0342 426.622 35.8824 426.637 35.7359 426.608C35.5894 426.578 35.4548 426.507 35.3492 426.401C35.2435 426.295 35.1716 426.161 35.1424 426.014C35.1133 425.868 35.1283 425.716 35.1854 425.578C35.2426 425.44 35.3394 425.322 35.4636 425.239C35.5878 425.156 35.7338 425.112 35.8832 425.112C36.083 425.113 36.2741 425.194 36.4153 425.335C36.5566 425.476 36.6367 425.667 36.6385 425.867Z" fill="#778AD1"/>
<path d="M25.0481 428.778C25.0508 428.929 25.0086 429.078 24.9269 429.205C24.8451 429.332 24.7274 429.432 24.5888 429.492C24.4502 429.552 24.2969 429.569 24.1484 429.542C23.9998 429.514 23.8628 429.444 23.7545 429.338C23.6463 429.233 23.5718 429.098 23.5405 428.95C23.5092 428.802 23.5225 428.649 23.5787 428.509C23.6349 428.368 23.7315 428.248 23.8562 428.163C23.9809 428.078 24.1281 428.031 24.2791 428.03C24.4801 428.028 24.6736 428.106 24.8176 428.246C24.9617 428.386 25.0445 428.578 25.0481 428.778Z" fill="#778AD1"/>
<g opacity="0.5">
<path d="M239.153 382.164L240.622 383.063L248.491 370.23C247.989 369.928 247.509 369.612 246.994 369.344L239.153 382.164Z" fill="white"/>
<path d="M263.466 409.189H248.669V410.933H263.466V409.189Z" fill="white"/>
<path d="M263.411 395.821H248.656V397.558H263.439V396.871C263.452 396.5 263.411 396.184 263.411 395.821Z" fill="white"/>
<path d="M234.944 380.529L236.598 381.099L241.405 367.051C240.849 366.872 240.286 366.749 239.716 366.618L234.944 380.529Z" fill="white"/>
<path d="M231.414 380.53H233.158V365.678H231.414V380.53Z" fill="white"/>
<path d="M263.466 402.508H248.669V404.252H263.466V402.508Z" fill="white"/>
<path d="M244.021 385.233L255.467 376.06C255.089 375.634 254.705 375.188 254.3 374.776L242.943 383.88L244.021 385.233Z" fill="white"/>
<path d="M263.466 422.558H248.669V424.302H263.466V422.558Z" fill="white"/>
<path d="M260.074 382.775C259.82 382.26 259.545 381.759 259.257 381.25L246.451 387.313L247.2 388.886L260.074 382.775Z" fill="white"/>
<path d="M263.466 415.877H248.669V417.621H263.466V415.877Z" fill="white"/>
<path d="M227.981 381.079L229.574 380.509L224.809 366.598C224.232 366.742 223.662 366.866 223.12 367.03L227.981 381.079Z" fill="white"/>
<path d="M262.718 390.163C262.594 389.593 262.45 389.03 262.299 388.474L248.656 391.433L249.026 393.136L262.718 390.163Z" fill="white"/>
<path d="M218.128 387.341L205.35 381.292C205.061 381.8 204.773 382.301 204.519 382.816L217.38 388.913L218.128 387.341Z" fill="white"/>
<path d="M221.63 383.88L210.314 374.789C209.902 375.201 209.525 375.648 209.14 376.073L220.566 385.233L221.63 383.88Z" fill="white"/>
<path d="M263.466 429.246H248.669V430.99H263.466V429.246Z" fill="white"/>
<path d="M202.322 388.488C202.171 389.044 202.02 389.607 201.882 390.163L215.615 393.136L215.931 391.433L202.322 388.488Z" fill="white"/>
<path d="M224.047 383.063L225.53 382.164L217.654 369.351C217.146 369.626 216.659 369.942 216.151 370.237L224.047 383.063Z" fill="white"/>
<path d="M215.903 429.246H201.148V430.99H215.903V429.246Z" fill="white"/>
<path d="M215.952 395.821H201.23V397.558H215.952V395.821Z" fill="white"/>
<path d="M215.903 422.558H201.148V424.302H215.903V422.558Z" fill="white"/>
<path d="M215.903 415.877H201.148V417.621H215.903V415.877Z" fill="white"/>
<path d="M215.903 402.508H201.148V404.252H215.903V402.508Z" fill="white"/>
<path d="M215.903 409.189H201.148V410.933H215.903V409.189Z" fill="white"/>
</g>
<path d="M458.997 419.53C458.784 418.973 460.178 418.912 460.542 418.898V420.553C460.103 420.388 459.182 419.99 458.997 419.53Z" fill="#808080"/>
<path d="M458.05 405.488C458.736 405.66 460.213 406.086 459.787 406.518C459.267 406.848 458.665 407.024 458.05 407.026V405.488Z" fill="#808080"/>
<path d="M458.873 410.171C458.661 409.622 460.329 409.622 460.329 409.622V411.077C459.986 410.967 459.066 410.603 458.873 410.171Z" fill="#808080"/>
<path d="M459.011 403.003C458.839 402.591 459.698 402.481 460.178 402.46V403.834C459.766 403.621 459.148 403.305 459.011 403.003Z" fill="#808080"/>
<path d="M460.645 427.117L460.748 427.893V428.848C460.37 428.717 459.196 428.271 458.977 427.763C458.757 427.255 460.645 427.117 460.645 427.117Z" fill="#808080"/>
<path d="M460.007 415.369C459.422 415.744 458.744 415.946 458.05 415.953V414.202C458.874 414.408 460.494 414.895 460.007 415.369Z" fill="#808080"/>
<path d="M459.897 399.295C459.344 399.643 458.703 399.827 458.05 399.823V398.244C458.695 398.409 460.343 398.848 459.897 399.295Z" fill="#808080"/>
<path d="M458.187 389.407C458.873 389.613 459.807 389.963 459.457 390.307C459.072 390.586 458.614 390.748 458.139 390.774L458.187 389.407Z" fill="#808080"/>
<path d="M458.05 422.461C458.86 422.661 460.494 423.148 460.007 423.622C459.423 423.999 458.745 424.206 458.05 424.219V422.461Z" fill="#808080"/>
<path d="M459.862 393.438V394.811C459.423 394.64 458.716 394.31 458.565 393.946C458.413 393.582 459.464 393.438 459.862 393.438Z" fill="#808080"/>
<path d="M93.8414 360.556H15.2705V360.789H93.8414V360.556Z" fill="white"/>
<path d="M93.8414 370.779H15.2705V371.013H93.8414V370.779Z" fill="white"/>
<path d="M93.8414 381.01H15.2705V381.243H93.8414V381.01Z" fill="white"/>
<path d="M93.8414 391.241H15.2705V391.475H93.8414V391.241Z" fill="white"/>
<path d="M93.8414 402.398H15.2705V402.632H93.8414V402.398Z" fill="white"/>
<path d="M93.8414 412.629H15.2705V412.863H93.8414V412.629Z" fill="white"/>
<path d="M93.8414 423.787H15.2705V424.021H93.8414V423.787Z" fill="white"/>
<path d="M93.8414 433.084H15.2705V433.317H93.8414V433.084Z" fill="white"/>
<path d="M84.9013 360.556H84.5237V370.786H84.9013V360.556Z" fill="white"/>
<path d="M59.7983 360.556H59.4207V370.786H59.7983V360.556Z" fill="white"/>
<path d="M74.039 370.779H73.6614V381.01H74.039V370.779Z" fill="white"/>
<path d="M49.8628 370.779H49.4851V381.01H49.8628V370.779Z" fill="white"/>
<path d="M85.1967 381.01H84.8191V391.24H85.1967V381.01Z" fill="white"/>
<path d="M61.0205 381.01H60.6428V391.24H61.0205V381.01Z" fill="white"/>
<path d="M74.039 391.241H73.6614V402.399H74.039V391.241Z" fill="white"/>
<path d="M85.1967 402.398H84.8191V412.629H85.1967V402.398Z" fill="white"/>
<path d="M60.0866 402.398H59.709V412.629H60.0866V402.398Z" fill="white"/>
<path d="M74.039 412.629H73.6614V423.787H74.039V412.629Z" fill="white"/>
<path d="M85.1967 423.787H84.8191V433.084H85.1967V423.787Z" fill="white"/>
<path d="M60.0866 423.787H59.709V433.084H60.0866V423.787Z" fill="white"/>
<path d="M48.9289 412.629H48.5513V423.787H48.9289V412.629Z" fill="white"/>
<path d="M49.8628 391.241H49.4851V402.399H49.8628V391.241Z" fill="white"/>
<g opacity="0.2">
<path d="M453.738 360.555H375.167V360.789H453.738V360.555Z" fill="white"/>
<path d="M453.738 370.779H375.167V371.013H453.738V370.779Z" fill="white"/>
<path d="M453.738 381.01H375.167V381.243H453.738V381.01Z" fill="white"/>
<path d="M453.738 391.241H375.167V391.474H453.738V391.241Z" fill="white"/>
<path d="M453.738 402.399H375.167V402.632H453.738V402.399Z" fill="white"/>
<path d="M453.738 412.629H375.167V412.863H453.738V412.629Z" fill="white"/>
<path d="M453.738 423.787H375.167V424.021H453.738V423.787Z" fill="white"/>
<path d="M453.738 433.084H375.167V433.317H453.738V433.084Z" fill="white"/>
<path d="M444.805 360.555H444.427V370.786H444.805V360.555Z" fill="white"/>
<path d="M419.695 360.555H419.317V370.786H419.695V360.555Z" fill="white"/>
<path d="M394.592 360.555H394.214V370.786H394.592V360.555Z" fill="white"/>
<path d="M433.935 370.779H433.558V381.01H433.935V370.779Z" fill="white"/>
<path d="M409.759 370.779H409.381V381.01H409.759V370.779Z" fill="white"/>
<path d="M384.656 370.779H384.278V381.01H384.656V370.779Z" fill="white"/>
<path d="M445.093 381.01H444.715V391.241H445.093V381.01Z" fill="white"/>
<path d="M420.917 381.01H420.539V391.241H420.917V381.01Z" fill="white"/>
<path d="M395.814 381.01H395.436V391.241H395.814V381.01Z" fill="white"/>
<path d="M433.935 391.241H433.558V402.399H433.935V391.241Z" fill="white"/>
<path d="M445.093 402.399H444.715V412.629H445.093V402.399Z" fill="white"/>
<path d="M419.99 402.399H419.612V412.629H419.99V402.399Z" fill="white"/>
<path d="M395.814 402.399H395.436V412.629H395.814V402.399Z" fill="white"/>
<path d="M433.935 412.629H433.558V423.787H433.935V412.629Z" fill="white"/>
<path d="M445.093 423.787H444.715V433.084H445.093V423.787Z" fill="white"/>
<path d="M419.99 423.787H419.612V433.084H419.99V423.787Z" fill="white"/>
<path d="M395.814 423.787H395.436V433.084H395.814V423.787Z" fill="white"/>
<path d="M408.832 412.629H408.454V423.787H408.832V412.629Z" fill="white"/>
<path d="M384.656 412.629H384.278V423.787H384.656V412.629Z" fill="white"/>
<path d="M409.759 391.241H409.381V402.399H409.759V391.241Z" fill="white"/>
<path d="M384.656 391.241H384.278V402.399H384.656V391.241Z" fill="white"/>
</g>
<g opacity="0.2">
<path d="M284.463 360.116H184.01V360.493H284.463V360.116Z" fill="white"/>
</g>
<g opacity="0.2">
<path d="M284.463 370.347H184.01V370.724H284.463V370.347Z" fill="white"/>
</g>
<g opacity="0.2">
<path d="M284.463 380.577H184.01V380.955H284.463V380.577Z" fill="white"/>
</g>
<g opacity="0.2">
<path d="M284.463 391.735H184.01V392.113H284.463V391.735Z" fill="white"/>
</g>
<g opacity="0.2">
<path d="M284.463 402.893H184.01V403.27H284.463V402.893Z" fill="white"/>
</g>
<g opacity="0.2">
<path d="M284.463 412.189H184.01V412.567H284.463V412.189Z" fill="white"/>
</g>
<g opacity="0.2">
<path d="M284.463 423.348H184.01V423.725H284.463V423.348Z" fill="white"/>
</g>
<g opacity="0.2">
<path d="M192.592 360.308H192.215V370.539H192.592V360.308Z" fill="white"/>
</g>
<g opacity="0.2">
<path d="M217.647 360.308H217.27V370.539H217.647V360.308Z" fill="white"/>
</g>
<g opacity="0.2">
<path d="M241.947 360.308H241.57V370.539H241.947V360.308Z" fill="white"/>
</g>
<g opacity="0.2">
<path d="M267.38 360.308H267.002V370.539H267.38V360.308Z" fill="white"/>
</g>
<g opacity="0.2">
<path d="M203.606 370.56H203.228V380.79H203.606V370.56Z" fill="white"/>
</g>
<g opacity="0.2">
<path d="M278.016 370.56H277.638V380.79H278.016V370.56Z" fill="white"/>
</g>
<g opacity="0.2">
<path d="M267.002 380.811H266.625V391.893H267.002V380.811Z" fill="white"/>
</g>
<g opacity="0.2">
<path d="M192.977 402.899H192.599V412.389H192.977V402.899Z" fill="white"/>
</g>
<g opacity="0.2">
<path d="M267.456 402.899H267.078V412.389H267.456V402.899Z" fill="white"/>
</g>
<g opacity="0.2">
<path d="M278.084 391.893H277.707V402.9H278.084V391.893Z" fill="white"/>
</g>
<g opacity="0.2">
<path d="M204.814 392.071H204.437V403.078H204.814V392.071Z" fill="white"/>
</g>
<g opacity="0.2">
<path d="M192.661 423.402H192.283V434.409H192.661V423.402Z" fill="white"/>
</g>
<g opacity="0.2">
<path d="M267.456 423.018H267.078V434.024H267.456V423.018Z" fill="white"/>
</g>
<path d="M209.586 362.416H191.034C190.764 362.416 190.546 362.634 190.546 362.904V366.577C190.546 366.846 190.764 367.065 191.034 367.065H209.586C209.856 367.065 210.074 366.846 210.074 366.577V362.904C210.074 362.634 209.856 362.416 209.586 362.416Z" fill="#75F5ED"/>
<path d="M277.466 362.416H258.914C258.645 362.416 258.426 362.634 258.426 362.904V366.577C258.426 366.846 258.645 367.065 258.914 367.065H277.466C277.736 367.065 277.954 366.846 277.954 366.577V362.904C277.954 362.634 277.736 362.416 277.466 362.416Z" fill="#75F5ED"/>
<path d="M232.286 365.691C228.197 365.69 224.148 366.493 220.369 368.057C216.59 369.62 213.157 371.912 210.264 374.802C207.371 377.692 205.076 381.124 203.51 384.901C201.943 388.678 201.136 392.727 201.134 396.816V435.041H263.439V396.871C263.447 392.782 262.649 388.731 261.091 384.95C259.533 381.169 257.246 377.732 254.359 374.835C251.473 371.938 248.044 369.638 244.268 368.067C240.493 366.496 236.444 365.684 232.355 365.678L232.286 365.691Z" fill="#FF835B"/>
<path opacity="0.78" d="M232.286 365.691C228.197 365.69 224.148 366.493 220.369 368.057C216.59 369.62 213.157 371.912 210.264 374.802C207.371 377.692 205.076 381.124 203.51 384.901C201.943 388.678 201.136 392.727 201.134 396.816V435.041H263.439V396.871C263.447 392.782 262.649 388.731 261.091 384.95C259.533 381.169 257.246 377.732 254.359 374.835C251.473 371.938 248.044 369.638 244.268 368.067C240.493 366.496 236.444 365.684 232.355 365.678L232.286 365.691Z" fill="white"/>
<path d="M232.286 378.428C226.865 378.428 221.666 380.582 217.832 384.415C213.999 388.249 211.845 393.448 211.845 398.869V435.041H252.727V398.855C252.724 393.437 250.568 388.241 246.735 384.41C242.902 380.58 237.705 378.428 232.286 378.428Z" fill="#FF835B"/>
<path opacity="0.2" d="M232.286 378.428C226.865 378.428 221.666 380.582 217.832 384.415C213.999 388.249 211.845 393.448 211.845 398.869V435.041H252.727V398.855C252.724 393.437 250.568 388.241 246.735 384.41C242.902 380.58 237.705 378.428 232.286 378.428Z" fill="#D0CDE1"/>
<g opacity="0.2">
<path d="M218.973 383.406C218.354 383.935 217.772 384.504 217.229 385.109V434.306H218.973V383.406Z" fill="#D0CDE1"/>
<path d="M233.172 378.469H231.428V434.347H233.172V378.469Z" fill="#D0CDE1"/>
<path d="M226.107 379.41C225.509 379.602 224.939 379.808 224.363 380.048V434.292H226.107V379.41Z" fill="#D0CDE1"/>
<path d="M245.627 383.406V434.306H247.392V385.109C246.842 384.503 246.253 383.934 245.627 383.406Z" fill="#D0CDE1"/>
<path d="M240.272 380.048C239.702 379.808 239.132 379.602 238.528 379.41V434.306H240.272V380.048Z" fill="#D0CDE1"/>
</g>
<path opacity="0.2" d="M232.286 385.885C236.818 385.884 241.234 387.314 244.904 389.971C248.575 392.629 251.313 396.377 252.727 400.682V398.842C252.724 393.423 250.568 388.227 246.735 384.397C242.902 380.566 237.705 378.415 232.286 378.415C226.865 378.415 221.666 380.568 217.832 384.402C213.999 388.235 211.845 393.434 211.845 398.855V400.696C213.259 396.389 215.996 392.638 219.666 389.978C223.337 387.319 227.754 385.886 232.286 385.885Z" fill="#D0CDE1"/>
<g opacity="0.2">
<path d="M171.485 363.151H93.3745V363.528H171.485V363.151Z" fill="white"/>
<path d="M171.485 373.381H93.3745V373.759H171.485V373.381Z" fill="white"/>
<path d="M171.485 384.539H93.3745V384.917H171.485V384.539Z" fill="white"/>
<path d="M171.485 394.77H93.3745V395.147H171.485V394.77Z" fill="white"/>
<path d="M171.485 404.994H93.3745V405.371H171.485V404.994Z" fill="white"/>
<path d="M171.485 415.224H93.3745V415.602H171.485V415.224Z" fill="white"/>
<path d="M171.485 425.455H93.3745V425.833H171.485V425.455Z" fill="white"/>
<path d="M112.628 363.343H112.25V373.574H112.628V363.343Z" fill="white"/>
<path d="M137.731 363.343H137.353V373.574H137.731V363.343Z" fill="white"/>
<path d="M162.841 363.343H162.463V373.574H162.841V363.343Z" fill="white"/>
<path d="M101.47 373.573H101.092V384.731H101.47V373.573Z" fill="white"/>
<path d="M115.415 384.731H115.038V394.962H115.415V384.731Z" fill="white"/>
<path d="M102.397 394.955H102.019V405.186H102.397V394.955Z" fill="white"/>
<path d="M127.507 394.955H127.129V405.186H127.507V394.955Z" fill="white"/>
<path d="M151.683 394.955H151.305V405.186H151.683V394.955Z" fill="white"/>
<path d="M112.628 405.186H112.25V415.417H112.628V405.186Z" fill="white"/>
<path d="M137.731 405.186H137.353V415.417H137.731V405.186Z" fill="white"/>
<path d="M127.507 415.417H127.129V425.647H127.507V415.417Z" fill="white"/>
<path d="M151.683 415.417H151.305V425.647H151.683V415.417Z" fill="white"/>
<path d="M162.841 405.186H162.463V415.417H162.841V405.186Z" fill="white"/>
<path d="M137.731 384.731H137.353V394.962H137.731V384.731Z" fill="white"/>
<path d="M162.841 384.731H162.463V394.962H162.841V384.731Z" fill="white"/>
<path d="M127.507 373.573H127.129V384.731H127.507V373.573Z" fill="white"/>
<path d="M151.683 373.573H151.305V384.731H151.683V373.573Z" fill="white"/>
</g>
<g opacity="0.2">
<path d="M375.352 363.151H297.241V363.528H375.352V363.151Z" fill="white"/>
<path d="M375.352 373.381H297.241V373.759H375.352V373.381Z" fill="white"/>
<path d="M375.352 384.539H297.241V384.917H375.352V384.539Z" fill="white"/>
<path d="M375.352 394.77H297.241V395.147H375.352V394.77Z" fill="white"/>
<path d="M375.352 404.994H297.241V405.371H375.352V404.994Z" fill="white"/>
<path d="M375.352 415.224H297.241V415.602H375.352V415.224Z" fill="white"/>
<path d="M375.352 425.455H297.241V425.833H375.352V425.455Z" fill="white"/>
<path d="M316.494 363.343H316.117V373.574H316.494V363.343Z" fill="white"/>
<path d="M341.597 363.343H341.22V373.574H341.597V363.343Z" fill="white"/>
<path d="M366.708 363.343H366.33V373.574H366.708V363.343Z" fill="white"/>
<path d="M305.337 373.573H304.959V384.731H305.337V373.573Z" fill="white"/>
<path d="M319.282 384.731H318.904V394.962H319.282V384.731Z" fill="white"/>
<path d="M306.263 394.955H305.886V405.186H306.263V394.955Z" fill="white"/>
<path d="M331.373 394.955H330.996V405.186H331.373V394.955Z" fill="white"/>
<path d="M355.55 394.955H355.172V405.186H355.55V394.955Z" fill="white"/>
<path d="M316.494 405.186H316.117V415.417H316.494V405.186Z" fill="white"/>
<path d="M341.597 405.186H341.22V415.417H341.597V405.186Z" fill="white"/>
<path d="M331.373 415.417H330.996V425.647H331.373V415.417Z" fill="white"/>
<path d="M355.55 415.417H355.172V425.647H355.55V415.417Z" fill="white"/>
<path d="M366.708 405.186H366.33V415.417H366.708V405.186Z" fill="white"/>
<path d="M341.597 384.731H341.22V394.962H341.597V384.731Z" fill="white"/>
<path d="M366.708 384.731H366.33V394.962H366.708V384.731Z" fill="white"/>
<path d="M331.373 373.573H330.996V384.731H331.373V373.573Z" fill="white"/>
<path d="M355.55 373.573H355.172V384.731H355.55V373.573Z" fill="white"/>
</g>
<path d="M46.1347 411.654C46.4574 410.83 44.3701 410.72 43.8208 410.713V413.185C44.4868 412.876 45.8601 412.293 46.1347 411.654Z" fill="#808080"/>
<path d="M47.5834 390.643C46.4985 390.904 44.3357 391.529 44.988 392.167C45.7601 392.67 46.6619 392.938 47.5834 392.936V390.643Z" fill="#808080"/>
<path d="M46.2854 397.592C46.6219 396.775 44.1226 396.775 44.1226 396.775V398.931C44.665 398.814 46.0245 398.279 46.2854 397.592Z" fill="#808080"/>
<path d="M46.121 386.867C46.3682 386.249 45.043 386.091 44.3701 386.05V388.11C44.9881 387.863 45.915 387.389 46.121 386.867Z" fill="#808080"/>
<path d="M43.6765 422.921L43.5186 424.075V425.503C44.0885 425.311 45.8531 424.659 46.1621 423.869C46.5122 422.921 43.6765 422.921 43.6765 422.921Z" fill="#808080"/>
<path d="M44.6171 405.378C45.4946 405.948 46.5166 406.255 47.5628 406.264V403.648C46.3406 403.95 43.903 404.664 44.6171 405.378Z" fill="#808080"/>
<path d="M44.7888 381.374C45.6113 381.891 46.5636 382.165 47.5353 382.163V379.808C46.574 380.069 44.1502 380.728 44.7888 381.374Z" fill="#808080"/>
<path d="M47.3637 366.659C46.2857 366.975 44.9399 367.483 45.4617 367.998C46.0342 368.411 46.7137 368.649 47.4186 368.685L47.3637 366.659Z" fill="#808080"/>
<path d="M47.5835 415.911C46.3613 416.213 43.9238 416.927 44.6379 417.641C45.5161 418.209 46.538 418.514 47.5835 418.52V415.911Z" fill="#808080"/>
<path d="M44.8369 372.619V374.782C45.5235 374.521 46.5466 374.034 46.7732 373.484C46.9998 372.935 45.5235 372.64 44.8369 372.619Z" fill="#808080"/>
<path d="M90.9096 435.624C91.4245 430.818 87.5451 425.696 82.6151 425.462C78.1932 425.243 73.3387 428.209 69.6378 425.765C66.6304 423.76 66.5686 419.482 66.2047 415.877C65.8408 412.272 64.8726 408.647 62.5243 405.935C60.1761 403.223 56.2211 401.671 52.7948 402.914C46.0041 405.413 45.5852 416.564 38.6434 418.603C33.837 420.031 28.8246 416.028 23.8947 416.921C17.8592 417.999 15.1333 424.68 10.4917 427.948C10.0179 428.284 7.99922 429.74 5.68528 431.429C3.74899 432.844 1.61358 434.416 0 435.624H90.9096Z" fill="#FF835B"/>
<path opacity="0.4" d="M90.9096 435.624C91.4245 430.818 87.5451 425.696 82.6151 425.462C78.1932 425.243 73.3387 428.209 69.6378 425.765C66.6304 423.76 66.5686 419.482 66.2047 415.877C65.8408 412.272 64.8726 408.647 62.5243 405.935C60.1761 403.223 56.2211 401.671 52.7948 402.914C46.0041 405.413 45.5852 416.564 38.6434 418.603C33.837 420.031 28.8246 416.028 23.8947 416.921C17.8592 417.999 15.1333 424.68 10.4917 427.948C10.0179 428.284 7.99922 429.74 5.68528 431.429C3.74899 432.844 1.61358 434.416 0 435.624H90.9096Z" fill="white"/>
<path d="M48.0228 435.871H47.906C47.8211 435.838 47.7523 435.772 47.714 435.689C47.6757 435.606 47.6707 435.512 47.7001 435.425L55.6169 414.037C55.6327 413.994 55.6566 413.955 55.6874 413.922C55.7182 413.889 55.7552 413.863 55.7964 413.844C55.8375 413.825 55.8819 413.814 55.9271 413.813C55.9723 413.811 56.0174 413.818 56.0597 413.834C56.1021 413.85 56.141 413.874 56.1741 413.905C56.2072 413.935 56.2339 413.973 56.2527 414.014C56.2716 414.055 56.2821 414.099 56.2837 414.144C56.2854 414.19 56.2781 414.235 56.2623 414.277L48.3455 435.672C48.3172 435.734 48.2715 435.785 48.2141 435.82C48.1567 435.856 48.0902 435.874 48.0228 435.871Z" fill="#778AD1"/>
<path d="M76.7512 435.528L81.434 431.127" stroke="#778AD1" stroke-width="0.686628" stroke-linecap="round" stroke-linejoin="round"/>
<path d="M53.5915 420.903C53.533 420.904 53.4753 420.89 53.4245 420.861C53.3737 420.832 53.3317 420.789 53.3031 420.738L50.9686 416.927C50.9437 416.889 50.9267 416.847 50.9188 416.802C50.9108 416.757 50.912 416.711 50.9223 416.667C50.9325 416.623 50.9517 416.581 50.9785 416.544C51.0054 416.508 51.0393 416.477 51.0784 416.454C51.1167 416.43 51.1594 416.414 51.204 416.406C51.2485 416.399 51.2941 416.4 51.3381 416.41C51.3822 416.42 51.4237 416.439 51.4605 416.466C51.4972 416.492 51.5284 416.525 51.5522 416.564L53.8868 420.381C53.9104 420.42 53.9262 420.463 53.9331 420.508C53.9401 420.553 53.9381 420.598 53.9272 420.642C53.9164 420.686 53.8969 420.728 53.8699 420.764C53.8429 420.801 53.809 420.832 53.77 420.855C53.7163 420.888 53.6544 420.904 53.5915 420.903Z" fill="#778AD1"/>
<path d="M51.2569 426.787C51.1951 426.787 51.1344 426.771 51.0813 426.74C51.0281 426.708 50.9844 426.663 50.9547 426.609C50.9126 426.528 50.9034 426.435 50.929 426.348C50.9546 426.26 51.0131 426.187 51.0921 426.142L59.5925 421.452C59.6718 421.408 59.7654 421.396 59.8529 421.421C59.9404 421.445 60.0147 421.503 60.0594 421.583C60.0812 421.622 60.0949 421.666 60.0997 421.711C60.1046 421.756 60.1005 421.801 60.0878 421.845C60.075 421.888 60.0538 421.928 60.0254 421.964C59.997 421.999 59.9618 422.028 59.9221 422.049L51.4216 426.746C51.371 426.773 51.3144 426.788 51.2569 426.787Z" fill="#778AD1"/>
<path d="M48.7162 434.224C48.6452 434.226 48.5754 434.205 48.5172 434.164C48.459 434.123 48.4156 434.064 48.3935 433.997C48.3625 433.911 48.3669 433.817 48.4055 433.735C48.4441 433.652 48.5139 433.589 48.5995 433.558L56.4064 430.811C56.4491 430.794 56.4948 430.786 56.5407 430.787C56.5865 430.788 56.6317 430.799 56.6736 430.818C56.7154 430.836 56.753 430.864 56.7842 430.897C56.8154 430.931 56.8395 430.97 56.8551 431.014C56.8707 431.057 56.8775 431.103 56.8751 431.149C56.8727 431.194 56.8611 431.239 56.841 431.281C56.821 431.322 56.7928 431.359 56.7583 431.389C56.7237 431.419 56.6835 431.442 56.6399 431.456L48.8329 434.203C48.7955 434.217 48.756 434.224 48.7162 434.224Z" fill="#778AD1"/>
<path d="M49.7874 431.203C49.7265 431.202 49.6669 431.186 49.614 431.156C49.5611 431.126 49.5168 431.083 49.4852 431.031L44.5072 422.242C44.484 422.203 44.4687 422.161 44.4623 422.116C44.456 422.071 44.4587 422.026 44.4702 421.982C44.4817 421.939 44.5019 421.898 44.5295 421.862C44.557 421.827 44.5915 421.797 44.6308 421.775C44.7102 421.73 44.8043 421.717 44.8928 421.74C44.9814 421.763 45.0574 421.82 45.1045 421.899L50.0826 430.694C50.1058 430.733 50.1211 430.776 50.1274 430.82C50.1338 430.865 50.1311 430.91 50.1196 430.954C50.1081 430.998 50.0879 431.038 50.0603 431.074C50.0327 431.11 49.9983 431.139 49.959 431.161C49.9057 431.188 49.847 431.202 49.7874 431.203Z" fill="#778AD1"/>
<path d="M56.6949 414.126C56.6949 414.275 56.6506 414.421 56.5676 414.546C56.4846 414.67 56.3667 414.766 56.2287 414.824C56.0906 414.881 55.9388 414.896 55.7923 414.867C55.6458 414.838 55.5112 414.766 55.4055 414.66C55.2999 414.554 55.228 414.42 55.1988 414.273C55.1697 414.127 55.1847 413.975 55.2418 413.837C55.299 413.699 55.3958 413.581 55.52 413.498C55.6442 413.415 55.7902 413.371 55.9396 413.371C56.1399 413.371 56.332 413.45 56.4737 413.592C56.6153 413.733 56.6949 413.926 56.6949 414.126Z" fill="#778AD1"/>
<path d="M51.9847 416.701C51.9861 416.852 51.9426 417 51.8596 417.126C51.7767 417.252 51.6582 417.351 51.519 417.41C51.3799 417.468 51.2264 417.484 51.0781 417.456C50.9298 417.427 50.7934 417.355 50.6861 417.249C50.5789 417.142 50.5056 417.007 50.4756 416.859C50.4456 416.711 50.4603 416.557 50.5178 416.417C50.5753 416.278 50.673 416.158 50.7984 416.074C50.9239 415.99 51.0715 415.945 51.2226 415.945C51.4235 415.945 51.6164 416.025 51.7591 416.166C51.9018 416.308 51.9829 416.5 51.9847 416.701Z" fill="#778AD1"/>
<path d="M60.5125 421.747C60.5125 421.897 60.4682 422.043 60.3852 422.167C60.3023 422.291 60.1843 422.388 60.0463 422.445C59.9083 422.502 59.7564 422.517 59.6099 422.488C59.4634 422.459 59.3288 422.387 59.2232 422.282C59.1175 422.176 59.0456 422.041 59.0165 421.895C58.9873 421.748 59.0023 421.596 59.0594 421.458C59.1166 421.32 59.2134 421.202 59.3376 421.119C59.4618 421.036 59.6079 420.992 59.7572 420.992C59.957 420.994 60.1481 421.074 60.2893 421.215C60.4306 421.357 60.5107 421.548 60.5125 421.747Z" fill="#778AD1"/>
<path d="M45.5579 422.043C45.5579 422.192 45.5137 422.338 45.4307 422.463C45.3477 422.587 45.2297 422.684 45.0917 422.741C44.9537 422.798 44.8018 422.813 44.6553 422.784C44.5088 422.755 44.3742 422.683 44.2686 422.577C44.163 422.471 44.091 422.337 44.0619 422.19C44.0327 422.044 44.0477 421.892 44.1049 421.754C44.162 421.616 44.2588 421.498 44.383 421.415C44.5072 421.332 44.6533 421.288 44.8027 421.288C45.003 421.288 45.1951 421.367 45.3367 421.509C45.4784 421.65 45.5579 421.843 45.5579 422.043Z" fill="#778AD1"/>
<path d="M57.6836 431.003C57.6855 431.204 57.6079 431.398 57.4677 431.542C57.3275 431.686 57.1362 431.769 56.9352 431.772C56.7349 431.772 56.5428 431.693 56.4011 431.551C56.2595 431.409 56.1799 431.217 56.1799 431.017C56.1799 430.817 56.2595 430.625 56.4011 430.483C56.5428 430.341 56.7349 430.262 56.9352 430.262C57.132 430.263 57.3203 430.342 57.4601 430.48C57.5999 430.619 57.6801 430.807 57.6836 431.003Z" fill="#778AD1"/>
<path d="M81.9148 431.312C81.9135 431.462 81.868 431.607 81.7842 431.73C81.7004 431.853 81.582 431.949 81.4439 432.005C81.3057 432.061 81.1541 432.075 81.008 432.046C80.862 432.016 80.728 431.943 80.6231 431.837C80.5182 431.731 80.4469 431.597 80.4183 431.45C80.3897 431.304 80.4051 431.153 80.4624 431.015C80.5198 430.877 80.6166 430.76 80.7407 430.677C80.8647 430.594 81.0105 430.55 81.1596 430.55C81.2593 430.55 81.3581 430.57 81.4502 430.608C81.5423 430.647 81.6258 430.703 81.6961 430.774C81.7663 430.845 81.8218 430.929 81.8593 431.021C81.8969 431.114 81.9158 431.213 81.9148 431.312Z" fill="#778AD1"/>
<path d="M141.892 435.624C142.29 431.944 139.296 427.982 135.513 427.797C132.08 427.632 128.365 429.96 125.529 428.03C123.215 426.485 123.161 423.224 122.906 420.477C122.791 417.673 121.813 414.973 120.105 412.746C118.285 410.686 115.251 409.505 112.655 410.432C107.43 412.355 107.107 420.931 101.765 422.51C98.0643 423.595 94.2123 420.532 90.4084 421.212C85.7736 422.043 83.6726 427.179 80.109 429.699C79.7382 429.96 78.1795 431.072 76.408 432.37C74.9181 433.455 73.2701 434.677 72.0823 435.618L141.892 435.624Z" fill="#FF835B"/>
<path opacity="0.4" d="M141.892 435.624C142.29 431.944 139.296 427.982 135.513 427.797C132.08 427.632 128.365 429.96 125.529 428.03C123.215 426.485 123.161 423.224 122.906 420.477C122.791 417.673 121.813 414.973 120.105 412.746C118.285 410.686 115.251 409.505 112.655 410.432C107.43 412.355 107.107 420.931 101.765 422.51C98.0643 423.595 94.2123 420.532 90.4084 421.212C85.7736 422.043 83.6726 427.179 80.109 429.699C79.7382 429.96 78.1795 431.072 76.408 432.37C74.9181 433.455 73.2701 434.677 72.0823 435.618L141.892 435.624Z" fill="white"/>
<path d="M98.5173 435.666C98.446 435.665 98.3765 435.642 98.3187 435.601C98.2608 435.559 98.2175 435.5 98.1946 435.432L95.2559 426.87C95.2271 426.783 95.2333 426.689 95.2731 426.607C95.3128 426.525 95.383 426.462 95.4687 426.431C95.5111 426.416 95.556 426.409 95.6008 426.412C95.6457 426.414 95.6896 426.426 95.7299 426.446C95.7702 426.466 95.8062 426.493 95.8356 426.527C95.865 426.561 95.8874 426.601 95.9013 426.643L98.8469 435.213C98.8754 435.298 98.869 435.392 98.8292 435.472C98.7894 435.553 98.7193 435.615 98.6341 435.645C98.5966 435.659 98.5571 435.666 98.5173 435.666Z" fill="#778AD1"/>
<path d="M108.892 435.892C108.851 435.899 108.81 435.899 108.769 435.892C108.726 435.876 108.687 435.852 108.654 435.821C108.621 435.79 108.594 435.752 108.576 435.711C108.557 435.669 108.547 435.624 108.546 435.579C108.545 435.533 108.553 435.488 108.57 435.446L114.653 418.967C114.669 418.924 114.693 418.885 114.725 418.852C114.756 418.819 114.793 418.792 114.835 418.774C114.876 418.755 114.921 418.745 114.966 418.744C115.012 418.743 115.057 418.751 115.1 418.768C115.142 418.783 115.181 418.806 115.214 418.837C115.247 418.867 115.273 418.904 115.292 418.945C115.31 418.986 115.321 419.031 115.322 419.076C115.323 419.12 115.315 419.165 115.299 419.207L109.215 435.686C109.186 435.748 109.141 435.8 109.084 435.836C109.027 435.873 108.96 435.892 108.892 435.892Z" fill="#778AD1"/>
<path d="M130.988 435.892C130.942 435.892 130.895 435.883 130.853 435.864C130.81 435.845 130.772 435.817 130.741 435.782C130.709 435.75 130.683 435.712 130.666 435.671C130.648 435.629 130.639 435.584 130.639 435.539C130.639 435.493 130.648 435.448 130.666 435.407C130.683 435.365 130.709 435.327 130.741 435.295L134.353 431.91C134.418 431.846 134.505 431.811 134.596 431.811C134.687 431.811 134.775 431.846 134.84 431.91C134.872 431.942 134.898 431.98 134.915 432.021C134.933 432.063 134.942 432.108 134.942 432.154C134.942 432.199 134.933 432.244 134.915 432.286C134.898 432.327 134.872 432.365 134.84 432.397L131.228 435.775C131.166 435.844 131.08 435.886 130.988 435.892Z" fill="#778AD1"/>
<path d="M97.7073 433.633H97.5906C97.548 433.617 97.509 433.593 97.4759 433.562C97.4428 433.53 97.4162 433.493 97.3977 433.452C97.3792 433.41 97.3691 433.365 97.368 433.32C97.3669 433.274 97.3749 433.229 97.3914 433.187L99.3209 428.01C99.3325 427.963 99.3536 427.92 99.3829 427.882C99.4122 427.845 99.4491 427.814 99.4911 427.791C99.533 427.768 99.5793 427.755 99.6268 427.751C99.6744 427.747 99.7222 427.754 99.7672 427.769C99.8095 427.785 99.8483 427.808 99.8814 427.839C99.9144 427.869 99.941 427.906 99.9596 427.947C99.9781 427.988 99.9883 428.032 99.9895 428.077C99.9906 428.122 99.9827 428.167 99.9663 428.209L98.03 433.386C98.0096 433.456 97.9672 433.518 97.9092 433.562C97.8511 433.607 97.7804 433.632 97.7073 433.633Z" fill="#778AD1"/>
<path d="M97.3295 432.363H97.2471L90.5456 430.701C90.5005 430.69 90.458 430.671 90.4205 430.644C90.3829 430.616 90.3512 430.582 90.3269 430.542C90.3027 430.503 90.2865 430.459 90.2793 430.413C90.272 430.367 90.2738 430.321 90.2846 430.276C90.3065 430.185 90.3636 430.106 90.4435 430.057C90.483 430.033 90.5269 430.016 90.5727 430.009C90.6185 430.002 90.6653 430.004 90.7104 430.015L97.4119 431.683C97.5006 431.706 97.5768 431.762 97.6243 431.841C97.6718 431.919 97.6867 432.013 97.6659 432.102C97.6474 432.177 97.6041 432.244 97.543 432.291C97.482 432.338 97.4067 432.364 97.3295 432.363Z" fill="#778AD1"/>
<path d="M113.17 424.384C113.112 424.386 113.054 424.371 113.003 424.342C112.952 424.313 112.91 424.27 112.882 424.219L111.083 421.294C111.035 421.217 111.019 421.124 111.04 421.035C111.06 420.946 111.115 420.869 111.193 420.821C111.27 420.772 111.363 420.757 111.452 420.777C111.541 420.798 111.618 420.853 111.666 420.93L113.465 423.862C113.489 423.901 113.505 423.944 113.512 423.989C113.519 424.034 113.517 424.08 113.506 424.124C113.495 424.168 113.476 424.209 113.449 424.246C113.422 424.282 113.388 424.313 113.349 424.336C113.295 424.369 113.233 424.386 113.17 424.384Z" fill="#778AD1"/>
<path d="M111.378 428.895C111.316 428.896 111.255 428.88 111.202 428.848C111.148 428.817 111.105 428.771 111.076 428.717C111.034 428.636 111.024 428.543 111.05 428.455C111.076 428.368 111.134 428.295 111.213 428.25L117.743 424.652C117.822 424.607 117.916 424.596 118.003 424.621C118.091 424.645 118.165 424.703 118.21 424.782C118.232 424.822 118.245 424.865 118.25 424.91C118.255 424.955 118.251 425.001 118.238 425.044C118.225 425.088 118.204 425.128 118.176 425.163C118.147 425.198 118.112 425.228 118.073 425.249L111.543 428.854C111.492 428.881 111.435 428.895 111.378 428.895Z" fill="#778AD1"/>
<path d="M109.421 434.636C109.335 434.641 109.249 434.614 109.182 434.561C109.114 434.507 109.068 434.43 109.054 434.345C109.039 434.26 109.057 434.172 109.103 434.099C109.149 434.026 109.221 433.972 109.304 433.949L115.319 431.834C115.363 431.815 115.41 431.804 115.457 431.804C115.505 431.803 115.552 431.813 115.596 431.831C115.639 431.85 115.679 431.878 115.711 431.913C115.744 431.947 115.769 431.988 115.784 432.033C115.8 432.078 115.807 432.126 115.803 432.173C115.799 432.221 115.786 432.267 115.763 432.309C115.741 432.351 115.71 432.388 115.672 432.417C115.635 432.447 115.592 432.468 115.546 432.48L109.531 434.636C109.495 434.642 109.457 434.642 109.421 434.636Z" fill="#778AD1"/>
<path d="M110.245 432.28C110.184 432.281 110.124 432.266 110.071 432.235C110.018 432.205 109.974 432.161 109.943 432.109L106.119 425.345C106.095 425.307 106.08 425.264 106.074 425.219C106.067 425.175 106.07 425.129 106.082 425.086C106.093 425.042 106.113 425.001 106.141 424.966C106.168 424.93 106.203 424.9 106.242 424.878C106.322 424.834 106.417 424.822 106.506 424.847C106.594 424.871 106.67 424.929 106.716 425.009L110.54 431.765C110.563 431.804 110.578 431.847 110.584 431.892C110.59 431.937 110.587 431.983 110.574 432.026C110.562 432.07 110.541 432.111 110.513 432.146C110.485 432.181 110.45 432.211 110.41 432.232C110.361 432.264 110.304 432.28 110.245 432.28Z" fill="#778AD1"/>
<path d="M115.56 419.083C115.558 419.238 115.496 419.385 115.387 419.494C115.278 419.603 115.13 419.665 114.976 419.667C114.898 419.68 114.818 419.677 114.741 419.658C114.664 419.64 114.592 419.607 114.528 419.56C114.464 419.513 114.41 419.454 114.369 419.387C114.328 419.319 114.301 419.244 114.289 419.166C114.276 419.088 114.278 419.008 114.296 418.93C114.314 418.853 114.347 418.78 114.394 418.716C114.441 418.652 114.5 418.598 114.568 418.557C114.636 418.517 114.712 418.49 114.791 418.479H114.948C115.029 418.475 115.11 418.488 115.185 418.517C115.261 418.546 115.329 418.59 115.387 418.647C115.444 418.704 115.489 418.772 115.519 418.847C115.549 418.922 115.563 419.003 115.56 419.083Z" fill="#778AD1"/>
<path d="M111.337 421.644C111.659 421.644 111.92 421.383 111.92 421.061C111.92 420.738 111.659 420.477 111.337 420.477C111.014 420.477 110.753 420.738 110.753 421.061C110.753 421.383 111.014 421.644 111.337 421.644Z" fill="#778AD1"/>
<path d="M117.908 425.538C118.23 425.538 118.491 425.277 118.491 424.954C118.491 424.632 118.23 424.371 117.908 424.371C117.586 424.371 117.324 424.632 117.324 424.954C117.324 425.277 117.586 425.538 117.908 425.538Z" fill="#778AD1"/>
<path d="M106.414 425.764C106.736 425.764 106.997 425.503 106.997 425.181C106.997 424.858 106.736 424.597 106.414 424.597C106.091 424.597 105.83 424.858 105.83 425.181C105.83 425.503 106.091 425.764 106.414 425.764Z" fill="#778AD1"/>
<path d="M115.738 432.658C116.061 432.658 116.322 432.397 116.322 432.074C116.322 431.752 116.061 431.491 115.738 431.491C115.416 431.491 115.155 431.752 115.155 432.074C115.155 432.397 115.416 432.658 115.738 432.658Z" fill="#778AD1"/>
<path d="M134.957 432.301C134.957 432.378 134.942 432.454 134.912 432.524C134.883 432.595 134.84 432.66 134.786 432.714C134.732 432.768 134.667 432.811 134.597 432.84C134.526 432.87 134.45 432.885 134.373 432.885C134.297 432.885 134.221 432.87 134.151 432.84C134.08 432.811 134.017 432.768 133.963 432.713C133.909 432.659 133.867 432.595 133.838 432.524C133.81 432.453 133.795 432.377 133.796 432.301C133.788 432.22 133.796 432.137 133.821 432.059C133.846 431.981 133.887 431.909 133.942 431.848C133.997 431.787 134.064 431.738 134.139 431.705C134.214 431.672 134.295 431.654 134.377 431.654C134.459 431.654 134.54 431.672 134.614 431.705C134.689 431.738 134.756 431.787 134.811 431.848C134.866 431.909 134.907 431.981 134.932 432.059C134.957 432.137 134.966 432.22 134.957 432.301Z" fill="#778AD1"/>
<path d="M96.1624 426.787C96.1624 426.903 96.1282 427.016 96.064 427.112C95.9999 427.207 95.9087 427.282 95.8021 427.326C95.6955 427.371 95.5781 427.382 95.4649 427.36C95.3517 427.337 95.2477 427.282 95.1661 427.2C95.0844 427.118 95.0289 427.014 95.0063 426.901C94.9838 426.788 94.9954 426.671 95.0395 426.564C95.0837 426.457 95.1585 426.366 95.2545 426.302C95.3505 426.238 95.4633 426.204 95.5787 426.204C95.7335 426.204 95.882 426.265 95.9914 426.375C96.1009 426.484 96.1624 426.632 96.1624 426.787Z" fill="#778AD1"/>
<path d="M99.5336 428.703C99.8559 428.703 100.117 428.442 100.117 428.119C100.117 427.797 99.8559 427.536 99.5336 427.536C99.2113 427.536 98.95 427.797 98.95 428.119C98.95 428.442 99.2113 428.703 99.5336 428.703Z" fill="#778AD1"/>
<path d="M90.6281 430.941C90.9504 430.941 91.2117 430.68 91.2117 430.358C91.2117 430.035 90.9504 429.774 90.6281 429.774C90.3057 429.774 90.0444 430.035 90.0444 430.358C90.0444 430.68 90.3057 430.941 90.6281 430.941Z" fill="#778AD1"/>
<path d="M35.622 339.167H35.2444V349.515H35.622V339.167Z" fill="white"/>
<path d="M24.4643 349.398H24.0867V360.679H24.4643V349.398Z" fill="white"/>
<path opacity="0.7" d="M425.882 100.575C417.608 82.0365 402.9 66.3951 386.284 52.0789C348.595 19.622 299.769 3.03309 249.899 0.403306C198.787 -2.28828 145.312 8.29266 102.865 38.1678C60.4172 68.043 30.9609 119.005 34.8884 170.035C38.3215 214.755 65.7867 258.376 52.4867 301.641C47.591 317.591 37.3259 332.155 35.9184 348.702C32.0183 394.528 80.5148 415.195 117.078 425.069C171.122 439.68 229.238 444.295 285.37 440.388C315.287 438.328 346.343 432.437 374.378 420.963C416.667 403.667 442.588 369.754 420.382 326.002C407.336 300.261 396.027 278.556 401.074 248.214C407 212.592 427.241 180.554 432.048 144.698C434.212 129.703 432.073 114.403 425.882 100.575Z" fill="#75F5ED"/>
<path d="M234.25 64.2959L254.705 70.4344L234.25 76.9916V64.2959Z" fill="#FF835B"/>
<path d="M234.25 91.4039C234.199 91.4039 234.15 91.3837 234.114 91.3476C234.078 91.3116 234.058 91.2627 234.058 91.2117V63.0599C234.058 63.0089 234.078 62.96 234.114 62.924C234.15 62.8879 234.199 62.8677 234.25 62.8677C234.301 62.8677 234.35 62.8879 234.386 62.924C234.422 62.96 234.442 63.0089 234.442 63.0599V91.2117C234.442 91.2627 234.422 91.3116 234.386 91.3476C234.35 91.3837 234.301 91.4039 234.25 91.4039Z" fill="#778AD1"/>
<path d="M187.292 167.606L194.268 176.443H274.232L281.208 167.606H187.292Z" fill="#FF835B"/>
<path opacity="0.4" d="M187.292 167.606L194.268 176.443H274.232L281.208 167.606H187.292Z" fill="#D0CDE1"/>
<path d="M277.02 155.981H193.334C192.673 150.75 193.077 145.439 194.522 140.367C194.522 140.237 194.584 140.113 194.618 139.983C195.573 136.592 196.837 133.296 198.394 130.137C198.449 130.013 198.518 129.882 198.58 129.759C200.281 126.347 202.218 123.057 204.375 119.913L204.636 119.528C207.229 115.774 210.043 112.177 213.061 108.755L213.397 108.37C216.068 105.356 218.746 102.61 221.252 100.193C225.355 96.1928 229.696 92.4439 234.25 88.9663C239.056 92.784 243.279 96.5192 247.056 100.193C249.926 102.974 252.549 105.686 254.876 108.37L255.206 108.755C258.218 112.18 261.028 115.778 263.624 119.528C263.713 119.659 263.802 119.782 263.885 119.913C264.18 120.338 264.462 120.771 264.743 121.197L265.128 121.773C266.94 124.561 268.478 127.266 269.783 129.759L269.982 130.137C271.605 133.318 273.004 136.608 274.171 139.983C274.212 140.113 274.253 140.237 274.301 140.367C277.556 150.076 277.02 155.981 277.02 155.981Z" fill="#778AD1"/>
<path opacity="0.2" d="M247.056 100.193H221.252C225.355 96.1928 229.696 92.4439 234.25 88.9663C239.029 92.784 243.272 96.5261 247.056 100.193Z" fill="white"/>
<path d="M273.766 176.443H194.728V244.323H273.766V176.443Z" fill="#FF835B"/>
<path opacity="0.2" d="M273.766 176.443H194.728V244.323H273.766V176.443Z" fill="white"/>
<path d="M274.233 258.269H193.334V329.87H274.233V258.269Z" fill="#FF835B"/>
<path opacity="0.2" d="M274.233 258.269H193.334V329.87H274.233V258.269Z" fill="white"/>
<g opacity="0.2">
<path d="M255.206 108.755H213.061L213.397 108.371H254.876L255.206 108.755Z" fill="white"/>
<path d="M263.871 119.913H204.341L204.601 119.528H263.652C263.713 119.659 263.803 119.782 263.871 119.913Z" fill="white"/>
<path d="M269.982 130.137H198.36C198.415 130.013 198.484 129.883 198.545 129.759H269.783L269.982 130.137Z" fill="white"/>
<path d="M274.315 140.367H194.522C194.522 140.237 194.584 140.113 194.618 139.983H274.171C274.226 140.113 274.267 140.237 274.315 140.367Z" fill="white"/>
<path d="M239.695 100.193H239.317V108.563H239.695V100.193Z" fill="white"/>
<path d="M228.798 108.563H228.421V119.721H228.798V108.563Z" fill="white"/>
<path d="M213.981 119.721H213.603V129.951H213.981V119.721Z" fill="white"/>
<path d="M204.684 129.951H204.306V140.182H204.684V129.951Z" fill="white"/>
<path d="M230.721 129.951H230.343V140.182H230.721V129.951Z" fill="white"/>
<path d="M256.751 129.951H256.373V140.182H256.751V129.951Z" fill="white"/>
<path d="M266.055 140.175H265.677V149.472H266.055V140.175Z" fill="white"/>
<path d="M240.018 119.721H239.64V129.951H240.018V119.721Z" fill="white"/>
<path d="M265.128 121.774V129.952H264.743V121.197L265.128 121.774Z" fill="white"/>
<path d="M253.963 108.563H253.585V119.721H253.963V108.563Z" fill="white"/>
</g>
<path d="M297.015 307.554H284.463V434.944H297.015V307.554Z" fill="#FF835B"/>
<path opacity="0.25" d="M297.015 307.554H284.463V434.944H297.015V307.554Z" fill="#D0CDE1"/>
<path d="M184.037 307.554H171.485V434.944H184.037V307.554Z" fill="#FF835B"/>
<path opacity="0.25" d="M184.037 307.554H171.485V434.944H184.037V307.554Z" fill="#D0CDE1"/>
<path d="M284.463 332.658H184.037V434.945H284.463V332.658Z" fill="#FF835B"/>
<path opacity="0.2" d="M284.463 332.658H184.037V434.945H284.463V332.658Z" fill="white"/>
<path d="M284.463 332.658H184.037V338.24H284.463V332.658Z" fill="#FF835B"/>
<path opacity="0.4" d="M284.463 332.658H184.037V338.24H284.463V332.658Z" fill="#D0CDE1"/>
<path d="M15.2705 307.554V332.657H93.8414V307.554H81.7704V319.069H72.1645V307.554H59.7709V319.069H50.1649V307.554H36.81V319.069H27.2041V307.554H15.2705Z" fill="#FF835B"/>
<path opacity="0.3" d="M15.2705 307.554V332.657H93.8414V307.554H81.7704V319.069H72.1645V307.554H59.7709V319.069H50.1649V307.554H36.81V319.069H27.2041V307.554H15.2705Z" fill="#D0CDE1"/>
<path d="M93.8414 332.658H15.2705V339.167H93.8414V332.658Z" fill="#FF835B"/>
<path opacity="0.4" d="M93.8414 332.658H15.2705V339.167H93.8414V332.658Z" fill="#D0CDE1"/>
<path d="M93.8414 339.167H15.2705V434.945H93.8414V339.167Z" fill="#FF835B"/>
<path opacity="0.3" d="M93.8414 339.167H15.2705V434.945H93.8414V339.167Z" fill="white"/>
<path d="M93.8414 349.397H15.2705V349.631H93.8414V349.397Z" fill="white"/>
<path d="M84.9013 339.167H84.5237V349.515H84.9013V339.167Z" fill="white"/>
<path d="M59.7983 339.167H59.4207V349.515H59.7983V339.167Z" fill="white"/>
<path d="M74.6775 349.397H74.2998V360.679H74.6775V349.397Z" fill="white"/>
<path d="M49.5676 349.397H49.1899V360.679H49.5676V349.397Z" fill="white"/>
<path d="M375.167 307.554V332.657H453.738V307.554H441.674V319.069H432.068V307.554H419.674V319.069H410.068V307.554H396.713V319.069H387.107V307.554H375.167Z" fill="#FF835B"/>
<path opacity="0.3" d="M375.167 307.554V332.657H453.738V307.554H441.674V319.069H432.068V307.554H419.674V319.069H410.068V307.554H396.713V319.069H387.107V307.554H375.167Z" fill="#D0CDE1"/>
<path d="M453.738 332.658H375.167V339.167H453.738V332.658Z" fill="#FF835B"/>
<path opacity="0.4" d="M453.738 332.658H375.167V339.167H453.738V332.658Z" fill="#D0CDE1"/>
<path d="M453.738 339.167H375.167V434.945H453.738V339.167Z" fill="#FF835B"/>
<path opacity="0.3" d="M453.738 339.167H375.167V434.945H453.738V339.167Z" fill="white"/>
<path d="M453.738 349.398H375.167V349.631H453.738V349.398Z" fill="white"/>
<path d="M444.805 339.167H444.427V349.515H444.805V339.167Z" fill="white"/>
<path d="M419.695 339.167H419.317V349.515H419.695V339.167Z" fill="white"/>
<path d="M395.519 339.167H395.141V349.515H395.519V339.167Z" fill="white"/>
<path d="M434.574 349.398H434.196V360.679H434.574V349.398Z" fill="white"/>
<path d="M409.471 349.398H409.093V360.679H409.471V349.398Z" fill="white"/>
<path d="M384.361 349.398H383.983V360.679H384.361V349.398Z" fill="white"/>
<g opacity="0.3">
<path d="M273.766 186.124H194.728V186.502H273.766V186.124Z" fill="white"/>
<path d="M273.766 197.639H194.728V198.017H273.766V197.639Z" fill="white"/>
<path d="M273.766 207.87H194.728V208.247H273.766V207.87Z" fill="white"/>
<path d="M273.766 218.094H194.728V218.471H273.766V218.094Z" fill="white"/>
<path d="M273.766 228.324H194.728V228.702H273.766V228.324Z" fill="white"/>
<path d="M215.45 176.443H215.073V186.317H215.45V176.443Z" fill="white"/>
<path d="M240.56 176.443H240.183V186.317H240.56V176.443Z" fill="white"/>
<path d="M264.736 176.443H264.359V186.317H264.736V176.443Z" fill="white"/>
<path d="M215.45 197.831H215.073V208.062H215.45V197.831Z" fill="white"/>
<path d="M240.56 197.831H240.183V208.062H240.56V197.831Z" fill="white"/>
<path d="M264.736 197.831H264.359V208.062H264.736V197.831Z" fill="white"/>
<path d="M204.292 186.317H203.915V197.831H204.292V186.317Z" fill="white"/>
<path d="M229.403 186.317H229.025V197.831H229.403V186.317Z" fill="white"/>
<path d="M253.579 186.317H253.201V197.831H253.579V186.317Z" fill="white"/>
<path d="M207.08 208.055H206.703V218.286H207.08V208.055Z" fill="white"/>
<path d="M256.366 208.055H255.989V218.286H256.366V208.055Z" fill="white"/>
</g>
<g opacity="0.2">
<path d="M274.233 269.138H193.334V269.516H274.233V269.138Z" fill="white"/>
<path d="M274.233 280.399H193.334V280.776H274.233V280.399Z" fill="white"/>
<path d="M274.233 290.623H193.334V291H274.233V290.623Z" fill="white"/>
<path d="M274.233 301.78H193.334V302.158H274.233V301.78Z" fill="white"/>
<path d="M274.233 312.945H193.334V313.322H274.233V312.945Z" fill="white"/>
<path d="M214.056 258.269H213.679V269.33H214.056V258.269Z" fill="white"/>
<path d="M240.093 258.269H239.716V269.33H240.093V258.269Z" fill="white"/>
<path d="M265.196 258.269H264.819V269.33H265.196V258.269Z" fill="white"/>
<path d="M214.056 280.584H213.679V290.815H214.056V280.584Z" fill="white"/>
<path d="M265.196 280.584H264.819V290.815H265.196V280.584Z" fill="white"/>
<path d="M202.899 269.426H202.521V280.488H202.899V269.426Z" fill="white"/>
<path d="M202.899 290.815H202.521V301.876H202.899V290.815Z" fill="white"/>
<path d="M214.056 301.972H213.679V313.034H214.056V301.972Z" fill="white"/>
<path d="M240.093 301.972H239.716V313.034H240.093V301.972Z" fill="white"/>
<path d="M265.196 301.972H264.819V313.034H265.196V301.972Z" fill="white"/>
<path d="M254.039 290.815H253.661V301.876H254.039V290.815Z" fill="white"/>
<path d="M228.929 269.426H228.551V280.488H228.929V269.426Z" fill="white"/>
<path d="M254.039 269.426H253.661V280.488H254.039V269.426Z" fill="white"/>
</g>
<g opacity="0.2">
<path d="M284.463 348.958H184.01V349.336H284.463V348.958Z" fill="white"/>
</g>
<g opacity="0.2">
<path d="M192.592 338.274H192.215V348.931H192.592V338.274Z" fill="white"/>
</g>
<g opacity="0.2">
<path d="M217.702 338.274H217.325V348.931H217.702V338.274Z" fill="white"/>
</g>
<g opacity="0.2">
<path d="M242.805 338.274H242.428V348.931H242.805V338.274Z" fill="white"/>
</g>
<g opacity="0.2">
<path d="M227.926 349.15H227.549V360.377H227.926V349.15Z" fill="white"/>
</g>
<g opacity="0.2">
<path d="M253.036 349.15H252.659V360.377H253.036V349.15Z" fill="white"/>
</g>
<g opacity="0.2">
<path d="M266.982 338.274H266.604V348.931H266.982V338.274Z" fill="white"/>
</g>
<path d="M270.518 138.781V149.472H260.287V138.781H249.129V149.472H238.898V138.781H228.668V149.472H218.444V138.781H207.286V149.472H197.055V138.781H187.292V167.606H281.208V138.781H270.518Z" fill="#FF835B"/>
<path opacity="0.3" d="M270.518 138.781V149.472H260.287V138.781H249.129V149.472H238.898V138.781H228.668V149.472H218.444V138.781H207.286V149.472H197.055V138.781H187.292V167.606H281.208V138.781H270.518Z" fill="#D0CDE1"/>
<path d="M233.323 192.256C236.036 192.256 238.639 193.334 240.557 195.252C242.476 197.171 243.554 199.773 243.554 202.487V217.366H223.092V202.48C223.094 199.768 224.173 197.167 226.091 195.25C228.01 193.333 230.611 192.256 233.323 192.256Z" fill="#778AD1"/>
<path opacity="0.3" d="M233.323 195.037C235.543 195.037 237.672 195.918 239.242 197.488C240.811 199.058 241.693 201.187 241.693 203.407V217.352H224.953V203.407C224.953 201.187 225.835 199.058 227.405 197.488C228.974 195.918 231.103 195.037 233.323 195.037Z" fill="#75F5ED"/>
<path d="M243.286 215.498H223.353C222.182 215.498 221.232 216.448 221.232 217.62V218.959C221.232 220.13 222.182 221.08 223.353 221.08H243.286C244.458 221.08 245.408 220.13 245.408 218.959V217.62C245.408 216.448 244.458 215.498 243.286 215.498Z" fill="#75F5ED"/>
<path d="M230.913 217.352H230.151V202.205C230.151 194.172 232.039 193.087 232.259 192.991L232.588 193.677C232.588 193.677 230.913 194.728 230.913 202.205V217.352Z" fill="#778AD1"/>
<path d="M236.488 217.352H235.719V205.769C235.719 196.197 233.941 193.581 233.92 193.561L234.538 193.114C234.621 193.231 236.482 195.957 236.482 205.769L236.488 217.352Z" fill="#9FACDD"/>
<path d="M233.783 268.554C236.497 268.554 239.099 269.632 241.017 271.551C242.936 273.469 244.014 276.072 244.014 278.785V293.664H223.559V278.771C223.563 276.061 224.641 273.464 226.558 271.548C228.475 269.633 231.073 268.556 233.783 268.554Z" fill="#778AD1"/>
<path opacity="0.3" d="M233.783 271.349C236.003 271.349 238.132 272.23 239.702 273.8C241.271 275.37 242.153 277.499 242.153 279.719V293.664H225.42V279.719C225.42 277.5 226.301 275.372 227.869 273.803C229.437 272.233 231.564 271.35 233.783 271.349Z" fill="white"/>
<path d="M243.753 291.803H223.82C222.648 291.803 221.698 292.753 221.698 293.925V295.264C221.698 296.436 222.648 297.385 223.82 297.385H243.753C244.925 297.385 245.875 296.436 245.875 295.264V293.925C245.875 292.753 244.925 291.803 243.753 291.803Z" fill="#75F5ED"/>
<path d="M231.373 293.664H230.618V278.517C230.618 270.483 232.506 269.398 232.719 269.295L233.049 269.982C233.049 269.982 231.373 271.033 231.373 278.517V293.664Z" fill="#778AD1"/>
<path d="M236.955 293.664H236.193V282.081C236.193 272.509 234.408 269.893 234.394 269.866L235.012 269.426C235.088 269.536 236.955 272.269 236.955 282.081V293.664Z" fill="#778AD1"/>
<path d="M271.486 220.607V231.305H260.85V220.607H249.253V231.305H238.617V220.607H227.988V231.305H217.352V220.607H205.748V231.305H195.119V220.607H184.964V249.438H282.602V220.607H271.486Z" fill="#FF835B"/>
<path opacity="0.3" d="M271.486 220.607V231.305H260.85V220.607H249.253V231.305H238.617V220.607H227.988V231.305H217.352V220.607H205.748V231.305H195.119V220.607H184.964V249.438H282.602V220.607H271.486Z" fill="#D0CDE1"/>
<path d="M184.964 249.438L192.215 258.269H275.352L282.602 249.438H184.964Z" fill="#FF835B"/>
<path opacity="0.4" d="M184.964 249.438L192.215 258.269H275.352L282.602 249.438H184.964Z" fill="#D0CDE1"/>
<path d="M272.516 307.554V319.069H262.917V307.554H249.562V319.069H239.956V307.554H227.562V319.069H217.956V307.554H205.535V318.142H197.79V307.554H184.01V332.657H284.463V307.554H272.516Z" fill="#FF835B"/>
<path opacity="0.3" d="M272.516 307.554V319.069H262.917V307.554H249.562V319.069H239.956V307.554H227.562V319.069H217.956V307.554H205.535V318.142H197.79V307.554H184.01V332.657H284.463V307.554H272.516Z" fill="#D0CDE1"/>
<path d="M200.31 342.888C202.406 342.888 204.416 343.721 205.898 345.203C207.38 346.685 208.213 348.695 208.213 350.791V364.277H192.421V350.791C192.421 348.698 193.251 346.69 194.731 345.208C196.21 343.726 198.216 342.892 200.31 342.888Z" fill="#778AD1"/>
<path opacity="0.3" d="M200.31 344.749C201.912 344.749 203.449 345.386 204.583 346.519C205.716 347.652 206.352 349.189 206.352 350.791V364.133C206.352 364.171 206.337 364.207 206.31 364.235C206.283 364.262 206.246 364.277 206.208 364.277H194.405C194.367 364.277 194.33 364.262 194.303 364.235C194.276 364.207 194.261 364.171 194.261 364.133V350.791C194.261 349.189 194.897 347.652 196.03 346.519C197.164 345.386 198.701 344.749 200.303 344.749H200.31Z" fill="white"/>
<path d="M268.19 342.888C270.286 342.888 272.296 343.721 273.778 345.203C275.261 346.685 276.093 348.695 276.093 350.791V364.277H260.301V350.791C260.301 348.698 261.132 346.69 262.611 345.208C264.09 343.726 266.097 342.892 268.19 342.888Z" fill="#778AD1"/>
<path opacity="0.3" d="M268.19 344.749C269.793 344.749 271.329 345.386 272.463 346.519C273.596 347.652 274.232 349.189 274.232 350.791V364.277H262.148V350.791C262.148 349.189 262.784 347.652 263.917 346.519C265.051 345.386 266.588 344.749 268.19 344.749Z" fill="white"/>
<path d="M168.691 263.851V274.411H158.467V263.851H147.309V274.411H137.078V263.851H126.848V274.411H116.624V263.851H105.466V274.411H95.2353V263.851H85.4714V292.318H179.388V263.851H168.691Z" fill="#FF835B"/>
<path opacity="0.3" d="M168.691 263.851V274.411H158.467V263.851H147.309V274.411H137.078V263.851H126.848V274.411H116.624V263.851H105.466V274.411H95.2353V263.851H85.4714V292.318H179.388V263.851H168.691Z" fill="#D0CDE1"/>
<path d="M85.4714 292.318L92.4476 301.045H172.412L179.388 292.318H85.4714Z" fill="#FF835B"/>
<path opacity="0.4" d="M85.4714 292.318L92.4476 301.045H172.412L179.388 292.318H85.4714Z" fill="#D0CDE1"/>
<path d="M171.485 301.045H93.3745V434.944H171.485V301.045Z" fill="#FF835B"/>
<path opacity="0.2" d="M171.485 301.045H93.3745V434.944H171.485V301.045Z" fill="white"/>
<path d="M171.485 312.086H93.3745V312.464H171.485V312.086Z" fill="white"/>
<path d="M171.485 322.241H93.3745V322.619H171.485V322.241Z" fill="white"/>
<path d="M171.485 332.465H93.3745V332.843H171.485V332.465Z" fill="white"/>
<path d="M171.485 343.63H93.3745V344.007H171.485V343.63Z" fill="white"/>
<path d="M171.485 353.854H93.3745V354.231H171.485V353.854Z" fill="white"/>
<path d="M102.246 312.278H101.868V322.427H102.246V312.278Z" fill="white"/>
<path d="M127.356 312.278H126.978V322.427H127.356V312.278Z" fill="white"/>
<path d="M152.459 312.278H152.081V322.427H152.459V312.278Z" fill="white"/>
<path d="M162.69 301.121H162.312V312.203H162.69V301.121Z" fill="white"/>
<path d="M137.58 301.121H137.202V312.203H137.58V301.121Z" fill="white"/>
<path d="M113.404 301.121H113.026V312.203H113.404V301.121Z" fill="white"/>
<path d="M161.756 322.509H161.378V332.657H161.756V322.509Z" fill="white"/>
<path d="M136.653 322.509H136.275V332.657H136.653V322.509Z" fill="white"/>
<path d="M112.477 322.509H112.099V332.657H112.477V322.509Z" fill="white"/>
<path d="M102.246 332.733H101.868V343.815H102.246V332.733Z" fill="white"/>
<path d="M113.404 343.815H113.026V354.046H113.404V343.815Z" fill="white"/>
<path d="M102.397 354.046H102.019V363.343H102.397V354.046Z" fill="white"/>
<path d="M127.507 354.046H127.129V363.343H127.507V354.046Z" fill="white"/>
<path d="M151.683 354.046H151.305V363.343H151.683V354.046Z" fill="white"/>
<path d="M161.907 343.815H161.529V354.046H161.907V343.815Z" fill="white"/>
<path d="M152.459 332.733H152.081V343.815H152.459V332.733Z" fill="white"/>
<path d="M131.503 318.712C134.586 318.712 137.543 319.937 139.723 322.117C141.903 324.297 143.128 327.253 143.128 330.337V350.331H119.878V330.33C119.88 327.248 121.106 324.293 123.286 322.114C125.465 319.936 128.421 318.712 131.503 318.712Z" fill="#778AD1"/>
<path opacity="0.3" d="M139.406 330.33V350.325H123.614V330.33C123.616 328.233 124.45 326.223 125.933 324.741C127.416 323.259 129.427 322.427 131.524 322.427C132.401 322.425 133.272 322.573 134.099 322.866C135.651 323.404 136.999 324.411 137.953 325.748C138.908 327.085 139.423 328.687 139.427 330.33H139.406Z" fill="#75F5ED"/>
<path opacity="0.3" d="M134.098 322.866C132.857 322.941 131.652 323.313 130.585 323.951C129.518 324.589 128.62 325.475 127.967 326.533C127.006 328.061 126.512 329.837 126.546 331.641V350.345H123.593V330.605C123.569 328.52 124.35 326.507 125.774 324.985C127.197 323.463 129.154 322.549 131.235 322.434C132.208 322.395 133.18 322.542 134.098 322.866Z" fill="white"/>
<path d="M146.822 348.464H117.105C116.581 348.464 116.157 348.888 116.157 349.411V354.953C116.157 355.476 116.581 355.9 117.105 355.9H146.822C147.345 355.9 147.769 355.476 147.769 354.953V349.411C147.769 348.888 147.345 348.464 146.822 348.464Z" fill="#75F5ED"/>
<path d="M372.564 263.851V274.411H362.334V263.851H351.176V274.411H340.945V263.851H330.721V274.411H320.49V263.851H309.333V274.411H299.102V263.851H289.338V292.318H383.255V263.851H372.564Z" fill="#FF835B"/>
<path opacity="0.3" d="M372.564 263.851V274.411H362.334V263.851H351.176V274.411H340.945V263.851H330.721V274.411H320.49V263.851H309.333V274.411H299.102V263.851H289.338V292.318H383.255V263.851H372.564Z" fill="#D0CDE1"/>
<path d="M289.338 292.318L296.314 301.045H376.279L383.255 292.318H289.338Z" fill="#FF835B"/>
<path opacity="0.4" d="M289.338 292.318L296.314 301.045H376.279L383.255 292.318H289.338Z" fill="#D0CDE1"/>
<path d="M375.352 301.045H297.241V434.944H375.352V301.045Z" fill="#FF835B"/>
<path opacity="0.2" d="M375.352 301.045H297.241V434.944H375.352V301.045Z" fill="white"/>
<path d="M375.352 312.086H297.241V312.464H375.352V312.086Z" fill="white"/>
<path d="M375.352 322.241H297.241V322.619H375.352V322.241Z" fill="white"/>
<path d="M375.352 332.465H297.241V332.843H375.352V332.465Z" fill="white"/>
<path d="M375.352 343.63H297.241V344.007H375.352V343.63Z" fill="white"/>
<path d="M375.352 353.854H297.241V354.231H375.352V353.854Z" fill="white"/>
<path d="M306.113 312.278H305.735V322.427H306.113V312.278Z" fill="white"/>
<path d="M331.222 312.278H330.845V322.427H331.222V312.278Z" fill="white"/>
<path d="M356.326 312.278H355.948V322.427H356.326V312.278Z" fill="white"/>
<path d="M366.556 301.121H366.179V312.203H366.556V301.121Z" fill="white"/>
<path d="M341.446 301.121H341.069V312.203H341.446V301.121Z" fill="white"/>
<path d="M317.27 301.121H316.893V312.203H317.27V301.121Z" fill="white"/>
<path d="M365.623 322.509H365.245V332.657H365.623V322.509Z" fill="white"/>
<path d="M340.519 322.509H340.142V332.657H340.519V322.509Z" fill="white"/>
<path d="M316.343 322.509H315.966V332.657H316.343V322.509Z" fill="white"/>
<path d="M306.113 332.733H305.735V343.815H306.113V332.733Z" fill="white"/>
<path d="M317.27 343.815H316.893V354.046H317.27V343.815Z" fill="white"/>
<path d="M306.263 354.046H305.886V363.343H306.263V354.046Z" fill="white"/>
<path d="M331.373 354.046H330.996V363.343H331.373V354.046Z" fill="white"/>
<path d="M355.55 354.046H355.172V363.343H355.55V354.046Z" fill="white"/>
<path d="M365.774 343.815H365.396V354.046H365.774V343.815Z" fill="white"/>
<path d="M356.326 332.733H355.948V343.815H356.326V332.733Z" fill="white"/>
<path d="M335.37 318.712C338.453 318.712 341.41 319.937 343.59 322.117C345.77 324.297 346.994 327.253 346.994 330.337V350.331H323.745V330.33C323.747 327.248 324.972 324.293 327.152 322.114C329.332 319.936 332.288 318.712 335.37 318.712Z" fill="#778AD1"/>
<path opacity="0.3" d="M343.273 330.33V350.325H327.48V330.33C327.482 328.234 328.315 326.225 329.797 324.744C331.279 323.262 333.288 322.429 335.384 322.427C336.261 322.425 337.132 322.573 337.958 322.866C339.513 323.401 340.862 324.407 341.817 325.745C342.772 327.083 343.286 328.686 343.287 330.33H343.273Z" fill="white"/>
<path opacity="0.3" d="M337.945 322.866C336.704 322.94 335.5 323.311 334.433 323.949C333.367 324.588 332.471 325.474 331.82 326.533C330.858 328.054 330.36 329.821 330.385 331.621V350.324H327.467V330.604C327.441 328.521 328.22 326.508 329.643 324.985C331.066 323.463 333.021 322.548 335.102 322.434C336.068 322.398 337.033 322.544 337.945 322.866Z" fill="white"/>
<path d="M350.688 348.464H320.971C320.448 348.464 320.024 348.888 320.024 349.411V354.953C320.024 355.476 320.448 355.9 320.971 355.9H350.688C351.212 355.9 351.636 355.476 351.636 354.953V349.411C351.636 348.888 351.212 348.464 350.688 348.464Z" fill="#75F5ED"/>
<path d="M46.3885 393.197C46.3885 393.197 38.9317 394.811 27.671 386.228C16.4103 377.645 35.2926 340.512 43.1407 331.984C50.9889 323.457 70.8805 369.831 65.1128 379.616C59.3452 389.4 52.6986 392.064 46.3885 393.197Z" fill="#FF835B"/>
<path d="M43.2921 434.079L44.4593 382.129L39.4195 376.718L44.8438 379.808V370.511L37.8608 362.368L44.4593 367.408L43.6766 360.823L45.6129 363.927L46.7801 345.312L47.5629 373.615L60.3479 366.639L47.5629 377.481V382.52V435.624" fill="#778AD1"/>
<path d="M426.527 392.655C426.527 392.655 433.894 393.438 445.141 383.42C456.388 373.402 438.117 338.006 430.447 330.282C422.778 322.557 402.57 371.85 408.2 381.079C413.831 390.307 420.313 392.264 426.527 392.655Z" fill="#FF835B"/>
<path d="M430.358 434.079L429.191 382.129L434.224 376.718L428.799 379.808V370.511L435.782 362.368L429.191 367.408L429.967 360.823L428.03 363.927L426.863 345.312L426.087 373.615L413.295 366.639L426.087 377.481V382.52V435.624" fill="#778AD1"/>
<path d="M427.508 411.654C427.186 410.83 429.273 410.72 429.822 410.713L429.877 413.185C429.156 412.876 427.79 412.293 427.508 411.654Z" fill="#808080"/>
<path d="M426.108 390.643C427.186 390.904 429.349 391.529 428.703 392.167C427.929 392.667 427.029 392.934 426.108 392.936V390.643Z" fill="#808080"/>
<path d="M427.357 397.592C427.028 396.775 429.52 396.775 429.52 396.775V398.931C428.984 398.814 427.618 398.279 427.357 397.592Z" fill="#808080"/>
<path d="M427.522 386.867C427.275 386.249 428.607 386.091 429.273 386.05L429.328 388.11C428.662 387.863 427.728 387.389 427.522 386.867Z" fill="#808080"/>
<path d="M429.967 422.921L430.131 424.075V425.503C429.555 425.311 427.79 424.659 427.481 423.869C427.186 422.921 429.967 422.921 429.967 422.921Z" fill="#808080"/>
<path d="M429.026 405.378C428.154 405.936 427.142 406.236 426.108 406.243V403.648C427.289 403.95 429.74 404.664 429.026 405.378Z" fill="#808080"/>
<path d="M428.854 381.374C428.032 381.891 427.079 382.165 426.108 382.163V379.808C427.069 380.069 429.52 380.728 428.854 381.374Z" fill="#808080"/>
<path d="M426.279 366.659C427.357 366.975 428.703 367.483 428.181 367.998C427.609 368.411 426.929 368.649 426.224 368.685L426.279 366.659Z" fill="#808080"/>
<path d="M426.108 415.911C427.33 416.213 429.761 416.927 429.046 417.641C428.171 418.21 427.151 418.515 426.108 418.52V415.911Z" fill="#808080"/>
<path d="M428.799 372.619V374.782C428.113 374.521 427.09 374.034 426.863 373.484C426.636 372.935 428.202 372.64 428.799 372.619Z" fill="#808080"/>
<path d="M458.874 407.328C458.874 407.328 463.907 407.892 471.377 401.369C478.848 394.846 465.884 371.349 460.563 366.213C455.241 361.077 442.305 393.438 446.274 399.563C450.243 405.687 454.651 407.054 458.874 407.328Z" fill="#FF835B"/>
<path d="M460.899 434.587L460.123 399.789L463.495 396.157L459.862 398.23V392.003L464.538 386.544L460.123 389.929L460.645 385.507L459.347 387.595L458.565 375.125L458.05 394.083L449.474 389.407L458.05 396.679V400.05V435.624" fill="#778AD1"/>
<path d="M392.209 407.328C392.209 407.328 397.228 407.892 404.705 401.369C412.183 394.846 399.212 371.349 393.898 366.213C388.583 361.077 375.62 393.438 379.589 399.563C383.557 405.687 387.972 407.054 392.209 407.328Z" fill="#FF835B"/>
<path d="M394.207 434.587L393.438 399.789L396.816 396.157L393.184 398.23V392.003L397.853 386.544L393.438 389.929L393.946 385.507L392.648 387.595L391.872 375.125L391.351 394.083L382.788 389.407L391.351 396.679V400.05V435.624" fill="#778AD1"/>
<path d="M392.319 419.53C392.092 418.973 393.493 418.912 393.864 418.898V420.553C393.41 420.388 392.497 419.99 392.319 419.53Z" fill="#808080"/>
<path d="M391.351 405.488C392.037 405.66 393.513 406.086 393.095 406.518C392.573 406.849 391.968 407.025 391.351 407.026V405.488Z" fill="#808080"/>
<path d="M392.209 410.171C391.989 409.622 393.644 409.622 393.644 409.622V411.077C393.287 410.967 392.38 410.603 392.209 410.171Z" fill="#808080"/>
<path d="M392.319 403.003C392.154 402.591 393.005 402.481 393.493 402.46V403.834C393.081 403.621 392.456 403.305 392.319 403.003Z" fill="#808080"/>
<path d="M393.946 427.117L394.07 427.893V428.848C393.678 428.717 392.497 428.271 392.291 427.763C392.085 427.255 393.946 427.117 393.946 427.117Z" fill="#808080"/>
<path d="M393.321 415.369C392.732 415.745 392.049 415.947 391.351 415.953V414.202C392.175 414.408 393.795 414.895 393.321 415.369Z" fill="#808080"/>
<path d="M393.204 399.295C392.65 399.644 392.006 399.828 391.351 399.823V398.244C392.017 398.409 393.644 398.848 393.204 399.295Z" fill="#808080"/>
<path d="M391.508 389.407C392.243 389.613 393.129 389.963 392.779 390.307C392.399 390.587 391.945 390.749 391.474 390.774L391.508 389.407Z" fill="#808080"/>
<path d="M391.351 422.461C392.175 422.661 393.795 423.148 393.321 423.622C392.733 424 392.05 424.207 391.351 424.219V422.461Z" fill="#808080"/>
<path d="M393.17 393.438V394.811C392.724 394.64 392.024 394.31 391.873 393.946C391.722 393.582 392.779 393.438 393.17 393.438Z" fill="#808080"/>
<path d="M382.733 435.624C382.218 430.818 386.098 425.696 391.028 425.462C395.45 425.243 400.304 428.209 404.005 425.765C407.013 423.76 407.074 419.482 407.438 415.877C407.802 412.272 408.764 408.647 411.112 405.935C413.46 403.223 417.415 401.671 420.786 402.914C427.577 405.413 428.003 416.564 434.945 418.603C439.751 420.031 444.763 416.028 449.693 416.921C455.729 417.999 458.448 424.68 463.09 427.948C463.563 428.284 465.589 429.74 467.896 431.429C469.832 432.844 471.974 434.416 473.581 435.624H382.733Z" fill="#FF835B"/>
<path opacity="0.4" d="M382.733 435.624C382.218 430.818 386.098 425.696 391.028 425.462C395.45 425.243 400.304 428.209 404.005 425.765C407.013 423.76 407.074 419.482 407.438 415.877C407.802 412.272 408.764 408.647 411.112 405.935C413.46 403.223 417.415 401.671 420.786 402.914C427.577 405.413 428.003 416.564 434.945 418.603C439.751 420.031 444.763 416.028 449.693 416.921C455.729 417.999 458.448 424.68 463.09 427.948C463.563 428.284 465.589 429.74 467.896 431.429C469.832 432.844 471.974 434.416 473.581 435.624H382.733Z" fill="white"/>
<path d="M439.092 435.576C439.055 435.583 439.018 435.583 438.982 435.576C438.939 435.563 438.9 435.54 438.866 435.511C438.832 435.481 438.804 435.445 438.784 435.405C438.764 435.365 438.753 435.321 438.75 435.276C438.747 435.231 438.754 435.186 438.769 435.144L442.587 424.007C442.597 423.959 442.617 423.915 442.645 423.875C442.674 423.836 442.711 423.804 442.753 423.78C442.795 423.756 442.842 423.741 442.89 423.736C442.938 423.732 442.987 423.738 443.033 423.753C443.079 423.769 443.121 423.794 443.157 423.827C443.192 423.86 443.22 423.9 443.239 423.945C443.258 423.99 443.267 424.038 443.266 424.087C443.264 424.135 443.253 424.183 443.232 424.227L439.414 435.322C439.396 435.394 439.355 435.458 439.296 435.504C439.238 435.55 439.166 435.576 439.092 435.576Z" fill="#778AD1"/>
<path d="M425.62 435.871C425.55 435.87 425.482 435.848 425.424 435.808C425.366 435.767 425.322 435.711 425.298 435.645L417.381 414.249C417.351 414.163 417.356 414.068 417.395 413.985C417.433 413.902 417.502 413.837 417.587 413.803C417.672 413.772 417.767 413.777 417.849 413.815C417.931 413.854 417.995 413.924 418.026 414.009L425.916 435.404C425.945 435.491 425.94 435.586 425.902 435.669C425.863 435.752 425.794 435.817 425.71 435.851C425.681 435.862 425.651 435.869 425.62 435.871Z" fill="#778AD1"/>
<path d="M396.892 435.528L392.209 431.127" stroke="#778AD1" stroke-width="0.686628" stroke-linecap="round" stroke-linejoin="round"/>
<path d="M440.149 432.94C440.079 432.94 440.011 432.919 439.954 432.878C439.898 432.837 439.855 432.779 439.833 432.713L437.313 425.97C437.291 425.927 437.279 425.88 437.276 425.832C437.274 425.783 437.282 425.735 437.299 425.69C437.316 425.645 437.343 425.604 437.378 425.57C437.412 425.536 437.453 425.51 437.498 425.493C437.544 425.476 437.592 425.468 437.64 425.471C437.688 425.474 437.735 425.487 437.778 425.51C437.821 425.532 437.859 425.563 437.889 425.601C437.919 425.639 437.94 425.683 437.952 425.73L440.472 432.479C440.503 432.564 440.5 432.658 440.463 432.74C440.425 432.822 440.357 432.887 440.273 432.919L440.149 432.94Z" fill="#778AD1"/>
<path d="M440.637 431.285C440.56 431.285 440.486 431.259 440.426 431.212C440.366 431.164 440.324 431.098 440.307 431.024C440.295 430.98 440.292 430.935 440.298 430.89C440.303 430.846 440.318 430.803 440.342 430.764C440.365 430.726 440.396 430.692 440.432 430.666C440.469 430.64 440.51 430.621 440.554 430.612L449.261 428.456C449.304 428.444 449.349 428.442 449.393 428.448C449.438 428.455 449.48 428.47 449.519 428.493C449.557 428.516 449.59 428.546 449.617 428.582C449.643 428.618 449.662 428.659 449.673 428.703C449.694 428.791 449.68 428.884 449.634 428.962C449.588 429.04 449.513 429.097 449.426 429.122L440.705 431.285H440.637Z" fill="#778AD1"/>
<path d="M420.052 420.903C419.989 420.904 419.927 420.888 419.873 420.855C419.834 420.832 419.8 420.801 419.773 420.764C419.746 420.728 419.727 420.686 419.716 420.642C419.705 420.598 419.703 420.553 419.71 420.508C419.717 420.463 419.733 420.42 419.756 420.381L422.091 416.563C422.145 416.498 422.22 416.455 422.304 416.441C422.387 416.427 422.473 416.444 422.545 416.489C422.617 416.533 422.67 416.602 422.695 416.682C422.72 416.763 422.715 416.85 422.681 416.927L420.347 420.738C420.316 420.789 420.273 420.831 420.221 420.859C420.169 420.888 420.111 420.903 420.052 420.903Z" fill="#778AD1"/>
<path d="M422.386 426.787C422.329 426.787 422.272 426.773 422.221 426.746L413.721 422.05C413.681 422.028 413.646 421.999 413.618 421.963C413.589 421.928 413.569 421.887 413.556 421.844C413.544 421.8 413.541 421.755 413.547 421.71C413.553 421.665 413.567 421.622 413.59 421.583C413.612 421.544 413.641 421.509 413.676 421.482C413.711 421.454 413.75 421.434 413.793 421.421C413.836 421.409 413.881 421.406 413.925 421.411C413.969 421.416 414.012 421.43 414.05 421.452L422.551 426.142C422.63 426.187 422.688 426.26 422.714 426.348C422.74 426.435 422.73 426.528 422.688 426.609C422.659 426.663 422.616 426.709 422.562 426.741C422.509 426.772 422.448 426.788 422.386 426.787Z" fill="#778AD1"/>
<path d="M424.927 434.224C424.888 434.23 424.849 434.23 424.81 434.224L417.01 431.477C416.964 431.465 416.921 431.444 416.883 431.415C416.846 431.385 416.815 431.348 416.793 431.306C416.77 431.265 416.757 431.218 416.753 431.171C416.749 431.123 416.756 431.076 416.771 431.031C416.787 430.986 416.812 430.945 416.845 430.91C416.877 430.875 416.916 430.848 416.96 430.829C417.004 430.81 417.051 430.801 417.099 430.801C417.146 430.802 417.193 430.812 417.237 430.832L425.044 433.578C425.129 433.609 425.199 433.673 425.237 433.755C425.276 433.838 425.28 433.932 425.25 434.018C425.224 434.081 425.179 434.135 425.121 434.172C425.063 434.209 424.995 434.227 424.927 434.224Z" fill="#778AD1"/>
<path d="M423.856 431.202C423.796 431.202 423.737 431.188 423.684 431.161C423.645 431.139 423.61 431.109 423.583 431.074C423.555 431.038 423.535 430.997 423.523 430.954C423.512 430.91 423.509 430.865 423.516 430.82C423.522 430.776 423.537 430.733 423.56 430.694L428.545 421.898C428.567 421.859 428.597 421.825 428.633 421.797C428.668 421.769 428.709 421.749 428.753 421.738C428.796 421.726 428.842 421.724 428.886 421.73C428.931 421.736 428.974 421.752 429.012 421.775C429.091 421.819 429.15 421.894 429.174 421.981C429.198 422.069 429.187 422.162 429.143 422.242L424.158 431.031C424.127 431.083 424.082 431.126 424.029 431.156C423.977 431.187 423.917 431.202 423.856 431.202Z" fill="#778AD1"/>
<path d="M416.948 414.126C416.952 414.276 417.001 414.421 417.087 414.543C417.174 414.664 417.295 414.758 417.435 414.811C417.575 414.864 417.727 414.875 417.873 414.841C418.019 414.807 418.152 414.731 418.254 414.622C418.356 414.513 418.424 414.375 418.448 414.228C418.473 414.08 418.453 413.929 418.391 413.792C418.329 413.656 418.228 413.541 418.1 413.463C417.973 413.384 417.825 413.345 417.676 413.35C417.477 413.357 417.289 413.443 417.152 413.588C417.016 413.734 416.942 413.927 416.948 414.126Z" fill="#778AD1"/>
<path d="M421.693 416.701C421.691 416.852 421.735 417 421.818 417.126C421.901 417.252 422.019 417.351 422.158 417.41C422.298 417.468 422.451 417.484 422.599 417.456C422.748 417.427 422.884 417.355 422.991 417.249C423.099 417.142 423.172 417.007 423.202 416.859C423.232 416.711 423.217 416.557 423.16 416.417C423.102 416.278 423.004 416.158 422.879 416.074C422.753 415.99 422.606 415.945 422.455 415.945C422.254 415.945 422.061 416.025 421.918 416.166C421.776 416.308 421.694 416.5 421.693 416.701Z" fill="#778AD1"/>
<path d="M413.13 421.747C413.129 421.899 413.173 422.047 413.256 422.173C413.339 422.3 413.458 422.399 413.598 422.457C413.737 422.516 413.891 422.531 414.04 422.502C414.188 422.473 414.324 422.4 414.431 422.293C414.538 422.186 414.611 422.05 414.64 421.901C414.67 421.753 414.654 421.599 414.595 421.46C414.537 421.32 414.438 421.201 414.312 421.118C414.185 421.035 414.037 420.991 413.886 420.992C413.687 420.992 413.497 421.071 413.356 421.211C413.216 421.352 413.137 421.542 413.137 421.741L413.13 421.747Z" fill="#778AD1"/>
<path d="M428.085 422.043C428.085 422.192 428.129 422.338 428.212 422.463C428.295 422.587 428.413 422.684 428.551 422.741C428.689 422.798 428.841 422.813 428.988 422.784C429.134 422.755 429.269 422.683 429.374 422.577C429.48 422.471 429.552 422.337 429.581 422.19C429.61 422.044 429.595 421.892 429.538 421.754C429.481 421.616 429.384 421.498 429.26 421.415C429.136 421.332 428.99 421.288 428.84 421.288C428.64 421.288 428.448 421.367 428.306 421.509C428.165 421.65 428.085 421.843 428.085 422.043Z" fill="#778AD1"/>
<path d="M415.966 431.003C415.963 431.153 416.005 431.3 416.086 431.426C416.167 431.552 416.284 431.651 416.421 431.71C416.559 431.77 416.71 431.787 416.858 431.76C417.005 431.733 417.141 431.663 417.248 431.558C417.355 431.454 417.429 431.32 417.46 431.174C417.491 431.027 417.478 430.875 417.422 430.736C417.367 430.597 417.271 430.478 417.147 430.393C417.024 430.309 416.878 430.263 416.728 430.262C416.629 430.26 416.531 430.278 416.439 430.314C416.347 430.351 416.264 430.405 416.193 430.474C416.122 430.543 416.065 430.625 416.026 430.716C415.988 430.807 415.967 430.905 415.966 431.003Z" fill="#778AD1"/>
<path d="M391.742 431.312C391.742 431.463 391.787 431.611 391.871 431.736C391.955 431.862 392.074 431.959 392.214 432.017C392.354 432.074 392.507 432.089 392.655 432.059C392.803 432.029 392.939 431.956 393.045 431.848C393.152 431.741 393.224 431.605 393.252 431.456C393.281 431.308 393.265 431.155 393.206 431.016C393.148 430.876 393.049 430.758 392.923 430.675C392.796 430.592 392.648 430.548 392.497 430.55C392.296 430.552 392.104 430.633 391.963 430.775C391.821 430.918 391.742 431.111 391.742 431.312Z" fill="#778AD1"/>
<path d="M442.154 424.096C442.154 424.245 442.199 424.391 442.282 424.515C442.365 424.639 442.483 424.736 442.621 424.793C442.759 424.851 442.91 424.866 443.057 424.836C443.203 424.807 443.338 424.735 443.444 424.63C443.549 424.524 443.621 424.39 443.65 424.243C443.679 424.096 443.665 423.945 443.607 423.807C443.55 423.669 443.453 423.551 443.329 423.468C443.205 423.385 443.059 423.34 442.91 423.34C442.709 423.34 442.517 423.42 442.375 423.562C442.234 423.703 442.154 423.895 442.154 424.096Z" fill="#778AD1"/>
<path d="M437.004 425.867C437.003 426.018 437.047 426.167 437.13 426.293C437.213 426.42 437.332 426.518 437.472 426.577C437.611 426.635 437.765 426.651 437.914 426.622C438.062 426.593 438.198 426.52 438.305 426.413C438.412 426.306 438.485 426.169 438.514 426.021C438.544 425.872 438.528 425.719 438.469 425.579C438.411 425.44 438.312 425.321 438.186 425.237C438.059 425.154 437.911 425.11 437.76 425.112C437.56 425.114 437.369 425.194 437.228 425.335C437.086 425.476 437.006 425.667 437.004 425.867Z" fill="#778AD1"/>
<path d="M448.574 428.779C448.571 428.93 448.614 429.078 448.695 429.205C448.777 429.332 448.895 429.432 449.033 429.492C449.172 429.552 449.325 429.569 449.474 429.542C449.622 429.515 449.759 429.444 449.868 429.339C449.976 429.233 450.05 429.098 450.082 428.95C450.113 428.803 450.1 428.649 450.044 428.509C449.987 428.369 449.891 428.248 449.766 428.163C449.641 428.078 449.494 428.032 449.343 428.03C449.142 428.028 448.949 428.106 448.805 428.246C448.661 428.386 448.578 428.578 448.574 428.779Z" fill="#778AD1"/>
<path d="M331.751 435.624C331.353 431.944 334.347 427.982 338.144 427.797C341.536 427.632 345.278 429.959 348.114 428.03C350.427 426.485 350.482 423.224 350.743 420.477C350.879 417.695 351.866 415.023 353.572 412.821C355.392 410.761 358.427 409.58 361.022 410.507C366.247 412.43 366.57 421.006 371.912 422.585C375.613 423.67 379.465 420.608 383.269 421.287C387.904 422.118 390.005 427.254 393.568 429.774C393.939 430.035 395.498 431.147 397.269 432.445C398.759 433.53 400.407 434.752 401.65 435.693L331.751 435.624Z" fill="#FF835B"/>
<path opacity="0.4" d="M331.751 435.624C331.353 431.944 334.347 427.982 338.144 427.797C341.536 427.632 345.278 429.959 348.114 428.03C350.427 426.485 350.482 423.224 350.743 420.477C350.879 417.695 351.866 415.023 353.572 412.821C355.392 410.761 358.427 409.58 361.022 410.507C366.247 412.43 366.57 421.006 371.912 422.585C375.613 423.67 379.465 420.608 383.269 421.287C387.904 422.118 390.005 427.254 393.568 429.774C393.939 430.035 395.498 431.147 397.269 432.445C398.759 433.53 400.407 434.752 401.65 435.693L331.751 435.624Z" fill="white"/>
<path d="M375.105 435.666C375.069 435.673 375.031 435.673 374.995 435.666C374.952 435.652 374.911 435.631 374.877 435.602C374.842 435.572 374.814 435.537 374.793 435.496C374.773 435.456 374.76 435.412 374.757 435.366C374.754 435.321 374.76 435.276 374.775 435.233L377.721 426.664C377.751 426.579 377.813 426.509 377.894 426.469C377.975 426.429 378.068 426.423 378.154 426.451C378.239 426.482 378.309 426.546 378.349 426.628C378.389 426.71 378.395 426.804 378.366 426.891L375.428 435.453C375.402 435.517 375.358 435.572 375.3 435.61C375.242 435.648 375.174 435.668 375.105 435.666Z" fill="#778AD1"/>
<path d="M364.757 435.892C364.687 435.892 364.618 435.87 364.56 435.83C364.503 435.789 364.459 435.732 364.435 435.665L358.344 419.186C358.313 419.101 358.316 419.006 358.354 418.923C358.392 418.84 358.461 418.775 358.547 418.743C358.633 418.711 358.727 418.715 358.81 418.753C358.893 418.791 358.958 418.86 358.99 418.946L365.073 435.425C365.09 435.467 365.098 435.513 365.097 435.558C365.096 435.603 365.086 435.648 365.067 435.69C365.049 435.731 365.022 435.769 364.989 435.8C364.956 435.831 364.917 435.855 364.874 435.871L364.757 435.892Z" fill="#778AD1"/>
<path d="M342.655 435.892C342.612 435.892 342.569 435.884 342.529 435.867C342.489 435.851 342.452 435.827 342.421 435.796L338.81 432.418C338.778 432.386 338.752 432.348 338.735 432.306C338.717 432.264 338.708 432.219 338.708 432.174C338.708 432.129 338.717 432.084 338.735 432.042C338.752 432 338.778 431.962 338.81 431.93C338.875 431.867 338.963 431.832 339.054 431.832C339.145 431.832 339.232 431.867 339.297 431.93L342.909 435.315C342.941 435.347 342.967 435.385 342.984 435.427C343.002 435.469 343.01 435.514 343.01 435.559C343.01 435.604 343.002 435.649 342.984 435.691C342.967 435.733 342.941 435.771 342.909 435.803C342.875 435.835 342.835 435.859 342.791 435.875C342.748 435.89 342.701 435.896 342.655 435.892Z" fill="#778AD1"/>
<path d="M375.936 433.633C375.865 433.632 375.797 433.61 375.739 433.569C375.682 433.529 375.638 433.472 375.613 433.406L373.677 428.229C373.645 428.144 373.649 428.051 373.686 427.969C373.723 427.886 373.792 427.822 373.876 427.79C373.918 427.773 373.963 427.765 374.009 427.766C374.054 427.767 374.099 427.777 374.141 427.796C374.182 427.814 374.22 427.841 374.251 427.874C374.282 427.907 374.306 427.946 374.322 427.989L376.258 433.166C376.288 433.253 376.283 433.347 376.245 433.43C376.206 433.513 376.137 433.578 376.052 433.612C376.015 433.626 375.976 433.633 375.936 433.633Z" fill="#778AD1"/>
<path d="M376.313 432.363C376.222 432.374 376.131 432.348 376.058 432.292C375.986 432.235 375.94 432.152 375.929 432.061C375.918 431.97 375.943 431.878 376 431.806C376.057 431.734 376.14 431.687 376.231 431.676L382.946 430.008C383.037 429.986 383.133 430.001 383.213 430.05C383.293 430.099 383.35 430.178 383.372 430.269C383.394 430.36 383.378 430.456 383.329 430.536C383.281 430.615 383.202 430.673 383.111 430.694L376.396 432.356L376.313 432.363Z" fill="#778AD1"/>
<path d="M360.473 424.384C360.41 424.386 360.348 424.369 360.294 424.336C360.255 424.313 360.221 424.282 360.194 424.246C360.167 424.209 360.148 424.168 360.137 424.124C360.126 424.08 360.124 424.034 360.131 423.989C360.138 423.944 360.154 423.901 360.178 423.863L361.983 420.931C362.033 420.855 362.11 420.801 362.198 420.78C362.287 420.76 362.379 420.774 362.457 420.821C362.496 420.844 362.53 420.875 362.557 420.912C362.584 420.948 362.603 420.99 362.613 421.034C362.624 421.078 362.625 421.124 362.617 421.169C362.609 421.214 362.592 421.257 362.567 421.295L360.768 424.226C360.736 424.275 360.692 424.315 360.641 424.343C360.589 424.371 360.531 424.385 360.473 424.384Z" fill="#778AD1"/>
<path d="M362.746 430.578C362.669 430.578 362.595 430.554 362.533 430.509L355.509 425.229C355.437 425.173 355.39 425.092 355.378 425.002C355.365 424.913 355.387 424.822 355.44 424.748C355.495 424.675 355.576 424.627 355.666 424.614C355.756 424.601 355.848 424.625 355.921 424.68L362.952 429.96C363.024 430.015 363.07 430.097 363.082 430.187C363.093 430.277 363.069 430.368 363.014 430.44C362.983 430.483 362.943 430.518 362.897 430.542C362.85 430.566 362.798 430.578 362.746 430.578Z" fill="#778AD1"/>
<path d="M364.222 434.635C364.185 434.642 364.148 434.642 364.112 434.635L358.097 432.514C358.019 432.478 357.957 432.415 357.923 432.336C357.889 432.257 357.886 432.168 357.914 432.087C357.943 432.006 358.001 431.939 358.076 431.898C358.152 431.857 358.24 431.847 358.324 431.868L364.338 433.983C364.422 434.006 364.493 434.06 364.54 434.133C364.586 434.206 364.603 434.294 364.589 434.379C364.575 434.464 364.529 434.541 364.461 434.595C364.393 434.648 364.308 434.675 364.222 434.67V434.635Z" fill="#778AD1"/>
<path d="M363.432 432.28C363.372 432.281 363.312 432.265 363.261 432.232C363.182 432.187 363.124 432.113 363.099 432.026C363.075 431.938 363.086 431.844 363.13 431.765L366.934 425.023C366.955 424.981 366.984 424.943 367.019 424.913C367.055 424.883 367.096 424.86 367.141 424.846C367.185 424.833 367.232 424.828 367.279 424.833C367.325 424.838 367.37 424.852 367.411 424.875C367.451 424.898 367.487 424.929 367.515 424.966C367.543 425.003 367.564 425.046 367.575 425.091C367.587 425.136 367.589 425.183 367.581 425.229C367.574 425.276 367.557 425.32 367.532 425.359L363.7 432.122C363.671 432.168 363.632 432.206 363.585 432.233C363.539 432.261 363.486 432.277 363.432 432.28Z" fill="#778AD1"/>
<path d="M358.083 419.083C358.083 419.238 358.145 419.387 358.254 419.496C358.364 419.605 358.512 419.667 358.667 419.667C358.822 419.667 358.97 419.605 359.08 419.496C359.189 419.387 359.251 419.238 359.251 419.083C359.252 418.928 359.193 418.778 359.085 418.666C358.977 418.554 358.829 418.489 358.674 418.486C358.596 418.485 358.518 418.5 358.445 418.53C358.373 418.559 358.307 418.603 358.252 418.659C358.197 418.715 358.153 418.781 358.124 418.854C358.096 418.927 358.082 419.005 358.083 419.083Z" fill="#778AD1"/>
<path d="M361.736 421.061C361.736 421.176 361.771 421.289 361.835 421.385C361.899 421.481 361.99 421.556 362.097 421.6C362.203 421.644 362.321 421.656 362.434 421.633C362.547 421.611 362.651 421.555 362.733 421.473C362.814 421.392 362.87 421.288 362.892 421.175C362.915 421.061 362.903 420.944 362.859 420.837C362.815 420.731 362.74 420.64 362.644 420.575C362.548 420.511 362.435 420.477 362.32 420.477C362.165 420.477 362.017 420.539 361.907 420.648C361.798 420.757 361.736 420.906 361.736 421.061Z" fill="#778AD1"/>
<path d="M355.735 425.538C356.057 425.538 356.319 425.277 356.319 424.954C356.319 424.632 356.057 424.371 355.735 424.371C355.413 424.371 355.151 424.632 355.151 424.954C355.151 425.277 355.413 425.538 355.735 425.538Z" fill="#778AD1"/>
<path d="M367.229 425.764C367.551 425.764 367.813 425.503 367.813 425.181C367.813 424.858 367.551 424.597 367.229 424.597C366.907 424.597 366.646 424.858 366.646 425.181C366.646 425.503 366.907 425.764 367.229 425.764Z" fill="#778AD1"/>
<path d="M357.328 432.074C357.328 432.19 357.362 432.303 357.426 432.399C357.491 432.495 357.582 432.569 357.688 432.614C357.795 432.658 357.912 432.669 358.026 432.647C358.139 432.624 358.243 432.569 358.324 432.487C358.406 432.405 358.462 432.301 358.484 432.188C358.507 432.075 358.495 431.958 358.451 431.851C358.407 431.744 358.332 431.653 358.236 431.589C358.14 431.525 358.027 431.491 357.912 431.491C357.757 431.491 357.609 431.552 357.499 431.662C357.39 431.771 357.328 431.92 357.328 432.074Z" fill="#778AD1"/>
<path d="M338.714 432.301C338.714 432.416 338.748 432.529 338.812 432.625C338.876 432.721 338.967 432.796 339.074 432.84C339.181 432.884 339.298 432.896 339.411 432.873C339.524 432.851 339.628 432.795 339.71 432.714C339.792 432.632 339.847 432.528 339.87 432.415C339.892 432.302 339.881 432.184 339.836 432.078C339.792 431.971 339.717 431.88 339.621 431.816C339.526 431.752 339.413 431.717 339.297 431.717C339.221 431.717 339.145 431.732 339.074 431.762C339.003 431.791 338.939 431.834 338.885 431.888C338.83 431.942 338.787 432.007 338.758 432.078C338.729 432.148 338.714 432.224 338.714 432.301Z" fill="#778AD1"/>
<path d="M377.446 426.787C377.446 426.903 377.481 427.016 377.545 427.112C377.609 427.207 377.7 427.282 377.807 427.326C377.913 427.371 378.031 427.382 378.144 427.36C378.257 427.337 378.361 427.282 378.443 427.2C378.524 427.118 378.58 427.014 378.602 426.901C378.625 426.788 378.613 426.671 378.569 426.564C378.525 426.457 378.45 426.366 378.354 426.302C378.258 426.238 378.145 426.204 378.03 426.204C377.875 426.204 377.727 426.265 377.617 426.375C377.508 426.484 377.446 426.632 377.446 426.787Z" fill="#778AD1"/>
<path d="M373.526 428.119C373.526 428.235 373.56 428.348 373.624 428.444C373.688 428.54 373.779 428.614 373.886 428.658C373.993 428.703 374.11 428.714 374.223 428.692C374.336 428.669 374.44 428.614 374.522 428.532C374.604 428.45 374.659 428.346 374.682 428.233C374.704 428.12 374.693 428.003 374.648 427.896C374.604 427.789 374.529 427.698 374.433 427.634C374.338 427.57 374.225 427.536 374.109 427.536C373.954 427.536 373.806 427.597 373.697 427.707C373.587 427.816 373.526 427.965 373.526 428.119Z" fill="#778AD1"/>
<path d="M382.445 430.358C382.445 430.473 382.479 430.586 382.543 430.682C382.607 430.778 382.698 430.853 382.805 430.897C382.912 430.941 383.029 430.952 383.142 430.93C383.256 430.907 383.36 430.852 383.441 430.77C383.523 430.689 383.578 430.585 383.601 430.471C383.623 430.358 383.612 430.241 383.568 430.134C383.524 430.028 383.449 429.936 383.353 429.872C383.257 429.808 383.144 429.774 383.028 429.774C382.952 429.774 382.876 429.789 382.805 429.818C382.734 429.848 382.67 429.891 382.616 429.945C382.562 429.999 382.519 430.063 382.489 430.134C382.46 430.205 382.445 430.281 382.445 430.358Z" fill="#778AD1"/>
<path d="M473.657 435.576H1.94317C1.85212 435.576 1.76479 435.54 1.70041 435.476C1.63602 435.411 1.59985 435.324 1.59985 435.233C1.59985 435.142 1.63602 435.055 1.70041 434.99C1.76479 434.926 1.85212 434.89 1.94317 434.89H473.657C473.748 434.89 473.835 434.926 473.899 434.99C473.964 435.055 474 435.142 474 435.233C473.998 435.323 473.961 435.41 473.897 435.474C473.833 435.538 473.747 435.575 473.657 435.576Z" fill="#778AD1"/>
</svg>
