<svg width="425" height="425" viewBox="0 0 425 425" fill="none" xmlns="http://www.w3.org/2000/svg">
<path d="M424.878 207.67C424.93 242.04 416.232 275.858 399.604 305.938C382.975 336.018 358.963 361.369 329.829 379.605C328.591 380.378 327.345 381.137 326.091 381.88C302.59 395.805 276.482 404.76 249.382 408.19C222.281 411.621 194.765 409.453 168.536 401.823C84.9558 377.43 23.9039 299.739 23.9039 207.67C23.9039 96.0525 113.659 5.5542 224.387 5.5542C335.115 5.5542 424.878 96.0525 424.878 207.67Z" fill="#778AD1"/>
<path d="M348.201 89.2732L344.409 119.617C312.44 132.626 302.147 110.408 302.147 110.408L307.022 92.5312L333.033 78.9805L348.201 89.2732Z" fill="#F9B499"/>
<path d="M307.061 92.5314L303.509 105.54C303.509 105.54 315.187 107.026 325.178 92.1909L307.061 92.5314Z" fill="#F7A48B"/>
<path d="M400.222 219.325C400.222 219.325 392.893 280.377 365.714 351.009C354.885 361.893 342.845 371.5 329.829 379.643C328.591 380.417 327.345 381.176 326.091 381.919C298.819 382.816 245.15 381.532 200.822 361.867L202.447 248.555L215.449 207.918C215.449 207.918 204.072 214.418 179.146 222.552L137.425 183.548L147.176 173.797L218.699 134.244C218.699 134.244 227.529 127.782 242.62 123.696C242.62 123.696 258.701 118.371 289.463 112.637C293.441 111.894 297.669 111.148 302.147 110.4C302.147 110.4 312.44 132.619 344.409 119.61L351.993 127.743C351.993 127.743 381.254 148.329 393.721 165.664C393.737 165.679 406.181 184.639 400.222 219.325Z" fill="#FF835B"/>
<path d="M351.993 127.751C340.075 138.585 314.32 133.416 314.32 133.416C296.157 131.489 289.463 112.645 289.463 112.645C293.441 111.902 297.669 111.156 302.147 110.408C302.147 110.408 312.44 132.626 344.409 119.617L351.993 127.751Z" fill="#D0CDE1"/>
<path d="M324.365 142.091C318.999 142.127 313.667 141.229 308.609 139.437C289.471 132.557 281.523 114.463 281.438 114.277C281.402 114.184 281.404 114.08 281.444 113.988C281.483 113.896 281.556 113.823 281.649 113.784C281.741 113.745 281.844 113.743 281.938 113.779C282.031 113.815 282.107 113.885 282.15 113.976C282.227 114.154 290.059 131.953 308.88 138.74C322.964 143.794 339.479 141.526 357.967 131.992C358.059 131.945 358.165 131.936 358.263 131.967C358.361 131.998 358.443 132.067 358.49 132.158C358.537 132.249 358.546 132.356 358.515 132.454C358.484 132.552 358.415 132.633 358.323 132.68C346.142 138.941 334.766 142.091 324.365 142.091Z" fill="#2F2E41"/>
<path d="M326.137 135.219C322.268 135.219 319.49 134.94 319.172 134.909C294.81 132.742 289.138 112.946 289.084 112.745C289.071 112.696 289.068 112.645 289.075 112.594C289.082 112.544 289.099 112.495 289.125 112.451C289.151 112.408 289.185 112.369 289.226 112.339C289.267 112.308 289.313 112.286 289.362 112.273C289.461 112.247 289.566 112.261 289.654 112.312C289.742 112.362 289.807 112.446 289.834 112.544C289.889 112.738 295.43 132.015 319.242 134.135C319.474 134.135 342.211 136.457 351.745 127.465C351.819 127.393 351.917 127.353 352.02 127.353C352.123 127.353 352.221 127.393 352.295 127.465C352.331 127.501 352.36 127.543 352.379 127.59C352.399 127.638 352.409 127.688 352.409 127.739C352.409 127.79 352.399 127.841 352.379 127.888C352.36 127.935 352.331 127.978 352.295 128.014C345.755 134.143 333.783 135.219 326.137 135.219Z" fill="#2F2E41"/>
<path d="M68.0619 253.461L247.96 424.684L317.857 354.786L137.425 183.556L177.52 141.697L0.331299 117.451L26.6512 296.172L68.0619 253.461Z" fill="#75F5ED"/>
<path d="M344.668 77.4322C360.128 60.0374 363.641 37.9191 352.514 28.0297C341.387 18.1403 319.834 24.2247 304.374 41.6196C288.914 59.0144 285.401 81.1327 296.528 91.022C307.655 100.911 329.208 94.8271 344.668 77.4322Z" fill="#F9B499"/>
<path d="M340.617 47.0111C340.617 47.0111 297.566 22.6336 336.299 1.2821C337.041 0.873195 337.903 0.739033 338.734 0.903239C339.565 1.06744 340.311 1.51949 340.841 2.17981L373.67 43.1958C373.67 43.1958 376.378 41.0289 376.92 34.5283C376.92 34.5283 380.712 42.1124 375.837 48.0713C375.837 48.0713 381.796 52.405 380.712 55.6554H375.295C375.295 55.6554 366.604 77.8736 348.209 89.2498C348.209 89.2498 326.54 84.3743 331.957 71.9147C331.949 71.9379 326.532 60.5618 340.617 47.0111Z" fill="#2F2E41"/>
<path d="M342.912 71.257C344.381 65.9028 341.829 60.5358 337.213 59.2694C332.597 58.0031 327.664 61.3169 326.195 66.6711C324.726 72.0253 327.278 77.3923 331.894 78.6587C336.511 79.9251 341.444 76.6112 342.912 71.257Z" fill="#F9B499"/>
<path d="M393.737 225.284C365.018 292.473 345.81 308.183 345.81 308.183C314.135 334.193 226.299 355.87 226.299 355.87C225.215 340.694 212.756 309.808 212.756 309.808L284.278 278.922C284.278 278.922 299.802 278.984 324.52 235.337L354.702 184.098" fill="#FF835B"/>
<path d="M226.283 356.125C226.227 356.122 226.173 356.103 226.128 356.07C226.095 356.048 226.067 356.018 226.047 355.983C226.027 355.949 226.015 355.909 226.012 355.869C224.944 340.918 212.616 310.21 212.485 309.893C212.461 309.827 212.463 309.754 212.49 309.69C212.517 309.625 212.568 309.573 212.632 309.544L284.154 278.659C284.19 278.651 284.227 278.651 284.263 278.659C284.417 278.659 299.965 278.132 324.303 235.213L354.485 183.974C354.521 183.911 354.58 183.865 354.65 183.846C354.72 183.828 354.794 183.837 354.856 183.873C354.919 183.909 354.965 183.968 354.984 184.038C355.003 184.108 354.993 184.182 354.957 184.244L324.776 235.483C300.785 277.862 285.555 279.169 284.332 279.2L213.135 309.962C214.303 312.895 225.416 341.111 226.577 355.536C232.358 354.082 315.342 332.885 345.663 307.981C345.856 307.826 365.172 291.505 393.512 225.175C393.54 225.109 393.593 225.056 393.66 225.028C393.726 225.001 393.801 225.001 393.868 225.028C393.935 225.056 393.988 225.109 394.015 225.176C394.043 225.243 394.043 225.318 394.015 225.384C365.598 291.869 346.204 308.237 346.034 308.391C314.607 334.146 227.227 355.916 226.353 356.125H226.283Z" fill="#0071F2"/>
<path opacity="0.2" d="M331.4 317.794C331.4 317.794 324.35 281.832 359.848 290.654" stroke="black" stroke-width="0.773887" stroke-miterlimit="10"/>
</svg>
