<svg width="463" height="513" viewBox="0 0 463 513" fill="none" xmlns="http://www.w3.org/2000/svg">
<path d="M352.994 235.759C352.994 235.759 350.702 225.37 363.425 218.462C363.425 218.462 377.961 207.235 375.396 197.736L421.028 184.799C421.028 184.799 430.964 204.285 413.709 212.459C413.709 212.459 405.227 216.179 408.579 228.098C408.579 228.098 413.795 247.764 402.252 256.468L380.722 269.84L350.403 252.586L352.994 235.759Z" fill="#778AD1"/>
<path opacity="0.1" d="M370.12 246.968C372.209 241.911 374.599 236.983 377.277 232.211C379.919 227.414 382.877 222.805 385.981 218.282C387.537 216.016 389.29 213.913 390.786 211.656C392.282 209.399 393.779 207.107 395.215 204.816C396.652 202.524 397.985 200.13 399.2 197.693C400.464 195.276 401.497 192.746 402.286 190.135C401.132 195.513 398.575 200.464 395.916 205.235C394.582 207.629 393.103 209.937 391.59 212.22C390.076 214.503 388.358 216.658 386.853 218.915C383.689 223.344 380.765 227.953 377.986 232.638C376.576 234.972 375.242 237.349 373.934 239.744C372.625 242.138 371.343 244.523 370.12 246.968Z" fill="black"/>
<path d="M347.086 366.587L37.8905 468.352L36.1377 81.991L347.086 0.925781V366.587Z" fill="white"/>
<path d="M232.905 320.262V326.623L109.901 365.228V357.96L232.905 320.262Z" fill="#75F5ED"/>
<path d="M173.036 365.227V372.495L232.905 352.231V345.417L173.036 365.227Z" fill="#75F5ED"/>
<path d="M232.905 370.221V377.035L132.61 410.193V403.61L232.905 370.221Z" fill="#75F5ED"/>
<path d="M246.654 85.4367L247.979 374.351L335.637 341.569V62.5732L246.654 85.4367Z" fill="#778AD1"/>
<path d="M36.1377 81.991L36.3087 119.51L347.086 31.9975V0.925781L36.1377 81.991Z" fill="#FF835B"/>
<path opacity="0.2" d="M85.0026 79.1349L86.174 97.005C86.1994 97.3789 86.3086 97.7423 86.4935 98.0682C86.6785 98.3941 86.9344 98.6743 87.2424 98.8878C87.5504 99.1013 87.9025 99.2428 88.2726 99.3017C88.6427 99.3606 89.0213 99.3354 89.3804 99.228L172.318 74.646C172.863 74.4855 173.336 74.1436 173.66 73.677C173.983 73.2104 174.137 72.6472 174.097 72.0809L172.976 55.938C172.95 55.569 172.843 55.2103 172.661 54.8879C172.48 54.5654 172.23 54.2871 171.928 54.0729C171.626 53.8587 171.281 53.714 170.917 53.6491C170.552 53.5843 170.178 53.6009 169.821 53.6978L86.8837 76.5698C86.32 76.7105 85.8233 77.044 85.4797 77.5125C85.1362 77.981 84.9674 78.555 85.0026 79.1349Z" fill="black"/>
<path d="M55.6066 108.907C61.5235 108.907 66.3201 104.11 66.3201 98.1935C66.3201 92.2766 61.5235 87.48 55.6066 87.48C49.6897 87.48 44.8931 92.2766 44.8931 98.1935C44.8931 104.11 49.6897 108.907 55.6066 108.907Z" fill="white"/>
<path d="M218.977 298.372L90.62 336.729C87.7194 337.596 84.6567 337.775 81.6747 337.253C78.6926 336.732 75.8729 335.523 73.4389 333.723C71.0049 331.922 69.0234 329.58 67.6513 326.882C66.2791 324.183 65.5541 321.202 65.5335 318.175L64.3193 147.477C64.2888 143.255 65.6597 139.142 68.2174 135.783C70.7751 132.424 74.375 130.008 78.453 128.914L208.879 93.9266C211.707 93.1655 214.672 93.0656 217.545 93.6346C220.418 94.2035 223.122 95.4261 225.447 97.2076C227.771 98.9891 229.655 101.282 230.951 103.908C232.247 106.534 232.922 109.424 232.922 112.352V279.681C232.92 283.883 231.562 287.972 229.049 291.339C226.536 294.707 223.004 297.174 218.977 298.372Z" fill="#778AD1"/>
<g opacity="0.4">
<path d="M67.3227 137.321L66.5981 138.095L229.479 290.569L230.203 289.795L67.3227 137.321Z" fill="white"/>
</g>
<g opacity="0.4">
<path d="M225.682 97.8731L73.7589 333.974L74.6505 334.548L226.574 98.4468L225.682 97.8731Z" fill="white"/>
</g>
<path d="M340.322 363.133C340.322 363.133 355.85 361.799 363.357 350.846C363.357 350.846 367.487 338.525 387.007 350.846C387.007 350.846 419.284 386.005 427.193 363.133C427.193 363.133 430.947 342.98 442.208 342.749C442.208 342.749 457.983 342.663 456.273 335.053C455.954 333.773 455.22 332.633 454.186 331.813C447.876 326.58 417.232 302.639 398.37 314.892C398.37 314.892 375.438 323.528 363.22 313.866C359.367 310.806 354.657 309.021 349.743 308.759C344.829 308.497 339.956 309.771 335.799 312.404C320.888 321.912 316.134 330.171 316.134 330.171L308.165 337.533C308.165 337.533 327.446 366.929 340.322 363.133Z" fill="#778AD1"/>
<path d="M382.244 263.257C382.244 263.257 383.895 258.854 392.872 258.392C396.569 258.214 400.203 257.374 403.603 255.912C408.4 253.843 414.624 250.337 419.088 244.865C420.747 242.767 422.612 240.839 424.654 239.111C431.434 233.502 445.516 224.276 456.375 233.357C456.375 233.357 469.902 237.82 456.375 252.629C453.721 255.488 450.702 257.986 447.398 260.059C437.626 266.483 430.648 276.369 427.869 287.728C426.766 292.216 424.797 296.445 422.072 300.177C416.779 307.317 406.869 315.012 389.717 311.19C386.496 310.415 383.127 310.506 379.951 311.452C376.776 312.398 373.906 314.165 371.633 316.576C371.36 316.876 371.086 317.192 370.778 317.517C370.778 317.517 362.391 317.312 358.492 306.214L382.244 263.257Z" fill="#778AD1"/>
<path opacity="0.2" d="M322.863 343.578C330.652 339.063 339.262 336.139 347.941 333.839C356.676 331.654 365.575 330.184 374.549 329.444C379.047 329.205 383.536 328.872 388.042 328.957H391.41C392.539 328.957 393.668 328.957 394.788 329.025L401.525 329.385C402.645 329.462 403.774 329.479 404.886 329.607L408.237 329.975L414.941 330.71C417.172 330.992 419.37 331.437 421.593 331.796L428.228 332.95C423.765 332.411 419.336 331.71 414.881 331.24L408.177 330.659L404.834 330.368C403.714 330.257 402.594 330.265 401.474 330.214L394.762 329.957C393.642 329.889 392.522 329.898 391.402 329.915H388.05C383.57 329.863 379.107 330.222 374.635 330.488C365.707 331.186 356.846 332.567 348.129 334.617C345.957 335.156 343.777 335.652 341.639 336.327L338.416 337.276L335.235 338.362C330.982 339.777 326.845 341.521 322.863 343.578Z" fill="black"/>
<path d="M269.552 471.824L276.529 496.851L309.678 484.333C309.678 484.333 315.518 458.297 316.031 448.943C315.997 448.943 290.739 457.169 269.552 471.824Z" fill="#F9B499"/>
<path d="M319.862 447.669L325.719 476.466L359.697 460.058L358.534 440.854C345.385 441.275 332.363 443.569 319.862 447.669Z" fill="#F9B499"/>
<path d="M319.862 447.669L321.264 454.509C321.264 454.509 339.998 441.436 358.791 444.959L358.534 440.769C358.534 440.769 337.484 441.094 319.862 447.669Z" fill="#F7A48B"/>
<path d="M269.552 471.824L270.663 475.8C270.663 475.8 294.809 460.538 315.244 455.51L315.997 448.943C315.997 448.943 286.789 459.075 269.552 471.824Z" fill="#F7A48B"/>
<path d="M265.183 239.444V247.14C265.183 247.14 272.271 246.55 275.605 248.704C275.605 248.704 275.648 240.932 280.693 230.971C280.693 230.971 278.376 229.868 278.196 228.064L265.183 239.444Z" fill="#F9B499"/>
<path d="M265.183 239.444V245.011C265.183 245.011 276.11 243.378 279.53 230.278C278.837 229.736 278.364 228.962 278.196 228.098L265.183 239.444Z" fill="#F7A48B"/>
<path d="M260.591 204.978C260.591 204.978 246.235 182.319 242.695 170.93C242.546 170.44 242.511 169.923 242.593 169.417C243.302 164.937 246.295 141.8 233.333 139.722C232.671 139.608 231.991 139.697 231.381 139.976C230.771 140.255 230.259 140.712 229.913 141.287C228.622 143.493 226.946 148.204 227.348 157.532C227.348 157.532 226.048 158.387 222.388 155.429C222.244 155.315 222.07 155.244 221.887 155.225C221.704 155.205 221.519 155.237 221.353 155.317C221.187 155.397 221.047 155.522 220.949 155.678C220.851 155.834 220.799 156.014 220.798 156.198C220.798 158.096 221.704 161.431 226.45 165.92C230.912 170.368 233.913 176.071 235.051 182.268C235.051 182.268 246.748 216.623 251.365 225.49L260.591 204.978Z" fill="#F9B499"/>
<path d="M251.391 225.481C251.391 225.481 243.046 210.732 256.684 198.591L260.591 204.978L251.391 225.481Z" fill="#F7A48B"/>
<path d="M280.488 228.767C287.158 217.215 286.591 204.4 279.222 200.145C271.852 195.891 260.471 201.807 253.801 213.36C247.131 224.913 247.698 237.727 255.067 241.982C262.436 246.237 273.818 240.32 280.488 228.767Z" fill="#F9B499"/>
<path d="M322.641 346.605C318.263 351.787 296.562 345.417 296.562 345.417C291.432 350.034 286.918 352.368 283.078 353.385C276.555 355.095 272.066 353.001 270.253 351.838C269.584 351.416 268.866 351.078 268.115 350.829C262.207 348.905 264.14 345.203 264.14 345.203C264.935 336.653 261.352 332.266 261.352 332.266C257.499 325.857 254.682 318.88 253.007 311.592C248.039 304.623 246.706 291.028 246.706 291.028L280.804 258.435H293.193L315.493 311.78C316.788 319.288 316.788 326.963 315.493 334.472C324.838 342.227 322.641 346.605 322.641 346.605Z" fill="#FF835B"/>
<path opacity="0.2" d="M283.078 353.385C276.554 355.095 272.065 353 270.253 351.837C269.584 351.416 268.866 351.077 268.115 350.829C262.207 348.905 264.139 345.202 264.139 345.202C264.934 336.652 261.352 332.266 261.352 332.266C257.498 325.857 254.682 318.879 253.007 311.591C253.169 311.959 255.221 316.046 264.122 318.329C264.122 318.329 262.13 320.894 264.122 326.486C264.122 326.486 268.705 332.659 267.311 343.586C267.294 343.612 265.02 351.795 283.078 353.385Z" fill="black"/>
<path opacity="0.2" d="M308.105 324.271C308.105 324.271 286.661 345.04 273.476 341.013C272.904 340.841 272.404 340.488 272.05 340.007C271.695 339.526 271.507 338.944 271.511 338.346C271.516 337.749 271.714 337.17 272.076 336.695C272.438 336.22 272.945 335.875 273.519 335.712C274.634 335.416 275.785 335.275 276.939 335.293C279.417 335.258 281.881 334.916 284.275 334.275C291.064 332.557 303.214 328.923 308.105 324.271Z" fill="black"/>
<path d="M188.119 309.779C197.447 308.069 230.511 304.828 230.511 304.828L237.351 289.497L239.002 285.804C250.69 294.012 258.796 306.196 258.796 306.196L247.843 316.456C242.145 321.413 234.794 324.05 227.245 323.844C208.759 326.58 189.624 320.142 189.624 320.142" fill="#F9B499"/>
<path d="M258.795 306.196L255.692 309.095C250.801 297.227 237.351 289.497 237.351 289.497L239.002 285.804C250.69 294.012 258.795 306.196 258.795 306.196Z" fill="#F7A48B"/>
<path d="M358.534 440.812C350.835 440.981 343.169 441.874 335.637 443.48C315.467 447.687 297.229 456.032 285.045 462.573C279.727 465.384 274.559 468.469 269.56 471.816L262.942 433.861C261.951 428.235 261.207 422.572 260.711 416.871C256.119 364.031 268.09 350.838 268.09 350.838C269.466 351.741 270.948 352.473 272.502 353.018C285.327 357.464 296.562 345.408 296.562 345.408C317.51 351.18 320.811 347.819 320.811 347.819C326.717 350.591 332.087 354.386 336.671 359.029C352.857 375.428 353.772 397.172 353.772 397.172L358.534 440.812Z" fill="#2F2E41"/>
<path opacity="0.2" d="M358.534 440.812C350.835 440.981 343.169 441.874 335.637 443.479C336.098 443.163 351.027 432.646 353.738 397.18L358.534 440.812Z" fill="black"/>
<path opacity="0.2" d="M301.513 422.668L293.099 439.273C293.099 439.273 327.599 426.55 340.322 393.563C340.322 393.529 315.954 421.377 301.513 422.668Z" fill="black"/>
<path opacity="0.2" d="M336.672 359.037C325.702 359.43 314.013 353.052 314.013 353.052C302.154 350.016 297.631 353.052 297.631 353.052C283.771 360.379 273.049 353.428 272.502 353.052C285.327 357.498 296.562 345.442 296.562 345.442C317.51 351.213 320.811 347.853 320.811 347.853C326.715 350.617 332.085 354.403 336.672 359.037Z" fill="black"/>
<path opacity="0.2" d="M285.079 462.581C279.761 465.392 274.593 468.477 269.594 471.824L262.977 433.869C261.985 428.243 261.241 422.58 260.745 416.88C256.153 364.039 268.124 350.846 268.124 350.846L272.536 353.026C272.536 353.026 256.923 415.169 285.079 462.581Z" fill="black"/>
<path d="M113.03 479.604L18.6353 511.36C16.6983 512.017 14.6332 512.205 12.6093 511.91C10.5855 511.614 8.66044 510.843 6.99194 509.66C5.32345 508.478 3.959 506.916 3.01042 505.104C2.06184 503.292 1.55613 501.281 1.53472 499.236L0.448833 398.342C0.409633 394.621 1.5761 390.986 3.77383 387.983C5.97157 384.979 9.0825 382.767 12.6415 381.678L103.36 353.924C105.458 353.282 107.678 353.142 109.841 353.516C112.003 353.89 114.047 354.766 115.809 356.075C117.57 357.384 118.999 359.088 119.981 361.051C120.963 363.013 121.47 365.179 121.461 367.373L121.085 468.438C121.071 470.906 120.288 473.308 118.844 475.31C117.4 477.311 115.368 478.813 113.03 479.604Z" fill="#D0CDE1"/>
<g opacity="0.4">
<path d="M3.62268 388.294L2.98877 389.144L118.733 475.48L119.367 474.63L3.62268 388.294Z" fill="white"/>
</g>
<path d="M336.004 129.949L431.443 108.805C432.613 108.547 433.826 108.55 434.995 108.813C436.164 109.076 437.261 109.593 438.209 110.327C439.156 111.061 439.93 111.995 440.476 113.062C441.022 114.128 441.327 115.302 441.37 116.5L443.499 173.787C443.541 175.097 443.143 176.384 442.368 177.441C441.593 178.498 440.486 179.265 439.223 179.618L341.366 207.389C339.811 207.831 338.175 207.909 336.585 207.619C334.996 207.328 333.493 206.677 332.195 205.715C330.896 204.752 329.836 203.505 329.096 202.068C328.355 200.632 327.955 199.044 327.924 197.428L326.89 141.518C326.84 138.834 327.721 136.215 329.382 134.107C331.044 131.998 333.383 130.529 336.004 129.949Z" fill="#D0CDE1"/>
<path d="M276.991 248.294C300.076 269.353 265.781 303.144 260.659 307.949C260.587 308.016 260.5 308.065 260.405 308.092C260.31 308.119 260.21 308.123 260.113 308.104C260.017 308.085 259.926 308.043 259.848 307.982C259.771 307.921 259.709 307.842 259.668 307.753C255.7 299.878 242.567 288.737 238.993 285.813C238.742 285.604 238.57 285.315 238.506 284.994C238.442 284.673 238.491 284.341 238.643 284.051L256.692 249.303C256.692 249.303 262.01 241.898 269.774 243.976C271.098 244.353 272.343 244.964 273.451 245.78L276.991 248.294Z" fill="#FF835B"/>
<path d="M379.047 298.997C377.987 299.465 377.137 300.309 376.661 301.365C373.019 309.505 366.486 313.336 359.791 314.917C348.821 317.534 337.381 314.199 337.381 314.199C314.065 326.623 303.471 300.279 303.471 300.279C280.154 303.306 287.114 261.521 287.114 261.521C266.132 261.803 279.983 232.45 280.676 231.056L282.694 220.394V220.24V220.035C272.715 220.967 266.901 217.47 263.541 212.912C263.149 212.395 262.786 211.855 262.455 211.296C258.787 205.089 258.872 197.702 258.915 196.402C258.915 196.274 258.915 196.197 258.915 196.197C264.152 195.466 269.252 193.965 274.049 191.742C279.43 189.226 285.272 187.843 291.21 187.681C317.006 187.27 320.725 207.047 320.725 207.047C321.447 211.55 323.259 215.807 326.004 219.448C328.75 223.089 332.344 226.003 336.475 227.935L361.271 239.752C378.833 249.157 369.145 259.127 369.145 259.127C383.382 259.435 387.614 269.729 387.614 269.729C399.012 288.129 384.262 296.671 379.047 298.997Z" fill="#2F2E41"/>
<path opacity="0.2" d="M379.047 298.997C377.987 299.465 377.137 300.309 376.661 301.365C373.019 309.505 366.486 313.336 359.791 314.917C348.821 317.534 337.381 314.199 337.381 314.199C314.065 326.623 303.471 300.279 303.471 300.279C280.154 303.306 287.114 261.521 287.114 261.521C266.132 261.803 279.983 232.45 280.676 231.056L282.694 220.394V220.24V220.035C272.715 220.967 266.901 217.47 263.541 212.912C263.149 212.395 262.786 211.855 262.455 211.296C258.787 205.089 258.872 197.702 258.915 196.402C258.915 196.274 258.915 196.197 258.915 196.197C264.152 195.466 269.252 193.965 274.049 191.742C279.43 189.226 285.272 187.843 291.21 187.681C317.006 187.27 320.725 207.047 320.725 207.047C321.447 211.55 323.259 215.807 326.004 219.448C328.75 223.089 332.344 226.003 336.475 227.935L361.271 239.752C378.833 249.157 369.145 259.127 369.145 259.127C383.382 259.435 387.614 269.729 387.614 269.729C399.012 288.129 384.262 296.671 379.047 298.997Z" fill="black"/>
<path d="M379.047 298.997C377.987 299.465 377.137 300.309 376.661 301.365C373.019 309.505 366.486 313.336 359.791 314.917C358.533 314.857 357.292 314.597 356.115 314.148C355.264 313.785 354.496 313.253 353.856 312.584C353.217 311.915 352.72 311.124 352.395 310.257C350.343 305.255 346.162 307.239 346.162 307.239C333.747 318.44 319.52 304.212 319.52 304.212C300.709 285.402 310.114 271.208 310.114 271.208C311.636 259.093 293.159 256.365 293.159 256.365C273.143 256.074 280.265 232.364 280.667 231.056C281.291 228.611 282.42 222.01 282.685 220.394V220.24C282.685 220.112 282.685 220.035 282.685 220.035C272.724 220.779 266.918 217.367 263.532 212.912C263.14 212.395 262.778 211.855 262.446 211.296C258.684 205.106 258.838 197.719 258.907 196.402C258.907 196.274 258.907 196.197 258.907 196.197C264.146 195.467 269.249 193.966 274.049 191.742C279.43 189.226 285.271 187.843 291.21 187.681C317.006 187.27 320.725 207.047 320.725 207.047C321.447 211.55 323.259 215.807 326.004 219.448C328.75 223.089 332.344 226.003 336.475 227.935L361.271 239.752C378.833 249.157 369.145 259.127 369.145 259.127C383.382 259.435 387.614 269.729 387.614 269.729C399.011 288.129 384.262 296.671 379.047 298.997Z" fill="#2F2E41"/>
<path opacity="0.2" d="M266.269 197.359C266.269 197.359 263.387 197.359 265.183 204.755C265.183 204.755 266.038 216.546 277.777 220C277.777 220 268.577 215.52 268.372 204.755C268.406 204.755 269.398 197.924 266.269 197.359Z" fill="black"/>
<path d="M286.941 228.17C289.275 225.517 289.414 221.823 287.25 219.918C285.086 218.014 281.439 218.621 279.105 221.274C276.77 223.926 276.632 227.62 278.796 229.525C280.96 231.429 284.607 230.822 286.941 228.17Z" fill="#F9B499"/>
<path d="M152.148 316.995L167.085 314.806L175.191 311.762C175.51 311.641 175.777 311.415 175.95 311.121C176.122 310.827 176.189 310.483 176.14 310.146C176.101 309.873 175.987 309.617 175.81 309.405C175.634 309.194 175.401 309.036 175.14 308.949C173.357 308.351 171.613 307.646 169.915 306.837C169.098 306.433 168.444 305.762 168.061 304.934C167.679 304.106 167.591 303.173 167.812 302.289L179.098 304.067L188.11 309.779L189.649 320.124L176.824 323.425C176.824 323.425 163.58 324.827 159.783 324.382C155.987 323.938 156.004 322.185 156.004 322.185C155.294 321.954 153.875 320.697 153.884 319.543C152.054 317.833 152.131 316.978 152.131 316.978" fill="#F9B499"/>
<path d="M170.634 321.587C170.249 321.707 169.684 321.861 168.975 322.015C167.141 322.432 165.271 322.675 163.391 322.741C161.51 322.808 159.627 322.7 157.765 322.416C157.047 322.305 156.474 322.194 156.055 322.1C155.848 322.064 155.644 322.007 155.448 321.929C155.658 321.93 155.867 321.953 156.072 321.997C156.466 322.074 157.047 322.151 157.782 322.237C161.485 322.701 165.238 322.569 168.898 321.844C169.607 321.715 170.172 321.587 170.565 321.493C170.765 321.43 170.972 321.392 171.181 321.382C171.004 321.463 170.821 321.532 170.634 321.587Z" fill="#F7A48B"/>
<path d="M169.266 319.278C168.872 319.398 168.299 319.543 167.555 319.706C165.689 320.112 163.788 320.341 161.878 320.39C159.967 320.441 158.056 320.321 156.167 320.031C155.44 319.919 154.858 319.808 154.456 319.714C154.251 319.67 154.048 319.613 153.849 319.543C154.062 319.544 154.274 319.567 154.482 319.612C154.884 319.68 155.465 319.766 156.192 319.851C158.075 320.09 159.973 320.185 161.87 320.133C163.763 320.083 165.65 319.883 167.513 319.535C168.248 319.389 168.812 319.278 169.223 319.184C169.425 319.119 169.635 319.078 169.847 319.064C169.66 319.152 169.465 319.224 169.266 319.278Z" fill="#F7A48B"/>
<g opacity="0.4">
<path d="M327.794 136.816L327.448 137.818L442.355 177.429L442.7 176.426L327.794 136.816Z" fill="white"/>
<path d="M438.892 110.934L332.311 205.661L333.015 206.453L439.596 111.726L438.892 110.934Z" fill="white"/>
</g>
<path opacity="0.1" d="M451.75 238.418C446.893 242.539 441.968 246.566 437.026 250.585C432.084 254.604 427.091 258.545 422.123 262.555C417.155 266.565 412.119 270.422 407.074 274.303L399.49 280.109C396.925 282.016 394.412 283.948 391.846 285.829C394.266 283.76 396.729 281.751 399.174 279.707L406.57 273.662C411.504 269.652 416.505 265.702 421.473 261.692C426.441 257.682 431.477 253.817 436.522 249.935C441.566 246.053 446.62 242.189 451.75 238.418Z" fill="black"/>
</svg>
