<svg width="922" height="652" viewBox="0 0 922 652" fill="none" xmlns="http://www.w3.org/2000/svg">
<g filter="url(#filter0_d_1_2195)">
<rect x="37" y="302.126" width="216.553" height="72.7863" rx="8.26815" transform="rotate(-45 37 302.126)" fill="white"/>
</g>
<g clip-path="url(#clip0_1_2195)">
<path d="M206.414 192.931C206.021 193.324 206.007 193.947 206.381 194.321C206.756 194.695 207.379 194.681 207.771 194.288C208.164 193.896 208.178 193.273 207.804 192.898C207.429 192.524 206.806 192.539 206.414 192.931ZM207.663 194.181C207.333 194.512 206.808 194.522 206.494 194.208C206.178 193.893 206.192 193.368 206.522 193.039C206.852 192.708 207.378 192.695 207.693 193.01C208.007 193.324 207.994 193.85 207.663 194.181ZM207.208 193.262C207.084 193.139 206.92 193.157 206.784 193.292L206.557 193.52L207.175 194.138L207.287 194.027L207.063 193.803L207.185 193.681L207.526 193.788L207.646 193.667L207.27 193.55C207.309 193.45 207.292 193.347 207.208 193.262ZM207.078 193.595L206.968 193.705L206.763 193.5L206.873 193.39C206.948 193.315 207.029 193.306 207.095 193.372C207.163 193.439 207.152 193.522 207.078 193.595ZM113.837 271.772L112.196 270.131L109.558 272.769L119.323 282.533L121.96 279.895L116.106 274.04C115.045 272.98 115.237 271.747 116.349 270.635L117.792 269.192L115.464 266.863L114.231 268.096C113.265 269.062 112.907 270.381 113.837 271.772ZM114.073 260.53C113.17 261.432 113.159 262.804 114.02 263.665C114.86 264.506 116.232 264.494 117.134 263.592C118.037 262.689 118.048 261.318 117.208 260.477C116.347 259.616 114.975 259.628 114.073 260.53ZM126.383 275.472L129.015 272.841L119.251 263.076L116.619 265.708L126.383 275.472ZM136.669 255.422C139.456 258.21 139.347 262.838 136.425 265.76C135.246 266.939 133.809 267.64 132.329 267.874L136.021 271.567L133.39 274.199L120.759 261.568L123.391 258.936L124.217 259.763C124.452 258.283 125.152 256.845 126.331 255.666C129.253 252.744 133.881 252.635 136.669 255.422ZM134.021 258.071C132.507 256.557 129.992 256.616 128.405 258.203C126.819 259.79 126.759 262.305 128.273 263.818C129.786 265.332 132.302 265.273 133.888 263.686C135.475 262.1 135.536 259.586 134.021 258.071ZM181.553 208.825L179.616 209.959C178.355 210.718 177.667 210.815 177.157 210.306C176.661 209.809 176.867 208.909 177.658 208.118C178.412 207.364 179.473 207.244 180.076 207.846L180.132 207.902L182.557 205.477L182.501 205.421C180.73 203.649 178.025 203.973 175.769 206.228C173.536 208.461 173.102 211.274 174.742 212.913C176.017 214.189 177.864 214.264 179.809 213.117L181.663 212.029C183.076 211.208 183.818 211.12 184.405 211.706C185.023 212.325 184.839 213.341 183.946 214.234C183.015 215.165 181.825 215.23 180.991 214.395L180.935 214.339L178.36 216.913L178.416 216.969C180.419 218.972 183.509 218.682 185.931 216.261C188.263 213.928 188.589 210.868 186.707 208.985C185.783 208.062 184.142 207.287 181.553 208.825ZM141.123 241.204L143.754 238.573L153.519 248.337L150.887 250.969L150.061 250.142C149.826 251.622 149.125 253.06 147.946 254.239C145.025 257.161 140.396 257.27 137.609 254.482C134.821 251.695 134.93 247.067 137.852 244.145C139.031 242.966 140.469 242.265 141.949 242.031L141.123 241.204ZM146.005 246.087C144.49 244.572 141.976 244.632 140.389 246.219C138.803 247.805 138.744 250.321 140.257 251.834C141.771 253.348 144.286 253.289 145.873 251.702C147.461 250.114 147.52 247.602 146.005 246.087ZM149.782 225.595L152.414 222.963L165.655 236.204L163.023 238.836L162.197 238.009C161.962 239.489 161.261 240.927 160.082 242.106C157.16 245.028 152.532 245.137 149.745 242.349C146.957 239.562 147.066 234.934 149.988 232.012C151.167 230.833 152.605 230.132 154.085 229.898L149.782 225.595ZM158.139 233.952C156.626 232.438 154.11 232.498 152.524 234.084C150.937 235.671 150.878 238.186 152.392 239.7C153.905 241.213 156.419 241.156 158.007 239.568C159.594 237.981 159.654 235.467 158.139 233.952ZM177.872 223.984L180.504 221.352L170.739 211.588L168.108 214.219L177.872 223.984ZM165.561 209.041C164.659 209.944 164.647 211.316 165.508 212.176C166.349 213.017 167.721 213.005 168.623 212.103C169.525 211.201 169.537 209.829 168.696 208.988C167.836 208.127 166.464 208.139 165.561 209.041ZM196.281 195.81C199.069 198.597 198.96 203.226 196.038 206.148C193.116 209.07 188.488 209.179 185.7 206.391C182.913 203.603 183.022 198.975 185.944 196.053C188.866 193.131 193.494 193.022 196.281 195.81ZM193.865 198.227C192.351 196.713 189.836 196.772 188.249 198.359C186.663 199.945 186.603 202.461 188.117 203.974C189.631 205.488 192.144 205.43 193.732 203.842C195.319 202.256 195.38 199.742 193.865 198.227ZM107.374 268.004L97.2786 278.099L99.5181 280.339L103.255 276.601L114.255 287.601L116.877 284.978L105.878 273.979L109.615 270.242L107.375 268.002L107.374 268.004ZM168.993 227.514L159.561 222.766L156.797 225.53L170.073 231.783L173.24 228.616L167.008 215.319L164.244 218.083L168.993 227.514ZM196.896 188.713L195.255 187.072L192.617 189.71L202.382 199.474L205.019 196.836L199.165 190.981C198.104 189.921 198.296 188.688 199.408 187.576L200.851 186.133L198.523 183.804L197.29 185.037C196.324 186.003 195.967 187.321 196.896 188.713Z" fill="black"/>
<path d="M102.367 313.877C109.821 306.423 110.129 294.646 103.055 287.573C95.981 280.499 84.2041 280.807 76.7503 288.261C69.2966 295.714 68.9886 307.491 76.0624 314.565C83.1362 321.639 94.9131 321.331 102.367 313.877Z" fill="#34E0A1"/>
<path d="M95.2204 290.377L95.1736 287.087L91.577 290.683C88.6134 291.321 85.7615 292.818 83.4098 295.17C81.0611 297.518 79.5715 300.366 78.9355 303.325L75.3299 306.93L78.6203 306.977C78.4839 308.829 79.0962 310.688 80.468 312.059C83.0568 314.648 87.3752 314.527 90.1128 311.79C91.4133 310.489 92.1239 308.83 92.233 307.17L95.4578 307.217L95.4121 303.994C97.072 303.885 98.7282 303.175 100.029 301.874C102.766 299.136 102.89 294.815 100.301 292.226C98.9295 290.851 97.0708 290.239 95.2204 290.377ZM88.5991 310.273C86.7459 312.126 83.8242 312.208 82.0718 310.456C80.3194 308.703 80.4011 305.781 82.2542 303.928C84.1073 302.075 87.0291 301.994 88.7815 303.746C90.5339 305.498 90.4522 308.42 88.5991 310.273ZM90.293 302.05C88.2055 299.962 84.8081 299.775 81.9237 301.129C82.6165 299.53 83.6221 298.022 84.9421 296.702C86.2621 295.382 87.7718 294.375 89.3707 293.682C88.0202 296.566 88.2055 299.962 90.293 302.05ZM98.515 300.357C96.6618 302.21 93.7401 302.292 91.9877 300.54C90.2353 298.787 90.3169 295.866 92.1701 294.012C94.0232 292.159 96.945 292.078 98.6974 293.83C100.45 295.582 100.368 298.504 98.515 300.357ZM93.6782 295.52C92.7065 296.492 92.6638 298.023 93.5826 298.942C94.5013 299.861 96.0324 299.818 97.004 298.846C97.9756 297.875 98.0184 296.344 97.0996 295.425C96.1822 294.508 94.6498 294.549 93.6782 295.52ZM87.1852 305.342C88.1039 306.261 88.0612 307.792 87.0896 308.764C86.118 309.735 84.5869 309.778 83.6682 308.859C82.7493 307.94 82.7921 306.409 83.7637 305.438C84.7339 304.465 86.2664 304.423 87.1852 305.342Z" fill="black"/>
</g>
<path d="M357.694 91.3963C357.497 93.8834 354.868 95.4012 352.616 94.328L335.906 86.3664C333.319 85.1338 333.176 81.5051 335.657 80.0723L353.827 69.5817C356.309 68.1489 359.38 70.0874 359.154 72.9441L357.694 91.3963Z" fill="white"/>
<path d="M800.629 279.319C800.274 288.7 799.517 297.643 798.572 305.799C795.545 331.794 790.658 350.042 790.658 350.042C790.484 350.647 790.302 351.245 790.113 351.85C760.971 448.13 667.755 471.606 667.755 471.606C650.846 477.999 630.343 482.592 608.743 485.86C600.671 487.078 592.447 488.13 584.185 488.992L580.047 489.408C575.981 489.817 571.924 490.187 567.874 490.52L565.15 490.732C562.706 490.929 560.27 491.118 557.857 491.277L554.967 491.474C548.77 491.89 542.635 492.23 536.628 492.495L534.199 492.601C531.097 492.727 528.036 492.843 525.014 492.949H524.576C521.837 493.032 519.128 493.115 516.465 493.183L513.22 493.259C510.413 493.32 507.659 493.365 504.958 493.41C470.534 493.902 445.75 492.654 445.75 492.654C429.234 492.994 413.747 492.707 399.282 491.965C297.146 486.669 246.116 458.026 246.116 458.026C162.569 414.569 182.262 331.726 182.262 331.726C184.536 311.991 188.554 292.496 194.269 273.471C211.42 217.054 237.264 191.172 237.264 191.172C237.264 191.172 268.775 156.469 309.236 137.532C310.84 136.775 312.444 136.019 314.055 135.323L314.146 135.285C320.652 132.365 327.25 129.631 333.937 127.084L334.096 127.023C342.691 123.747 351.414 120.774 360.19 118.073L360.591 117.944L360.826 117.876C478.259 81.9095 606.647 94.7559 606.647 94.7559C728.908 101.542 775.058 170.124 775.058 170.124C793.767 195.613 800.024 229.439 800.781 260.912C800.925 267.153 800.864 273.319 800.629 279.319Z" fill="#0071F2"/>
<path opacity="0.7" d="M800.629 279.319C800.274 288.7 799.517 297.643 798.572 305.799C795.545 331.794 790.658 350.042 790.658 350.042C790.484 350.647 790.302 351.245 790.113 351.85C760.971 448.13 667.755 471.606 667.755 471.606C650.846 477.999 630.343 482.592 608.743 485.86C600.671 487.078 592.447 488.13 584.185 488.992L580.047 489.408C575.981 489.817 571.924 490.187 567.874 490.52L565.15 490.732C562.706 490.929 560.27 491.118 557.857 491.277L554.967 491.474C548.77 491.89 542.635 492.23 536.628 492.495L534.199 492.601C531.097 492.727 528.036 492.843 525.014 492.949H524.576C521.837 493.032 519.128 493.115 516.465 493.183L513.22 493.259C510.413 493.32 507.659 493.365 504.958 493.41C470.534 493.902 445.75 492.654 445.75 492.654C429.234 492.994 413.747 492.707 399.282 491.965C297.146 486.669 246.116 458.026 246.116 458.026C162.569 414.569 182.262 331.726 182.262 331.726C184.536 311.991 188.554 292.496 194.269 273.471C211.42 217.054 237.264 191.172 237.264 191.172C237.264 191.172 268.775 156.469 309.236 137.532C310.84 136.775 312.444 136.019 314.055 135.323L314.146 135.285C320.652 132.365 327.25 129.631 333.937 127.084L334.096 127.023C342.691 123.747 351.414 120.774 360.19 118.073L360.591 117.944L360.826 117.876C478.259 81.9095 606.647 94.7559 606.647 94.7559C728.908 101.542 775.058 170.124 775.058 170.124C793.767 195.613 800.024 229.439 800.781 260.912C800.925 267.153 800.864 273.319 800.629 279.319Z" fill="white"/>
<path opacity="0.2" d="M798.572 305.821C795.545 331.817 790.658 350.065 790.658 350.065C790.484 350.67 790.302 351.268 790.113 351.873L344.575 426.114L218.07 250.638L314.055 135.323L314.146 135.285C314.902 134.899 320.834 131.971 333.937 127.084L334.096 127.023C340.822 124.527 349.432 121.516 360.19 118.073L360.591 117.945L360.818 117.876C361.514 118.255 410.539 144.288 523.123 139.567C523.123 139.567 571.868 139.749 552.243 146.452C552.243 146.452 464.724 161.976 434.167 187.775C434.167 187.775 409.041 203.398 414.496 244.812C414.496 244.812 421.971 349.384 661.135 331.348C661.112 331.348 729.422 338.648 798.572 305.821Z" fill="white"/>
<path opacity="0.2" d="M330.079 128.582C330.079 128.582 361.378 150.423 439.198 154.501C439.198 154.501 391.322 167.143 379.142 194.44L312.648 146.452L314.055 135.323C314.055 135.323 321.053 131.857 330.079 128.582Z" fill="white"/>
<path d="M790.113 351.873C760.971 448.13 667.755 471.606 667.755 471.606C650.846 477.999 630.343 482.592 608.743 485.86C600.671 487.078 592.447 488.13 584.185 488.992L580.047 489.408C575.981 489.817 571.924 490.188 567.874 490.52L565.15 490.732C562.706 490.929 560.27 491.118 557.857 491.277L554.967 491.474C548.771 491.89 542.635 492.23 536.628 492.495L534.199 492.601C531.097 492.727 528.036 492.843 525.014 492.949H524.576C521.837 493.032 519.128 493.115 516.465 493.184L513.22 493.259C510.413 493.32 507.659 493.365 504.958 493.411C470.535 493.902 445.75 492.654 445.75 492.654C429.234 492.994 413.747 492.707 399.282 491.966C297.146 486.67 246.116 458.026 246.116 458.026C162.569 414.569 182.262 331.726 182.262 331.726C184.536 311.991 188.554 292.496 194.269 273.471C211.42 217.054 237.264 191.172 237.264 191.172C237.264 191.172 268.775 156.469 309.236 137.532C310.84 136.775 312.444 136.019 314.055 135.323C314.055 135.323 365.365 138.016 375.609 162.846C376.961 166.114 377.286 169.717 376.539 173.173C375.753 176.816 373.849 180.123 371.092 182.63C365.327 187.926 354.728 195.023 336.396 199.986L282.756 214.247C282.756 214.247 237.264 225.111 241.334 244.124C241.334 244.124 239.98 264.505 302.79 293.02C302.79 293.02 364.487 323.714 448.254 338.323C454.306 339.382 460.487 340.351 466.759 341.221C466.759 341.221 554.354 353.439 616.823 356.155C616.831 356.155 719.64 363.191 790.113 351.873Z" fill="#75F5ED"/>
<path opacity="0.2" d="M800.629 279.319C670.039 334.177 555.504 297.809 555.504 297.809L546.243 279.448C740.861 312.661 798.382 263.045 800.781 260.889C800.924 267.153 800.864 273.319 800.629 279.319Z" fill="white"/>
<path d="M631.092 248.89C631.092 248.89 595.783 241.423 599.18 274.689C599.18 274.689 571.043 272.654 587.151 308.303C587.151 308.303 563.871 328.337 597.818 353.454C597.818 353.454 587.771 371.839 599.588 379.934C611.406 388.029 622.285 387.379 635.147 385.987C635.147 385.987 639.845 410.862 669.071 389.262C669.071 389.262 700.332 417.255 711.877 369.017C711.877 369.017 761.447 362.208 723.422 320.801L631.092 248.89Z" fill="#D0CDE1"/>
<path d="M448.223 338.338C364.457 323.729 302.76 293.035 302.76 293.035C239.965 264.52 241.304 244.139 241.304 244.139C237.234 225.126 282.726 214.262 282.726 214.262L336.366 200.001C354.697 195.038 365.297 187.896 371.062 182.645C373.819 180.138 375.723 176.831 376.509 173.188C376.653 174.702 384.672 288.224 448.223 338.338Z" fill="white"/>
<path d="M400.083 491.723L399.251 491.965C297.115 486.67 246.085 458.026 246.085 458.026C243.059 456.468 240.215 454.849 237.468 453.192C231.757 449.753 226.31 445.894 221.172 441.647C199.663 423.807 189.086 402.873 184.184 384.08C183.107 379.968 182.253 375.801 181.626 371.597C178.222 348.839 182.292 331.726 182.292 331.726C184.566 311.991 188.584 292.496 194.299 273.471C194.299 273.471 220.317 289.616 224.387 302.515H224.455L224.599 302.47L225.106 302.318L225.341 302.25L225.779 302.122L226.127 302.023C226.627 301.887 227.224 301.721 227.913 301.547C228.442 301.403 229.033 301.259 229.676 301.108L230.069 301.01L230.879 300.82C231.302 300.73 231.733 300.624 232.187 300.533C247.213 297.257 280.153 293.119 296.79 314.438C296.79 314.438 307.98 328.579 309.705 353.159C309.856 355.225 309.939 357.366 309.939 359.575C309.939 359.575 334.384 367.723 341.851 396.919C341.851 396.919 345.929 421.363 331.668 443.069C331.645 443.084 400.621 454.13 400.083 491.723Z" fill="#CCCCCC"/>
<g opacity="0.1">
<path d="M180.9 340.51C180.9 340.51 192.09 360.332 218.07 354.521C218.07 354.521 210.126 369.358 181.596 371.597C181.596 371.597 178.888 354.045 180.9 340.51Z" fill="black"/>
<path d="M295.769 348.287L281.394 343.271C273.89 340.877 265.826 340.885 258.327 343.294L235.917 349.407C235.917 349.407 241.342 318.229 232.18 300.548C231.726 300.639 231.295 300.745 230.871 300.836L230.114 301.017C230.871 300.798 242.976 297.34 254.196 297.893C254.196 297.893 245.299 319.523 254.196 334.465C262.134 333.889 270.09 335.29 277.354 338.543C277.354 338.543 291.131 343.801 295.769 348.287Z" fill="black"/>
<path d="M199.111 379.2C199.111 379.2 189.525 385.661 187.248 393.983C187.248 393.983 185.372 388.884 184.153 384.065C184.184 384.08 195.585 380.494 199.111 379.2Z" fill="black"/>
<path d="M323.33 450.559V453.192L283.55 472.946C283.55 472.946 255.338 464.624 237.468 453.192C227.943 441.844 211.374 415.5 222.98 379.132C225.889 369.855 232.135 361.987 240.51 357.048C250.827 351.023 262.675 348.131 274.608 348.726C274.608 348.726 285.638 351.488 295.754 354.536C295.754 354.536 262.942 351.23 246.456 375.894C241.057 384.128 238.432 393.873 238.966 403.705C239.617 417.513 245.465 438.507 272.558 450.574C272.573 450.559 293.28 461.423 323.33 450.559Z" fill="black"/>
<path d="M330.079 454.584C330.079 454.584 315.288 474.255 308.532 479.725C308.532 479.725 298.16 476.615 295.209 476.146C295.209 476.146 318.337 465.395 330.079 454.584Z" fill="black"/>
</g>
<path opacity="0.5" d="M274.948 200.001C293.137 200.001 307.881 196.201 307.881 191.513C307.881 186.824 293.137 183.024 274.948 183.024C256.76 183.024 242.015 186.824 242.015 191.513C242.015 196.201 256.76 200.001 274.948 200.001Z" fill="white"/>
<path d="M280.857 282.012L279.82 281.437C269.675 259.399 267.67 226.027 267.36 219.165L268.018 218.908C268.298 225.27 270.257 259.875 280.857 282.012Z" fill="#FF835B"/>
<path d="M303.932 293.58C303.682 293.474 303.478 293.368 303.312 293.285C325.494 258.392 315.167 214.875 312.791 206.28L313.457 206.106C315.958 215.503 317.439 225.142 317.876 234.856C318.587 250.607 316.71 273.425 303.932 293.58Z" fill="#FF835B"/>
<path d="M373.604 320.196L372.355 319.802C353.895 298.134 344.514 267.842 339.823 245.561C336.728 230.755 334.803 215.729 334.066 200.621L334.732 200.432C335.471 215.555 337.396 230.596 340.489 245.417C345.218 267.91 354.75 298.596 373.604 320.196Z" fill="#FF835B"/>
<path d="M410.986 330.546L409.783 330.258C384.688 303.17 369.55 268.354 366.855 231.527C365.595 215.538 366.614 199.452 369.882 183.75C370.184 183.485 370.472 183.236 370.752 182.994C367.328 198.924 366.255 215.27 367.567 231.512C370.278 268.52 385.604 303.477 410.986 330.546Z" fill="#FF835B"/>
<path d="M631.092 248.89C631.092 248.89 631.092 230.884 648.614 227.411C649.752 227.188 650.915 227.12 652.071 227.207C656.512 227.54 667.429 229.742 673.535 242.921C673.535 242.921 706.46 218.333 712.573 254.322C712.573 254.322 737.018 255.677 724.792 283.518C724.792 283.518 759.427 303.892 723.438 320.862C723.438 320.862 741.398 344.096 724.61 355.565C724.61 355.565 713.928 361.618 698.312 352.1L684.051 339.874C684.051 339.874 713.928 373.163 694.915 387.409C694.915 387.409 681.297 399.627 666.4 362.284C666.4 362.284 667.505 377.226 660.628 384.98C659.668 386.042 658.485 386.876 657.163 387.423C655.841 387.97 654.414 388.217 652.985 388.144C651.556 388.072 650.161 387.683 648.901 387.004C647.642 386.326 646.548 385.377 645.701 384.224C642.788 380.214 640.186 373.049 640.526 360.264C640.526 360.264 628.376 391.441 608.682 369.04C608.682 369.04 599.18 360.211 624.979 340.517C624.979 340.517 599.551 354.438 591.213 329.169C591.213 329.169 582.203 312.025 614.115 301.176C614.115 301.176 590.412 306.26 590.041 288.436C590.041 288.436 591.032 271.973 614.795 279.448C614.795 279.448 596.464 258.393 631.092 248.89Z" fill="#778AD1"/>
<path opacity="0.2" d="M638.559 277.405C638.559 277.405 642.637 250.244 650.785 257.734C650.785 257.734 657.594 265.882 658.933 282.179C658.933 282.179 681.335 252.975 687.448 259.088C687.448 259.088 691.526 265.201 677.264 288.284C677.264 288.284 709.857 275.423 712.573 290.327C712.573 290.327 715.289 301.864 686.767 304.58C686.767 304.58 712.573 313.409 706.437 322.239C706.437 322.239 700.521 326.99 689.218 322.239C689.218 322.239 702.375 332.376 712.414 324.955C713.557 324.093 714.35 322.848 714.647 321.448C714.944 320.048 714.727 318.588 714.033 317.336C712.392 314.37 708.79 310.096 701.005 304.58C701.005 304.58 720.184 303.99 715.38 285.273C715.38 285.273 715.297 270.634 687.455 279.463C687.455 279.463 703.752 256.372 689.49 250.94C689.49 250.94 678.626 246.87 662.33 271.314C662.33 271.314 664.668 253.815 650.981 249.087C649.692 248.633 648.296 248.578 646.975 248.929C645.654 249.28 644.469 250.02 643.575 251.054C640.639 254.443 637.363 261.789 638.559 277.405Z" fill="black"/>
<path opacity="0.2" d="M644.672 298.46C644.672 298.46 633.936 288.481 625.879 296.568C625.236 297.204 624.783 298.008 624.574 298.888C624.364 299.768 624.404 300.689 624.691 301.547C625.531 304.02 627.922 307.66 634.526 311.215C634.526 311.215 623.133 311.314 621.665 320.377C621.452 321.87 621.539 323.389 621.921 324.847C622.302 326.306 622.97 327.673 623.885 328.871C624.801 330.068 625.946 331.071 627.253 331.821C628.561 332.571 630.004 333.053 631.5 333.239C635.112 333.6 638.758 333.37 642.296 332.558C642.296 332.558 628.542 349.497 638.302 353.522C638.302 353.522 648.742 356.866 660.998 340.57C660.998 340.57 656.905 358.099 668.118 358.16C668.118 358.16 678.649 360.944 680.011 338.535C680.011 338.535 673.202 358.901 668.466 351.434C668.466 351.434 664.138 346.97 664.948 332.566C664.948 332.566 645.383 353.469 640.624 348.037C640.624 348.037 639.179 339.405 650.77 326.748C650.77 326.748 624.328 331.741 624.328 320.877C624.328 320.877 623.655 313.409 644.702 313.409C644.702 313.409 624.328 303.226 631.122 297.794C631.092 297.779 633.127 294.382 644.672 298.46Z" fill="black"/>
<path d="M497.279 134.846H501.727C501.877 134.846 502.025 134.876 502.163 134.934C502.301 134.992 502.425 135.078 502.53 135.185C502.634 135.292 502.716 135.419 502.77 135.558C502.825 135.698 502.851 135.847 502.847 135.996V140.604H496.166V135.996C496.162 135.847 496.188 135.699 496.242 135.56C496.296 135.421 496.377 135.295 496.481 135.187C496.584 135.08 496.708 134.995 496.845 134.936C496.982 134.878 497.13 134.847 497.279 134.846Z" fill="#0071F2"/>
<path d="M524.802 229.356C524.802 229.356 528.585 238.904 539.117 239.857L543.157 230.218C543.157 230.218 537.044 226.14 524.802 229.356Z" fill="#778AD1"/>
<path d="M527.662 68.019C527.662 68.019 526.187 80.3132 531.218 82.7568C531.218 82.7568 534.539 78.6941 536.832 77.6501C536.832 77.6501 532.292 75.4031 527.662 68.019Z" fill="#0071F2"/>
<path opacity="0.2" d="M527.662 68.019C527.662 68.019 526.187 80.3132 531.218 82.7568C531.218 82.7568 534.539 78.6941 536.832 77.6501C536.832 77.6501 532.292 75.4031 527.662 68.019Z" fill="black"/>
<path d="M572.034 126.252C571.823 126.675 571.157 126.721 570.476 126.653C569.497 126.529 568.565 126.16 567.767 125.578L562.033 121.485C558.974 119.349 555.413 118.046 551.698 117.702C550.374 117.548 549.038 117.533 547.711 117.657C546.989 115.563 545.675 113.724 543.928 112.361C543.629 112.132 543.301 111.944 542.952 111.801L544.072 94.8165L558.227 88.9985L564.908 91.8659L566.345 108.873C566.125 115.118 568.116 121.24 571.966 126.161L572.034 126.252Z" fill="#F9B499"/>
<path d="M551.698 117.71C550.374 117.556 549.038 117.541 547.711 117.665C546.989 115.571 545.675 113.731 543.928 112.369C543.928 112.369 547.711 110.969 550.594 106.195C550.578 106.21 549.012 113.942 551.698 117.71Z" fill="#F7A48B"/>
<path d="M559.392 96.9878C559.392 96.9878 556.813 112.686 567.064 116.129C567.064 116.129 565.846 113.504 566.307 108.896L559.392 96.9878Z" fill="#F7A48B"/>
<path d="M585.532 185.173L574.183 231.323C564.166 236.392 545.767 231.323 545.767 231.323C535.266 226.549 524.765 229.416 524.765 229.416L531.445 199.82L540.993 188.365L534.312 130.11C535.266 120.562 547.673 117.703 547.673 117.703C549 117.578 550.337 117.594 551.66 117.748C555.375 118.091 558.937 119.395 561.995 121.531L567.73 125.624C568.527 126.205 569.459 126.575 570.438 126.698C571.119 126.766 571.785 126.698 571.997 126.297L585.532 185.173Z" fill="#FF835B"/>
<path opacity="0.2" d="M530.106 205.864L531.483 199.759L560.679 197.277C560.679 197.277 569.235 200.455 581.862 200.107L574.221 231.262C574.221 231.262 566.92 236.331 545.805 231.262C545.82 231.262 558.318 210.056 530.106 205.864Z" fill="black"/>
<path d="M620.5 428.876C619.993 429.28 619.436 429.615 618.843 429.875C617.284 430.576 615.555 430.812 613.865 430.556L602.123 428.876C601.896 428.876 601.669 428.831 601.442 428.793C591.607 427.333 590.669 414.554 590.669 414.554L589.912 411.77L570.635 342L562.313 313.939L560.149 306.684C558.485 308.356 551.91 317.525 546.75 324.841C543.073 330.069 540.115 334.344 540.115 334.344C535.341 341.024 538.201 353.439 538.201 353.439L545.82 410.741C545.828 412.484 545.424 414.205 544.642 415.763C543.86 417.321 542.721 418.672 541.318 419.706C539.495 421.107 537.449 422.192 535.266 422.914C533.733 423.455 532.152 423.848 530.545 424.087C528.137 424.377 525.694 424.049 523.448 423.134C511.986 418.405 508.574 399.279 508.574 399.279C502.847 365.87 499.026 347.735 499.026 347.735C495.244 322.912 500.933 317.185 500.933 317.185L509.505 303.816C514.294 295.6 529.531 261.29 537.74 242.535C540.978 235.159 543.126 230.203 543.126 230.203C558.621 235.832 574.191 231.24 574.191 231.24L599.233 244.608C601.102 249.594 603.371 261.487 604.733 269.143C605.49 273.229 605.913 276.111 605.913 276.111L607.858 311.458L613.819 349.679L624.094 415.5C625.039 423.149 622.891 426.969 620.5 428.876Z" fill="#2F2E41"/>
<path opacity="0.2" d="M538.163 353.462L545.82 410.741C545.82 417.951 539.767 421.378 535.228 422.929C538.292 411.868 531.959 381.583 529.508 370.726C529.009 368.51 528.366 366.346 527.67 364.19C525.978 359.033 525.209 353.619 525.4 348.196C525.451 347.268 525.708 346.363 526.151 345.547C526.595 344.73 527.214 344.023 527.965 343.475C534.131 338.845 546.258 325.317 546.697 324.841C543.02 330.069 540.062 334.343 540.062 334.343C535.303 341.024 538.163 353.462 538.163 353.462Z" fill="black"/>
<path d="M542.839 442.237H528.616L528.608 442.176L526.815 430.654H541.628L542.672 440.625L542.839 442.237Z" fill="#F9B499"/>
<path d="M548.195 456.082C544.076 455.746 539.932 456.3 536.045 457.708C532.197 459.048 528.612 461.05 525.453 463.625C515.694 470.948 497.513 471.107 494.018 471.069C493.942 471.07 493.867 471.054 493.798 471.023C493.728 470.993 493.666 470.947 493.615 470.891C493.564 470.835 493.526 470.768 493.503 470.696C493.48 470.623 493.472 470.547 493.481 470.471C494.2 463.98 497.264 462.543 499.238 462.323C501.573 462.117 503.866 461.577 506.047 460.719C512.097 458.109 517.433 454.088 521.61 448.993C522.771 447.538 523.714 445.922 524.409 444.196C526.225 439.914 528.525 442.184 528.525 442.184H528.608V442.252H542.839L542.665 440.633H542.733C547.409 439.12 548.195 456.082 548.195 456.082Z" fill="#778AD1"/>
<path d="M540.077 462.285C534.35 461.332 532.867 464.215 532.867 464.215C527.571 469.972 514.627 472.227 514.627 472.227L497.71 473.974C491.657 474.201 493.458 470.471 493.458 470.471C493.45 470.547 493.457 470.623 493.48 470.696C493.503 470.768 493.542 470.834 493.592 470.891C493.643 470.947 493.705 470.993 493.775 471.023C493.844 471.054 493.919 471.07 493.995 471.069C497.491 471.107 515.671 470.948 525.43 463.624C525.43 463.624 535.319 454.916 548.195 456.059C548.687 464.199 540.077 462.285 540.077 462.285Z" fill="#2F2E41"/>
<path opacity="0.2" d="M548.195 456.081C544.075 455.745 539.931 456.3 536.045 457.708C539.48 452.798 539.737 445.527 539.654 442.244H542.846L542.672 440.625H542.74C547.408 439.119 548.195 456.081 548.195 456.081Z" fill="black"/>
<path d="M618.555 435.329V440.519C614.947 442.623 603.084 443.092 603.084 443.092V434.603L618.555 435.329Z" fill="#F9B499"/>
<path d="M624.313 454.44C624.548 458.98 612.624 459.426 612.624 459.426C604.99 459.426 593.536 462.286 593.536 462.286C590.434 463.042 584.964 463.368 579.57 463.451C571.687 463.58 563.955 463.247 563.955 463.247C563.955 452.746 578.276 453.699 578.276 453.699C586.167 454.357 592.711 450.476 596.003 448.009C597.224 447.052 598.264 445.884 599.074 444.56C600.784 441.881 602.857 442.941 603.069 443.046C603.069 443.046 614.932 442.577 618.54 440.474V439.718C620.659 438.204 621.204 441.231 621.204 441.231L624.313 454.44Z" fill="#778AD1"/>
<path d="M623.443 463.481L614.107 464.994C609.855 465.751 608.645 464.691 608.645 464.691C604.665 462.301 598.598 464.691 598.598 464.691C596.963 466.121 591.69 466.121 591.69 466.121H564.893C562.986 466.121 563.939 463.261 563.939 463.261C563.939 463.261 585.88 464.215 593.536 462.301C593.536 462.301 604.99 459.441 612.624 459.441C612.624 459.441 624.548 459.017 624.313 454.455L626.015 459.426C626.946 463.246 623.443 463.481 623.443 463.481Z" fill="#2F2E41"/>
<path opacity="0.2" d="M603.084 443.092C603.084 443.092 593.249 456.014 579.57 463.451C571.687 463.579 563.955 463.246 563.955 463.246C563.955 452.745 578.276 453.699 578.276 453.699C586.167 454.357 592.711 450.476 596.003 448.009C597.224 447.052 598.264 445.884 599.074 444.559C600.784 441.881 602.857 442.94 603.069 443.046L603.084 443.092Z" fill="black"/>
<path opacity="0.2" d="M620.5 428.876C619.993 429.28 619.436 429.615 618.843 429.875C617.284 430.576 615.555 430.812 613.865 430.556L602.123 428.876C601.896 428.876 601.669 428.831 601.442 428.793C591.607 427.333 590.669 414.554 590.669 414.554L589.912 411.77C589.912 411.77 611.686 434.603 612.609 390.692L613.797 349.679L624.071 415.5C625.039 423.149 622.891 426.969 620.5 428.876Z" fill="black"/>
<path opacity="0.2" d="M604.763 269.151C595.723 272.177 588.762 283.752 588.762 283.752C583.035 293.315 576.347 297.144 576.347 297.144C569.667 301.918 562.283 313.947 562.283 313.947L560.119 306.691C578.276 286.643 583.988 274.235 583.988 274.235C592.515 248.656 538.595 242.664 537.77 242.565C541.008 235.189 543.157 230.233 543.157 230.233C558.651 235.862 574.221 231.27 574.221 231.27L599.263 244.638C601.132 249.616 603.402 261.51 604.763 269.151Z" fill="black"/>
<path opacity="0.2" d="M590.669 253.263C591.758 263.771 587.839 275.044 579.593 281.846C580.44 280.862 581.446 279.939 582.218 278.895C588.059 271.768 590.737 262.394 590.669 253.263Z" fill="black"/>
<path d="M641.608 164.45C636.69 175.421 639.338 184.484 639.338 184.484C640.299 205.486 628.837 223.629 628.837 223.629C626.834 226.846 625.444 230.406 624.737 234.13C624.273 236.429 623.459 238.644 622.323 240.697C621.406 242.33 620.28 243.835 618.972 245.175C616.709 247.588 613.86 249.374 610.702 250.358C595.427 257.038 581.855 250.131 581.855 250.131L571.263 243.39L568.713 241.763C558.212 236.036 558.212 212.174 558.212 212.174L551.615 205.108C553.745 204.977 555.789 204.216 557.486 202.922L561.011 210.2C561.673 209.735 562.284 209.202 562.835 208.611C566.708 204.503 569.704 196.544 571.671 189.878C572.807 186.037 573.644 182.114 574.176 178.144C574.772 173.702 574.995 169.217 574.841 164.738C574.365 150.212 572.035 133.553 572.035 133.553C547.673 122.719 536.832 124.126 536.832 124.126C541.22 119.125 547.711 117.672 547.711 117.672C550.447 117.356 553.219 117.596 555.86 118.375C558.502 119.155 560.959 120.46 563.084 122.212L567.768 125.556C570.642 127.742 572.035 126.229 572.035 126.229C574.403 123.369 575.394 123.089 575.394 123.089C583.988 138.099 604.037 150.099 604.037 150.099C604.907 150.545 605.77 150.969 606.647 151.362C627.876 160.827 650.27 152.24 650.27 152.24C646.635 155.724 643.696 159.868 641.608 164.45Z" fill="#FF835B"/>
<path opacity="0.3" d="M597.349 191.444V223.651C597.354 224.179 597.233 224.701 596.996 225.174C596.759 225.646 596.413 226.055 595.987 226.367C592.749 228.697 583.829 232.685 569.666 220.761C569.666 220.761 563.614 214.588 562.857 208.611C566.731 204.503 569.727 196.544 571.694 189.878C572.829 186.037 573.667 182.114 574.198 178.144C579.814 184.018 587.224 187.859 595.261 189.061C595.839 189.138 596.369 189.422 596.753 189.861C597.137 190.299 597.349 190.862 597.349 191.444Z" fill="white"/>
<path opacity="0.2" d="M595.223 226.874C594.973 227.207 589.836 233.865 578.458 230.226C578.458 230.226 568.713 226.488 566.806 220.761C566.806 220.761 565.044 216.01 563.183 219.18C562.517 220.357 562.279 221.728 562.509 223.061C563.175 227.275 565.407 238.26 571.263 243.39L568.713 241.763C558.212 236.036 558.212 212.174 558.212 212.174L551.615 205.108C553.745 204.977 555.789 204.216 557.486 202.921L561.011 210.199C561.672 209.735 562.283 209.202 562.835 208.611C562.903 209.034 564.726 220.231 577.572 226.17C577.595 226.17 587.377 232.019 595.223 226.874Z" fill="white"/>
<path opacity="0.2" d="M604.763 228.683C604.763 228.683 599.467 251.773 585.531 251.546C585.531 251.546 592.923 253.99 599.906 253.127C599.914 253.127 602.622 238.518 604.763 228.683Z" fill="white"/>
<path d="M639.354 183.073C640.314 203.179 628.853 220.547 628.853 220.547C626.849 223.627 625.459 227.036 624.752 230.6C624.288 232.802 623.474 234.922 622.339 236.887C613.351 243.217 608.811 240.654 608.811 240.654C601.17 237.908 602.123 236.083 606.012 220.098C606.057 219.917 606.095 219.743 606.133 219.57C608.336 210.22 607.942 200.481 604.991 191.323C598.31 179.444 605.944 160.251 605.944 160.251C606.524 157.337 606.76 154.371 606.647 151.407C610.241 156.383 616.695 158.324 620.735 159.07C622.527 159.376 624.354 159.452 626.167 159.295C634.171 158.722 641.404 163.764 641.608 163.916C636.69 174.396 639.354 183.073 639.354 183.073Z" fill="#778AD1"/>
<path d="M573.389 143.389L591.622 152.943C591.622 152.943 597.349 155.244 599.263 150.649C599.263 150.649 593.763 149.854 585.532 145.271L572.519 137.282L573.389 143.389Z" fill="#2F2E41"/>
<path d="M577.081 180.875C577.081 180.875 578.904 156.249 580.97 149.856L584.669 152.277L583.913 185.43C583.913 185.43 578.76 182.986 577.081 180.875Z" fill="#2F2E41"/>
<path d="M498.285 138.667H501.674C503.251 138.667 504.764 139.293 505.879 140.408C506.994 141.523 507.621 143.036 507.621 144.613V185.248C507.621 185.525 507.566 185.8 507.46 186.056C507.354 186.312 507.199 186.545 507.003 186.741C506.807 186.937 506.574 187.092 506.318 187.198C506.062 187.304 505.787 187.359 505.51 187.359H494.449C493.889 187.359 493.352 187.136 492.957 186.741C492.561 186.345 492.338 185.808 492.338 185.248V144.606C492.34 143.03 492.968 141.519 494.083 140.406C495.198 139.292 496.709 138.667 498.285 138.667Z" fill="#D0CDE1"/>
<path d="M652.245 146.225C652.2 148.305 652.321 151.521 650.271 152.277C625.856 161.099 606.647 151.4 606.647 151.4C584.45 139.295 575.394 123.127 575.394 123.127C575.753 122.241 576.331 121.46 577.073 120.857C580.342 117.892 589.647 113.511 615.287 117.589C615.287 117.589 641.01 120.956 650.036 137.54C650.452 138.295 650.813 139.079 651.118 139.885C651.898 141.906 652.281 144.059 652.245 146.225Z" fill="#778AD1"/>
<path opacity="0.2" d="M652.245 146.225C652.2 148.305 652.321 151.521 650.271 152.277C625.856 161.099 606.647 151.4 606.647 151.4C584.45 139.295 575.394 123.127 575.394 123.127C575.753 122.241 576.331 121.46 577.073 120.857C577.073 120.857 588.762 143.441 620.265 144.394C620.265 144.394 638.582 145.226 651.118 139.855C651.902 141.885 652.285 144.049 652.245 146.225Z" fill="black"/>
<path d="M554.832 97.4348C556.824 86.8105 552.307 77.0479 544.742 75.6295C537.177 74.2111 529.43 81.6739 527.438 92.2982C525.445 102.922 529.963 112.685 537.528 114.103C545.092 115.522 552.84 108.059 554.832 97.4348Z" fill="#F9B499"/>
<path d="M545.979 80.6083C547.083 81.7583 553.143 88.4312 552.825 96.8895L559.392 96.9879C559.392 96.9879 560.149 110.984 570.62 109.093C570.62 109.093 574.44 109.093 575.394 103.366C575.394 103.366 565.263 86.1842 558.401 80.457C554.303 81.0769 550.137 81.1049 546.031 80.5403C545.971 80.51 545.933 80.563 545.979 80.6083Z" fill="#2F2E41"/>
<path d="M585.448 89.6188C584.805 93.3487 580.909 95.6713 580.909 95.6713C576.922 97.5778 575.363 103.305 575.363 103.305C566.89 88.9304 558.363 80.3964 558.363 80.3964C533.768 84.2472 527.662 68.019 527.662 68.019C533.389 68.9799 542.937 69.9331 542.937 69.9331L551.38 64.8793C552.192 64.3813 553.09 64.04 554.028 63.8731C571.376 60.8468 583.988 84.2548 583.988 84.2548C584.583 85.0031 585.019 85.8645 585.27 86.7867C585.521 87.7088 585.581 88.6724 585.448 89.6188Z" fill="#778AD1"/>
<path opacity="0.2" d="M585.448 89.6189C584.805 93.3488 580.909 95.6714 580.909 95.6714C576.922 97.578 575.363 103.305 575.363 103.305C566.89 88.9305 558.364 80.3965 558.364 80.3965C553.683 76.2484 548.488 72.7191 542.907 69.8954C556.275 67.9813 571.891 86.6003 571.891 86.6003C573.446 88.6024 575.651 89.9993 578.126 90.5503C580.601 91.1013 583.19 90.7719 585.448 89.6189Z" fill="black"/>
<path d="M559.382 96.9797C560.291 94.7873 559.645 92.4367 557.939 91.7293C556.233 91.022 554.113 92.2258 553.204 94.4181C552.295 96.6105 552.941 98.9611 554.647 99.6685C556.353 100.376 558.473 99.172 559.382 96.9797Z" fill="#F9B499"/>
<path d="M560.678 157.513L561.049 196.059C561.069 197.146 560.869 198.226 560.46 199.234C560.052 200.241 559.444 201.156 558.674 201.923C556.237 204.261 551.94 206.629 545.623 203.928C543.477 203.033 541.201 202.494 538.882 202.331C533.442 201.87 523.683 200.357 516.942 195.386C515.743 194.492 514.352 193.891 512.879 193.631L511.23 193.359C510.73 193.277 510.27 193.035 509.919 192.669C509.568 192.304 509.346 191.834 509.285 191.331C508.703 186.61 508.007 173.983 517.267 175.277L522.442 176.85L535.303 180.686C533.644 171.284 532.482 161.802 531.823 152.277C531.067 139.847 531.725 127.689 536.832 126.017C536.832 126.017 561.042 124.375 562.033 142.51C562.613 147.551 562.152 152.657 560.678 157.513Z" fill="#FF835B"/>
<path opacity="0.2" d="M522.442 176.85L535.303 180.686C533.644 171.284 532.482 161.802 531.823 152.277L537.755 185.929C537.789 186.118 537.765 186.313 537.688 186.489C537.61 186.664 537.481 186.813 537.318 186.914C537.155 187.016 536.966 187.067 536.774 187.06C536.582 187.053 536.397 186.988 536.242 186.875L522.442 176.85Z" fill="black"/>
<path d="M508.975 187.094C508.975 187.094 487.564 179.718 489.479 173.068C489.479 173.068 488.525 170.208 490.432 168.294C490.432 168.294 487.572 165.434 491.385 163.52C491.385 163.52 489.985 159.313 492.588 158.11C493 157.939 493.447 157.868 493.892 157.905C494.337 157.942 494.767 158.085 495.145 158.322L500.358 161.348L505.722 164.443C505.722 164.443 507.628 165.396 506.675 162.529C506.675 162.529 504.405 159.684 505.124 157.52C505.245 157.159 505.444 156.828 505.707 156.552C505.961 156.301 506.297 156.15 506.654 156.129C507.01 156.109 507.362 156.218 507.644 156.438C509.036 157.513 511.426 160.221 511.426 166.349C511.426 166.349 511.873 173.431 513.567 175.617C513.575 175.617 508.529 177.932 508.975 187.094Z" fill="#F9B499"/>
<path d="M489.479 173.067C490.848 173.494 492.138 174.14 493.299 174.981C491.93 174.556 490.639 173.91 489.479 173.067Z" fill="#F7A48B"/>
<path d="M490.432 168.256C491.651 168.511 492.811 168.994 493.852 169.678C492.632 169.423 491.472 168.94 490.432 168.256Z" fill="#F7A48B"/>
<path d="M491.385 163.482C493.089 164.236 494.693 165.199 496.159 166.349C494.454 165.596 492.851 164.633 491.385 163.482Z" fill="#F7A48B"/>
<path d="M508.408 165.54C505.381 168.566 500.358 161.326 500.358 161.326L505.722 164.443C505.722 164.443 507.628 165.396 506.675 162.528C506.675 162.528 504.406 159.684 505.124 157.52C505.57 158.894 506.262 160.176 507.167 161.303C509.558 163.936 508.408 165.54 508.408 165.54Z" fill="#F7A48B"/>
<path d="M499.609 183.13C499.609 183.13 509.686 176.85 512.47 173.03L513.575 175.617C513.575 175.617 508.529 177.932 508.975 187.094C508.975 187.094 504.965 185.589 499.609 183.13Z" fill="#F7A48B"/>
<path d="M542.831 431.88C542.843 431.982 542.833 432.086 542.803 432.184C542.773 432.283 542.723 432.374 542.657 432.453C542.59 432.531 542.508 432.596 542.416 432.641C542.324 432.687 542.223 432.714 542.12 432.719L526.013 433.249C525.835 433.252 525.661 433.193 525.523 433.08C525.385 432.968 525.29 432.811 525.256 432.636L523.433 423.149C525.679 424.064 528.122 424.392 530.53 424.102C532.137 423.863 533.718 423.47 535.251 422.929C537.434 422.207 539.48 421.123 541.303 419.722L542.831 431.88Z" fill="#2F2E41"/>
<path d="M618.291 438.204L603.402 436.578C603.058 436.54 602.738 436.386 602.495 436.141C602.251 435.896 602.099 435.575 602.063 435.231L601.503 429.466L602.123 428.876L613.865 430.556C615.555 430.812 617.284 430.576 618.843 429.875L619.94 436.464C619.976 436.693 619.959 436.927 619.89 437.148C619.821 437.37 619.703 437.572 619.544 437.74C619.384 437.908 619.188 438.037 618.971 438.118C618.754 438.198 618.521 438.228 618.291 438.204Z" fill="#2F2E41"/>
<path d="M309.916 359.567C306.966 358.092 301.519 356.261 295.769 354.521C285.654 351.495 274.623 348.711 274.623 348.711C262.69 348.116 250.842 351.008 240.525 357.033C232.15 361.971 225.904 369.84 222.995 379.117C211.39 415.485 227.958 441.828 237.483 453.177C231.767 449.744 226.315 445.89 221.172 441.647C202.258 397.978 213.493 370.432 213.493 370.432C203.309 379.942 184.153 384.05 184.153 384.05C183.076 379.938 182.223 375.771 181.596 371.566C243.407 366.603 224.357 302.5 224.357 302.5H224.425L224.569 302.455L225.076 302.303L225.31 302.235L225.749 302.107L226.097 302.008C226.596 301.872 227.194 301.706 227.883 301.532C228.412 301.388 229.002 301.244 229.645 301.093L230.039 300.994L230.795 300.813C231.219 300.722 231.65 300.616 232.104 300.525C241.266 318.206 235.842 349.384 235.842 349.384L258.327 343.294C265.833 340.889 273.903 340.889 281.409 343.294L295.784 348.31L309.682 353.129C309.833 355.217 309.916 357.358 309.916 359.567Z" fill="#778AD1"/>
<path d="M331.645 443.084C331.645 443.084 307.503 471.417 268.313 467.778C268.313 467.778 281.863 472.544 295.209 476.146C295.209 476.146 324.057 464.041 339.733 444.748L331.645 443.084Z" fill="#778AD1"/>
<path d="M503.952 457.133L524.545 492.964C521.807 493.047 519.098 493.131 516.435 493.199L513.189 493.274C510.382 493.335 507.629 493.38 504.928 493.426L482.306 468.414C480.36 466.266 478.558 463.991 476.912 461.605C457.242 433.226 466.903 427.022 466.903 427.022C480.226 410.953 503.952 457.133 503.952 457.133Z" fill="#E6E6E6"/>
<path d="M565.12 490.732C562.676 490.929 560.24 491.118 557.826 491.277L554.936 491.474C548.74 491.89 542.604 492.23 536.597 492.495L534.169 492.601C531.067 492.727 528.005 492.843 524.984 492.949L513.288 451.535C503.029 417.959 505.828 396.503 505.828 396.503C507.697 385.306 514.226 374.116 532.883 383.437C551.539 392.758 545.941 489.787 545.941 489.787C560.868 414.221 567.397 411.422 567.397 411.422C573.926 397.433 585.123 405.831 585.123 405.831C605.134 419.759 569.916 482.418 565.12 490.732Z" fill="#E6E6E6"/>
<path d="M608.713 485.86C600.64 487.078 592.416 488.13 584.155 488.992L580.016 489.408C575.951 489.817 571.893 490.188 567.843 490.52C599.982 450.574 610.294 464.601 610.294 464.601C617.156 472.446 614.75 479.724 608.713 485.86Z" fill="#E6E6E6"/>
<path opacity="0.2" d="M516.435 493.199L513.189 493.275C497.483 472.091 477.449 443.228 473.092 436.926C473.031 436.831 473.004 436.717 473.017 436.605C473.03 436.493 473.081 436.388 473.162 436.309C473.243 436.23 473.348 436.181 473.461 436.171C473.573 436.161 473.686 436.19 473.78 436.253C480.423 441.329 503.99 475.057 516.435 493.199Z" fill="black"/>
<path opacity="0.2" d="M536.597 492.495L534.169 492.601C530.129 466.568 521.156 407.178 522.601 402.093C522.601 402.093 524.333 400.694 527.67 427.06L536.597 492.495Z" fill="black"/>
<path opacity="0.2" d="M576.188 423.701C573.858 432.636 564.28 469.178 557.826 491.277L554.936 491.473C560.3 471.372 570.514 434.346 575.719 423.534C575.745 423.477 575.791 423.432 575.849 423.407C575.906 423.382 575.971 423.38 576.03 423.401C576.089 423.422 576.139 423.465 576.168 423.52C576.197 423.576 576.204 423.64 576.188 423.701Z" fill="black"/>
<path opacity="0.2" d="M599.536 474.497C594.996 479.164 589.912 484.044 584.177 488.992L580.039 489.408C591.713 479.679 596.093 476.358 599.256 474.164C599.301 474.135 599.354 474.124 599.407 474.132C599.459 474.14 599.507 474.167 599.541 474.208C599.576 474.248 599.594 474.3 599.593 474.353C599.592 474.406 599.571 474.457 599.536 474.497Z" fill="black"/>
<path d="M252.88 191.853H295.671C295.671 191.853 336.396 178.953 322.15 162.657C322.15 162.657 314.32 151.997 289.717 183.47L288.884 182.343C288.884 182.343 319.434 130.738 303.819 119.874C303.819 119.874 295.671 113.768 290.919 123.951C290.919 123.951 286.168 125.987 275.304 180.989C275.304 180.989 279.374 110.371 265.794 103.577C252.214 96.7834 247.463 104.939 246.124 113.087C246.124 113.087 244.088 128.703 251.556 153.147L260.347 184.416L244.709 157.225C244.709 157.225 227.444 123.611 217.745 135.323C217.745 135.323 210.716 139.862 225.031 160.501C226.23 162.229 227.542 163.877 228.957 165.434L252.88 191.853Z" fill="#E6E6E6"/>
<path opacity="0.2" d="M222.269 142.51C226.052 148.01 246.26 177.13 257.774 191.853H259.522C259.522 191.853 229.434 147.117 222.768 142.048C222.703 142.01 222.626 141.994 222.551 142.002C222.475 142.01 222.404 142.043 222.348 142.094C222.292 142.146 222.254 142.214 222.24 142.289C222.226 142.364 222.236 142.441 222.269 142.51Z" fill="black"/>
<path opacity="0.2" d="M268.109 191.853C268.109 191.853 256.95 121.916 258.274 117.158C258.274 117.158 259.537 116.144 261.958 135.315L269.675 191.853H268.109Z" fill="black"/>
<path opacity="0.2" d="M279.313 191.853C279.313 191.853 291.691 143.743 296.964 132.765C296.98 132.719 297.014 132.681 297.058 132.66C297.102 132.639 297.152 132.636 297.199 132.652C297.245 132.668 297.283 132.702 297.304 132.746C297.325 132.79 297.328 132.84 297.312 132.886C295.179 141.057 284.738 180.898 280.91 191.853H279.313Z" fill="black"/>
<path opacity="0.2" d="M286.902 191.853H288.317C293.21 188.475 297.927 184.849 302.449 180.988C306.89 177.206 310.824 173.423 314.289 169.867C314.318 169.839 314.335 169.801 314.336 169.761C314.338 169.721 314.325 169.682 314.299 169.652C314.273 169.621 314.237 169.601 314.197 169.596C314.158 169.591 314.118 169.602 314.085 169.625C310.855 171.857 305.869 175.723 286.902 191.853Z" fill="black"/>
<g filter="url(#filter1_d_1_2195)">
<rect x="193.282" y="422.771" width="212.673" height="90.1907" rx="10" transform="rotate(30 193.282 422.771)" fill="white"/>
</g>
<g clip-path="url(#clip1_1_2195)">
<mask id="mask0_1_2195" style="mask-type:luminance" maskUnits="userSpaceOnUse" x="177" y="452" width="170" height="120">
<path d="M346.279 539.224L195.794 452.341L177.02 484.858L327.505 571.741L346.279 539.224Z" fill="white"/>
</mask>
<g mask="url(#mask0_1_2195)">
<mask id="mask1_1_2195" style="mask-type:luminance" maskUnits="userSpaceOnUse" x="177" y="452" width="170" height="120">
<path d="M346.279 539.224L195.794 452.341L177.02 484.858L327.505 571.741L346.279 539.224Z" fill="white"/>
</mask>
<g mask="url(#mask1_1_2195)">
<path fill-rule="evenodd" clip-rule="evenodd" d="M313.519 536.748C313.564 536.73 313.593 536.758 313.627 536.777C314.219 537.13 314.848 537.438 315.406 537.848C315.965 538.258 316.39 538.92 316.14 539.707C316.11 539.799 316.097 539.9 316.066 539.992C316.036 540.084 316.028 540.157 316.192 540.109C316.728 539.947 317.272 539.812 317.85 539.796C318.625 539.772 319.371 539.896 320.105 540.2C320.607 540.413 321.071 540.692 321.488 541.031C322.552 541.886 323.101 542.981 323.062 544.327C323.056 544.652 323.06 544.665 323.359 544.542C324.2 544.207 325.067 544.083 325.981 544.172C326.595 544.231 327.173 544.39 327.744 544.621C328.268 544.836 328.744 545.133 329.183 545.474C330.476 546.483 331.092 547.758 330.844 549.368C330.75 550.003 330.531 550.599 330.277 551.176C330.263 551.2 330.244 551.233 330.26 551.265L325.404 559.675C324.808 559.331 324.198 558.99 323.611 558.629C323.135 558.332 322.731 557.968 322.622 557.39C322.545 556.973 322.624 556.58 322.832 556.219C323.876 554.391 324.929 552.567 325.987 550.736C326.247 550.284 326.491 549.822 326.632 549.323C326.807 548.723 326.711 548.142 326.048 547.716C325.05 547.063 324.046 547.129 323.041 547.611C322.442 547.901 321.977 548.333 321.54 548.814C321.204 549.179 320.937 549.583 320.69 550.01C319.723 551.686 318.755 553.361 317.797 555.042C317.711 555.19 317.65 555.198 317.505 555.114C316.487 554.516 315.464 553.925 314.428 553.338C314.292 553.259 314.25 553.213 314.34 553.057C315.682 550.754 317.014 548.446 318.338 546.133C318.608 545.665 318.831 545.181 318.887 544.632C318.966 543.846 318.552 543.322 317.872 542.984C317.124 542.607 316.386 542.685 315.664 542.991C315.005 543.267 314.466 543.69 313.979 544.197C313.525 544.669 313.16 545.203 312.838 545.761C311.908 547.371 310.979 548.981 310.063 550.588C309.982 550.727 309.929 550.74 309.784 550.657C308.766 550.058 307.744 549.468 306.708 548.881C306.571 548.802 306.534 548.748 306.62 548.6C307.487 547.118 308.336 545.627 309.203 544.145C309.232 544.096 309.248 544.028 309.31 543.999C309.322 544.038 309.308 544.063 309.293 544.087C308.416 545.607 307.534 547.135 306.657 548.654C306.643 548.679 306.691 548.674 306.674 548.664C306.665 548.659 306.665 548.659 306.67 548.651C306.69 548.597 306.722 548.56 306.751 548.511C308.975 544.659 311.203 540.799 313.427 536.947C313.431 536.861 313.452 536.786 313.519 536.748Z" fill="#0098D1"/>
</g>
<mask id="mask2_1_2195" style="mask-type:luminance" maskUnits="userSpaceOnUse" x="177" y="452" width="170" height="120">
<path d="M346.279 539.224L195.794 452.341L177.02 484.858L327.505 571.741L346.279 539.224Z" fill="white"/>
</mask>
<g mask="url(#mask2_1_2195)">
<path fill-rule="evenodd" clip-rule="evenodd" d="M254.578 495.764C254.782 495.98 255.004 496.185 255.159 496.45C255.658 497.297 255.592 498.375 254.968 499.121C254.354 499.851 253.318 500.129 252.388 499.811C251.097 499.372 250.405 498.031 250.856 496.758C251.278 495.535 252.612 494.957 253.847 495.375C253.886 495.387 253.916 495.414 253.952 495.391L254.582 495.756L254.578 495.764Z" fill="#244482"/>
</g>
<mask id="mask3_1_2195" style="mask-type:luminance" maskUnits="userSpaceOnUse" x="177" y="452" width="170" height="120">
<path d="M346.279 539.224L195.794 452.341L177.02 484.858L327.505 571.741L346.279 539.224Z" fill="white"/>
</mask>
<g mask="url(#mask3_1_2195)">
<path fill-rule="evenodd" clip-rule="evenodd" d="M241.615 511.288C240.496 510.609 239.363 510.032 238.302 509.332C237.708 508.945 237.41 508.378 237.375 507.69C237.335 506.933 237.39 506.188 237.402 505.439C237.418 504.507 237.429 503.582 237.467 502.651C237.474 502.382 237.365 502.198 237.157 502.045C237.005 501.935 236.861 501.83 236.694 501.745C236.434 501.606 236.496 501.576 236.354 501.823C235.529 503.252 234.704 504.681 233.884 506.102C233.808 506.233 233.723 506.36 233.656 506.496C233.608 506.6 233.558 506.626 233.439 506.557C232.327 505.904 231.206 505.268 230.09 504.623C229.988 504.564 229.973 504.512 230.033 504.426C230.132 504.275 230.209 504.122 230.299 503.966C233.367 498.652 236.44 493.33 239.508 488.016C239.645 487.778 239.601 487.796 239.831 487.929C240.482 488.316 241.158 488.662 241.785 489.09C242.507 489.572 242.769 490.161 242.574 490.892C242.51 491.14 242.396 491.359 242.267 491.58C240.954 493.856 239.645 496.122 238.332 498.398C238.208 498.611 238.204 498.619 238.438 498.744C238.626 498.852 238.818 498.952 239.01 499.052C239.323 499.2 239.628 499.223 239.95 499.058C241.404 498.331 242.874 497.614 244.336 496.893C244.435 496.84 244.513 496.842 244.607 496.896C245.885 497.634 247.164 498.372 248.442 499.11C248.468 499.124 248.493 499.139 248.54 499.177C248.352 499.266 248.191 499.348 248.021 499.425C246.15 500.305 244.283 501.177 242.403 502.051C242.108 502.188 241.801 502.306 241.475 502.381C241.408 502.397 241.347 502.405 241.378 502.489C241.591 503.203 241.51 503.934 241.473 504.647C241.384 506.632 241.5 508.615 241.567 510.604C241.601 510.82 241.613 511.036 241.615 511.288Z" fill="#244482"/>
</g>
<mask id="mask4_1_2195" style="mask-type:luminance" maskUnits="userSpaceOnUse" x="177" y="452" width="170" height="120">
<path d="M346.279 539.224L195.794 452.341L177.02 484.858L327.505 571.741L346.279 539.224Z" fill="white"/>
</mask>
<g mask="url(#mask4_1_2195)">
<path fill-rule="evenodd" clip-rule="evenodd" d="M257.983 506.436C258.297 506.365 258.598 506.276 258.906 506.235C260.165 506.042 261.356 506.281 262.493 506.871C263.279 507.281 263.991 507.78 264.563 508.461C265.472 509.544 265.723 510.762 265.444 512.091C265.293 512.825 265.005 513.502 264.63 514.151C263.981 515.276 263.331 516.401 262.681 517.526C261.866 518.939 261.054 520.365 260.247 521.783C260.114 522.012 260.158 521.994 259.92 521.857C259.311 521.494 258.687 521.178 258.102 520.774C257.185 520.157 256.949 519.287 257.438 518.343C257.907 517.431 258.458 516.556 258.967 515.655C259.545 514.653 260.124 513.651 260.702 512.649C260.878 512.345 261.023 512.035 261.108 511.69C261.309 510.93 261.059 510.358 260.366 509.925C258.984 509.073 257.285 509.121 255.938 510.49C255.613 510.817 255.334 511.182 255.102 511.584C254.059 513.391 253.011 515.206 251.967 517.013C251.882 517.161 251.819 517.191 251.658 517.097C250.589 516.469 249.515 515.849 248.436 515.238C248.3 515.159 248.29 515.098 248.361 514.975C250.39 511.46 252.425 507.936 254.454 504.421C254.696 504.002 254.938 503.583 255.171 503.159C255.209 503.093 255.225 503.026 255.336 503.09C255.966 503.475 256.633 503.795 257.235 504.23C257.891 504.707 258.301 505.393 257.997 506.313C258.005 506.339 258.003 506.382 257.983 506.436Z" fill="#244482"/>
</g>
<mask id="mask5_1_2195" style="mask-type:luminance" maskUnits="userSpaceOnUse" x="177" y="452" width="170" height="120">
<path d="M346.279 539.224L195.794 452.341L177.02 484.858L327.505 571.741L346.279 539.224Z" fill="white"/>
</mask>
<g mask="url(#mask5_1_2195)">
<path fill-rule="evenodd" clip-rule="evenodd" d="M296.313 531.008C296.147 531.296 295.981 531.583 295.815 531.87C295.758 531.969 295.717 532 295.598 531.931C295.032 531.594 294.452 531.28 293.882 530.929C293.277 530.559 292.984 529.984 293.17 529.248C293.244 528.963 293.076 528.723 292.893 528.508C291.924 527.412 290.254 526.94 288.89 527.412C288.308 527.613 287.808 527.948 287.381 528.392C286.918 528.88 286.565 529.432 286.357 530.068C285.982 531.209 286.112 532.303 286.831 533.32C287.37 534.08 288.102 534.623 288.961 534.966C289.824 535.3 290.726 535.372 291.639 535.286C292.026 535.246 292.422 535.19 292.785 535.071C292.883 535.04 292.918 535.038 292.926 535.163C292.964 536.16 293.002 537.156 293.027 538.156C293.03 538.268 292.967 538.319 292.856 538.354C292.16 538.576 291.435 538.65 290.7 538.664C289.886 538.676 289.087 538.565 288.31 538.335C287.232 538.019 286.245 537.504 285.345 536.82C284.385 536.102 283.61 535.239 283.059 534.187C282.33 532.813 282.084 531.368 282.318 529.86C282.472 528.865 282.815 527.957 283.339 527.109C284.352 525.471 285.793 524.354 287.72 523.889C288.838 523.626 289.965 523.642 291.112 523.899C291.947 524.085 292.733 524.397 293.48 524.795C294.505 525.343 295.386 526.06 296.097 526.974C296.618 527.647 297 528.382 296.978 529.246C296.969 529.656 296.864 530.034 296.656 530.374C296.546 530.584 296.432 530.803 296.313 531.008Z" fill="#0098D1"/>
</g>
<mask id="mask6_1_2195" style="mask-type:luminance" maskUnits="userSpaceOnUse" x="177" y="452" width="170" height="120">
<path d="M346.279 539.224L195.794 452.341L177.02 484.858L327.505 571.741L346.279 539.224Z" fill="white"/>
</mask>
<g mask="url(#mask6_1_2195)">
<path fill-rule="evenodd" clip-rule="evenodd" d="M246.136 505.838C247.274 503.867 248.407 501.904 249.546 499.933C249.583 499.867 249.605 499.77 249.733 499.844C250.38 500.239 251.064 500.569 251.679 501C252.505 501.576 252.735 502.399 252.345 503.291C252.272 503.456 252.195 503.609 252.105 503.765C250.18 507.1 248.25 510.443 246.325 513.777C246.244 513.917 246.191 513.93 246.046 513.847C244.977 513.218 243.903 512.599 242.825 511.987C242.671 511.898 242.67 511.842 242.75 511.703C243.887 509.753 245.012 507.785 246.141 505.83C246.145 505.843 246.136 505.838 246.136 505.838Z" fill="#244482"/>
</g>
<mask id="mask7_1_2195" style="mask-type:luminance" maskUnits="userSpaceOnUse" x="177" y="452" width="170" height="120">
<path d="M346.279 539.224L195.794 452.341L177.02 484.858L327.505 571.741L346.279 539.224Z" fill="white"/>
</mask>
<g mask="url(#mask7_1_2195)">
<path fill-rule="evenodd" clip-rule="evenodd" d="M277.041 531.916C275.909 531.318 275.447 529.836 276.106 528.694C276.761 527.56 278.235 527.251 279.347 527.882C280.502 528.538 280.92 530.039 280.286 531.118C279.669 532.186 278.172 532.614 277.041 531.916Z" fill="#0098D1"/>
</g>
<mask id="mask8_1_2195" style="mask-type:luminance" maskUnits="userSpaceOnUse" x="177" y="452" width="170" height="120">
<path d="M346.279 539.224L195.794 452.341L177.02 484.858L327.505 571.741L346.279 539.224Z" fill="white"/>
</mask>
<g mask="url(#mask8_1_2195)">
<path fill-rule="evenodd" clip-rule="evenodd" d="M273.956 529.15C273.974 529.04 274.048 528.951 274.1 528.861C276.215 525.198 278.33 521.535 280.45 517.863C280.578 517.642 280.578 517.642 280.348 517.509C279.828 517.209 279.3 516.904 278.78 516.603C278.846 516.587 278.896 516.638 278.948 516.667C279.459 516.963 279.97 517.258 280.481 517.553C280.592 517.617 280.625 517.658 280.554 517.781C278.398 521.497 276.249 525.218 274.097 528.946C274.059 529.012 274.007 529.081 273.956 529.15Z" fill="#294268"/>
</g>
<mask id="mask9_1_2195" style="mask-type:luminance" maskUnits="userSpaceOnUse" x="177" y="452" width="170" height="120">
<path d="M346.279 539.224L195.794 452.341L177.02 484.858L327.505 571.741L346.279 539.224Z" fill="white"/>
</mask>
<g mask="url(#mask9_1_2195)">
<path fill-rule="evenodd" clip-rule="evenodd" d="M313.519 536.748L306.586 548.756C306.583 548.644 306.633 548.596 306.666 548.539C307.501 547.093 308.34 545.64 309.175 544.194C309.212 544.128 309.255 544.054 309.285 543.984C310.11 542.555 310.94 541.117 311.765 539.688C312.291 538.776 312.817 537.865 313.344 536.953C313.391 536.871 313.413 536.774 313.519 536.748Z" fill="#008BAB"/>
</g>
<mask id="mask10_1_2195" style="mask-type:luminance" maskUnits="userSpaceOnUse" x="177" y="452" width="170" height="120">
<path d="M346.279 539.224L195.794 452.341L177.02 484.858L327.505 571.741L346.279 539.224Z" fill="white"/>
</mask>
<g mask="url(#mask10_1_2195)">
<path d="M203.353 477.644C203.272 477.51 203.19 477.375 203.097 477.222C203.225 477.198 203.339 477.176 203.449 477.163C203.858 477.104 204.26 477.018 204.643 476.867C205.796 476.404 206.606 475.591 207.149 474.513C207.932 472.961 207.852 471.426 206.924 469.904C206.268 468.836 205.333 468.055 204.26 467.414C202.847 466.576 201.427 465.767 199.999 464.954C199.42 464.619 198.814 464.587 198.201 464.802C197.859 464.922 197.599 465.156 197.348 465.394L188.575 480.589C188.635 480.623 188.699 480.65 188.759 480.684C190.727 481.821 192.704 482.962 194.673 484.098C195.525 484.59 196.426 484.958 197.388 485.162C198.8 485.452 200.159 485.361 201.411 484.649C202.65 483.94 203.45 482.869 203.868 481.534C204.288 480.177 204.15 478.882 203.353 477.644ZM198.555 470.997C198.821 470.537 199.073 470.081 199.356 469.631C199.757 468.975 200.28 468.817 200.981 469.178C201.664 469.529 202.348 469.88 202.956 470.362C203.716 470.954 203.963 471.765 203.666 472.634C203.404 473.403 202.931 474.006 202.144 474.307C201.517 474.547 200.892 474.428 200.308 474.101C199.46 473.622 198.621 473.127 197.781 472.653C197.662 472.584 197.655 472.537 197.717 472.43C198.005 471.95 198.28 471.474 198.555 470.997ZM198.722 481.651C198.006 481.927 197.294 481.801 196.629 481.439C195.631 480.884 194.66 480.302 193.667 479.74C193.556 479.676 193.558 479.633 193.61 479.543C193.942 478.968 194.274 478.393 194.601 477.826L194.61 477.831C194.928 477.281 195.232 476.734 195.558 476.188C195.969 475.516 196.552 475.393 197.25 475.796C197.872 476.155 198.499 476.506 199.117 476.874C199.908 477.353 200.425 478.012 200.466 478.945C200.539 480.039 199.736 481.272 198.722 481.651Z" fill="#244482"/>
</g>
<mask id="mask11_1_2195" style="mask-type:luminance" maskUnits="userSpaceOnUse" x="177" y="452" width="170" height="120">
<path d="M346.279 539.224L195.794 452.341L177.02 484.858L327.505 571.741L346.279 539.224Z" fill="white"/>
</mask>
<g mask="url(#mask11_1_2195)">
<path d="M280.451 517.547C280.055 517.328 279.659 517.089 279.267 516.863C279.105 516.769 278.961 516.664 278.785 516.595C278.124 516.225 277.492 516.276 276.892 516.685C276.769 516.329 276.627 515.984 276.431 515.674C275.677 514.461 274.586 513.634 273.281 513.1C271.007 512.159 268.916 512.474 267.057 513.942C265.534 515.143 264.588 516.743 264.127 518.624C263.811 519.898 263.859 521.174 264.335 522.435C264.934 523.996 266.059 525.117 267.546 525.887C268.524 526.397 269.554 526.641 270.65 526.475C270.676 526.468 270.708 526.453 270.741 526.494C270.634 526.718 270.503 526.926 270.354 527.125C269.776 527.909 269.002 528.305 267.989 528.191C266.888 528.07 265.969 527.517 265.116 526.85C264.639 526.475 264.239 526.026 263.825 525.601C263.311 525.074 262.793 525.027 262.194 525.415C262.14 525.449 262.082 525.492 262.028 525.527C261.516 525.921 261.004 526.315 260.497 526.702C260.393 526.784 260.386 526.835 260.464 526.956C261.109 527.964 261.922 528.839 262.845 529.601C263.115 529.823 263.394 530.028 263.669 530.241L265.024 531.024C265.068 531.005 265.098 531.033 265.123 531.048C265.577 531.266 266.041 531.447 266.524 531.594C267.797 531.967 269.076 532.093 270.353 531.79C271.935 531.411 273.101 530.474 273.97 529.147C273.999 529.076 274.041 529.024 274.079 528.958C276.208 525.27 278.342 521.574 280.471 517.886C280.49 517.854 280.509 517.821 280.528 517.788C280.598 517.686 280.579 517.62 280.451 517.547ZM272.565 522.882C271.707 523.581 270.65 523.66 269.657 523.098C268.403 522.396 267.879 521.316 268.146 519.948C268.384 518.749 268.945 517.737 269.923 516.987C270.802 516.312 271.757 516.272 272.756 516.805C273.276 517.084 273.759 517.428 274.095 517.929C274.558 518.623 274.556 519.355 274.351 520.103C274.221 520.564 274.014 520.981 273.767 521.43C273.455 521.95 273.078 522.466 272.565 522.882Z" fill="#244482"/>
</g>
<mask id="mask12_1_2195" style="mask-type:luminance" maskUnits="userSpaceOnUse" x="177" y="452" width="170" height="120">
<path d="M346.279 539.224L195.794 452.341L177.02 484.858L327.505 571.741L346.279 539.224Z" fill="white"/>
</mask>
<g mask="url(#mask12_1_2195)">
<path d="M309.541 540.233C309.716 539.655 309.8 539.057 309.81 538.45C309.83 537.115 309.493 535.869 308.781 534.702C308.219 533.786 307.492 533.038 306.611 532.398C306.01 531.963 305.383 531.612 304.7 531.339C303.975 531.04 303.218 530.855 302.439 530.788C301.111 530.668 299.859 530.887 298.687 531.481C297.372 532.145 296.37 533.133 295.67 534.404C295.498 534.721 295.327 535.038 295.189 535.375C294.884 536.119 294.71 536.894 294.665 537.7C294.597 538.899 294.834 540.043 295.389 541.13C295.983 542.305 296.854 543.257 297.934 544.023C299.01 544.776 300.202 545.289 301.5 545.502C302.759 545.703 303.987 545.602 305.158 545.149C305.99 544.83 306.727 544.38 307.37 543.777C307.79 543.384 308.151 542.957 308.478 542.488C308.959 541.792 309.295 541.033 309.541 540.233ZM305.319 539.832C304.802 540.727 304.196 541.363 303.34 541.724C302.627 542.034 301.882 542.064 301.119 541.832C300.347 541.594 299.693 541.173 299.215 540.525C298.729 539.871 298.539 539.138 298.588 538.344C298.63 537.602 298.866 536.917 299.262 536.291C299.832 535.383 300.602 534.678 301.711 534.431C302.713 534.21 303.629 534.454 304.454 535.051C305.64 535.911 306.033 537.08 305.827 538.439C305.737 538.99 305.548 539.494 305.319 539.832Z" fill="#0098D1"/>
</g>
<mask id="mask13_1_2195" style="mask-type:luminance" maskUnits="userSpaceOnUse" x="177" y="452" width="170" height="120">
<path d="M346.279 539.224L195.794 452.341L177.02 484.858L327.505 571.741L346.279 539.224Z" fill="white"/>
</mask>
<g mask="url(#mask13_1_2195)">
<path d="M231.949 490.146C230.706 488.344 228.955 487.224 226.818 486.734C224.628 486.237 222.65 486.672 220.924 488.008C219.714 488.941 218.903 490.17 218.427 491.604C217.876 493.268 217.928 494.929 218.649 496.572C219.343 498.145 220.51 499.312 222.001 500.194C222.572 500.524 223.163 500.799 223.792 500.987C225.957 501.646 227.995 501.443 229.851 500.236C231.354 499.265 232.34 497.873 232.875 496.178C233.539 494.064 233.259 492.03 231.949 490.146ZM228.668 495.731C228.18 496.556 227.542 497.228 226.613 497.578C225.546 497.97 224.522 497.795 223.549 497.178C222.176 496.309 221.661 494.741 222.183 493.148C222.553 492.015 223.216 491.083 224.317 490.514C225.521 489.885 226.856 490.053 227.954 490.906C229.179 491.854 229.508 493.095 229.186 494.519C229.075 494.948 228.899 495.35 228.668 495.731Z" fill="#244482"/>
</g>
<mask id="mask14_1_2195" style="mask-type:luminance" maskUnits="userSpaceOnUse" x="177" y="452" width="170" height="120">
<path d="M346.279 539.224L195.794 452.341L177.02 484.858L327.505 571.741L346.279 539.224Z" fill="white"/>
</mask>
<g mask="url(#mask14_1_2195)">
<path d="M217.939 482.079C216.828 480.441 215.276 479.37 213.391 478.797C211.153 478.107 209.055 478.396 207.173 479.707C205.918 480.582 205.073 481.77 204.525 483.172C203.926 484.721 203.85 486.309 204.398 487.918C205.032 489.773 206.292 491.113 207.978 492.109C208.629 492.496 209.324 492.788 210.063 492.984C212.185 493.541 214.16 493.269 215.945 492.065C217.348 491.112 218.29 489.795 218.817 488.193C219.504 486.06 219.251 483.998 217.939 482.079ZM213.083 489.23C212.094 489.82 211.045 489.828 209.97 489.328C208.245 488.518 207.618 486.809 208.113 485.145C208.153 485.015 208.203 484.89 208.244 484.761C208.333 484.527 208.434 484.312 208.566 484.104C209.059 483.249 209.724 482.571 210.687 482.24C211.842 481.834 212.933 482.069 213.914 482.811C215.022 483.648 215.426 484.779 215.196 486.081C214.974 487.431 214.278 488.518 213.083 489.23Z" fill="#244482"/>
</g>
</g>
</g>
<path d="M240.107 429.244C242.33 428.232 244.889 429.709 245.124 432.141L248.029 462.222C248.307 465.102 245.214 467.092 242.708 465.646L212.299 448.089C209.793 446.642 209.97 442.968 212.603 441.769L240.107 429.244Z" fill="white"/>
<rect x="654.083" y="512.963" width="220.178" height="110.625" rx="7.84091" transform="rotate(-45 654.083 512.963)" fill="white"/>
<g clip-path="url(#clip2_1_2195)">
<mask id="mask15_1_2195" style="mask-type:luminance" maskUnits="userSpaceOnUse" x="692" y="395" width="155" height="155">
<path d="M810.175 395.742L692.447 513.469L728.343 549.365L846.071 431.638L810.175 395.742Z" fill="white"/>
</mask>
<g mask="url(#mask15_1_2195)">
<mask id="mask16_1_2195" style="mask-type:luminance" maskUnits="userSpaceOnUse" x="692" y="395" width="155" height="155">
<path d="M810.175 395.742L692.447 513.469L728.343 549.365L846.071 431.638L810.175 395.742Z" fill="white"/>
</mask>
<g mask="url(#mask16_1_2195)">
<path d="M735.874 522.282L728.355 497.252C727.766 496.945 727.163 496.666 726.547 496.417L703.866 504.74L709.519 530.23C709.809 530.45 710.098 530.655 710.396 530.868L735.874 522.282Z" fill="#F7B916"/>
</g>
<mask id="mask17_1_2195" style="mask-type:luminance" maskUnits="userSpaceOnUse" x="692" y="395" width="155" height="155">
<path d="M810.175 395.742L692.447 513.469L728.343 549.365L846.071 431.638L810.175 395.742Z" fill="white"/>
</mask>
<g mask="url(#mask17_1_2195)">
<path d="M776.136 485.916L772.534 489.518C772.519 489.532 772.498 489.539 772.483 489.538L765.231 488.49L766.279 495.741C766.288 495.764 766.274 495.778 766.259 495.792L763.376 498.675C763.355 498.697 763.333 498.703 763.303 498.687C763.28 498.678 763.257 498.655 763.256 498.626L761.68 487.899L751.064 486.321C751.034 486.319 751.011 486.296 751.002 486.274C751.002 486.259 750.993 486.221 751.007 486.207L754.609 482.605C754.623 482.591 754.645 482.585 754.668 482.593L761.083 483.566L760.151 477.094C760.143 477.071 760.149 477.049 760.164 477.035L763.103 474.096C763.117 474.081 763.154 474.076 763.176 474.084C763.199 474.093 763.222 474.116 763.223 474.145L764.587 484.095L776.086 485.795C776.116 485.797 776.139 485.82 776.147 485.843C776.163 485.873 776.157 485.895 776.136 485.916Z" fill="#1F3562"/>
</g>
<mask id="mask18_1_2195" style="mask-type:luminance" maskUnits="userSpaceOnUse" x="692" y="395" width="155" height="155">
<path d="M810.175 395.742L692.447 513.469L728.343 549.365L846.071 431.638L810.175 395.742Z" fill="white"/>
</mask>
<g mask="url(#mask18_1_2195)">
<path d="M785.411 456.192C783.818 457.786 783.784 459.937 785.321 462.094L790.749 456.666L790.625 456.542C789.149 455.066 786.849 454.754 785.411 456.192ZM795.441 455.761C795.449 455.783 795.443 455.805 795.422 455.826L787.181 464.067C789.452 466 791.897 465.95 793.921 463.927C795.161 462.686 796.016 460.904 796.794 457.946C796.807 457.903 796.88 457.891 796.919 457.93L799.686 460.711C799.702 460.741 799.711 460.764 799.704 460.786C798.774 463.324 797.574 465.606 796.206 466.974C792.66 470.519 787.252 470.271 783.341 466.361C779.439 462.458 779.183 457.042 782.729 453.496C785.964 450.26 790.432 450.569 793.724 453.861C794.25 454.386 795.394 455.714 795.441 455.761Z" fill="#1F3562"/>
</g>
<mask id="mask19_1_2195" style="mask-type:luminance" maskUnits="userSpaceOnUse" x="692" y="395" width="155" height="155">
<path d="M810.175 395.742L692.447 513.469L728.343 549.365L846.071 431.638L810.175 395.742Z" fill="white"/>
</mask>
<g mask="url(#mask19_1_2195)">
<path d="M802.639 429.459C801.624 430.474 799.917 430.403 798.828 429.314C797.707 428.193 797.605 426.456 798.62 425.441C799.629 424.433 801.365 424.52 802.494 425.648C803.576 426.745 803.647 428.451 802.639 429.459ZM816.128 445.923C816.1 445.952 816.056 445.95 816.025 445.919L803.714 433.608C803.691 433.585 803.682 433.548 803.703 433.527L806.685 430.545C806.714 430.531 806.743 430.532 806.767 430.556L819.077 442.866C819.108 442.897 819.11 442.941 819.089 442.963L816.128 445.923Z" fill="#1F3562"/>
</g>
<mask id="mask20_1_2195" style="mask-type:luminance" maskUnits="userSpaceOnUse" x="692" y="395" width="155" height="155">
<path d="M810.175 395.742L692.447 513.469L728.343 549.365L846.071 431.638L810.175 395.742Z" fill="white"/>
</mask>
<g mask="url(#mask20_1_2195)">
<path d="M779.731 478.611C779.188 479.154 778.553 479.619 777.74 480.061L769.849 472.156C770.334 471.161 770.852 470.396 771.494 469.754C773.559 467.689 776.61 467.976 779.091 470.457C781.765 473.131 782.015 476.327 779.731 478.611ZM769.483 466.742C768.644 467.581 767.96 468.589 767.412 469.818L764.451 472.778C764.423 472.807 764.432 472.844 764.455 472.867L784.648 493.06C785.412 492.033 786.157 490.593 786.394 488.687L780.25 482.543C781.092 481.933 781.768 481.396 782.346 480.818C786.407 476.758 786.363 471.469 782.236 467.342C778.303 463.424 773.057 463.168 769.483 466.742Z" fill="#1F3562"/>
</g>
<mask id="mask21_1_2195" style="mask-type:luminance" maskUnits="userSpaceOnUse" x="692" y="395" width="155" height="155">
<path d="M810.175 395.742L692.447 513.469L728.343 549.365L846.071 431.638L810.175 395.742Z" fill="white"/>
</mask>
<g mask="url(#mask21_1_2195)">
<path d="M807.832 448.469C807.435 449.933 806.865 451.013 806.09 451.788C804.25 453.628 801.728 453.306 799.34 450.918C796.589 448.167 796.207 444.979 798.385 442.801C798.984 442.202 799.732 441.779 800.791 441.415L807.839 448.462L807.832 448.469ZM791.774 432.411L798.219 438.856C797.073 439.445 796.181 440.09 795.413 440.858C791.881 444.39 792.137 449.976 796.009 453.847C799.865 457.704 805.01 458.139 808.238 454.91C809.359 453.789 810.1 452.43 810.639 450.501L811.744 451.62C812.392 450.633 812.959 449.339 813.164 447.697L793.512 428.045C792.741 429.078 792.002 430.482 791.774 432.411Z" fill="#1F3562"/>
</g>
<mask id="mask22_1_2195" style="mask-type:luminance" maskUnits="userSpaceOnUse" x="692" y="395" width="155" height="155">
<path d="M810.175 395.742L692.447 513.469L728.343 549.365L846.071 431.638L810.175 395.742Z" fill="white"/>
</mask>
<g mask="url(#mask22_1_2195)">
<path d="M826.553 429.702C826.222 431.161 825.725 432.215 825.041 432.899C823.074 434.866 820.475 434.621 818.087 432.233C815.375 429.521 814.94 426.308 817.005 424.242C817.562 423.686 818.464 423.248 819.761 422.909L826.553 429.702ZM819.953 416.983C819.876 416.905 819.75 416.907 819.687 416.97L817.291 419.382C817.213 419.459 817.219 419.578 817.296 419.655L817.744 420.103L817.681 420.167C816.041 420.74 814.842 421.445 813.904 422.382C810.577 425.71 810.991 431.354 814.87 435.234C818.788 439.152 823.741 439.438 827.224 435.956C828.147 435.032 829.276 433.764 828.984 431.244L830.568 432.828C831.172 431.853 831.739 430.559 831.932 428.976L819.953 416.983Z" fill="#1F3562"/>
</g>
<mask id="mask23_1_2195" style="mask-type:luminance" maskUnits="userSpaceOnUse" x="692" y="395" width="155" height="155">
<path d="M810.175 395.742L692.447 513.469L728.343 549.365L846.071 431.638L810.175 395.742Z" fill="white"/>
</mask>
<g mask="url(#mask23_1_2195)">
<path d="M752.02 503.787L759.478 496.329C760.278 497.353 761.07 498.71 761.511 500.448L755.11 506.849L753.841 508.118L753.756 508.202C752.805 509.154 751.218 509.133 750.107 508.204C750.091 508.189 750.069 508.181 750.054 508.18L741.669 499.795L733.918 492.044C733.903 492.029 733.902 492.014 733.894 491.991C732.965 490.88 732.936 489.286 733.888 488.334C733.923 488.299 733.952 488.285 733.98 488.257L742.679 479.558C743.479 480.583 744.294 481.962 744.727 483.692L738.326 490.093L742.716 494.483L749.053 488.145C749.081 488.117 749.126 488.119 749.149 488.142L752.194 491.187C752.217 491.21 752.219 491.255 752.191 491.283L745.853 497.62L752.02 503.787Z" fill="#1F3562"/>
</g>
<mask id="mask24_1_2195" style="mask-type:luminance" maskUnits="userSpaceOnUse" x="692" y="395" width="155" height="155">
<path d="M810.175 395.742L692.447 513.469L728.343 549.365L846.071 431.638L810.175 395.742Z" fill="white"/>
</mask>
<g mask="url(#mask24_1_2195)">
<path d="M776.143 485.909L772.541 489.511C772.527 489.525 772.512 489.539 772.49 489.531L765.238 488.483L766.286 495.734C766.295 495.757 766.281 495.771 766.267 495.785L763.376 498.675C763.362 498.69 763.333 498.703 763.303 498.687C763.28 498.678 763.257 498.655 763.256 498.626L761.673 487.906L751.057 486.328C751.027 486.326 751.004 486.303 750.995 486.281C750.987 486.258 750.986 486.228 751.007 486.207L754.609 482.605C754.623 482.591 754.645 482.585 754.668 482.593L761.083 483.566L760.151 477.094C760.151 477.079 760.149 477.049 760.164 477.035L763.103 474.096C763.117 474.081 763.154 474.076 763.176 474.084C763.199 474.093 763.222 474.116 763.223 474.145L764.587 484.095L776.086 485.795C776.116 485.797 776.139 485.82 776.147 485.843C776.163 485.873 776.157 485.895 776.143 485.909Z" fill="#1F3562"/>
</g>
<mask id="mask25_1_2195" style="mask-type:luminance" maskUnits="userSpaceOnUse" x="692" y="395" width="155" height="155">
<path d="M810.175 395.742L692.447 513.469L728.343 549.365L846.071 431.638L810.175 395.742Z" fill="white"/>
</mask>
<g mask="url(#mask25_1_2195)">
<path d="M785.403 456.185C783.81 457.778 783.776 459.929 785.313 462.086L790.741 456.658L790.617 456.534C789.149 455.066 786.841 454.746 785.403 456.185ZM795.433 455.753C795.441 455.775 795.435 455.797 795.414 455.818L787.173 464.059C789.444 465.992 791.89 465.942 793.906 463.926C795.147 462.685 796.001 460.903 796.78 457.945C796.785 457.894 796.866 457.89 796.904 457.929L799.672 460.71C799.695 460.734 799.696 460.763 799.69 460.785C798.759 463.323 797.559 465.605 796.191 466.973C792.638 470.526 787.237 470.27 783.327 466.36C779.424 462.457 779.161 457.048 782.714 453.495C785.95 450.259 790.417 450.568 793.709 453.86C794.25 454.386 795.394 455.714 795.433 455.753Z" fill="#1F3562"/>
</g>
<mask id="mask26_1_2195" style="mask-type:luminance" maskUnits="userSpaceOnUse" x="692" y="395" width="155" height="155">
<path d="M810.175 395.742L692.447 513.469L728.343 549.365L846.071 431.638L810.175 395.742Z" fill="white"/>
</mask>
<g mask="url(#mask26_1_2195)">
<path d="M802.639 429.459C801.624 430.474 799.917 430.403 798.828 429.314C797.707 428.193 797.612 426.449 798.62 425.441C799.629 424.433 801.365 424.52 802.494 425.648C803.576 426.745 803.647 428.451 802.639 429.459ZM816.128 445.923C816.1 445.952 816.063 445.957 816.032 445.926L803.714 433.608C803.691 433.585 803.682 433.548 803.703 433.527L806.685 430.545C806.714 430.531 806.743 430.532 806.767 430.556L819.077 442.866C819.108 442.897 819.102 442.934 819.081 442.955L816.12 445.916L816.128 445.923Z" fill="#1F3562"/>
</g>
<mask id="mask27_1_2195" style="mask-type:luminance" maskUnits="userSpaceOnUse" x="692" y="395" width="155" height="155">
<path d="M810.175 395.742L692.447 513.469L728.343 549.365L846.071 431.638L810.175 395.742Z" fill="white"/>
</mask>
<g mask="url(#mask27_1_2195)">
<path d="M779.731 478.611C779.188 479.154 778.568 479.62 777.748 480.069L769.857 472.164C770.334 471.161 770.86 470.403 771.501 469.762C773.567 467.696 776.618 467.984 779.099 470.465C781.765 473.131 782.015 476.327 779.731 478.611ZM769.483 466.742C768.644 467.581 767.968 468.597 767.412 469.818L764.451 472.778C764.423 472.807 764.432 472.844 764.463 472.875L784.648 493.06C785.412 492.033 786.157 490.593 786.394 488.687L780.258 482.551C781.1 481.941 781.776 481.404 782.354 480.826C786.414 476.765 786.371 471.477 782.244 467.35C778.296 463.416 773.057 463.168 769.483 466.742Z" fill="#1F3562"/>
</g>
<mask id="mask28_1_2195" style="mask-type:luminance" maskUnits="userSpaceOnUse" x="692" y="395" width="155" height="155">
<path d="M810.175 395.742L692.447 513.469L728.343 549.365L846.071 431.638L810.175 395.742Z" fill="white"/>
</mask>
<g mask="url(#mask28_1_2195)">
<path d="M807.832 448.469C807.435 449.933 806.865 451.013 806.089 451.788C804.249 453.628 801.728 453.306 799.34 450.918C796.589 448.167 796.206 444.964 798.377 442.793C798.976 442.194 799.716 441.763 800.783 441.407L807.839 448.462L807.832 448.469ZM791.773 432.411L798.218 438.856C797.073 439.445 796.181 440.089 795.413 440.858C791.881 444.39 792.13 449.968 796.009 453.847C799.865 457.703 805.017 458.146 808.253 454.911C809.374 453.79 810.115 452.43 810.653 450.501L811.759 451.621C812.407 450.633 812.974 449.339 813.187 447.705L793.511 428.03C792.741 429.078 792.002 430.482 791.773 432.411Z" fill="#1F3562"/>
</g>
<mask id="mask29_1_2195" style="mask-type:luminance" maskUnits="userSpaceOnUse" x="692" y="395" width="155" height="155">
<path d="M810.175 395.742L692.447 513.469L728.343 549.365L846.071 431.638L810.175 395.742Z" fill="white"/>
</mask>
<g mask="url(#mask29_1_2195)">
<path d="M826.546 429.694C826.214 431.153 825.717 432.207 825.033 432.891C823.067 434.858 820.467 434.613 818.079 432.225C815.367 429.513 814.924 426.292 816.99 424.227C817.547 423.67 818.448 423.232 819.745 422.894L826.546 429.694ZM819.945 416.975C819.868 416.897 819.743 416.899 819.679 416.962L817.283 419.374C817.213 419.445 817.211 419.57 817.288 419.647L817.736 420.095L817.673 420.159C816.033 420.732 814.834 421.437 813.896 422.374C810.569 425.702 810.983 431.346 814.862 435.226C818.78 439.144 823.734 439.43 827.216 435.948C828.147 435.017 829.268 433.756 828.976 431.236L830.56 432.82C831.164 431.845 831.731 430.551 831.917 428.975L819.945 416.975Z" fill="#1F3562"/>
</g>
<mask id="mask30_1_2195" style="mask-type:luminance" maskUnits="userSpaceOnUse" x="692" y="395" width="155" height="155">
<path d="M810.175 395.742L692.447 513.469L728.343 549.365L846.071 431.638L810.175 395.742Z" fill="white"/>
</mask>
<g mask="url(#mask30_1_2195)">
<path d="M752.027 503.78L759.486 496.321C760.285 497.346 761.077 498.702 761.518 500.44L755.117 506.841L753.848 508.11L753.764 508.195C752.812 509.147 751.233 509.118 750.106 508.189C750.091 508.174 750.068 508.165 750.054 508.165L741.677 499.788L733.925 492.037C733.91 492.021 733.902 491.999 733.901 491.984C732.972 490.872 732.944 489.278 733.895 488.327C733.923 488.298 733.959 488.278 733.988 488.25L742.679 479.543C743.478 480.568 744.293 481.947 744.735 483.685L738.334 490.086L742.723 494.476L749.061 488.138C749.089 488.11 749.133 488.112 749.156 488.135L752.201 491.18C752.224 491.203 752.226 491.247 752.198 491.275L745.861 497.613L752.027 503.78Z" fill="#1F3562"/>
</g>
<mask id="mask31_1_2195" style="mask-type:luminance" maskUnits="userSpaceOnUse" x="692" y="395" width="155" height="155">
<path d="M810.175 395.742L692.447 513.469L728.343 549.365L846.071 431.638L810.175 395.742Z" fill="white"/>
</mask>
<g mask="url(#mask31_1_2195)">
<path d="M822.8 413.471L823.145 413.125C823.533 412.738 823.6 412.438 823.307 412.145C823.005 411.843 822.677 411.909 822.282 412.304L821.965 412.621L822.807 413.464L822.8 413.471ZM822.01 411.849C822.701 411.158 823.302 411.068 823.773 411.539C824.167 411.934 824.24 412.387 823.972 412.824L825.728 413.495L825.143 414.08L823.536 413.446L823.155 413.826L824.276 414.947L823.747 415.475L821.058 412.786L822.003 411.842L822.01 411.849ZM820.587 413.118C820.622 413.887 820.942 414.602 821.483 415.143C822.024 415.684 822.717 415.996 823.449 416.037C824.195 416.079 824.884 415.823 825.349 415.357C825.864 414.843 826.12 414.169 826.101 413.416C826.082 412.692 825.77 412 825.229 411.459C824.65 410.879 823.972 410.568 823.232 410.519C822.471 410.492 821.804 410.726 821.289 411.241C820.797 411.749 820.546 412.387 820.587 413.118ZM823.232 410.04C824.09 410.094 824.888 410.455 825.53 411.097C826.194 411.761 826.556 412.574 826.588 413.438C826.614 414.324 826.312 415.121 825.741 415.692C825.163 416.27 824.358 416.565 823.478 416.518C822.606 416.477 821.793 416.101 821.167 415.475C820.533 414.841 820.155 413.998 820.114 413.112C820.075 412.254 820.365 411.501 820.957 410.909C821.541 410.294 822.331 409.999 823.232 410.04Z" fill="#1F3562"/>
</g>
<mask id="mask32_1_2195" style="mask-type:luminance" maskUnits="userSpaceOnUse" x="692" y="395" width="155" height="155">
<path d="M810.175 395.742L692.447 513.469L728.343 549.365L846.071 431.638L810.175 395.742Z" fill="white"/>
</mask>
<g mask="url(#mask32_1_2195)">
<path d="M719.438 509.074L717.218 507.94L705.92 505.807L706.521 504.758L721.912 504.343L725.097 498.237C725.485 497.54 726.074 496.889 726.554 496.409C721.64 494.414 716.125 494.257 711.217 496.398C701.51 500.649 697.843 512.322 703.005 522.461C704.602 525.595 706.86 528.22 709.511 530.222L716.407 514.841L719.438 509.074Z" fill="#1F3561"/>
</g>
<mask id="mask33_1_2195" style="mask-type:luminance" maskUnits="userSpaceOnUse" x="692" y="395" width="155" height="155">
<path d="M810.175 395.742L692.447 513.469L728.343 549.365L846.071 431.638L810.175 395.742Z" fill="white"/>
</mask>
<g mask="url(#mask33_1_2195)">
<path d="M728.362 497.245C728.239 497.94 728.026 498.925 727.642 499.726L724.435 505.839L732.269 519.89L731.751 520.98L724.053 511.97L721.956 510.606L718.96 516.337L710.395 530.853C716.18 534.805 723.567 535.903 729.934 533.106C739.641 528.855 743.308 517.182 738.146 507.058C735.919 502.701 732.409 499.333 728.362 497.245Z" fill="#1F3561"/>
</g>
<mask id="mask34_1_2195" style="mask-type:luminance" maskUnits="userSpaceOnUse" x="692" y="395" width="155" height="155">
<path d="M810.175 395.742L692.447 513.469L728.343 549.365L846.071 431.638L810.175 395.742Z" fill="white"/>
</mask>
<g mask="url(#mask34_1_2195)">
<path d="M746.078 516.484C745.345 517.217 744.253 517.041 743.48 516.268C742.653 515.442 742.595 514.34 743.265 513.671C743.927 513.008 745.029 513.066 745.856 513.893C746.69 514.727 746.74 515.821 746.078 516.484ZM743.11 513.516C742.356 514.27 742.333 515.545 743.268 516.48C744.157 517.369 745.407 517.448 746.225 516.63C746.972 515.883 747.002 514.616 746.067 513.681C745.125 512.753 743.857 512.769 743.11 513.516Z" fill="#1F3561"/>
</g>
<mask id="mask35_1_2195" style="mask-type:luminance" maskUnits="userSpaceOnUse" x="692" y="395" width="155" height="155">
<path d="M810.175 395.742L692.447 513.469L728.343 549.365L846.071 431.638L810.175 395.742Z" fill="white"/>
</mask>
<g mask="url(#mask35_1_2195)">
<path d="M744.209 515.292L743.637 514.72L743.99 514.367C744.166 514.191 744.408 514.011 744.64 514.242C744.919 514.521 744.744 514.741 744.533 514.953L744.201 515.284L744.209 515.292ZM744.94 514.02C744.569 513.649 744.195 513.699 743.793 514.1L743.152 514.742L744.999 516.589L745.274 516.314L744.485 515.526L744.746 515.265L745.972 515.616L746.282 515.306L744.998 514.967C745.221 514.682 745.28 514.36 744.94 514.02Z" fill="#1F3561"/>
</g>
</g>
</g>
<path d="M757.221 378.071C756.636 375.514 758.926 373.223 761.484 373.809L795.972 381.702C798.7 382.326 799.673 385.708 797.695 387.687L771.099 414.282C769.121 416.26 765.739 415.287 765.114 412.56L757.221 378.071Z" fill="white"/>
<g filter="url(#filter2_d_1_2195)">
<rect width="200.314" height="87.6864" rx="6.39508" transform="matrix(0.967066 0.254526 -0.263129 0.964761 708.489 45.014)" fill="white"/>
</g>
<g clip-path="url(#clip3_1_2195)">
<mask id="mask36_1_2195" style="mask-type:luminance" maskUnits="userSpaceOnUse" x="729" y="78" width="131" height="70">
<path d="M859.66 109.736L739.644 78.1479L729.364 115.839L849.38 147.427L859.66 109.736Z" fill="white"/>
</mask>
<g mask="url(#mask36_1_2195)">
<mask id="mask37_1_2195" style="mask-type:luminance" maskUnits="userSpaceOnUse" x="729" y="78" width="131" height="70">
<path d="M859.66 109.736L739.644 78.1479L729.364 115.839L849.38 147.427L859.66 109.736Z" fill="white"/>
</mask>
<g mask="url(#mask37_1_2195)">
<path d="M766.65 113.893C765.92 107.58 762.337 90.0887 761.379 87.1492C760.412 84.1817 758.532 83.1189 757.113 82.7456C753.272 81.7345 750.315 84.9662 750.055 85.2623C749.312 86.0756 734.703 102.026 732.719 105.133C730.569 108.509 731.344 111.773 731.416 112.072C731.496 112.407 732.663 116.707 737.413 117.957C737.605 118.008 737.806 118.052 738.007 118.097C741.794 118.839 746.105 116.498 748.201 115.142C750.235 119.899 753.25 121.778 755.513 122.501C758.176 123.354 760.385 122.833 760.594 122.787C760.731 122.755 762.367 122.329 763.908 121.065C765.408 119.857 767.086 117.62 766.65 113.893ZM749.282 111.645C748.197 109.079 746.652 104.502 747.386 101.812C748.501 97.7227 752.395 98.6968 752.555 98.7387C753.798 99.066 756.562 100.268 755.432 104.413C754.55 107.648 751.073 110.404 749.282 111.645ZM762.5 119.244C761.345 120.221 760.069 120.546 760.041 120.556C759.765 120.627 753.46 122.071 750.181 113.832C752.058 112.588 756.506 109.274 757.669 105.01C759.041 99.9797 756.094 97.288 753.153 96.5139C752.651 96.3818 750.874 96.0073 748.969 96.7269C747.638 97.2242 745.886 98.4163 745.118 101.232C744.085 105.021 746.333 110.776 747.296 112.979C745.662 114.084 741.646 116.469 738.46 115.842C734.618 115.085 733.705 111.666 733.668 111.52C733.664 111.502 733.662 111.51 733.666 111.494C733.642 111.395 733.037 108.947 734.68 106.369C736.188 104.003 746.516 92.5374 751.777 86.8092C751.787 86.8034 751.791 86.7875 751.801 86.7817C751.826 86.7543 753.968 84.317 756.495 84.982C757.738 85.3092 758.626 86.2805 759.15 87.8681C760.042 90.6122 763.616 108.042 764.329 114.164C764.584 116.3 763.964 118.01 762.5 119.244Z" fill="#E56069"/>
</g>
<mask id="mask38_1_2195" style="mask-type:luminance" maskUnits="userSpaceOnUse" x="729" y="78" width="131" height="70">
<path d="M859.66 109.736L739.644 78.1479L729.364 115.839L849.38 147.427L859.66 109.736Z" fill="white"/>
</mask>
<g mask="url(#mask38_1_2195)">
<path d="M789.69 105.741C789.68 105.746 788.978 105.595 788.793 106.242L788.685 106.637C788.685 106.637 788.341 104.987 785.496 104.238C782.651 103.489 777.651 104.378 776.192 109.725C774.734 115.072 778.997 118.356 781.277 118.956C783.556 119.556 784.443 119.06 785.461 118.429L785.325 118.928C785.156 119.578 785.838 119.8 785.838 119.8L788.779 120.574L792.615 106.51L789.69 105.741ZM782.763 115.761C780.667 115.209 779.153 113.149 779.874 110.507C780.594 107.865 783.474 107.267 785.132 107.703C786.789 108.139 787.787 109.962 787.787 109.962L786.357 115.206C786.349 115.204 784.851 116.31 782.763 115.761Z" fill="#E56069"/>
</g>
<mask id="mask39_1_2195" style="mask-type:luminance" maskUnits="userSpaceOnUse" x="729" y="78" width="131" height="70">
<path d="M859.66 109.736L739.644 78.1479L729.364 115.839L849.38 147.427L859.66 109.736Z" fill="white"/>
</mask>
<g mask="url(#mask39_1_2195)">
<path d="M798.465 108.05L794.934 107.121L791.098 121.185L794.629 122.114L798.465 108.05Z" fill="#E56069"/>
</g>
<mask id="mask40_1_2195" style="mask-type:luminance" maskUnits="userSpaceOnUse" x="729" y="78" width="131" height="70">
<path d="M859.66 109.736L739.644 78.1479L729.364 115.839L849.38 147.427L859.66 109.736Z" fill="white"/>
</mask>
<g mask="url(#mask40_1_2195)">
<path d="M803.969 110.762L804.103 110.272C804.272 109.621 803.589 109.399 803.589 109.399L803.584 109.389L800.651 108.617L796.815 122.681L799.756 123.455C799.756 123.455 800.46 123.598 800.645 122.951L803.139 113.807C803.139 113.807 804.985 112.267 808.312 113.974L809.218 110.651C809.218 110.651 806.235 109.001 803.969 110.762Z" fill="#E56069"/>
</g>
<mask id="mask41_1_2195" style="mask-type:luminance" maskUnits="userSpaceOnUse" x="729" y="78" width="131" height="70">
<path d="M859.66 109.736L739.644 78.1479L729.364 115.839L849.38 147.427L859.66 109.736Z" fill="white"/>
</mask>
<g mask="url(#mask41_1_2195)">
<path d="M818.008 112.812C815.848 112.243 813.961 113.4 813.961 113.4L816.101 105.553L812.459 104.595L806.805 125.327L809.746 126.101C809.746 126.101 810.45 126.244 810.635 125.597L810.77 125.099C810.77 125.099 811.855 127.012 813.982 127.572C816.11 128.132 821.73 127.916 823.271 122.268C824.811 116.62 820.16 113.378 818.008 112.812ZM814.291 124.092C812.418 123.599 811.651 121.872 811.651 121.872L813.081 116.627C813.081 116.627 814.848 115.566 816.657 116.042C818.466 116.519 820.349 118.481 819.617 121.162C818.886 123.844 816.172 124.587 814.291 124.092Z" fill="#E56069"/>
</g>
<mask id="mask42_1_2195" style="mask-type:luminance" maskUnits="userSpaceOnUse" x="729" y="78" width="131" height="70">
<path d="M859.66 109.736L739.644 78.1479L729.364 115.839L849.38 147.427L859.66 109.736Z" fill="white"/>
</mask>
<g mask="url(#mask42_1_2195)">
<path d="M848.771 120.909C846.612 120.34 844.725 121.497 844.725 121.497L846.865 113.65L843.222 112.691L837.568 133.423L840.509 134.197C840.509 134.197 841.213 134.34 841.398 133.694L841.534 133.196C841.534 133.196 842.618 135.109 844.746 135.669C846.874 136.229 852.494 136.012 854.034 130.365C855.574 124.717 850.923 121.475 848.771 120.909ZM845.054 132.189C843.181 131.696 842.414 129.968 842.414 129.968L843.844 124.724C843.844 124.724 845.611 123.663 847.421 124.139C849.23 124.615 851.112 126.577 850.381 129.259C849.649 131.94 846.927 132.682 845.054 132.189Z" fill="#E56069"/>
</g>
<mask id="mask43_1_2195" style="mask-type:luminance" maskUnits="userSpaceOnUse" x="729" y="78" width="131" height="70">
<path d="M859.66 109.736L739.644 78.1479L729.364 115.839L849.38 147.427L859.66 109.736Z" fill="white"/>
</mask>
<g mask="url(#mask43_1_2195)">
<path d="M838.221 123.575C839.084 120.411 836.793 117.756 834.011 117.024C831.23 116.292 829.741 117.587 829.741 117.587L829.883 117.065C830.052 116.414 829.369 116.192 829.369 116.192L829.364 116.182L826.71 115.484L822.874 129.548L826.516 130.506L829.198 120.674C829.767 120.247 830.922 119.644 832.564 120.076C834.955 120.706 834.377 123.199 834.377 123.199L831.989 131.955L835.679 132.926L838.229 123.577L838.221 123.575Z" fill="#E56069"/>
</g>
<mask id="mask44_1_2195" style="mask-type:luminance" maskUnits="userSpaceOnUse" x="729" y="78" width="131" height="70">
<path d="M859.66 109.736L739.644 78.1479L729.364 115.839L849.38 147.427L859.66 109.736Z" fill="white"/>
</mask>
<g mask="url(#mask44_1_2195)">
<path d="M800.276 103.949C799.915 105.27 798.538 106.06 797.207 105.71C795.876 105.36 795.086 103.999 795.446 102.678C795.806 101.357 797.183 100.566 798.514 100.916C799.853 101.269 800.636 102.628 800.276 103.949Z" fill="#E56069"/>
</g>
</g>
</g>
<path d="M721.734 169.131C720.146 170.475 717.711 169.834 717.02 167.89L702.735 127.709C701.938 125.467 704.004 123.236 706.315 123.845L753.422 136.243C755.732 136.851 756.387 139.797 754.555 141.347L721.734 169.131Z" fill="white"/>
<defs>
<filter id="filter0_d_1_2195" x="0.737662" y="125.967" width="263.889" height="263.889" filterUnits="userSpaceOnUse" color-interpolation-filters="sRGB">
<feFlood flood-opacity="0" result="BackgroundImageFix"/>
<feColorMatrix in="SourceAlpha" type="matrix" values="0 0 0 0 0 0 0 0 0 0 0 0 0 0 0 0 0 0 127 0" result="hardAlpha"/>
<feOffset dx="-6.61452" dy="6.61452"/>
<feGaussianBlur stdDeviation="16.5363"/>
<feComposite in2="hardAlpha" operator="out"/>
<feColorMatrix type="matrix" values="0 0 0 0 0 0 0 0 0 0 0 0 0 0 0 0 0 0 0.05 0"/>
<feBlend mode="normal" in2="BackgroundImageFix" result="effect1_dropShadow_1_2195"/>
<feBlend mode="normal" in="SourceGraphic" in2="effect1_dropShadow_1_2195" result="shape"/>
</filter>
<filter id="filter1_d_1_2195" x="103.845" y="394.429" width="301.958" height="257.127" filterUnits="userSpaceOnUse" color-interpolation-filters="sRGB">
<feFlood flood-opacity="0" result="BackgroundImageFix"/>
<feColorMatrix in="SourceAlpha" type="matrix" values="0 0 0 0 0 0 0 0 0 0 0 0 0 0 0 0 0 0 127 0" result="hardAlpha"/>
<feOffset dx="-8" dy="8"/>
<feGaussianBlur stdDeviation="20"/>
<feComposite in2="hardAlpha" operator="out"/>
<feColorMatrix type="matrix" values="0 0 0 0 0 0 0 0 0 0 0 0 0 0 0 0 0 0 0.05 0"/>
<feBlend mode="normal" in2="BackgroundImageFix" result="effect1_dropShadow_1_2195"/>
<feBlend mode="normal" in="SourceGraphic" in2="effect1_dropShadow_1_2195" result="shape"/>
</filter>
<filter id="filter2_d_1_2195" x="656.176" y="25.9648" width="265.038" height="183.912" filterUnits="userSpaceOnUse" color-interpolation-filters="sRGB">
<feFlood flood-opacity="0" result="BackgroundImageFix"/>
<feColorMatrix in="SourceAlpha" type="matrix" values="0 0 0 0 0 0 0 0 0 0 0 0 0 0 0 0 0 0 127 0" result="hardAlpha"/>
<feOffset dx="-5.11607" dy="5.11607"/>
<feGaussianBlur stdDeviation="12.7902"/>
<feComposite in2="hardAlpha" operator="out"/>
<feColorMatrix type="matrix" values="0 0 0 0 0 0 0 0 0 0 0 0 0 0 0 0 0 0 0.05 0"/>
<feBlend mode="normal" in2="BackgroundImageFix" result="effect1_dropShadow_1_2195"/>
<feBlend mode="normal" in="SourceGraphic" in2="effect1_dropShadow_1_2195" result="shape"/>
</filter>
<clipPath id="clip0_1_2195">
<rect width="178.49" height="47.145" fill="white" transform="translate(59.6408 297.65) rotate(-45)"/>
</clipPath>
<clipPath id="clip1_1_2195">
<rect width="218.449" height="94.8404" fill="white" transform="translate(190.42 416.385) rotate(30)"/>
</clipPath>
<clipPath id="clip2_1_2195">
<rect width="221.325" height="109.289" fill="white" transform="translate(654.161 514.661) rotate(-45)"/>
</clipPath>
<clipPath id="clip3_1_2195">
<rect width="182.954" height="81.989" fill="white" transform="matrix(0.967066 0.254526 -0.263129 0.964761 716.83 49.9572)"/>
</clipPath>
</defs>
</svg>
