<svg width="44" height="40" viewBox="0 0 44 40" fill="none" xmlns="http://www.w3.org/2000/svg">
<ellipse cx="21.5492" cy="20" rx="21.5492" ry="20" transform="matrix(-1 0 0 1 43.269 0)" fill="#FEFCFB"/>
<path d="M0.670727 20C0.670727 30.7351 10.059 39.5 21.7199 39.5C33.3808 39.5 42.769 30.7351 42.769 20C42.769 9.26492 33.3808 0.5 21.7199 0.5C10.059 0.5 0.670727 9.26492 0.670727 20Z" stroke="#999999" stroke-opacity="0.5"/>
<path d="M12.3929 20.7071C12.0024 20.3166 12.0024 19.6834 12.3929 19.2929L18.7569 12.9289C19.1474 12.5384 19.7806 12.5384 20.1711 12.9289C20.5616 13.3195 20.5616 13.9526 20.1711 14.3431L14.5142 20L20.1711 25.6569C20.5616 26.0474 20.5616 26.6805 20.1711 27.0711C19.7806 27.4616 19.1474 27.4616 18.7569 27.0711L12.3929 20.7071ZM30.3394 21H13.1V19H30.3394V21Z" fill="#999999" fill-opacity="0.5"/>
</svg>
