<svg width="650" height="369" viewBox="0 0 650 369" fill="none" xmlns="http://www.w3.org/2000/svg">
<mask id="mask0_1_700" style="mask-type:alpha" maskUnits="userSpaceOnUse" x="1" y="0" width="649" height="361">
<rect x="649.388" y="0.5" width="360" height="647.888" transform="rotate(90 649.388 0.5)" fill="url(#paint0_linear_1_700)" stroke="#6246E5"/>
</mask>
<g mask="url(#mask0_1_700)">
<path d="M176.734 465.189C129.78 465.189 87.2898 451.089 56.5504 428.318C25.8109 405.547 6.84774 374.129 6.84774 339.471C6.84774 304.812 25.8109 273.394 56.5504 250.623C87.2898 227.852 129.78 213.753 176.734 213.753C223.689 213.753 266.179 227.852 296.918 250.623C327.657 273.394 346.621 304.812 346.621 339.471C346.621 374.129 327.657 405.547 296.918 428.318C266.179 451.089 223.689 465.189 176.734 465.189Z" stroke="#E5E5E5"/>
<path d="M194.67 470.17C142.143 470.17 94.6091 454.398 60.2183 428.922C25.8275 403.446 4.60589 368.292 4.60589 329.505C4.60589 290.719 25.8275 255.565 60.2184 230.089C94.6091 204.613 142.143 188.841 194.67 188.841C247.196 188.841 294.73 204.613 329.121 230.089C363.512 255.565 384.733 290.719 384.733 329.505C384.733 368.292 363.512 403.446 329.121 428.922C294.73 454.398 247.196 470.17 194.67 470.17Z" stroke="#E5E5E5"/>
<path d="M209.242 475.153C151.763 475.153 99.7449 457.894 62.1085 430.014C24.4719 402.134 1.24288 363.658 1.24288 321.203C1.24288 278.748 24.472 240.271 62.1085 212.391C99.745 184.511 151.763 167.252 209.242 167.252C266.721 167.252 318.739 184.511 356.376 212.391C394.012 240.271 417.241 278.748 417.241 321.203C417.241 363.658 394.012 402.134 356.376 430.014C318.739 457.894 266.721 475.153 209.242 475.153Z" stroke="#E5E5E5"/>
<path d="M230.541 478.474C168.728 478.474 112.787 459.914 72.3104 429.93C31.8339 399.946 6.84832 358.564 6.84832 312.898C6.84832 267.233 31.8339 225.851 72.3105 195.867C112.787 165.883 168.728 147.322 230.541 147.322C292.354 147.322 348.295 165.883 388.772 195.867C429.248 225.851 454.234 267.233 454.234 312.898C454.234 358.564 429.248 399.946 388.771 429.93C348.295 459.914 292.354 478.474 230.541 478.474Z" stroke="#E5E5E5"/>
<path d="M251.279 481.796C185.287 481.796 125.562 461.981 82.3474 429.968C39.1323 397.956 12.4529 353.771 12.4529 305.01C12.4529 256.249 39.1323 212.064 82.3474 180.051C125.562 148.039 185.287 128.224 251.279 128.224C317.27 128.224 376.995 148.039 420.21 180.051C463.425 212.064 490.104 256.249 490.104 305.01C490.104 353.771 463.425 397.956 420.21 429.968C376.995 461.981 317.27 481.796 251.279 481.796Z" stroke="#E5E5E5"/>
<path d="M274.819 485.948C202.327 485.948 136.717 464.181 89.242 429.013C41.7671 393.845 12.4528 345.3 12.4528 291.724C12.4528 238.148 41.7671 189.603 89.2421 154.435C136.717 119.267 202.327 97.5 274.819 97.5C347.311 97.5 412.92 119.267 460.395 154.435C507.87 189.603 537.185 238.148 537.185 291.724C537.185 345.3 507.87 393.845 460.395 429.013C412.92 464.181 347.311 485.948 274.819 485.948Z" stroke="#E5E5E5"/>
</g>
<defs>
<linearGradient id="paint0_linear_1_700" x1="905.924" y1="18.2053" x2="521.403" y2="557.232" gradientUnits="userSpaceOnUse">
<stop stop-color="#747DEF"/>
<stop offset="1" stop-color="#5E3BE1"/>
</linearGradient>
</defs>
</svg>
