<svg width="276" height="187" viewBox="0 0 276 187" fill="none" xmlns="http://www.w3.org/2000/svg">
<rect width="276" height="187" fill="#F5F5F5"/>
<g clip-path="url(#clip0_0_1)">
<rect width="1920" height="10027" transform="translate(-766 -3357)" fill="#FEFCFB"/>
<g filter="url(#filter0_d_0_1)">
<rect x="-550.591" y="-54" width="470.526" height="450.614" rx="16" fill="white"/>
<rect x="-549.591" y="-53" width="468.526" height="448.614" rx="15" stroke="white" stroke-width="2"/>
</g>
<g filter="url(#filter1_d_0_1)">
<rect x="-41.0586" y="-54" width="470.526" height="450.614" rx="16" fill="white"/>
<rect x="-40.0586" y="-53" width="468.526" height="448.614" rx="15" stroke="white" stroke-width="2"/>
</g>
<path d="M274.549 27.4164V176.005C274.549 178.363 273.612 180.624 271.945 182.291C270.278 183.958 268.016 184.895 265.659 184.895H10.2905C7.93273 184.895 5.67148 183.958 4.00425 182.291C2.33703 180.624 1.40039 178.363 1.40039 176.005V14.2769C1.40039 10.9404 2.72582 7.74052 5.0851 5.38124C7.44439 3.02196 10.6443 1.69653 13.9808 1.69653H113.813C116.922 1.71334 119.913 2.8897 122.2 4.99539L136.905 18.4704H265.645C266.818 18.4685 267.98 18.6989 269.064 19.1484C270.148 19.5978 271.132 20.2574 271.96 21.089C272.788 21.9207 273.443 22.9079 273.887 23.9939C274.331 25.0799 274.556 26.2431 274.549 27.4164Z" fill="#F7F7F7"/>
<path d="M265.656 186.293H10.288C7.56057 186.289 4.94593 185.204 3.01736 183.276C1.08879 181.347 0.00369818 178.732 0 176.005V14.277C0 10.5698 1.4727 7.01439 4.09412 4.39296C6.71555 1.77154 10.271 0.29884 13.9782 0.29884H113.811C117.295 0.294233 120.654 1.60173 123.218 3.96113L137.518 17.0727H265.712C268.439 17.0764 271.054 18.1615 272.983 20.0901C274.911 22.0186 275.996 24.6333 276 27.3607V175.949C276.005 177.309 275.742 178.657 275.224 179.914C274.706 181.171 273.944 182.314 272.983 183.276C272.021 184.237 270.879 184.999 269.621 185.517C268.364 186.035 267.016 186.298 265.656 186.293ZM13.9223 3.1504C10.9565 3.1504 8.11217 4.32856 6.01503 6.4257C3.91789 8.52283 2.73973 11.3672 2.73973 14.333V176.061C2.73973 177.045 2.93353 178.019 3.31006 178.928C3.68658 179.837 4.23845 180.663 4.93418 181.359C5.62991 182.054 6.45586 182.606 7.36487 182.983C8.27388 183.359 9.24815 183.553 10.2321 183.553H265.656C266.64 183.553 267.614 183.359 268.523 182.983C269.432 182.606 270.258 182.054 270.954 181.359C271.65 180.663 272.202 179.837 272.578 178.928C272.955 178.019 273.148 177.045 273.148 176.061V27.4166C273.148 26.4327 272.955 25.4584 272.578 24.5494C272.202 23.6404 271.65 22.8144 270.954 22.1187C270.258 21.423 269.432 20.8711 268.523 20.4946C267.614 20.118 266.64 19.9242 265.656 19.9242H136.917C136.565 19.9268 136.226 19.7971 135.966 19.5608L121.261 6.08582C119.222 4.19057 116.539 3.14125 113.755 3.1504H13.9223Z" fill="#D0CDE1"/>
<path d="M89.093 145.504H35.9758C35.2344 145.504 34.5233 145.209 33.999 144.685C33.4747 144.161 33.1802 143.449 33.1802 142.708V93.7424L46.1659 79.7642H89.0791C89.8205 79.7642 90.5316 80.0587 91.0559 80.583C91.5802 81.1073 91.8747 81.8184 91.8747 82.5598V142.806C91.8494 143.528 91.5457 144.212 91.0271 144.715C90.5086 145.218 89.8154 145.501 89.093 145.504Z" fill="#778AD1"/>
<path d="M89.0997 146.902H35.9825C34.8704 146.902 33.8037 146.46 33.0173 145.673C32.2309 144.887 31.7891 143.82 31.7891 142.708V93.7425C31.7903 93.3893 31.9251 93.0497 32.1665 92.7919L45.1522 78.8137C45.2826 78.6732 45.4404 78.561 45.6159 78.484C45.7915 78.4071 45.981 78.3671 46.1726 78.3665H89.0858C90.1979 78.3665 91.2646 78.8083 92.051 79.5947C92.8374 80.3811 93.2792 81.4477 93.2792 82.5599V142.806C93.2537 143.899 92.8026 144.938 92.0219 145.703C91.2412 146.468 90.1927 146.898 89.0997 146.902ZM34.5847 94.3016V142.764C34.5847 143.135 34.732 143.49 34.9941 143.752C35.2563 144.015 35.6118 144.162 35.9825 144.162H89.0997C89.4704 144.162 89.826 144.015 90.0881 143.752C90.3503 143.49 90.4975 143.135 90.4975 142.764V82.518C90.4975 82.1473 90.3503 81.7917 90.0881 81.5296C89.826 81.2674 89.4704 81.1202 89.0997 81.1202H46.8017L34.5847 94.3016Z" fill="#778AD1"/>
<path d="M33.2014 93.7431H45.9915V79.7788L33.2014 93.7431Z" fill="#F7F7F7"/>
<path d="M45.9888 95.1401H33.1987C32.9298 95.1395 32.6668 95.0614 32.4412 94.9151C32.2156 94.7688 32.037 94.5606 31.9267 94.3154C31.8155 94.0678 31.7788 93.7932 31.821 93.5252C31.8632 93.2571 31.9825 93.0071 32.1643 92.8057L44.9684 78.8275C45.1597 78.6231 45.408 78.4809 45.6811 78.4193C45.9542 78.3577 46.2396 78.3795 46.5001 78.4819C46.7607 78.5843 46.9845 78.7626 47.1426 78.9937C47.3006 79.2248 47.3856 79.498 47.3866 79.778V93.7562C47.3829 94.1245 47.234 94.4765 46.9723 94.7356C46.7105 94.9947 46.3571 95.1401 45.9888 95.1401ZM36.3718 92.3444H44.591V83.3704L36.3718 92.3444Z" fill="#093F68"/>
<path d="M81.2169 105.569H44.2306C43.8599 105.569 43.5043 105.421 43.2422 105.159C42.98 104.897 42.8328 104.541 42.8328 104.171C42.8328 103.8 42.98 103.445 43.2422 103.182C43.5043 102.92 43.8599 102.773 44.2306 102.773H81.2169C81.5876 102.773 81.9432 102.92 82.2053 103.182C82.4675 103.445 82.6147 103.8 82.6147 104.171C82.6147 104.541 82.4675 104.897 82.2053 105.159C81.9432 105.421 81.5876 105.569 81.2169 105.569Z" fill="white"/>
<path d="M81.2169 114.668H44.2306C43.8599 114.668 43.5043 114.521 43.2422 114.259C42.98 113.996 42.8328 113.641 42.8328 113.27C42.8328 112.899 42.98 112.544 43.2422 112.282C43.5043 112.02 43.8599 111.872 44.2306 111.872H81.2169C81.5876 111.872 81.9432 112.02 82.2053 112.282C82.4675 112.544 82.6147 112.899 82.6147 113.27C82.6147 113.641 82.4675 113.996 82.2053 114.259C81.9432 114.521 81.5876 114.668 81.2169 114.668Z" fill="white"/>
<path d="M81.2169 123.77H44.2306C43.8599 123.77 43.5043 123.622 43.2422 123.36C42.98 123.098 42.8328 122.742 42.8328 122.372C42.8328 122.001 42.98 121.645 43.2422 121.383C43.5043 121.121 43.8599 120.974 44.2306 120.974H81.2169C81.5876 120.974 81.9432 121.121 82.2053 121.383C82.4675 121.645 82.6147 122.001 82.6147 122.372C82.6147 122.742 82.4675 123.098 82.2053 123.36C81.9432 123.622 81.5876 123.77 81.2169 123.77Z" fill="white"/>
<path d="M70.5935 132.869H44.2306C43.8599 132.869 43.5043 132.722 43.2422 132.459C42.98 132.197 42.8328 131.842 42.8328 131.471C42.8328 131.1 42.98 130.745 43.2422 130.483C43.5043 130.221 43.8599 130.073 44.2306 130.073H70.5935C70.9642 130.073 71.3197 130.221 71.5819 130.483C71.844 130.745 71.9913 131.1 71.9913 131.471C71.9913 131.842 71.844 132.197 71.5819 132.459C71.3197 132.722 70.9642 132.869 70.5935 132.869Z" fill="white"/>
<path d="M82.0076 135.97H28.8904C28.1489 135.97 27.4378 135.676 26.9135 135.151C26.3893 134.627 26.0947 133.916 26.0947 133.175V84.2089L39.0945 70.2307H81.9936C82.7351 70.2307 83.4462 70.5252 83.9704 71.0495C84.4947 71.5738 84.7893 72.2849 84.7893 73.0263V133.272C84.764 133.994 84.4602 134.679 83.9417 135.181C83.4231 135.684 82.73 135.967 82.0076 135.97Z" fill="#778AD1"/>
<path d="M82.0143 137.368H28.8971C27.7849 137.368 26.7183 136.926 25.9318 136.14C25.1454 135.353 24.7036 134.287 24.7036 133.175V84.2091C24.7048 83.8559 24.8397 83.5163 25.081 83.2585L38.0668 69.2803C38.1987 69.1381 38.3588 69.0248 38.5369 68.9478C38.715 68.8708 38.9072 68.8317 39.1012 68.833H82.0003C83.1125 68.833 84.1791 69.2748 84.9655 70.0613C85.7519 70.8477 86.1938 71.9143 86.1938 73.0265V133.273C86.1683 134.365 85.7171 135.405 84.9365 136.17C84.1558 136.935 83.1073 137.365 82.0143 137.368ZM27.4993 84.7682V133.231C27.4993 133.601 27.6465 133.957 27.9087 134.219C28.1708 134.481 28.5264 134.628 28.8971 134.628H82.0143C82.385 134.628 82.7405 134.481 83.0027 134.219C83.2648 133.957 83.4121 133.601 83.4121 133.231V72.9846C83.4121 72.6138 83.2648 72.2583 83.0027 71.9961C82.7405 71.734 82.385 71.5867 82.0143 71.5867H39.7162L27.4993 84.7682Z" fill="#D0CDE1"/>
<path d="M26.1162 84.2096H38.9063V70.2454L26.1162 84.2096Z" fill="#F7F7F7"/>
<path d="M38.9152 85.6086H26.1111C25.8422 85.6053 25.58 85.5245 25.3558 85.3759C25.1317 85.2273 24.9552 85.0172 24.8475 84.7708C24.7398 84.5244 24.7054 84.2521 24.7486 83.9867C24.7917 83.7213 24.9105 83.4739 25.0907 83.2743L37.8808 69.2961C38.0711 69.0866 38.3206 68.9399 38.5961 68.8753C38.8717 68.8107 39.1604 68.8313 39.424 68.9343C39.6876 69.0373 39.9137 69.2179 40.0725 69.4522C40.2312 69.6866 40.3151 69.9636 40.313 70.2466V84.2248C40.3093 84.5931 40.1604 84.9451 39.8987 85.2042C39.6369 85.4633 39.2835 85.6086 38.9152 85.6086ZM29.2981 82.813H37.5173V73.839L29.2981 82.813Z" fill="#093F68"/>
<path d="M74.1225 96.0351H37.1361C36.7654 96.0351 36.4098 95.8879 36.1477 95.6257C35.8856 95.3636 35.7383 95.0081 35.7383 94.6373C35.7383 94.2666 35.8856 93.9111 36.1477 93.6489C36.4098 93.3868 36.7654 93.2395 37.1361 93.2395H74.1225C74.4932 93.2395 74.8487 93.3868 75.1109 93.6489C75.373 93.9111 75.5203 94.2666 75.5203 94.6373C75.5203 95.0081 75.373 95.3636 75.1109 95.6257C74.8487 95.8879 74.4932 96.0351 74.1225 96.0351Z" fill="white"/>
<path d="M74.1225 105.135H37.1361C36.7654 105.135 36.4098 104.987 36.1477 104.725C35.8856 104.463 35.7383 104.107 35.7383 103.737C35.7383 103.366 35.8856 103.01 36.1477 102.748C36.4098 102.486 36.7654 102.339 37.1361 102.339H74.1225C74.4932 102.339 74.8487 102.486 75.1109 102.748C75.373 103.01 75.5203 103.366 75.5203 103.737C75.5203 104.107 75.373 104.463 75.1109 104.725C74.8487 104.987 74.4932 105.135 74.1225 105.135Z" fill="white"/>
<path d="M74.1225 114.291H37.1361C36.7654 114.291 36.4098 114.144 36.1477 113.882C35.8856 113.62 35.7383 113.264 35.7383 112.893C35.7383 112.523 35.8856 112.167 36.1477 111.905C36.4098 111.643 36.7654 111.496 37.1361 111.496H74.1225C74.4932 111.496 74.8487 111.643 75.1109 111.905C75.373 112.167 75.5203 112.523 75.5203 112.893C75.5203 113.264 75.373 113.62 75.1109 113.882C74.8487 114.144 74.4932 114.291 74.1225 114.291Z" fill="white"/>
<path d="M63.499 123.336H37.1361C36.7654 123.336 36.4098 123.188 36.1477 122.926C35.8856 122.664 35.7383 122.309 35.7383 121.938C35.7383 121.567 35.8856 121.212 36.1477 120.949C36.4098 120.687 36.7654 120.54 37.1361 120.54H63.499C63.8697 120.54 64.2253 120.687 64.4874 120.949C64.7495 121.212 64.8968 121.567 64.8968 121.938C64.8968 122.309 64.7495 122.664 64.4874 122.926C64.2253 123.188 63.8697 123.336 63.499 123.336Z" fill="white"/>
<path d="M74.9344 126.437H21.8171C21.0757 126.437 20.3646 126.142 19.8403 125.618C19.316 125.094 19.0215 124.383 19.0215 123.641V74.6757L32.0073 60.6975H74.9204C75.6618 60.6975 76.3729 60.992 76.8972 61.5163C77.4215 62.0406 77.716 62.7517 77.716 63.4932V123.739C77.6908 124.461 77.387 125.145 76.8684 125.648C76.3499 126.151 75.6568 126.434 74.9344 126.437Z" fill="white"/>
<path d="M74.9411 127.835H21.8239C20.7117 127.835 19.6451 127.393 18.8586 126.606C18.0722 125.82 17.6304 124.753 17.6304 123.641V74.6756C17.6278 74.3243 17.7576 73.985 17.9938 73.7251L30.9936 59.7469C31.1239 59.6063 31.2817 59.4941 31.4573 59.4171C31.6328 59.3402 31.8223 59.3002 32.014 59.2996H74.9271C76.0393 59.2996 77.1059 59.7414 77.8923 60.5278C78.6787 61.3142 79.1206 62.3808 79.1206 63.493V123.739C79.0951 124.832 78.6439 125.871 77.8633 126.636C77.0826 127.401 76.0341 127.831 74.9411 127.835ZM20.4261 75.2347V123.697C20.4261 124.068 20.5733 124.423 20.8355 124.686C21.0976 124.948 21.4531 125.095 21.8239 125.095H74.9411C75.3118 125.095 75.6674 124.948 75.9295 124.686C76.1916 124.423 76.3389 124.068 76.3389 123.697V63.4511C76.3389 63.0804 76.1916 62.7248 75.9295 62.4627C75.6674 62.2005 75.3118 62.0533 74.9411 62.0533H32.629L20.4261 75.2347Z" fill="#D0CDE1"/>
<path d="M19.0427 74.6762H31.8328V60.7119L19.0427 74.6762Z" fill="#68E1FD"/>
<path d="M31.8298 76.074H19.0398C18.7697 76.0734 18.5056 75.9945 18.2794 75.8469C18.0532 75.6994 17.8745 75.4894 17.7651 75.2425C17.6557 74.9956 17.6202 74.7222 17.6628 74.4555C17.7054 74.1888 17.8244 73.9402 18.0054 73.7397L30.7954 59.7614C30.9868 59.5552 31.236 59.4116 31.5103 59.3492C31.7846 59.2869 32.0714 59.3087 32.3331 59.412C32.5958 59.5134 32.8217 59.6917 32.9813 59.9237C33.141 60.1556 33.2268 60.4304 33.2277 60.712V74.6902C33.224 75.0585 33.0751 75.4104 32.8133 75.6696C32.5516 75.9287 32.1982 76.0741 31.8298 76.074ZM22.2128 73.2784H30.432V64.3044L22.2128 73.2784Z" fill="#778AD1"/>
<path d="M67.051 86.5017H30.0507C29.6799 86.5017 29.3244 86.3544 29.0622 86.0923C28.8001 85.8301 28.6528 85.4746 28.6528 85.1039C28.6528 84.7332 28.8001 84.3776 29.0622 84.1155C29.3244 83.8533 29.6799 83.7061 30.0507 83.7061H67.051C67.4217 83.7061 67.7773 83.8533 68.0394 84.1155C68.3015 84.3776 68.4488 84.7332 68.4488 85.1039C68.4488 85.4746 68.3015 85.8301 68.0394 86.0923C67.7773 86.3544 67.4217 86.5017 67.051 86.5017Z" fill="#DFEAEF"/>
<path d="M67.051 95.6035H30.0507C29.6799 95.6035 29.3244 95.4562 29.0622 95.1941C28.8001 94.932 28.6528 94.5764 28.6528 94.2057C28.6528 93.835 28.8001 93.4794 29.0622 93.2173C29.3244 92.9551 29.6799 92.8079 30.0507 92.8079H67.051C67.4217 92.8079 67.7773 92.9551 68.0394 93.2173C68.3015 93.4794 68.4488 93.835 68.4488 94.2057C68.4488 94.5764 68.3015 94.932 68.0394 95.1941C67.7773 95.4562 67.4217 95.6035 67.051 95.6035Z" fill="#DFEAEF"/>
<path d="M67.051 104.703H30.0507C29.6799 104.703 29.3244 104.556 29.0622 104.293C28.8001 104.031 28.6528 103.676 28.6528 103.305C28.6528 102.934 28.8001 102.579 29.0622 102.317C29.3244 102.054 29.6799 101.907 30.0507 101.907H67.051C67.4217 101.907 67.7773 102.054 68.0394 102.317C68.3015 102.579 68.4488 102.934 68.4488 103.305C68.4488 103.676 68.3015 104.031 68.0394 104.293C67.7773 104.556 67.4217 104.703 67.051 104.703Z" fill="#DFEAEF"/>
<path d="M56.4136 113.802H30.0507C29.6799 113.802 29.3244 113.655 29.0622 113.393C28.8001 113.131 28.6528 112.775 28.6528 112.404C28.6528 112.034 28.8001 111.678 29.0622 111.416C29.3244 111.154 29.6799 111.007 30.0507 111.007H56.4136C56.7843 111.007 57.1398 111.154 57.402 111.416C57.6641 111.678 57.8114 112.034 57.8114 112.404C57.8114 112.775 57.6641 113.131 57.402 113.393C57.1398 113.655 56.7843 113.802 56.4136 113.802Z" fill="#DFEAEF"/>
<path d="M172.074 145.504H118.956C118.215 145.504 117.504 145.209 116.979 144.685C116.455 144.161 116.161 143.449 116.161 142.708V93.7424L129.146 79.7642H172.06C172.801 79.7642 173.512 80.0587 174.036 80.583C174.561 81.1073 174.855 81.8184 174.855 82.5598V142.806C174.83 143.528 174.526 144.212 174.008 144.715C173.489 145.218 172.796 145.501 172.074 145.504Z" fill="#FF835B"/>
<path d="M172.071 146.902H118.953C117.841 146.902 116.775 146.46 115.988 145.673C115.202 144.887 114.76 143.82 114.76 142.708V93.7425C114.761 93.3893 114.896 93.0497 115.137 92.7919L128.123 78.8137C128.254 78.6732 128.411 78.561 128.587 78.484C128.762 78.4071 128.952 78.3671 129.144 78.3665H172.057C173.169 78.3665 174.236 78.8083 175.022 79.5947C175.808 80.3811 176.25 81.4477 176.25 82.5599V142.806C176.225 143.899 175.774 144.938 174.993 145.703C174.212 146.468 173.164 146.898 172.071 146.902ZM117.556 94.3016V142.764C117.556 143.135 117.703 143.49 117.965 143.752C118.227 144.015 118.583 144.162 118.953 144.162H172.071C172.441 144.162 172.797 144.015 173.059 143.752C173.321 143.49 173.468 143.135 173.468 142.764V82.518C173.468 82.1473 173.321 81.7917 173.059 81.5296C172.797 81.2674 172.441 81.1202 172.071 81.1202H129.773L117.556 94.3016Z" fill="#778AD1"/>
<path d="M116.173 93.7431H128.963V79.7788L116.173 93.7431Z" fill="#F7F7F7"/>
<path d="M128.967 95.1401H116.177C115.908 95.1368 115.646 95.0559 115.422 94.9073C115.198 94.7587 115.021 94.5486 114.913 94.3022C114.806 94.0558 114.771 93.7836 114.814 93.5181C114.858 93.2527 114.976 93.0053 115.157 92.8057L127.947 78.8275C128.138 78.6231 128.386 78.4809 128.659 78.4193C128.933 78.3577 129.218 78.3795 129.478 78.4819C129.739 78.5843 129.963 78.7626 130.121 78.9937C130.279 79.2248 130.364 79.498 130.365 79.778V93.7562C130.361 94.1245 130.212 94.4765 129.951 94.7356C129.689 94.9947 129.335 95.1401 128.967 95.1401ZM119.35 92.3444H127.569V83.3704L119.35 92.3444Z" fill="#093F68"/>
<path d="M164.188 105.569H127.202C126.831 105.569 126.476 105.421 126.214 105.159C125.951 104.897 125.804 104.541 125.804 104.171C125.804 103.8 125.951 103.445 126.214 103.182C126.476 102.92 126.831 102.773 127.202 102.773H164.188C164.559 102.773 164.915 102.92 165.177 103.182C165.439 103.445 165.586 103.8 165.586 104.171C165.586 104.541 165.439 104.897 165.177 105.159C164.915 105.421 164.559 105.569 164.188 105.569Z" fill="white"/>
<path d="M164.188 114.668H127.202C126.831 114.668 126.476 114.521 126.214 114.259C125.951 113.996 125.804 113.641 125.804 113.27C125.804 112.899 125.951 112.544 126.214 112.282C126.476 112.02 126.831 111.872 127.202 111.872H164.188C164.559 111.872 164.915 112.02 165.177 112.282C165.439 112.544 165.586 112.899 165.586 113.27C165.586 113.641 165.439 113.996 165.177 114.259C164.915 114.521 164.559 114.668 164.188 114.668Z" fill="white"/>
<path d="M164.188 123.77H127.202C126.831 123.77 126.476 123.622 126.214 123.36C125.951 123.098 125.804 122.742 125.804 122.372C125.804 122.001 125.951 121.645 126.214 121.383C126.476 121.121 126.831 120.974 127.202 120.974H164.188C164.559 120.974 164.915 121.121 165.177 121.383C165.439 121.645 165.586 122.001 165.586 122.372C165.586 122.742 165.439 123.098 165.177 123.36C164.915 123.622 164.559 123.77 164.188 123.77Z" fill="white"/>
<path d="M153.565 132.869H127.202C126.831 132.869 126.476 132.722 126.214 132.459C125.951 132.197 125.804 131.842 125.804 131.471C125.804 131.1 125.951 130.745 126.214 130.483C126.476 130.221 126.831 130.073 127.202 130.073H153.565C153.936 130.073 154.291 130.221 154.553 130.483C154.815 130.745 154.963 131.1 154.963 131.471C154.963 131.842 154.815 132.197 154.553 132.459C154.291 132.722 153.936 132.869 153.565 132.869Z" fill="white"/>
<path d="M164.988 135.97H111.871C111.129 135.97 110.418 135.676 109.894 135.151C109.37 134.627 109.075 133.916 109.075 133.175V84.2089L122.075 70.2307H164.974C165.716 70.2307 166.427 70.5252 166.951 71.0495C167.475 71.5738 167.77 72.2849 167.77 73.0263V133.272C167.744 133.994 167.441 134.679 166.922 135.181C166.404 135.684 165.71 135.967 164.988 135.97Z" fill="#FF835B"/>
<path d="M164.986 137.368H111.868C110.756 137.368 109.69 136.926 108.903 136.14C108.117 135.353 107.675 134.287 107.675 133.175V84.2091C107.672 83.8578 107.802 83.5185 108.038 83.2585L121.024 69.2803C121.156 69.1381 121.316 69.0248 121.494 68.9478C121.672 68.8708 121.864 68.8317 122.058 68.833H164.958C166.07 68.833 167.136 69.2748 167.923 70.0613C168.709 70.8477 169.151 71.9143 169.151 73.0265V133.273C169.126 134.363 168.676 135.4 167.899 136.165C167.121 136.93 166.076 137.361 164.986 137.368ZM110.47 84.7682V133.231C110.47 133.601 110.618 133.957 110.88 134.219C111.142 134.481 111.498 134.628 111.868 134.628H164.986C165.356 134.628 165.712 134.481 165.974 134.219C166.236 133.957 166.383 133.601 166.383 133.231V72.9846C166.383 72.6138 166.236 72.2583 165.974 71.9961C165.712 71.734 165.356 71.5867 164.986 71.5867H122.687L110.47 84.7682Z" fill="#778AD1"/>
<path d="M109.087 84.2096H121.891V70.2454L109.087 84.2096Z" fill="#F7F7F7"/>
<path d="M121.886 85.6086H109.096C108.826 85.608 108.562 85.5291 108.336 85.3816C108.11 85.234 107.931 85.024 107.822 84.7771C107.712 84.5302 107.677 84.2568 107.719 83.9901C107.762 83.7234 107.881 83.4748 108.062 83.2743L120.852 69.2961C121.042 69.0866 121.292 68.9399 121.567 68.8753C121.843 68.8107 122.131 68.8313 122.395 68.9343C122.659 69.0373 122.885 69.2179 123.044 69.4522C123.202 69.6866 123.286 69.9636 123.284 70.2466V84.2248C123.28 84.5931 123.131 84.9451 122.87 85.2042C122.608 85.4633 122.255 85.6086 121.886 85.6086ZM112.269 82.813H120.488V73.839L112.269 82.813Z" fill="#093F68"/>
<path d="M157.103 96.0351H120.117C119.746 96.0351 119.39 95.8879 119.128 95.6257C118.866 95.3636 118.719 95.0081 118.719 94.6373C118.719 94.2666 118.866 93.9111 119.128 93.6489C119.39 93.3868 119.746 93.2395 120.117 93.2395H157.103C157.474 93.2395 157.829 93.3868 158.091 93.6489C158.353 93.9111 158.501 94.2666 158.501 94.6373C158.501 95.0081 158.353 95.3636 158.091 95.6257C157.829 95.8879 157.474 96.0351 157.103 96.0351Z" fill="white"/>
<path d="M157.103 105.135H120.117C119.746 105.135 119.39 104.987 119.128 104.725C118.866 104.463 118.719 104.107 118.719 103.737C118.719 103.366 118.866 103.01 119.128 102.748C119.39 102.486 119.746 102.339 120.117 102.339H157.103C157.474 102.339 157.829 102.486 158.091 102.748C158.353 103.01 158.501 103.366 158.501 103.737C158.501 104.107 158.353 104.463 158.091 104.725C157.829 104.987 157.474 105.135 157.103 105.135Z" fill="white"/>
<path d="M157.103 114.291H120.117C119.746 114.291 119.39 114.144 119.128 113.882C118.866 113.62 118.719 113.264 118.719 112.893C118.719 112.523 118.866 112.167 119.128 111.905C119.39 111.643 119.746 111.496 120.117 111.496H157.103C157.474 111.496 157.829 111.643 158.091 111.905C158.353 112.167 158.501 112.523 158.501 112.893C158.501 113.264 158.353 113.62 158.091 113.882C157.829 114.144 157.474 114.291 157.103 114.291Z" fill="white"/>
<path d="M146.479 123.336H120.117C119.746 123.336 119.39 123.188 119.128 122.926C118.866 122.664 118.719 122.309 118.719 121.938C118.719 121.567 118.866 121.212 119.128 120.949C119.39 120.687 119.746 120.54 120.117 120.54H146.479C146.85 120.54 147.206 120.687 147.468 120.949C147.73 121.212 147.877 121.567 147.877 121.938C147.877 122.309 147.73 122.664 147.468 122.926C147.206 123.188 146.85 123.336 146.479 123.336Z" fill="white"/>
<path d="M157.915 126.437H104.797C104.056 126.437 103.345 126.142 102.821 125.618C102.296 125.094 102.002 124.383 102.002 123.641V74.6757L114.987 60.6975H157.901C158.642 60.6975 159.353 60.992 159.877 61.5163C160.402 62.0406 160.696 62.7517 160.696 63.4932V123.739C160.671 124.461 160.367 125.145 159.849 125.648C159.33 126.151 158.637 126.434 157.915 126.437Z" fill="white"/>
<path d="M157.912 127.836H104.795C103.683 127.836 102.616 127.394 101.83 126.607C101.043 125.821 100.602 124.754 100.602 123.642V74.6765C100.617 74.3292 100.762 74.0003 101.007 73.7539L114.007 59.7757C114.137 59.6351 114.295 59.5229 114.47 59.446C114.646 59.369 114.835 59.329 115.027 59.3284H157.94C159.052 59.3284 160.119 59.7702 160.905 60.5566C161.692 61.343 162.134 62.4097 162.134 63.5218V123.768C162.101 124.863 161.641 125.902 160.852 126.662C160.063 127.422 159.008 127.843 157.912 127.836ZM103.397 75.2356V123.698C103.397 124.069 103.544 124.424 103.807 124.686C104.069 124.949 104.424 125.096 104.795 125.096H157.912C158.283 125.096 158.639 124.949 158.901 124.686C159.163 124.424 159.31 124.069 159.31 123.698V63.4519C159.31 63.0812 159.163 62.7257 158.901 62.4635C158.639 62.2014 158.283 62.0541 157.912 62.0541H115.6L103.397 75.2356Z" fill="#093F68"/>
<path d="M102.014 74.6762H114.804V60.7119L102.014 74.6762Z" fill="#778AD1"/>
<path d="M114.805 76.0742H102.015C101.75 76.066 101.492 75.9826 101.273 75.8337C101.053 75.6848 100.881 75.4766 100.775 75.2333C100.67 74.99 100.636 74.7217 100.677 74.4597C100.718 74.1978 100.833 73.9529 101.008 73.7538L113.798 59.7756C113.99 59.5694 114.239 59.4257 114.513 59.3634C114.787 59.301 115.074 59.3229 115.336 59.4261C115.599 59.5275 115.825 59.7059 115.984 59.9378C116.144 60.1698 116.23 60.4445 116.23 60.7261V74.7043C116.227 74.8879 116.187 75.069 116.113 75.2372C116.04 75.4054 115.934 75.5574 115.801 75.6846C115.669 75.8119 115.513 75.9117 115.342 75.9786C115.171 76.0454 114.988 76.0779 114.805 76.0742ZM105.188 73.2786H113.407V64.3045L105.188 73.2786Z" fill="#093F68"/>
<path d="M150.032 86.5017H113.031C112.661 86.5017 112.305 86.3544 112.043 86.0923C111.781 85.8301 111.634 85.4746 111.634 85.1039C111.634 84.7332 111.781 84.3776 112.043 84.1155C112.305 83.8533 112.661 83.7061 113.031 83.7061H150.032C150.402 83.7061 150.758 83.8533 151.02 84.1155C151.282 84.3776 151.43 84.7332 151.43 85.1039C151.43 85.4746 151.282 85.8301 151.02 86.0923C150.758 86.3544 150.402 86.5017 150.032 86.5017Z" fill="#DFEAEF"/>
<path d="M150.032 95.6035H113.031C112.661 95.6035 112.305 95.4562 112.043 95.1941C111.781 94.932 111.634 94.5764 111.634 94.2057C111.634 93.835 111.781 93.4794 112.043 93.2173C112.305 92.9551 112.661 92.8079 113.031 92.8079H150.032C150.402 92.8079 150.758 92.9551 151.02 93.2173C151.282 93.4794 151.43 93.835 151.43 94.2057C151.43 94.5764 151.282 94.932 151.02 95.1941C150.758 95.4562 150.402 95.6035 150.032 95.6035Z" fill="#DFEAEF"/>
<path d="M150.032 104.703H113.031C112.661 104.703 112.305 104.556 112.043 104.293C111.781 104.031 111.634 103.676 111.634 103.305C111.634 102.934 111.781 102.579 112.043 102.317C112.305 102.054 112.661 101.907 113.031 101.907H150.032C150.402 101.907 150.758 102.054 151.02 102.317C151.282 102.579 151.43 102.934 151.43 103.305C151.43 103.676 151.282 104.031 151.02 104.293C150.758 104.556 150.402 104.703 150.032 104.703Z" fill="#DFEAEF"/>
<path d="M139.394 113.802H113.031C112.661 113.802 112.305 113.655 112.043 113.393C111.781 113.131 111.634 112.775 111.634 112.404C111.634 112.034 111.781 111.678 112.043 111.416C112.305 111.154 112.661 111.007 113.031 111.007H139.394C139.765 111.007 140.121 111.154 140.383 111.416C140.645 111.678 140.792 112.034 140.792 112.404C140.792 112.775 140.645 113.131 140.383 113.393C140.121 113.655 139.765 113.802 139.394 113.802Z" fill="#DFEAEF"/>
<path d="M255.044 145.504H201.927C201.186 145.504 200.475 145.209 199.95 144.685C199.426 144.161 199.132 143.449 199.132 142.708V93.7424L212.131 79.7642H255.044C255.786 79.7642 256.497 80.0587 257.021 80.583C257.546 81.1073 257.84 81.8184 257.84 82.5598V142.806C257.815 143.53 257.509 144.216 256.987 144.72C256.466 145.223 255.769 145.504 255.044 145.504Z" fill="#778AD1"/>
<path d="M255.042 146.902H201.925C200.813 146.902 199.746 146.46 198.96 145.673C198.173 144.887 197.731 143.82 197.731 142.708V93.7425C197.733 93.3893 197.868 93.0497 198.109 92.7919L211.095 78.8137C211.225 78.6732 211.383 78.561 211.558 78.484C211.734 78.4071 211.923 78.3671 212.115 78.3665H255.028C256.14 78.3665 257.207 78.8083 257.993 79.5947C258.78 80.3811 259.222 81.4477 259.222 82.5599V142.806C259.196 143.899 258.745 144.938 257.964 145.703C257.184 146.468 256.135 146.898 255.042 146.902ZM200.527 94.3016V142.764C200.527 143.135 200.674 143.49 200.936 143.752C201.199 144.015 201.554 144.162 201.925 144.162H255.042C255.413 144.162 255.768 144.015 256.031 143.752C256.293 143.49 256.44 143.135 256.44 142.764V82.518C256.44 82.1473 256.293 81.7917 256.031 81.5296C255.768 81.2674 255.413 81.1202 255.042 81.1202H212.744L200.527 94.3016Z" fill="#093F68"/>
<path d="M199.144 93.7431H211.934V79.7788L199.144 93.7431Z" fill="#F7F7F7"/>
<path d="M211.938 95.1401H199.148C198.879 95.1368 198.617 95.0559 198.393 94.9073C198.169 94.7587 197.992 94.5486 197.884 94.3022C197.777 94.0558 197.742 93.7836 197.785 93.5181C197.829 93.2527 197.947 93.0053 198.128 92.8057L210.918 78.8275C211.109 78.6231 211.357 78.4809 211.63 78.4193C211.904 78.3577 212.189 78.3795 212.449 78.4819C212.71 78.5843 212.934 78.7626 213.092 78.9937C213.25 79.2248 213.335 79.498 213.336 79.778V93.7562C213.332 94.1245 213.183 94.4765 212.922 94.7356C212.66 94.9947 212.306 95.1401 211.938 95.1401ZM202.335 92.3444H210.54V83.3704L202.335 92.3444Z" fill="#093F68"/>
<path d="M247.16 105.569H210.173C209.802 105.569 209.447 105.421 209.185 105.159C208.923 104.897 208.775 104.541 208.775 104.171C208.775 103.8 208.923 103.445 209.185 103.182C209.447 102.92 209.802 102.773 210.173 102.773H247.16C247.53 102.773 247.886 102.92 248.148 103.182C248.41 103.445 248.557 103.8 248.557 104.171C248.557 104.541 248.41 104.897 248.148 105.159C247.886 105.421 247.53 105.569 247.16 105.569Z" fill="white"/>
<path d="M247.16 114.668H210.173C209.802 114.668 209.447 114.521 209.185 114.259C208.923 113.996 208.775 113.641 208.775 113.27C208.775 112.899 208.923 112.544 209.185 112.282C209.447 112.02 209.802 111.872 210.173 111.872H247.16C247.53 111.872 247.886 112.02 248.148 112.282C248.41 112.544 248.557 112.899 248.557 113.27C248.557 113.641 248.41 113.996 248.148 114.259C247.886 114.521 247.53 114.668 247.16 114.668Z" fill="white"/>
<path d="M247.16 123.77H210.173C209.802 123.77 209.447 123.622 209.185 123.36C208.923 123.098 208.775 122.742 208.775 122.372C208.775 122.001 208.923 121.645 209.185 121.383C209.447 121.121 209.802 120.974 210.173 120.974H247.16C247.53 120.974 247.886 121.121 248.148 121.383C248.41 121.645 248.557 122.001 248.557 122.372C248.557 122.742 248.41 123.098 248.148 123.36C247.886 123.622 247.53 123.77 247.16 123.77Z" fill="white"/>
<path d="M236.592 132.869H210.173C209.802 132.869 209.447 132.722 209.185 132.459C208.923 132.197 208.775 131.842 208.775 131.471C208.775 131.1 208.923 130.745 209.185 130.483C209.447 130.221 209.802 130.073 210.173 130.073H236.592C236.963 130.073 237.318 130.221 237.58 130.483C237.843 130.745 237.99 131.1 237.99 131.471C237.99 131.842 237.843 132.197 237.58 132.459C237.318 132.722 236.963 132.869 236.592 132.869Z" fill="white"/>
<path d="M247.971 135.97H194.854C194.112 135.97 193.401 135.676 192.877 135.151C192.353 134.627 192.058 133.916 192.058 133.175V84.2089L205.044 70.2307H247.957C248.698 70.2307 249.41 70.5252 249.934 71.0495C250.458 71.5738 250.753 72.2849 250.753 73.0263V133.272C250.727 133.994 250.424 134.679 249.905 135.181C249.386 135.684 248.693 135.967 247.971 135.97Z" fill="#778AD1"/>
<path d="M247.978 137.368H194.86C193.748 137.368 192.682 136.926 191.895 136.14C191.109 135.353 190.667 134.287 190.667 133.175V84.209C190.664 83.8578 190.794 83.5184 191.03 83.2585L204.03 69.2803C204.161 69.1398 204.318 69.0275 204.494 68.9506C204.669 68.8736 204.859 68.8336 205.051 68.833H247.964C249.076 68.833 250.142 69.2748 250.929 70.0612C251.715 70.8477 252.157 71.9143 252.157 73.0265V133.273C252.132 134.365 251.681 135.405 250.9 136.17C250.119 136.935 249.071 137.365 247.978 137.368ZM193.463 84.7682V133.231C193.463 133.601 193.61 133.957 193.872 134.219C194.134 134.481 194.49 134.628 194.86 134.628H247.978C248.348 134.628 248.704 134.481 248.966 134.219C249.228 133.957 249.376 133.601 249.376 133.231V72.9845C249.376 72.6138 249.228 72.2583 248.966 71.9961C248.704 71.734 248.348 71.5867 247.978 71.5867H205.666L193.463 84.7682Z" fill="#093F68"/>
<path d="M192.07 84.2096H204.86V70.2454L192.07 84.2096Z" fill="#F7F7F7"/>
<path d="M204.867 85.6086H192.077C191.807 85.608 191.542 85.5291 191.316 85.3816C191.09 85.234 190.911 85.024 190.802 84.7771C190.693 84.5302 190.657 84.2568 190.7 83.9901C190.742 83.7234 190.861 83.4748 191.042 83.2743L203.832 69.2961C204.023 69.0866 204.272 68.9399 204.548 68.8753C204.823 68.8107 205.112 68.8313 205.376 68.9343C205.639 69.0373 205.865 69.2179 206.024 69.4522C206.183 69.6866 206.267 69.9636 206.265 70.2466V84.2248C206.261 84.5931 206.112 84.9451 205.85 85.2042C205.588 85.4633 205.235 85.6086 204.867 85.6086ZM195.25 82.813H203.469V73.839L195.25 82.813Z" fill="#093F68"/>
<path d="M240.094 96.0351H203.051C202.681 96.0351 202.325 95.8879 202.063 95.6257C201.801 95.3636 201.654 95.0081 201.654 94.6373C201.654 94.2666 201.801 93.9111 202.063 93.6489C202.325 93.3868 202.681 93.2395 203.051 93.2395H240.094C240.464 93.2395 240.82 93.3868 241.082 93.6489C241.344 93.9111 241.491 94.2666 241.491 94.6373C241.491 95.0081 241.344 95.3636 241.082 95.6257C240.82 95.8879 240.464 96.0351 240.094 96.0351Z" fill="white"/>
<path d="M240.094 105.135H203.051C202.681 105.135 202.325 104.987 202.063 104.725C201.801 104.463 201.654 104.107 201.654 103.737C201.654 103.366 201.801 103.01 202.063 102.748C202.325 102.486 202.681 102.339 203.051 102.339H240.094C240.464 102.339 240.82 102.486 241.082 102.748C241.344 103.01 241.491 103.366 241.491 103.737C241.491 104.107 241.344 104.463 241.082 104.725C240.82 104.987 240.464 105.135 240.094 105.135Z" fill="white"/>
<path d="M240.094 114.291H203.051C202.681 114.291 202.325 114.144 202.063 113.882C201.801 113.62 201.654 113.264 201.654 112.893C201.654 112.523 201.801 112.167 202.063 111.905C202.325 111.643 202.681 111.496 203.051 111.496H240.094C240.464 111.496 240.82 111.643 241.082 111.905C241.344 112.167 241.491 112.523 241.491 112.893C241.491 113.264 241.344 113.62 241.082 113.882C240.82 114.144 240.464 114.291 240.094 114.291Z" fill="white"/>
<path d="M229.456 123.336H203.051C202.681 123.336 202.325 123.188 202.063 122.926C201.801 122.664 201.654 122.309 201.654 121.938C201.654 121.567 201.801 121.212 202.063 120.949C202.325 120.687 202.681 120.54 203.051 120.54H229.414C229.785 120.54 230.141 120.687 230.403 120.949C230.665 121.212 230.812 121.567 230.812 121.938C230.812 122.309 230.665 122.664 230.403 122.926C230.141 123.188 229.785 123.336 229.414 123.336H229.456Z" fill="white"/>
<path d="M240.89 126.437H187.675C186.934 126.437 186.223 126.142 185.698 125.618C185.174 125.094 184.879 124.383 184.879 123.641V74.6757L197.865 60.6975H240.778C241.52 60.6975 242.231 60.992 242.755 61.5163C243.279 62.0406 243.574 62.7517 243.574 63.4932V123.739C243.55 124.445 243.26 125.115 242.762 125.615C242.264 126.116 241.595 126.409 240.89 126.437Z" fill="white"/>
<path d="M240.888 127.835H187.673C186.56 127.835 185.494 127.393 184.707 126.606C183.921 125.82 183.479 124.753 183.479 123.641V74.6756C183.476 74.3243 183.606 73.985 183.842 73.7251L196.842 59.7469C196.973 59.6063 197.13 59.4941 197.306 59.4171C197.481 59.3402 197.671 59.3002 197.863 59.2996H240.776C241.888 59.2996 242.955 59.7414 243.741 60.5278C244.527 61.3142 244.969 62.3808 244.969 63.493V123.739C244.944 124.815 244.507 125.84 243.747 126.603C242.987 127.365 241.964 127.806 240.888 127.835ZM186.373 75.2347V123.697C186.373 124.068 186.52 124.423 186.782 124.686C187.044 124.948 187.4 125.095 187.77 125.095H240.888C241.258 125.095 241.614 124.948 241.876 124.686C242.138 124.423 242.285 124.068 242.285 123.697V63.4511C242.285 63.0804 242.138 62.7248 241.876 62.4627C241.614 62.2005 241.258 62.0533 240.888 62.0533H198.576L186.373 75.2347Z" fill="#093F68"/>
<path d="M184.985 74.6762H197.775V60.7119L184.985 74.6762Z" fill="#778AD1"/>
<path d="M197.781 76.074H184.991C184.721 76.0734 184.457 75.9945 184.231 75.8469C184.005 75.6994 183.826 75.4894 183.717 75.2425C183.607 74.9956 183.572 74.7222 183.614 74.4555C183.657 74.1888 183.776 73.9402 183.957 73.7397L196.747 59.7614C196.938 59.5552 197.187 59.4116 197.462 59.3492C197.736 59.2869 198.023 59.3087 198.284 59.412C198.547 59.5134 198.773 59.6917 198.933 59.9237C199.092 60.1556 199.178 60.4304 199.179 60.712V74.6902C199.175 75.0585 199.027 75.4104 198.765 75.6696C198.503 75.9287 198.15 76.0741 197.781 76.074ZM188.164 73.2784H196.383V64.3044L188.164 73.2784Z" fill="#093F68"/>
<path d="M233.004 86.5017H196.06C195.689 86.5017 195.334 86.3544 195.072 86.0923C194.809 85.8301 194.662 85.4746 194.662 85.1039C194.662 84.7332 194.809 84.3776 195.072 84.1155C195.334 83.8533 195.689 83.7061 196.06 83.7061H233.06C233.431 83.7061 233.787 83.8533 234.049 84.1155C234.311 84.3776 234.458 84.7332 234.458 85.1039C234.458 85.4746 234.311 85.8301 234.049 86.0923C233.787 86.3544 233.431 86.5017 233.06 86.5017H233.004Z" fill="#DFEAEF"/>
<path d="M233.004 95.6035H196.06C195.689 95.6035 195.334 95.4562 195.072 95.1941C194.809 94.932 194.662 94.5764 194.662 94.2057C194.662 93.835 194.809 93.4794 195.072 93.2173C195.334 92.9551 195.689 92.8079 196.06 92.8079H233.06C233.431 92.8079 233.787 92.9551 234.049 93.2173C234.311 93.4794 234.458 93.835 234.458 94.2057C234.458 94.5764 234.311 94.932 234.049 95.1941C233.787 95.4562 233.431 95.6035 233.06 95.6035H233.004Z" fill="#DFEAEF"/>
<path d="M233.004 104.703H196.06C195.689 104.703 195.334 104.556 195.072 104.293C194.809 104.031 194.662 103.676 194.662 103.305C194.662 102.934 194.809 102.579 195.072 102.317C195.334 102.054 195.689 101.907 196.06 101.907H233.06C233.431 101.907 233.787 102.054 234.049 102.317C234.311 102.579 234.458 102.934 234.458 103.305C234.458 103.676 234.311 104.031 234.049 104.293C233.787 104.556 233.431 104.703 233.06 104.703H233.004Z" fill="#DFEAEF"/>
<path d="M222.381 113.802H196.06C195.689 113.802 195.334 113.655 195.072 113.393C194.809 113.131 194.662 112.775 194.662 112.404C194.662 112.034 194.809 111.678 195.072 111.416C195.334 111.154 195.689 111.007 196.06 111.007H222.437C222.808 111.007 223.163 111.154 223.425 111.416C223.687 111.678 223.835 112.034 223.835 112.404C223.835 112.775 223.687 113.131 223.425 113.393C223.163 113.655 222.808 113.802 222.437 113.802H222.381Z" fill="#DFEAEF"/>
<path d="M274.549 27.4165V33.2174H1.40039V14.2769C1.40039 10.9404 2.72582 7.74053 5.0851 5.38125C7.44439 3.02197 10.6443 1.69653 13.9808 1.69653H113.813C116.922 1.71334 119.913 2.8897 122.2 4.99539L136.905 18.4704H265.645C266.818 18.4685 267.98 18.699 269.064 19.1484C270.148 19.5978 271.132 20.2574 271.96 21.089C272.788 21.9207 273.443 22.908 273.887 23.9939C274.331 25.0799 274.556 26.2431 274.549 27.4165Z" fill="#75F5ED"/>
<path d="M274.546 34.6153H1.39782C1.0271 34.6153 0.671554 34.4681 0.409411 34.2059C0.147269 33.9438 0 33.5882 0 33.2175V14.277C0 10.5698 1.4727 7.01438 4.09413 4.39296C6.71555 1.77154 10.271 0.29884 13.9782 0.29884H113.811C117.295 0.294233 120.654 1.60173 123.218 3.96113L137.518 17.0727H265.712C268.439 17.0764 271.054 18.1615 272.983 20.09C274.911 22.0186 275.996 24.6332 276 27.3606V33.2175C276 33.4059 275.962 33.5923 275.888 33.7657C275.815 33.939 275.707 34.0957 275.571 34.2262C275.435 34.3568 275.274 34.4585 275.098 34.5254C274.922 34.5923 274.734 34.6229 274.546 34.6153ZM2.79564 31.8197H273.148V27.4165C273.148 25.4295 272.359 23.5238 270.954 22.1187C269.549 20.7136 267.643 19.9242 265.656 19.9242H136.917C136.565 19.9268 136.226 19.7971 135.966 19.5608L121.261 6.08581C119.222 4.19057 116.539 3.14124 113.755 3.15039H13.9223C10.9565 3.15039 8.11217 4.32856 6.01503 6.42569C3.91789 8.52283 2.73973 11.3672 2.73973 14.333L2.79564 31.8197Z" fill="#D0CDE1"/>
<path d="M83.774 166.708H41.4759C41.1052 166.708 40.7497 166.561 40.4875 166.299C40.2254 166.037 40.0781 165.681 40.0781 165.31C40.0781 164.94 40.2254 164.584 40.4875 164.322C40.7497 164.06 41.1052 163.913 41.4759 163.913H83.774C84.1448 163.913 84.5003 164.06 84.7624 164.322C85.0246 164.584 85.1719 164.94 85.1719 165.31C85.1719 165.681 85.0246 166.037 84.7624 166.299C84.5003 166.561 84.1448 166.708 83.774 166.708Z" fill="#DFEAEF"/>
<path d="M164.093 166.708H121.795C121.424 166.708 121.069 166.561 120.806 166.299C120.544 166.037 120.397 165.681 120.397 165.31C120.397 164.94 120.544 164.584 120.806 164.322C121.069 164.06 121.424 163.913 121.795 163.913H164.093C164.464 163.913 164.819 164.06 165.081 164.322C165.343 164.584 165.491 164.94 165.491 165.31C165.491 165.681 165.343 166.037 165.081 166.299C164.819 166.561 164.464 166.708 164.093 166.708Z" fill="#DFEAEF"/>
<path d="M244.412 166.708H202.114C201.743 166.708 201.388 166.561 201.126 166.299C200.864 166.037 200.716 165.681 200.716 165.31C200.716 164.94 200.864 164.584 201.126 164.322C201.388 164.06 201.743 163.913 202.114 163.913H244.412C244.783 163.913 245.139 164.06 245.401 164.322C245.663 164.584 245.81 164.94 245.81 165.31C245.81 165.681 245.663 166.037 245.401 166.299C245.139 166.561 244.783 166.708 244.412 166.708Z" fill="#DFEAEF"/>
</g>
<defs>
<filter id="filter0_d_0_1" x="-640.591" y="-120" width="650.526" height="630.614" filterUnits="userSpaceOnUse" color-interpolation-filters="sRGB">
<feFlood flood-opacity="0" result="BackgroundImageFix"/>
<feColorMatrix in="SourceAlpha" type="matrix" values="0 0 0 0 0 0 0 0 0 0 0 0 0 0 0 0 0 0 127 0" result="hardAlpha"/>
<feOffset dy="24"/>
<feGaussianBlur stdDeviation="45"/>
<feComposite in2="hardAlpha" operator="out"/>
<feColorMatrix type="matrix" values="0 0 0 0 0.754051 0 0 0 0 0.735312 0 0 0 0 0.632249 0 0 0 0.22 0"/>
<feBlend mode="normal" in2="BackgroundImageFix" result="effect1_dropShadow_0_1"/>
<feBlend mode="normal" in="SourceGraphic" in2="effect1_dropShadow_0_1" result="shape"/>
</filter>
<filter id="filter1_d_0_1" x="-131.059" y="-120" width="650.526" height="630.614" filterUnits="userSpaceOnUse" color-interpolation-filters="sRGB">
<feFlood flood-opacity="0" result="BackgroundImageFix"/>
<feColorMatrix in="SourceAlpha" type="matrix" values="0 0 0 0 0 0 0 0 0 0 0 0 0 0 0 0 0 0 127 0" result="hardAlpha"/>
<feOffset dy="24"/>
<feGaussianBlur stdDeviation="45"/>
<feComposite in2="hardAlpha" operator="out"/>
<feColorMatrix type="matrix" values="0 0 0 0 0.754051 0 0 0 0 0.735312 0 0 0 0 0.632249 0 0 0 0.22 0"/>
<feBlend mode="normal" in2="BackgroundImageFix" result="effect1_dropShadow_0_1"/>
<feBlend mode="normal" in="SourceGraphic" in2="effect1_dropShadow_0_1" result="shape"/>
</filter>
<clipPath id="clip0_0_1">
<rect width="1920" height="10027" fill="white" transform="translate(-766 -3357)"/>
</clipPath>
</defs>
</svg>
