<svg width="265" height="185" viewBox="0 0 265 185" fill="none" xmlns="http://www.w3.org/2000/svg">
<path d="M40 177.395V184.443C40 184.591 40.0689 184.733 40.1916 184.837C40.3142 184.941 40.4806 185 40.6541 185H44.9471C45.1206 185 45.287 184.941 45.4096 184.837C45.5323 184.733 45.6012 184.591 45.6012 184.443C45.6012 184.296 45.6701 184.154 45.7928 184.05C45.9154 183.945 46.0818 183.887 46.2553 183.887H47.4623C47.4623 183.887 47.8548 184.696 49.8764 185H57.8025C58.0512 185.001 58.2941 184.937 58.4971 184.814C58.7002 184.692 58.8531 184.519 58.9345 184.319C59.0159 184.119 59.0216 183.903 58.9508 183.7C58.88 183.497 58.7363 183.318 58.5399 183.188C57.3982 182.409 55.0911 181.67 50.471 181.554C49.1441 181.365 47.9221 180.822 46.9816 180.004C46.041 179.185 45.4306 178.133 45.2385 177L40 177.395Z" fill="#778AD1"/>
<path d="M18.1195 172L14.2342 176.251C14.0361 176.469 13.9593 176.737 14.0206 176.998C14.0819 177.259 14.2764 177.49 14.5614 177.642L17.0069 178.938C17.2927 179.089 17.6454 179.148 17.9878 179.101C18.3301 179.054 18.6342 178.906 18.8335 178.689L20.3686 179.505C20.3686 179.505 20.1485 180.271 21.6062 181.376L28.1155 184.83C28.3191 184.941 28.5636 185.001 28.8143 185C29.0649 184.999 29.3089 184.938 29.5114 184.826C29.7139 184.713 29.8646 184.555 29.9419 184.373C30.0193 184.192 30.0194 183.996 29.9422 183.815C29.5257 182.745 28.1572 181.181 24.4146 179.101C24.4146 179.101 20.5233 176.677 22.5701 173.314L18.1195 172Z" fill="#778AD1"/>
<path d="M43.5332 7.70306C43.6576 8.08046 43.9189 8.41899 44.2834 8.67491C44.6478 8.93084 45.0986 9.09241 45.5776 9.13876C48.768 9.45618 50.3119 10.6038 50.3119 10.6038C57.6214 14.0954 51.6266 22.7243 51.6266 22.7243C48.3277 27.7541 55.8121 33.5067 55.8121 33.5067C63.6523 40.6999 54.5637 43.1855 54.5637 43.1855L13.4751 52C-0.0762954 46.9799 1.02133 39.0738 1.02133 39.0738C1.02133 39.0738 0.894679 30.8306 12.4378 23.1296C12.4378 23.1296 17.6425 19.8431 18.1491 14.5007C18.1491 14.5007 20.5192 -3.65075 39.4925 3.79149C40.4572 4.16415 41.314 4.69728 42.0071 5.35612C42.7002 6.01496 43.2141 6.78471 43.5151 7.61516C43.5151 7.64446 43.5271 7.67376 43.5332 7.70306Z" fill="#2F2E41"/>
<path d="M57.0397 46L56.9431 45.8411C59.5136 44.6147 61.0776 43.0904 61.6008 41.3029C62.289 38.9394 61.0321 36.5164 59.8151 34.8928C58.6052 33.383 57.1088 32.0648 55.3905 30.995C53.5316 29.6496 52.033 27.965 51 26.0596L51.1934 26C52.2122 27.8726 53.6873 29.5282 55.5156 30.851C57.2533 31.9339 58.7653 33.269 59.9857 34.7984C61.7316 37.1619 62.3629 39.426 61.7999 41.3476C61.2653 43.1599 59.6615 44.7239 57.0397 46Z" fill="#2F2E41"/>
<path d="M1.31318 40C1.27145 39.93 -3.21735 32.8826 4.6455 26.5449C5.5616 25.8452 6.56029 25.2256 7.62612 24.6956C9.09258 23.9159 11.954 21.9516 14.6127 17.5732C15.7055 15.7231 16.4878 13.7552 16.9375 11.7253C17.6767 8.57648 20.5143 1.12921 30.8331 0.00461997C30.9583 0.00461997 42.4516 -0.410226 43 6.6222H42.7854C42.2548 -0.230292 30.9643 0.169565 30.863 0.174564C21.0508 1.24417 18.0642 7.88674 17.1521 11.7503C16.6914 13.7942 15.8928 15.7743 14.7796 17.6332C12.097 22.0516 9.20583 24.0358 7.72149 24.8255C6.67663 25.3533 5.69626 25.9661 4.79454 26.6549C-2.95505 32.8976 1.46221 39.8251 1.50394 39.895L1.31318 40Z" fill="#2F2E41"/>
<path d="M12.9046 56C12.7868 55.9421 1.3964 50.0862 3.19193 42L3.39393 42.0386C1.62646 50.0041 12.8878 55.7924 13 55.8455L12.9046 56Z" fill="#2F2E41"/>
<path d="M17 171.429C17 171.429 19.0548 174.599 21.8206 175C21.8206 175 25.7313 162.045 29.8108 155.639C29.8108 155.639 43.0675 136.541 46.93 133.568C46.93 133.568 61.3376 122.27 53.8355 105.818C53.8355 105.818 46.9782 91.6853 47.5024 82L42.6818 90.3547L35.7823 110.586L19.7839 108.078L30.1844 132.494C30.1844 132.494 22.2545 140.409 19.7598 159.057C19.7357 159.062 17.9762 169.564 17 171.429Z" fill="#2F2E41"/>
<path opacity="0.2" d="M17 171.429C17 171.429 19.0548 174.599 21.8206 175C21.8206 175 25.7313 162.045 29.8108 155.639C29.8108 155.639 43.0675 136.541 46.93 133.568C46.93 133.568 61.3376 122.27 53.8355 105.818C53.8355 105.818 46.9782 91.6853 47.5024 82L42.6818 90.3547L35.7823 110.586L19.7839 108.078L30.1844 132.494C30.1844 132.494 22.2545 140.409 19.7598 159.057C19.7357 159.062 17.9762 169.564 17 171.429Z" fill="black"/>
<path d="M39.0421 60.1186C40.7891 51.147 31.2323 36 31.2323 36C15.293 38.8604 19.118 46.6612 19.118 46.6612L16.1551 78.052C16.1551 78.052 8.73346 88.2093 10.1892 97.7589C11.2511 104.705 18.7526 109.616 26.6652 107.506C27.9577 107.178 29.2162 106.757 30.4274 106.246C30.4274 106.246 43.3352 101.637 39.1734 80.9668L39.0421 60.1186Z" fill="#FF835B"/>
<path d="M246 47C246 47 266.763 54.6916 264.848 63.2103C264.848 63.2103 267.961 67.1023 246 78V47Z" fill="#2F2E41"/>
<path opacity="0.2" d="M246 47C246 47 266.763 54.6916 264.848 63.2103C264.848 63.2103 267.961 67.1023 246 78V47Z" fill="white"/>
<path d="M74.0623 68.659C74.0623 68.659 61.4733 58.2901 76 52L75.7623 70L74.0623 68.659Z" fill="#2F2E41"/>
<path opacity="0.2" d="M74.0623 68.659C74.0623 68.659 61.4733 58.2901 76 52L75.7623 70L74.0623 68.659Z" fill="black"/>
<path d="M246 28H85V155H246V28Z" fill="#D0CDE1"/>
<path d="M137.276 47H112.724C110.667 47 109 48.1183 109 49.4979V49.5021C109 50.8817 110.667 52 112.724 52H137.276C139.333 52 141 50.8817 141 49.5021V49.4979C141 48.1183 139.333 47 137.276 47Z" fill="#EEEEEE"/>
<path d="M175.482 61H101.518C99.5751 61 98 62.342 98 63.9975V64.0025C98 65.658 99.5751 67 101.518 67H175.482C177.425 67 179 65.658 179 64.0025V63.9975C179 62.342 177.425 61 175.482 61Z" fill="#EEEEEE"/>
<path d="M143.549 74H101.451C99.5451 74 98 75.5657 98 77.4971V77.5029C98 79.4343 99.5451 81 101.451 81H143.549C145.455 81 147 79.4343 147 77.5029V77.4971C147 75.5657 145.455 74 143.549 74Z" fill="#EEEEEE"/>
<path d="M185.566 74H161.434C159.538 74 158 75.5657 158 77.4971V77.5029C158 79.4343 159.538 81 161.434 81H185.566C187.462 81 189 79.4343 189 77.5029V77.4971C189 75.5657 187.462 74 185.566 74Z" fill="#EEEEEE"/>
<path d="M199.551 74H196.449C194.544 74 193 75.5657 193 77.4971V77.5029C193 79.4343 194.544 81 196.449 81H199.551C201.456 81 203 79.4343 203 77.5029V77.4971C203 75.5657 201.456 74 199.551 74Z" fill="#EEEEEE"/>
<path d="M209.444 61H185.556C183.592 61 182 62.342 182 63.9975V64.0025C182 65.658 183.592 67 185.556 67H209.444C211.408 67 213 65.658 213 64.0025V63.9975C213 62.342 211.408 61 209.444 61Z" fill="#EEEEEE"/>
<path d="M162.561 47H150.439C148.54 47 147 48.1183 147 49.4979V49.5021C147 50.8817 148.54 52 150.439 52H162.561C164.46 52 166 50.8817 166 49.5021V49.4979C166 48.1183 164.46 47 162.561 47Z" fill="#EEEEEE"/>
<path opacity="0.2" d="M194 28V53L205.887 46.2339L218 53V28H194Z" fill="black"/>
<path opacity="0.2" d="M14 81.629C14 81.629 24.2451 83.4958 29 78.8541L28.9049 77C28.9049 77 21.5951 78.7271 16.4155 77L14 81.629Z" fill="#FF835B"/>
<path d="M32 36C32 36 36.3443 41.1397 40.0713 40.1834C40.0713 40.1834 41.9057 40.1834 41.6844 36C41.6844 36 52.0035 44.8699 50.9203 59.8008L40.0189 60C40.0189 60 40.9972 56.2548 37.6895 47.2305C37.6895 47.2305 33.8344 38.7143 32 36Z" fill="#D0CDE1"/>
<path d="M39.3781 84.953C39.3781 84.953 45.9154 85.6905 49.4761 81.3201C50.6928 79.7385 51.2034 77.8812 50.9266 76.0442L50.6791 74H49.0843L46.9808 80.176H42.6708V82.3124H39L39.3781 84.953Z" fill="#D0CDE1"/>
<path d="M53.5796 105.914C53.5796 105.914 46.7631 91.5474 47.3272 81.9528C47.3272 81.9528 50.9552 79.3452 49.4945 73.9905C49.4945 73.9905 54.025 74.3289 53.4846 69.7406C53.4846 69.7406 52.9621 65.8291 50.3733 66.7547L52.7127 59.7579H50.2961C50.3436 57.9862 50.4089 50.9694 47.1312 44.5846C45.4326 41.4792 43.3148 38.5472 40.8194 35.846C40.4869 35.4927 40.2256 35.1991 40 35C44.2645 36.1338 48.2013 37.9979 51.5608 40.4741C57.4986 44.9828 63.656 53.0446 64.7248 67.2325H69V74.9709C69 74.9709 55.7766 78.5838 56.4891 70.4572C56.4891 70.4572 54.3278 72.6767 56.0854 78.6236C56.864 81.1691 58.1164 83.5958 59.7965 85.8146C62.1063 88.9298 66.328 95.8272 63.5729 101.64C63.5551 101.625 60.6159 106.716 53.5796 105.914Z" fill="#FF835B"/>
<path d="M56.8783 70H56.6968C57.7959 53.4216 51.0655 45.1843 51 45.104L51.1412 45C51.2117 45.0709 57.9824 53.3507 56.8783 70Z" fill="#FF835B"/>
<path d="M20.0243 107.923C20.0243 107.923 19.4599 112.977 23.7722 118.498C23.7722 118.498 27.8475 125.194 26.9387 136.915C26.9387 136.915 24.9462 147.322 29.4505 155.208C31.2147 158.18 32.6547 161.289 33.7516 164.495L38.1147 178L44.5607 176.815C42.9804 170.743 42.3332 164.516 42.6359 158.296L41.1684 119.757C41.1684 119.757 41.2643 90.5445 46 82C46 82 43.6801 84.2123 38.8033 84.1042C38.8033 84.1042 41.9078 100.618 29.3263 106.69C29.3263 106.709 23.5521 109.079 20.0243 107.923Z" fill="#2F2E41"/>
<path d="M32 28C32 28 32.1783 31.0778 32 36.2679C32 36.2679 35.5597 41.8955 39.719 40.8767C39.719 40.8767 41.1721 40.8767 40.983 36.3C40.983 36.3 39.7298 35.0678 39.2059 29.5682L32 28Z" fill="#F9B499"/>
<path opacity="0.2" d="M61.9047 90.3686C61.9047 90.3686 58.3124 95.2211 53.5249 92.6559C52.6428 92.1649 51.9086 91.5225 51.3757 90.7755C51.2952 90.6713 51.2147 90.5572 51.1341 90.4381C49.0755 87.3125 48.5965 83.6723 49.7963 80.2716C50.2918 78.7533 50.7501 76.1732 49.7158 74C49.4922 74.0457 49.2644 74.0772 49.0345 74.0943C48.8118 74.1062 48.5884 74.1062 48.3656 74.0943C48.6501 75.0423 48.7606 76.0184 48.6939 76.9919C48.6072 78.6193 48.025 80.604 46.0493 82.0379C46.0493 82.0379 45.0026 90.5522 52.5587 105.928C52.5587 105.928 60.028 106.96 63.162 101.185C63.1496 101.2 65.7261 97.7615 61.9047 90.3686Z" fill="#FF835B"/>
<path opacity="0.2" d="M75 173L163.354 111.622C164.867 110.574 166.753 110.002 168.698 110C170.698 109.999 172.635 110.606 174.164 111.712L259 173H75Z" fill="white"/>
<path d="M221 51L208.8 43.8496L196 51V23H221V51Z" fill="#FEFEFE"/>
<path d="M32 79L33.7591 60.3559L53 60L46.794 79H32Z" fill="#75F5ED"/>
<path d="M29 82H41.7964V80.0142L43 60L30.7626 60.1915L29 82Z" fill="#CCCCCC"/>
<path opacity="0.5" d="M29 82H41.7964V80.0142L43 60L30.7626 60.1915L29 82Z" fill="#75F5ED"/>
<path d="M209 12H75V139H209V12Z" fill="#D0CDE1"/>
<path d="M69.1702 169.638L69 61C69 61 69.5282 65.8846 75.5263 70.0347L157.898 118.624L180.2 117.002L258.757 71.2768C258.757 71.2768 266.046 67.5259 264.872 61.0099V169.643C264.872 170.085 264.768 170.521 264.567 170.929C264.366 171.337 264.071 171.707 263.699 172.019C263.328 172.33 262.886 172.578 262.401 172.746C261.915 172.914 261.395 173.001 260.869 173H73.1729C72.6472 173 72.1267 172.913 71.6411 172.744C71.1555 172.575 70.7142 172.328 70.3426 172.015C69.9709 171.703 69.676 171.333 69.4749 170.925C69.2737 170.517 69.1702 170.08 69.1702 169.638Z" fill="#FF835B"/>
<path d="M11.0975 71.804C11.0975 71.804 10.0441 80.1727 27.2601 77.4582C27.2601 77.4582 41.0597 76.758 45 73.8853V69.7561H26.608C26.608 69.7561 33.8534 50.0932 29.495 44.0984C29.495 44.0984 25.6884 38.5544 22.0045 40.3625C22.0045 40.3625 19.1175 40.7989 16.7098 47.8344C16.2807 49.0909 15.8014 50.333 15.2329 51.5511C13.6111 54.9802 10.4008 63.1331 11.0975 71.804Z" fill="#FF835B"/>
<path d="M46 69.7259L47.863 65.3972C47.9118 65.2815 48.0081 65.1806 48.1379 65.1092C48.2676 65.0378 48.4241 64.9995 48.5846 65C48.6973 64.9992 48.8089 65.0174 48.9113 65.0532C49.0136 65.089 49.1042 65.1416 49.1764 65.2072C49.2486 65.2728 49.3006 65.3496 49.3287 65.4323C49.3569 65.5149 49.3603 65.6013 49.3389 65.6851L48.9191 67.363C48.9191 67.363 52.0022 65.6702 53.0583 67.363C53.0583 67.363 56.745 73.6773 49.5292 74H46V69.7259Z" fill="#F9B499"/>
<path d="M32.0396 31.1295L32 29H39L38.7576 31.4994C37.6716 31.8845 36.5143 32.0504 35.3583 31.9867C34.2023 31.9231 33.0725 31.6312 32.0396 31.1295Z" fill="#F4A68E"/>
<path d="M46.495 20.1705C47.0385 13.6405 43.0059 8.08419 37.4879 7.76001C31.9699 7.43584 27.0561 12.4666 26.5127 18.9966C25.9692 25.5265 30.0018 31.0829 35.5197 31.407C41.0377 31.7312 45.9515 26.7004 46.495 20.1705Z" fill="#F9B499"/>
<path d="M39 8.86167C39 8.86167 36.2815 17.0516 25.3831 20L22 17.6972L24.7246 8.40881L29.6482 6L39 8.86167Z" fill="#2F2E41"/>
<path d="M37.5344 9.7359C37.5344 9.7359 39.3269 14.0203 49 15L47.6945 11.0722L41.6065 7.70429L37 7L37.5344 9.7359Z" fill="#2F2E41"/>
<path d="M37.8188 8C38.0783 9.38228 38.0589 10.7976 37.7616 12.1732C37.4354 13.5556 36.7588 14.8451 35.7885 15.9339C35.3015 16.4738 34.7375 16.9489 34.1122 17.346C33.4921 17.754 32.8069 18.0684 32.0819 18.2777C31.7252 18.3695 31.377 18.488 31.0407 18.632C30.7122 18.7905 30.4105 18.9932 30.1453 19.2337C29.6195 19.7301 29.2271 20.3353 29 21C29.1987 20.3182 29.5701 19.6909 30.0828 19.1706C30.3454 18.9159 30.6493 18.7014 30.9835 18.5349C31.3187 18.3796 31.6669 18.2498 32.0246 18.1467C32.3799 18.0355 32.7276 17.9042 33.0658 17.7536C33.3941 17.5938 33.7106 17.4139 34.0133 17.215C34.6236 16.8222 35.1721 16.3518 35.6428 15.8175C36.6021 14.7546 37.2798 13.4962 37.621 12.1441C37.7997 11.4706 37.8958 10.7803 37.9073 10.0866C37.9324 9.38999 37.9029 8.69259 37.8188 8Z" fill="#2F2E41"/>
</svg>
