<svg width="151" height="29" viewBox="0 0 151 29" fill="none" xmlns="http://www.w3.org/2000/svg">
<g clip-path="url(#clip0_2_1131)">
<path d="M4.25806 18.9442L18.3907 4.91212C18.8601 4.44271 19.6313 4.44271 20.1007 4.91212L26.6725 11.4839C27.1419 11.9533 27.1419 12.7245 26.6725 13.1939L12.5398 27.2259C12.0704 27.6954 11.2992 27.6954 10.8298 27.2259L4.25806 20.6542C3.78865 20.1848 3.78865 19.4136 4.25806 18.9442Z" fill="url(#paint0_linear_2_1131)" stroke="white" stroke-width="1.11658" stroke-miterlimit="10"/>
<path d="M16.4627 15.3228L30.4947 1.29078C30.9641 0.821368 31.7353 0.821368 32.2047 1.29078L38.7765 7.86254C39.2459 8.33196 39.2459 9.10313 38.7765 9.57254L24.7444 23.6046C24.275 24.074 23.5038 24.074 23.0344 23.6046L16.4627 17.0328C15.9932 16.5634 15.9932 15.7922 16.4627 15.3228Z" fill="url(#paint1_linear_2_1131)" stroke="white" stroke-width="1.11658" stroke-miterlimit="10"/>
<path d="M62.8175 5.11328V20.3189H59.1125V11.1989L55.7092 20.3189H52.7251L49.3051 11.1821V20.3189H45.6001V5.11328H49.9757L54.2339 15.6415L58.4586 5.11328H62.8175Z" fill="#002159"/>
<path d="M78.1068 8.23145L70.5292 26.0523H66.5392L69.3054 19.8997L64.3933 8.23145H68.5342L71.3339 15.7923L74.1001 8.23145H78.1068Z" fill="#002159"/>
<path d="M91.0155 13.8309C91.552 14.5183 91.8202 15.3062 91.8202 16.178C91.8202 17.4521 91.3843 18.458 90.4958 19.1956C89.6072 19.9333 88.3667 20.3189 86.7908 20.3189H79.7161V5.11328H86.5561C88.0984 5.11328 89.3055 5.46534 90.1772 6.16946C91.049 6.87358 91.4849 7.82916 91.4849 9.05299C91.4849 9.94152 91.2502 10.6959 90.7808 11.2827C90.3114 11.8695 89.6911 12.2886 88.9031 12.5233C89.7749 12.7077 90.479 13.1436 91.0155 13.8309ZM83.3875 11.2659H85.8184C86.4219 11.2659 86.8914 11.1318 87.2099 10.8636C87.5284 10.5953 87.6961 10.2098 87.6961 9.69005C87.6961 9.17034 87.5284 8.76799 87.2099 8.49975C86.8914 8.23152 86.4219 8.08063 85.8184 8.08063H83.3875V11.2659ZM87.5619 16.8989C87.8972 16.6139 88.0649 16.2115 88.0649 15.675C88.0649 15.1386 87.8805 14.7195 87.5284 14.4177C87.1764 14.1159 86.6902 13.965 86.0699 13.965H83.3875V17.318H86.1202C86.7405 17.3348 87.2267 17.1839 87.5619 16.8989Z" fill="#002159"/>
<path d="M99.6664 8.68401C100.32 8.29843 101.041 8.11401 101.829 8.11401V12.037H100.806C99.8843 12.037 99.197 12.2381 98.7276 12.6405C98.2581 13.0428 98.0402 13.7302 98.0402 14.7361V20.3355H94.3352V8.23137H98.0402V10.2431C98.4761 9.58931 99.0126 9.0696 99.6664 8.68401Z" fill="#002159"/>
<path d="M103.857 6.40405C103.438 6.01846 103.237 5.54905 103.237 4.97905C103.237 4.40905 103.438 3.92287 103.857 3.53729C104.276 3.1517 104.796 2.96729 105.45 2.96729C106.087 2.96729 106.607 3.1517 107.026 3.53729C107.445 3.92287 107.646 4.39229 107.646 4.97905C107.646 5.54905 107.445 6.01846 107.026 6.40405C106.607 6.78964 106.087 6.97405 105.45 6.97405C104.796 6.97405 104.26 6.78964 103.857 6.40405ZM107.277 8.2314V20.3188H103.572V8.2314H107.277Z" fill="#002159"/>
<path d="M110.228 10.9808C110.748 10.042 111.452 9.32107 112.374 8.81813C113.296 8.31519 114.335 8.06372 115.526 8.06372C117.034 8.06372 118.309 8.46607 119.331 9.25402C120.354 10.042 121.024 11.1652 121.326 12.607H117.386C117.051 11.6849 116.414 11.2155 115.459 11.2155C114.788 11.2155 114.235 11.4837 113.832 12.0034C113.43 12.5231 113.229 13.2775 113.229 14.2667C113.229 15.2558 113.43 16.0102 113.832 16.5299C114.235 17.0496 114.771 17.3178 115.459 17.3178C116.414 17.3178 117.051 16.8484 117.386 15.9264H121.326C121.008 17.3346 120.337 18.4578 119.314 19.2625C118.292 20.0673 117.034 20.4696 115.526 20.4696C114.335 20.4696 113.296 20.2181 112.374 19.7152C111.452 19.2122 110.748 18.4914 110.228 17.5525C109.708 16.6137 109.457 15.524 109.457 14.2667C109.474 13.0261 109.725 11.9196 110.228 10.9808Z" fill="#002159"/>
<path d="M130.865 20.3188L127.177 15.2559V20.3188H123.472V4.29175H127.177V13.1435L130.832 8.23145H135.392L130.362 14.3003L135.425 20.3188H130.865Z" fill="#002159"/>
<path d="M138.493 19.9499C137.672 19.5811 137.018 19.0949 136.549 18.4746C136.079 17.8543 135.811 17.1502 135.744 16.3622H139.399C139.449 16.7814 139.633 17.1167 139.985 17.3849C140.337 17.6531 140.757 17.7705 141.259 17.7705C141.729 17.7705 142.081 17.6867 142.332 17.5022C142.584 17.3178 142.718 17.0831 142.718 16.7981C142.718 16.4461 142.534 16.1946 142.182 16.027C141.813 15.8593 141.243 15.6749 140.421 15.4737C139.549 15.2725 138.829 15.0546 138.259 14.8367C137.689 14.6187 137.186 14.2667 136.767 13.7805C136.347 13.2943 136.146 12.6405 136.146 11.819C136.146 11.1317 136.331 10.4946 136.716 9.9246C137.102 9.3546 137.655 8.90196 138.409 8.56666C139.147 8.23137 140.036 8.06372 141.058 8.06372C142.567 8.06372 143.774 8.43254 144.646 9.18696C145.518 9.94137 146.021 10.9305 146.155 12.1711H142.735C142.684 11.752 142.5 11.4167 142.182 11.182C141.863 10.9305 141.461 10.8131 140.958 10.8131C140.522 10.8131 140.187 10.897 139.969 11.0646C139.734 11.2323 139.617 11.4502 139.617 11.752C139.617 12.104 139.801 12.3555 140.17 12.5231C140.539 12.6908 141.109 12.8752 141.897 13.0428C142.785 13.2775 143.523 13.4955 144.076 13.7302C144.646 13.9481 145.132 14.317 145.551 14.8199C145.97 15.3228 146.205 15.9934 146.205 16.8149C146.205 17.519 146.004 18.1561 145.602 18.7093C145.199 19.2625 144.629 19.6984 143.892 20.017C143.154 20.3355 142.282 20.4864 141.31 20.4864C140.254 20.4864 139.315 20.302 138.493 19.9499Z" fill="#002159"/>
</g>
<defs>
<linearGradient id="paint0_linear_2_1131" x1="15.0465" y1="8.50353" x2="22.2333" y2="20.406" gradientUnits="userSpaceOnUse">
<stop stop-color="#FF915A"/>
<stop offset="1" stop-color="#FF5A5A"/>
</linearGradient>
<linearGradient id="paint1_linear_2_1131" x1="27.194" y1="4.90252" x2="34.3823" y2="16.7908" gradientUnits="userSpaceOnUse">
<stop stop-color="#FF915A"/>
<stop offset="1" stop-color="#FF5A5A"/>
</linearGradient>
<clipPath id="clip0_2_1131">
<rect width="150.882" height="28.5" fill="white"/>
</clipPath>
</defs>
</svg>
