<svg width="152" height="114" viewBox="0 0 152 114" fill="none" xmlns="http://www.w3.org/2000/svg">
<path d="M143.792 16.68C131.274 11.15 110.631 24.47 105.386 28.1C106.444 25.7979 108.277 23.733 110.712 22.1C110.769 22.0669 110.815 22.0243 110.845 21.9756C110.876 21.9269 110.89 21.8736 110.888 21.82C110.888 21.7684 110.871 21.7176 110.838 21.6722C110.805 21.6268 110.757 21.5883 110.698 21.56C109.539 20.9802 108.177 20.6607 106.778 20.64C107.498 19.9837 108.423 19.4669 109.474 19.1342C110.524 18.8014 111.668 18.6627 112.807 18.73C112.891 18.7392 112.977 18.7299 113.054 18.7032C113.131 18.6765 113.196 18.6337 113.24 18.58C113.283 18.5253 113.305 18.4632 113.305 18.4C113.305 18.3368 113.283 18.2747 113.24 18.22C112.687 17.6016 111.924 17.1021 111.026 16.7719C110.129 16.4418 109.13 16.2928 108.13 16.34C109.901 15.34 113.916 14.98 115.538 14.94C115.625 14.9394 115.709 14.9201 115.781 14.8846C115.853 14.8491 115.909 14.7988 115.944 14.74C115.977 14.6827 115.988 14.6197 115.976 14.558C115.964 14.4963 115.93 14.4381 115.876 14.39C114.31 13.0431 112.091 12.2061 109.698 12.06C111.942 10.06 118.593 9.45998 118.661 9.44998C118.756 9.44459 118.846 9.41621 118.916 9.3692C118.987 9.3222 119.035 9.25921 119.053 9.19C119.075 9.15127 119.087 9.10965 119.087 9.06757C119.088 9.02548 119.077 8.98375 119.056 8.94473C119.034 8.90572 119.003 8.87019 118.963 8.84021C118.923 8.81023 118.875 8.78636 118.823 8.76999C116.713 7.77614 114.321 7.15667 111.834 6.95999C114.538 4.47999 123.135 2.95999 123.23 2.95999C123.322 2.94411 123.405 2.90776 123.467 2.8559C123.53 2.80403 123.57 2.73913 123.581 2.66998C123.592 2.60176 123.575 2.53277 123.531 2.47208C123.488 2.41139 123.42 2.36185 123.338 2.32999C117.579 0.109987 110.55 2.26999 110.225 2.32999C102.114 5.32999 101.749 15.28 102.601 22.17C99.4104 13.8 92.4754 0.69 80.2141 0C79.8086 0 70.251 -2.3365e-05 65.0058 4.56998C64.9529 4.62559 64.9245 4.69196 64.9245 4.75998C64.9245 4.828 64.9529 4.89436 65.0058 4.94998C65.0531 5.00977 65.1233 5.05784 65.2075 5.0881C65.2917 5.11837 65.3862 5.12947 65.4789 5.12C65.6006 5.12 77.0238 3.74998 81.7012 5.84998C78.8478 6.9444 76.3944 8.53285 74.5499 10.48C74.4946 10.5387 74.465 10.6085 74.465 10.68C74.465 10.7515 74.4946 10.8213 74.5499 10.88C74.6049 10.9372 74.6825 10.9804 74.7721 11.0037C74.8617 11.027 74.9588 11.0292 75.0501 11.01C75.1447 11.01 83.6208 9.25999 87.5141 10.96C86.1434 11.4515 84.9193 12.1409 83.9141 12.9875C82.9088 13.8342 82.1427 14.821 81.6606 15.89C81.6327 15.9508 81.6293 16.0162 81.6509 16.0784C81.6726 16.1406 81.7182 16.1967 81.7823 16.24C81.8428 16.2851 81.9202 16.3158 82.0045 16.3283C82.0887 16.3408 82.1761 16.3344 82.2555 16.31C84.2697 15.76 89.5149 14.67 92.2186 15.41C90.9738 15.6779 89.8514 16.192 88.9724 16.8968C88.0934 17.6017 87.4911 18.4706 87.2303 19.41C87.2171 19.4726 87.2279 19.5366 87.2613 19.5949C87.2948 19.6532 87.3495 19.7035 87.4195 19.74C87.4935 19.7716 87.5774 19.7882 87.6629 19.7882C87.7483 19.7882 87.8322 19.7716 87.9062 19.74C89.2433 19.2307 90.733 18.9801 92.2364 19.0116C93.7397 19.0431 95.2079 19.3556 96.5039 19.92C94.8161 20.4256 93.3709 21.2927 92.3538 22.41C92.3206 22.4562 92.3033 22.5077 92.3033 22.56C92.3033 22.6123 92.3206 22.6638 92.3538 22.71C92.3788 22.7593 92.4185 22.8038 92.47 22.8401C92.5215 22.8765 92.5835 22.9038 92.6512 22.92C96.6302 23.9759 100.17 25.7781 102.925 28.15C96.2471 26.24 73.59 20.49 65.6412 28.15C65.4519 28.36 60.9773 33.35 62.9375 38.24C62.9645 38.3056 63.0176 38.3636 63.09 38.4064C63.1624 38.4493 63.2507 38.4749 63.3431 38.48H63.4107C63.4917 38.4736 63.5691 38.4518 63.6354 38.4168C63.7017 38.3817 63.7547 38.3346 63.7891 38.28C63.7891 38.21 67.7366 31.77 71.8192 30.28C71.5757 32.2525 71.9647 34.2396 72.9547 36.08C72.9861 36.1458 73.0449 36.2025 73.1226 36.242C73.2004 36.2816 73.293 36.3019 73.3873 36.3C73.4845 36.2989 73.5786 36.2751 73.6563 36.232C73.7341 36.1889 73.7913 36.1287 73.8199 36.06C73.8199 36.01 76.0505 30.93 79.376 29.62C79.2279 30.5555 79.3308 31.5034 79.6787 32.4094C80.0267 33.3155 80.6129 34.1618 81.4038 34.9C81.458 34.949 81.5302 34.9855 81.6117 35.005C81.6932 35.0245 81.7806 35.0262 81.8634 35.01C81.9467 34.9975 82.0232 34.9671 82.0833 34.9226C82.1434 34.8782 82.1845 34.8216 82.2014 34.76C82.5934 33.5 83.9047 30.4 85.7567 29.26C85.4742 30.0276 85.473 30.837 85.7534 31.605C86.0337 32.373 86.5855 33.0719 87.3519 33.63C87.415 33.672 87.4923 33.7006 87.5755 33.713C87.6588 33.7253 87.745 33.7208 87.8251 33.7C87.9058 33.6765 87.9763 33.637 88.0287 33.5858C88.0812 33.5347 88.1136 33.4739 88.1225 33.41C88.2649 32.5062 88.7023 31.6416 89.3971 30.8907C90.0918 30.1399 91.023 29.5253 92.1104 29.1C91.8412 30.192 92.0104 31.3184 92.5971 32.34C92.6242 32.388 92.6666 32.4303 92.7208 32.4634C92.775 32.4965 92.8392 32.5194 92.908 32.53C92.9762 32.5411 93.047 32.5406 93.115 32.5285C93.1829 32.5164 93.2462 32.4929 93.3 32.46C94.3682 31.8403 95.535 31.3197 96.7743 30.91C96.233 31.2794 95.8128 31.7354 95.5457 32.2432C95.2786 32.7509 95.1717 33.2971 95.2332 33.84C95.3433 34.7932 95.9604 35.6752 96.9489 36.2921C97.9375 36.9089 99.2167 37.2103 100.505 37.13C101.565 37.0612 102.563 36.7341 103.344 36.2C104.493 38.42 108.887 49.06 101.452 70.2C91.421 72.43 89.8258 74.77 88.4334 76.84C87.9818 77.5921 87.3803 78.2899 86.649 78.91C85.9422 79.649 85.5242 80.5177 85.4408 81.4209C85.3573 82.324 85.6116 83.2267 86.1758 84.03C88.0278 86.89 94.1247 90.03 112.591 88.88C125.298 88.08 133.126 85.88 135.856 82.34C136.411 81.6619 136.743 80.8975 136.828 80.1076C136.912 79.3177 136.746 78.5241 136.343 77.79C133.639 73.01 126.718 69.14 120.121 68.67C119.066 60.96 115.835 42.89 108.184 35.67C108.507 35.695 108.834 35.695 109.157 35.67C110.447 35.5861 111.639 35.1274 112.473 34.3946C113.307 33.6617 113.714 32.7144 113.605 31.76C113.521 31.0427 113.147 30.3607 112.532 29.8026C111.918 29.2444 111.09 28.8358 110.158 28.63C112.762 28.4626 115.385 28.6422 117.904 29.16C117.965 29.1821 118.032 29.1935 118.1 29.1935C118.168 29.1935 118.235 29.1821 118.296 29.16C118.356 29.1322 118.406 29.094 118.441 29.0487C118.476 29.0033 118.496 28.9523 118.499 28.9C118.533 27.6563 118.062 26.4337 117.147 25.39C118.52 25.4859 119.84 25.8332 120.987 26.4005C122.134 26.9679 123.072 27.7375 123.717 28.64C123.754 28.6962 123.812 28.7437 123.883 28.7773C123.955 28.8108 124.038 28.829 124.122 28.83C124.207 28.829 124.29 28.8108 124.361 28.7773C124.433 28.7437 124.49 28.6962 124.528 28.64C125.018 27.8305 125.202 26.9376 125.059 26.0568C124.916 25.176 124.452 24.3406 123.717 23.64C126.258 24.19 129.394 27.04 130.476 28.24C130.522 28.2896 130.585 28.3295 130.659 28.3557C130.732 28.382 130.814 28.3938 130.895 28.39C130.981 28.3806 131.061 28.3528 131.126 28.3102C131.191 28.2676 131.237 28.2119 131.26 28.15C131.661 27.1583 131.793 26.1178 131.649 25.0882C131.505 24.0587 131.088 23.0602 130.422 22.15C134.572 22.45 139.682 27.06 139.736 27.15C139.797 27.2045 139.878 27.2442 139.97 27.2638C140.062 27.2835 140.159 27.2821 140.25 27.26C140.342 27.2377 140.422 27.1931 140.476 27.1332C140.53 27.0733 140.555 27.0017 140.547 26.93C140.559 24.7374 139.863 22.5743 138.519 20.62C143.535 20.9 151.146 26.4 151.227 26.46C151.293 26.5085 151.379 26.5403 151.471 26.5511C151.563 26.5618 151.657 26.551 151.741 26.52C151.824 26.4914 151.894 26.4443 151.94 26.3852C151.986 26.3261 152.006 26.2579 151.997 26.19C151.416 20.62 144.13 16.85 143.792 16.68ZM119.607 72.29C119.43 73.3407 118.848 74.3314 117.93 75.1437C117.011 75.9559 115.796 76.5553 114.429 76.87C110.59 77.87 105.169 77.21 102.601 75.43C102.078 75.1157 101.687 74.6976 101.473 74.2246C101.26 73.7517 101.234 73.2436 101.398 72.76L101.722 71.88C105.047 72.7941 108.588 73.1989 112.131 73.07C114.891 72.9877 117.501 72.1208 119.418 70.65C119.539 71.56 119.594 72.14 119.607 72.29ZM119.296 69.69C114.659 74.3 104.074 71.79 101.952 71.22C102.574 69.52 103.119 67.8866 103.588 66.32C105.977 67.411 108.782 67.8956 111.577 67.7C114.111 67.5011 116.555 66.8972 118.742 65.93C118.972 67.39 119.161 68.67 119.296 69.69ZM118.62 65.2C110.509 68.8 104.939 66.2 103.75 65.61C104.209 64.04 104.588 62.54 104.926 61.11C107.106 61.6306 109.402 61.831 111.685 61.7C113.773 61.5775 115.799 61.1166 117.62 60.35C118.066 62.08 118.363 63.77 118.62 65.2ZM105.102 60.43C105.44 58.93 105.71 57.49 105.913 56.14C107.702 56.624 109.612 56.8117 111.509 56.69C113.282 56.5788 115.002 56.1866 116.552 55.54C116.917 56.93 117.228 58.3 117.512 59.63C115.636 60.3932 113.567 60.8586 111.434 60.9963C109.302 61.1341 107.154 60.9412 105.129 60.43H105.102ZM106.007 55.43C106.183 54.15 106.318 52.93 106.399 51.78C107.927 52.1552 109.541 52.298 111.144 52.2C112.629 52.1022 114.065 51.7605 115.349 51.2C115.714 52.39 116.065 53.6 116.376 54.79C114.826 55.4597 113.093 55.8656 111.304 55.978C109.516 56.0904 107.715 55.9067 106.034 55.44L106.007 55.43ZM106.454 51.07C106.454 50 106.535 48.99 106.521 48.07C107.52 48.2044 108.538 48.2414 109.549 48.18C111.11 48.1021 112.609 47.7 113.875 47.02C114.321 48.18 114.74 49.37 115.119 50.57C113.815 51.1134 112.367 51.4405 110.876 51.5286C109.384 51.6167 107.884 51.4636 106.481 51.08L106.454 51.07ZM106.521 47.34C106.521 46.15 106.413 45.06 106.291 44.06C107.018 44.1817 107.766 44.2188 108.508 44.17C109.848 44.0806 111.133 43.7361 112.239 43.17C112.713 44.17 113.172 45.17 113.591 46.26C112.585 46.7956 111.439 47.1694 110.226 47.3571C109.013 47.5449 107.76 47.5424 106.548 47.35L106.521 47.34ZM106.21 43.34C106.093 42.5 105.958 41.73 105.805 41.03C106.232 41.0609 106.662 41.0609 107.089 41.03C108.337 40.9656 109.527 40.6162 110.496 40.03C110.996 40.82 111.455 41.66 111.915 42.53C111.116 42.9788 110.189 43.2861 109.205 43.4283C108.221 43.5704 107.205 43.5436 106.237 43.35L106.21 43.34ZM105.656 40.34C105.453 39.54 105.25 38.85 105.048 38.26C105.326 38.28 105.607 38.28 105.886 38.26C106.906 38.2083 107.867 37.885 108.589 37.35C109.154 37.9946 109.668 38.6624 110.131 39.35C109.536 39.7508 108.829 40.0486 108.059 40.2216C107.29 40.3946 106.478 40.4384 105.683 40.35L105.656 40.34ZM104.777 37.54C104.52 36.88 104.291 36.39 104.115 36.05H104.696C105.413 36.0013 106.106 35.8338 106.724 35.56C107.206 35.9435 107.657 36.3475 108.076 36.77C107.672 37.102 107.157 37.3491 106.582 37.4861C106.008 37.6231 105.394 37.6451 104.804 37.55L104.777 37.54ZM106.548 34.85C106.104 35.075 105.605 35.2324 105.078 35.3131C104.551 35.3938 104.008 35.3961 103.479 35.32C102.643 35.1929 101.884 34.8691 101.316 34.397C100.749 33.9248 100.403 33.3295 100.33 32.7C100.283 32.3221 100.338 31.9412 100.491 31.5791C100.644 31.217 100.893 30.8809 101.222 30.59C101.552 30.287 101.962 30.0367 102.427 29.8545C102.891 29.6723 103.401 29.5619 103.926 29.53H104.507C105.008 29.5487 105.5 29.6404 105.953 29.8C106.581 30.0188 107.12 30.3556 107.516 30.7768C107.912 31.198 108.152 31.6887 108.211 32.2C108.28 32.7107 108.164 33.2257 107.877 33.6929C107.59 34.1601 107.141 34.5627 106.575 34.86L106.548 34.85ZM110.604 3.01999C112.338 2.52295 114.158 2.20986 116.011 2.09C117.947 1.94115 119.904 2.1084 121.743 2.57999C118.918 3.15999 112.28 4.74 110.604 7.16C110.561 7.21095 110.538 7.26985 110.538 7.32999C110.538 7.39012 110.561 7.44905 110.604 7.5C110.646 7.55031 110.706 7.59095 110.778 7.61743C110.849 7.64391 110.93 7.6552 111.009 7.64999C113.171 7.68824 115.288 8.1174 117.174 8.89999C114.767 9.22999 109.833 10.13 108.4 12.19C108.361 12.2402 108.34 12.2971 108.34 12.355C108.34 12.4129 108.361 12.4698 108.4 12.52C108.442 12.5714 108.502 12.6134 108.573 12.6416C108.644 12.6698 108.725 12.6831 108.806 12.68C110.886 12.6871 112.89 13.2561 114.443 14.28C112.388 14.41 107.751 14.9 106.562 16.57C106.516 16.624 106.492 16.6864 106.492 16.75C106.492 16.8136 106.516 16.876 106.562 16.93C106.61 16.9847 106.68 17.0268 106.763 17.0501C106.846 17.0735 106.936 17.0769 107.021 17.06C107.865 16.9346 108.737 16.96 109.564 17.1339C110.392 17.3078 111.151 17.6253 111.78 18.06C110.479 18.077 109.206 18.3417 108.083 18.8286C106.961 19.3156 106.027 20.0083 105.372 20.84C105.329 20.8929 105.307 20.9533 105.307 21.015C105.307 21.0766 105.329 21.1371 105.372 21.19C105.419 21.2419 105.484 21.2834 105.56 21.3098C105.636 21.3363 105.721 21.3467 105.805 21.34C107.082 21.2747 108.36 21.461 109.509 21.88C107.213 23.5227 105.467 25.5397 104.412 27.77C103.452 22.97 100.451 6.82 110.712 3.03L110.604 3.01999ZM93.3406 22.52C94.4339 21.56 95.8659 20.8434 97.4773 20.45C97.5584 20.4328 97.6316 20.3995 97.6888 20.3537C97.746 20.3078 97.7851 20.2512 97.8017 20.19C97.8148 20.1284 97.8054 20.0653 97.7745 20.0073C97.7436 19.9493 97.6924 19.8984 97.626 19.86C96.288 19.118 94.7124 18.6458 93.0535 18.4898C91.3946 18.3338 89.7094 18.4993 88.163 18.97C89.258 16.47 93.1108 15.97 93.2865 15.91C93.373 15.9018 93.4541 15.8745 93.5192 15.8317C93.5843 15.7889 93.6305 15.7325 93.6515 15.67C93.6714 15.6071 93.6681 15.5415 93.642 15.4799C93.6158 15.4183 93.5677 15.3631 93.5028 15.32C90.9884 13.76 84.9997 14.97 82.688 15.52C83.8197 13.665 85.8646 12.1989 88.4064 11.42C88.4832 11.4007 88.5515 11.3664 88.6039 11.3206C88.6563 11.2747 88.6908 11.2192 88.7038 11.16C88.7176 11.1017 88.7112 11.0418 88.6852 10.9858C88.6592 10.9298 88.6144 10.8797 88.555 10.84C85.4728 8.89 78.7677 9.72 75.9288 10.19C77.6759 8.50248 79.9737 7.17083 82.6069 6.31998C82.683 6.29981 82.7506 6.26516 82.8028 6.21951C82.855 6.17386 82.89 6.11885 82.9043 6.06C82.9209 6.0017 82.9158 5.94117 82.8896 5.88483C82.8634 5.82849 82.8172 5.77843 82.7556 5.73999C79.0921 3.45999 69.9131 4.06997 66.5334 4.37997C71.6434 0.719974 80.0519 0.73999 80.133 0.73999C94.8952 1.57999 101.884 22.33 103.479 27.86C100.756 25.501 97.2941 23.6711 93.3947 22.53L93.3406 22.52ZM93.1378 31.77C92.779 30.7876 92.779 29.7524 93.1378 28.77C93.163 28.7106 93.1648 28.6472 93.1433 28.587C93.1218 28.5268 93.0777 28.4724 93.0162 28.43C92.9573 28.3862 92.8831 28.3555 92.8019 28.3413C92.7206 28.3272 92.6356 28.3302 92.5565 28.35C91.2462 28.6954 90.078 29.2843 89.1642 30.0602C88.2504 30.836 87.6216 31.7726 87.3384 32.78C86.8379 32.1973 86.5359 31.5336 86.4582 30.8456C86.3805 30.1577 86.5295 29.466 86.8923 28.83C86.9382 28.778 86.9627 28.7172 86.9627 28.655C86.9627 28.5928 86.9382 28.532 86.8923 28.48C86.8343 28.4319 86.7591 28.3969 86.6753 28.3792C86.5916 28.3615 86.5027 28.3618 86.4191 28.38C83.7965 28.95 82.1743 32.5 81.593 34.03C80.422 32.612 80.0075 30.9219 80.4304 29.29C80.4472 29.2325 80.4436 29.1729 80.4199 29.1168C80.3962 29.0607 80.3532 29.0102 80.2953 28.97C80.2395 28.926 80.1676 28.895 80.0883 28.8808C80.0091 28.8666 79.926 28.8698 79.8492 28.89C76.6318 29.58 74.3471 33.29 73.4279 35.06C72.684 33.4188 72.4937 31.668 72.8736 29.96C72.896 29.902 72.8965 29.8406 72.8751 29.7824C72.8536 29.7242 72.8111 29.6715 72.752 29.63C72.6944 29.588 72.6224 29.5584 72.5439 29.5443C72.4653 29.5302 72.383 29.5322 72.3058 29.55C68.5071 30.39 64.9112 35.25 63.5458 37.28C62.559 32.99 66.3712 28.73 66.3982 28.7C68.6963 26.5 72.3869 25.51 76.6047 25.24C86.1352 24.64 98.2343 27.76 102.709 29.01C99.2664 29.3515 95.9845 30.2979 93.1378 31.77ZM100.979 29.92L100.749 30.08H100.343L100.979 29.92ZM96.0714 33.92C96.0269 33.5357 96.0854 33.1488 96.2436 32.7813C96.4018 32.4138 96.6565 32.073 96.993 31.7785C97.3296 31.484 97.7415 31.2416 98.2051 31.0651C98.6686 30.8886 99.1747 30.7815 99.6943 30.75H100.1V30.8C100.1 30.85 100.032 30.91 99.9917 30.96C99.8993 31.0962 99.818 31.2365 99.7484 31.38L99.6673 31.59C99.6125 31.7309 99.5719 31.8746 99.5456 32.02V32.21C99.5186 32.4262 99.5186 32.6438 99.5456 32.86C99.5663 33.0421 99.607 33.2227 99.6673 33.4C99.6673 33.46 99.6673 33.52 99.7349 33.58L99.8971 33.92L100.019 34.11C100.083 34.2098 100.155 34.3067 100.235 34.4L100.397 34.59C100.475 34.6775 100.561 34.761 100.654 34.84L100.857 35.01C100.954 35.0916 101.058 35.1684 101.168 35.24L101.398 35.38C101.514 35.4522 101.635 35.519 101.763 35.58L101.992 35.69C102.187 35.7719 102.391 35.8421 102.601 35.9C101.976 36.2925 101.201 36.5303 100.384 36.58C99.854 36.6169 99.3196 36.5748 98.8123 36.4561C98.305 36.3375 97.8351 36.1446 97.4304 35.8891C97.0257 35.6336 96.6945 35.3205 96.4564 34.9685C96.2183 34.6165 96.0782 34.2328 96.0443 33.84L96.0714 33.92ZM135.478 78.21C135.823 78.8583 135.96 79.5571 135.878 80.2512C135.796 80.9453 135.497 81.6159 135.005 82.21C133.234 84.49 127.88 87.42 112.469 88.4C93.5434 89.59 88.3658 86.11 86.9464 83.92C86.4706 83.2377 86.2499 82.4738 86.3069 81.7073C86.364 80.9408 86.6967 80.1995 87.2708 79.56C88.0651 78.8919 88.7212 78.1404 89.2175 77.33C90.5693 75.33 91.9888 73.27 101.127 71.16C100.952 71.67 100.762 72.16 100.573 72.7C100.35 73.3014 100.369 73.9379 100.629 74.5313C100.888 75.1247 101.376 75.649 102.033 76.04C103.384 76.8369 104.935 77.429 106.596 77.7824C108.256 78.1359 109.995 78.2438 111.712 78.1C112.762 78.0338 113.797 77.8727 114.794 77.62C116.326 77.2635 117.686 76.5883 118.712 75.6749C119.738 74.7616 120.387 73.6489 120.58 72.47V72.4C120.58 72.19 120.459 71.15 120.242 69.54C123.537 69.9352 126.649 70.9261 129.302 72.4246C131.955 73.923 134.067 75.8828 135.451 78.13L135.478 78.21ZM112.686 32.01C112.73 32.3935 112.672 32.7797 112.515 33.1465C112.357 33.5134 112.104 33.8538 111.769 34.1481C111.433 34.4425 111.023 34.6852 110.561 34.8622C110.099 35.0393 109.595 35.1473 109.076 35.18C108.623 35.2125 108.165 35.1854 107.724 35.1C107.805 35.05 107.859 34.99 107.941 34.93L108.049 34.84C108.17 34.73 108.292 34.61 108.4 34.49C108.495 34.38 108.576 34.26 108.657 34.15L108.738 34.02C108.738 33.93 108.833 33.84 108.873 33.74C108.914 33.64 108.873 33.64 108.941 33.59C108.98 33.4982 109.012 33.4047 109.036 33.31V33.16V32.86C109.042 32.8134 109.042 32.7666 109.036 32.72C109.049 32.5702 109.049 32.4198 109.036 32.27C109.036 32.12 109.036 31.98 108.941 31.83C108.846 31.68 108.941 31.74 108.941 31.69C108.941 31.64 108.873 31.5 108.833 31.41L108.752 31.25C108.708 31.1649 108.658 31.0814 108.603 31C108.572 30.948 108.536 30.8978 108.495 30.85C108.495 30.77 108.373 30.69 108.306 30.61L108.184 30.48C108.101 30.3867 108.006 30.2996 107.9 30.22L107.819 30.14C107.69 30.0383 107.555 29.9415 107.413 29.85L107.251 29.76L107.021 29.62C107.424 29.4895 107.854 29.4084 108.292 29.38C109.327 29.2952 110.365 29.5153 111.182 29.9925C112 30.4697 112.53 31.1657 112.659 31.93L112.686 32.01ZM137.749 20.01C137.669 20.0154 137.593 20.0357 137.527 20.0689C137.46 20.1021 137.407 20.1472 137.37 20.2C137.331 20.252 137.311 20.3105 137.311 20.37C137.311 20.4295 137.331 20.488 137.37 20.54C138.723 22.2075 139.494 24.0975 139.614 26.04C137.762 24.54 133.355 21.34 129.651 21.58C129.573 21.5841 129.497 21.604 129.433 21.6375C129.369 21.671 129.318 21.7168 129.286 21.77C129.247 21.822 129.227 21.8805 129.227 21.94C129.227 21.9995 129.247 22.058 129.286 22.11C130.613 23.6905 131.096 25.5805 130.638 27.41C129.286 26.05 125.609 22.82 122.595 23.02C122.507 23.0229 122.422 23.0454 122.352 23.0847C122.282 23.1241 122.23 23.1782 122.203 23.24C122.169 23.2994 122.162 23.365 122.181 23.4277C122.201 23.4904 122.246 23.5472 122.311 23.59C123.044 24.1446 123.581 24.8245 123.873 25.5695C124.165 26.3144 124.205 27.1012 123.987 27.86C123.147 26.9115 121.994 26.1378 120.635 25.6127C119.277 25.0875 117.759 24.8284 116.227 24.86C116.142 24.864 116.06 24.8846 115.988 24.9197C115.917 24.9549 115.86 25.0032 115.822 25.06C115.789 25.1173 115.777 25.1803 115.789 25.242C115.801 25.3037 115.836 25.3619 115.889 25.41C116.815 26.3319 117.377 27.4258 117.512 28.57C114.994 28.1058 112.39 27.9571 109.806 28.13C108.554 28.2154 107.312 28.3658 106.089 28.58C111.496 24.93 131.571 12.15 143.251 17.32C143.319 17.32 149.659 20.63 150.916 25.39C148.564 23.69 142.115 19.68 137.749 19.96V20.01Z" fill="#E5E5E5"/>
<path d="M81.6064 40.68C69.0882 35.15 48.4455 48.47 43.2003 52.1C44.2583 49.7979 46.0913 47.733 48.5266 46.1C48.5837 46.0669 48.6293 46.0243 48.6599 45.9756C48.6904 45.9269 48.705 45.8736 48.7023 45.82C48.7025 45.7684 48.6853 45.7176 48.6522 45.6722C48.6192 45.6268 48.5713 45.5883 48.5131 45.56C47.3535 44.9802 45.9921 44.6607 44.5927 44.64C45.3128 43.9837 46.238 43.4669 47.2884 43.1342C48.3388 42.8014 49.4829 42.6627 50.6219 42.73C50.706 42.7392 50.7918 42.7299 50.8688 42.7032C50.9457 42.6765 51.0103 42.6337 51.0545 42.58C51.0972 42.5253 51.1198 42.4632 51.1198 42.4C51.1198 42.3368 51.0972 42.2747 51.0545 42.22C50.5019 41.6016 49.7384 41.1021 48.8412 40.7719C47.9439 40.4418 46.9446 40.2928 45.9445 40.34C47.7155 39.34 51.7305 38.98 53.3527 38.94C53.4392 38.9394 53.5236 38.9201 53.5956 38.8846C53.6677 38.8491 53.7241 38.7988 53.7582 38.74C53.7914 38.6827 53.8027 38.6197 53.7908 38.558C53.7789 38.4963 53.7442 38.4381 53.6907 38.39C52.1252 37.0431 49.9059 36.2061 47.5127 36.06C49.7568 34.06 56.4079 33.46 56.4755 33.45C56.5704 33.4446 56.6602 33.4162 56.7311 33.3692C56.802 33.3222 56.8499 33.2592 56.8675 33.19C56.8898 33.1513 56.9015 33.1097 56.902 33.0676C56.9025 33.0255 56.8918 32.9837 56.8704 32.9447C56.8491 32.9057 56.8175 32.8702 56.7776 32.8402C56.7376 32.8102 56.6901 32.7864 56.6377 32.77C54.5278 31.7761 52.1358 31.1567 49.6486 30.96C52.3523 28.48 60.9501 26.96 61.0447 26.96C61.1364 26.9441 61.2193 26.9078 61.2822 26.8559C61.345 26.804 61.3848 26.7391 61.3962 26.67C61.4068 26.6018 61.3892 26.5328 61.3458 26.4721C61.3024 26.4114 61.2351 26.3619 61.1529 26.33C55.394 24.11 48.3644 26.27 48.0399 26.33C39.9288 29.33 39.5638 39.28 40.4155 46.17C37.2251 37.8 30.2901 24.69 18.0288 24C17.6233 24 8.06571 24 2.82053 28.57C2.76759 28.6256 2.73918 28.692 2.73918 28.76C2.73918 28.828 2.76759 28.8944 2.82053 28.95C2.86781 29.0098 2.93796 29.0578 3.02219 29.0881C3.10641 29.1184 3.20089 29.1295 3.29365 29.12C3.41531 29.12 14.8385 27.75 19.5159 29.85C16.6625 30.9444 14.2091 32.5329 12.3646 34.48C12.3093 34.5387 12.2797 34.6085 12.2797 34.68C12.2797 34.7515 12.3093 34.8213 12.3646 34.88C12.4196 34.9372 12.4972 34.9804 12.5868 35.0037C12.6764 35.027 12.7735 35.0292 12.8648 35.01C12.9594 35.01 21.4355 33.26 25.3288 34.96C23.9581 35.4515 22.734 36.1409 21.7288 36.9875C20.7235 37.8342 19.9573 38.821 19.4753 39.89C19.4474 39.9508 19.444 40.0162 19.4656 40.0784C19.4872 40.1406 19.5329 40.1967 19.597 40.24C19.6575 40.2851 19.7349 40.3158 19.8192 40.3283C19.9034 40.3408 19.9908 40.3344 20.0702 40.31C22.0844 39.76 27.3296 38.67 30.0333 39.41C28.7885 39.6779 27.6661 40.192 26.7871 40.8968C25.9081 41.6017 25.3057 42.4706 25.045 43.41C25.0318 43.4726 25.0426 43.5366 25.076 43.5949C25.1095 43.6532 25.1642 43.7035 25.2342 43.74C25.3082 43.7716 25.3921 43.7882 25.4776 43.7882C25.563 43.7882 25.6469 43.7716 25.7209 43.74C27.058 43.2307 28.5477 42.9801 30.0511 43.0116C31.5544 43.0431 33.0226 43.3556 34.3186 43.92C32.6308 44.4256 31.1856 45.2927 30.1685 46.41C30.1353 46.4562 30.118 46.5077 30.118 46.56C30.118 46.6123 30.1353 46.6638 30.1685 46.71C30.1935 46.7593 30.2332 46.8038 30.2847 46.8401C30.3362 46.8765 30.3981 46.9038 30.4659 46.92C34.4449 47.9759 37.9851 49.7781 40.7399 52.15C34.0618 50.24 11.4047 44.49 3.45586 52.15C3.2666 52.36 -1.20802 57.35 0.752161 62.24C0.779165 62.3056 0.832347 62.3636 0.904723 62.4064C0.977098 62.4493 1.06535 62.4749 1.15778 62.48H1.22536C1.30639 62.4736 1.3838 62.4518 1.45012 62.4168C1.51643 62.3817 1.56937 62.3346 1.60383 62.28C1.60383 62.21 5.55128 55.77 9.63387 54.28C9.39035 56.2525 9.7794 58.2396 10.7694 60.08C10.8008 60.1458 10.8596 60.2025 10.9373 60.242C11.015 60.2816 11.1077 60.3019 11.202 60.3C11.2992 60.2989 11.3933 60.2751 11.471 60.232C11.5488 60.1889 11.606 60.1287 11.6346 60.06C11.6346 60.01 13.8652 54.93 17.1907 53.62C17.0426 54.5555 17.1455 55.5034 17.4934 56.4094C17.8414 57.3155 18.4276 58.1618 19.2185 58.9C19.2727 58.949 19.3449 58.9855 19.4264 59.005C19.5079 59.0245 19.5953 59.0262 19.6781 59.01C19.7614 58.9975 19.8379 58.9671 19.898 58.9226C19.9581 58.8782 19.9992 58.8216 20.0161 58.76C20.4081 57.5 21.7194 54.4 23.5714 53.26C23.2889 54.0276 23.2877 54.837 23.5681 55.605C23.8484 56.373 24.4002 57.0719 25.1666 57.63C25.2297 57.672 25.307 57.7006 25.3902 57.713C25.4735 57.7253 25.5597 57.7208 25.6398 57.7C25.7205 57.6765 25.791 57.637 25.8434 57.5858C25.8959 57.5347 25.9283 57.4739 25.9372 57.41C26.0796 56.5062 26.517 55.6416 27.2118 54.8907C27.9065 54.1399 28.8377 53.5253 29.9251 53.1C29.6559 54.192 29.8251 55.3184 30.4118 56.34C30.4389 56.388 30.4813 56.4303 30.5355 56.4634C30.5897 56.4965 30.6539 56.5194 30.7227 56.53C30.7909 56.5411 30.8617 56.5406 30.9297 56.5285C30.9976 56.5164 31.0609 56.4929 31.1147 56.46C32.1829 55.8403 33.3497 55.3197 34.589 54.91C34.0477 55.2794 33.6275 55.7354 33.3604 56.2432C33.0933 56.7509 32.9864 57.2971 33.0479 57.84C33.158 58.7932 33.7751 59.6752 34.7636 60.2921C35.7522 60.9089 37.0314 61.2103 38.3201 61.13C39.3796 61.0612 40.3781 60.7341 41.159 60.2C42.3081 62.42 46.7016 73.06 39.2664 94.2C29.2357 96.43 27.6405 98.77 26.2481 100.84C25.7965 101.592 25.195 102.29 24.4637 102.91C23.7569 103.649 23.3389 104.518 23.2555 105.421C23.172 106.324 23.4263 107.227 23.9905 108.03C25.8425 110.89 31.9394 114.03 50.4057 112.88C63.1131 112.08 70.9403 109.88 73.671 106.34C74.2253 105.662 74.5579 104.898 74.6424 104.108C74.7269 103.318 74.5609 102.524 74.1576 101.79C71.4539 97.01 64.5325 93.14 57.9354 92.67C56.881 84.96 53.6501 66.89 45.9986 59.67C46.3222 59.695 46.6484 59.695 46.972 59.67C48.2617 59.5861 49.454 59.1274 50.2876 58.3946C51.1212 57.6617 51.5283 56.7144 51.4196 55.76C51.3355 55.0427 50.9618 54.3607 50.3471 53.8026C49.7324 53.2444 48.9049 52.8358 47.9723 52.63C50.5764 52.4626 53.2 52.6422 55.7184 53.16C55.7795 53.1821 55.8465 53.1935 55.9144 53.1935C55.9824 53.1935 56.0494 53.1821 56.1104 53.16C56.1704 53.1322 56.2203 53.094 56.2556 53.0487C56.291 53.0033 56.3108 52.9523 56.3133 52.9C56.3472 51.6563 55.8764 50.4337 54.9614 49.39C56.3351 49.4859 57.6549 49.8332 58.8018 50.4005C59.9488 50.9679 60.8868 51.7375 61.5314 52.64C61.5687 52.6962 61.6264 52.7437 61.698 52.7773C61.7695 52.8108 61.8522 52.829 61.937 52.83C62.0217 52.829 62.1043 52.8108 62.1759 52.7773C62.2475 52.7437 62.3051 52.6962 62.3425 52.64C62.8331 51.8305 63.0168 50.9376 62.8739 50.0568C62.7311 49.176 62.267 48.3406 61.5314 47.64C64.0728 48.19 67.2091 51.04 68.2906 52.24C68.3371 52.2896 68.4001 52.3295 68.4735 52.3557C68.5469 52.382 68.6283 52.3938 68.7097 52.39C68.7955 52.3806 68.8757 52.3528 68.9406 52.3102C69.0054 52.2676 69.052 52.2119 69.0747 52.15C69.4753 51.1583 69.6074 50.1178 69.4635 49.0882C69.3197 48.0587 68.9028 47.0602 68.2365 46.15C72.3867 46.45 77.4967 51.06 77.5508 51.15C77.6114 51.2045 77.693 51.2442 77.7846 51.2638C77.8763 51.2835 77.9739 51.2821 78.0645 51.26C78.157 51.2377 78.2367 51.1931 78.2907 51.1332C78.3446 51.0733 78.3697 51.0017 78.3619 50.93C78.3733 48.7374 77.6781 46.5743 76.3341 44.62C81.3495 44.9 88.9604 50.4 89.0415 50.46C89.1079 50.5085 89.1932 50.5403 89.2853 50.5511C89.3775 50.5618 89.4719 50.551 89.5552 50.52C89.6389 50.4914 89.7085 50.4443 89.7545 50.3852C89.8005 50.3261 89.8206 50.2579 89.8121 50.19C89.2308 44.62 81.9443 40.85 81.6064 40.68ZM57.4217 96.29C57.2448 97.3407 56.6624 98.3314 55.7442 99.1437C54.826 99.9559 53.6108 100.555 52.2442 100.87C48.4049 101.87 42.984 101.21 40.4155 99.43C39.8923 99.1157 39.5012 98.6976 39.2881 98.2246C39.075 97.7517 39.0487 97.2436 39.2123 96.76L39.5368 95.88C42.8618 96.7941 46.4031 97.1989 49.946 97.07C52.7056 96.9877 55.3158 96.1208 57.2325 94.65C57.3542 95.56 57.4082 96.14 57.4217 96.29ZM57.1108 93.69C52.474 98.3 41.889 95.79 39.7666 95.22C40.3884 93.52 40.9337 91.8866 41.4023 90.32C43.7914 91.411 46.5966 91.8956 49.3918 91.7C51.9253 91.5011 54.37 90.8972 56.5566 89.93C56.7864 91.39 56.9757 92.67 57.1108 93.69ZM56.4349 89.2C48.3238 92.8 42.7542 90.2 41.5646 89.61C42.0242 88.04 42.4027 86.54 42.7407 85.11C44.9202 85.6306 47.2164 85.831 49.4999 85.7C51.5881 85.5775 53.6142 85.1166 55.4345 84.35C55.8806 86.08 56.1781 87.77 56.4349 89.2ZM42.9164 84.43C43.2544 82.93 43.5247 81.49 43.7275 80.14C45.5162 80.624 47.4267 80.8117 49.3242 80.69C51.0971 80.5788 52.8168 80.1866 54.3666 79.54C54.7316 80.93 55.0425 82.3 55.3264 83.63C53.4511 84.3932 51.3812 84.8586 49.249 84.9963C47.1168 85.1341 44.9691 84.9412 42.9434 84.43H42.9164ZM43.8221 79.43C43.9979 78.15 44.1331 76.93 44.2142 75.78C45.7414 76.1552 47.3554 76.298 48.9592 76.2C50.4437 76.1022 51.88 75.7605 53.1634 75.2C53.5284 76.39 53.8799 77.6 54.1908 78.79C52.6405 79.4597 50.908 79.8656 49.1191 79.978C47.3303 80.0904 45.53 79.9067 43.8492 79.44L43.8221 79.43ZM44.2683 75.07C44.2683 74 44.3494 72.99 44.3358 72.07C45.3344 72.2044 46.3525 72.2414 47.364 72.18C48.9248 72.1021 50.4242 71.7 51.6899 71.02C52.136 72.18 52.5551 73.37 52.9336 74.57C51.63 75.1134 50.182 75.4405 48.6904 75.5286C47.1987 75.6167 45.699 75.4636 44.2953 75.08L44.2683 75.07ZM44.3358 71.34C44.3358 70.15 44.2277 69.06 44.106 68.06C44.8328 68.1817 45.5808 68.2188 46.3231 68.17C47.6626 68.0806 48.9481 67.7361 50.0542 67.17C50.5273 68.17 50.987 69.17 51.406 70.26C50.4002 70.7956 49.2538 71.1694 48.0406 71.3571C46.8275 71.5449 45.5747 71.5424 44.3629 71.35L44.3358 71.34ZM44.0249 67.34C43.9078 66.5 43.7726 65.73 43.6194 65.03C44.0464 65.0609 44.4766 65.0609 44.9036 65.03C46.1518 64.9656 47.3421 64.6162 48.3103 64.03C48.8105 64.82 49.2701 65.66 49.7297 66.53C48.9312 66.9788 48.004 67.2861 47.0197 67.4283C46.0354 67.5704 45.0201 67.5436 44.052 67.35L44.0249 67.34ZM43.4707 64.34C43.2679 63.54 43.0651 62.85 42.8623 62.26C43.1411 62.28 43.4217 62.28 43.7005 62.26C44.7207 62.2083 45.6812 61.885 46.4042 61.35C46.9684 61.9946 47.483 62.6624 47.9453 63.35C47.3511 63.7508 46.6436 64.0486 45.8742 64.2216C45.1048 64.3946 44.2929 64.4384 43.4977 64.35L43.4707 64.34ZM42.5919 61.54C42.3351 60.88 42.1053 60.39 41.9295 60.05H42.5108C43.2279 60.0013 43.9209 59.8338 44.5386 59.56C45.0207 59.9435 45.4721 60.3475 45.8905 60.77C45.4867 61.102 44.9714 61.3491 44.3968 61.4861C43.8222 61.6231 43.2089 61.6451 42.619 61.55L42.5919 61.54ZM44.3629 58.85C43.9191 59.075 43.4192 59.2324 42.8924 59.3131C42.3656 59.3938 41.8223 59.3961 41.2942 59.32C40.4574 59.1929 39.6987 58.8691 39.131 58.397C38.5634 57.9248 38.2173 57.3295 38.1444 56.7C38.0979 56.3221 38.1528 55.9412 38.3059 55.5791C38.459 55.217 38.7073 54.8809 39.0366 54.59C39.3666 54.287 39.7764 54.0367 40.2412 53.8545C40.706 53.6723 41.216 53.5619 41.7403 53.53H42.3216C42.8231 53.5487 43.3147 53.6404 43.7681 53.8C44.3955 54.0188 44.9343 54.3556 45.3305 54.7768C45.7267 55.198 45.9664 55.6887 46.0257 56.2C46.0943 56.7107 45.9792 57.2257 45.6919 57.6929C45.4046 58.1601 44.9555 58.5627 44.3899 58.86L44.3629 58.85ZM48.4184 27.02C50.1526 26.523 51.9731 26.2099 53.8259 26.09C55.7619 25.9411 57.7185 26.1084 59.5577 26.58C56.7323 27.16 50.0947 28.74 48.4184 31.16C48.3753 31.211 48.3523 31.2699 48.3523 31.33C48.3523 31.3901 48.3753 31.4491 48.4184 31.5C48.4607 31.5503 48.5209 31.5909 48.5925 31.6174C48.6641 31.6439 48.7442 31.6552 48.824 31.65C50.9859 31.6882 53.1023 32.1174 54.9884 32.9C52.5821 33.23 47.6479 34.13 46.2149 36.19C46.1758 36.2402 46.1551 36.2971 46.1551 36.355C46.1551 36.4129 46.1758 36.4698 46.2149 36.52C46.2565 36.5714 46.3163 36.6134 46.3877 36.6416C46.4591 36.6698 46.5396 36.6831 46.6205 36.68C48.7004 36.6871 50.7052 37.2561 52.2577 38.28C50.2029 38.41 45.566 38.9 44.3764 40.57C44.3308 40.624 44.3067 40.6864 44.3067 40.75C44.3067 40.8136 44.3308 40.876 44.3764 40.93C44.4247 40.9847 44.4952 41.0268 44.5777 41.0501C44.6603 41.0735 44.7507 41.0769 44.836 41.06C45.6795 40.9346 46.5513 40.96 47.3789 41.1339C48.2066 41.3078 48.9661 41.6253 49.5946 42.06C48.2936 42.077 47.0204 42.3417 45.898 42.8286C44.7756 43.3156 43.8418 44.0083 43.1868 44.84C43.1439 44.8929 43.1212 44.9533 43.1212 45.015C43.1212 45.0766 43.1439 45.1371 43.1868 45.19C43.2334 45.2419 43.2983 45.2834 43.3746 45.3098C43.4509 45.3363 43.5356 45.3467 43.6194 45.34C44.8969 45.2747 46.1749 45.461 47.3234 45.88C45.0273 47.5227 43.282 49.5397 42.227 51.77C41.2671 46.97 38.266 30.82 48.5266 27.03L48.4184 27.02ZM31.1553 46.52C32.2486 45.56 33.6806 44.8434 35.292 44.45C35.3731 44.4328 35.4463 44.3995 35.5035 44.3537C35.5607 44.3078 35.5998 44.2512 35.6164 44.19C35.6295 44.1284 35.6201 44.0653 35.5892 44.0073C35.5583 43.9493 35.5071 43.8984 35.4407 43.86C34.1027 43.118 32.5271 42.6458 30.8682 42.4898C29.2093 42.3338 27.5241 42.4993 25.9777 42.97C27.0727 40.47 30.9255 39.97 31.1012 39.91C31.1877 39.9018 31.2688 39.8745 31.3339 39.8317C31.399 39.7889 31.4452 39.7325 31.4662 39.67C31.4861 39.6071 31.4828 39.5415 31.4567 39.4799C31.4305 39.4183 31.3824 39.3631 31.3175 39.32C28.8031 37.76 22.8144 38.97 20.5027 39.52C21.6344 37.665 23.6793 36.1989 26.2211 35.42C26.2979 35.4007 26.3662 35.3664 26.4186 35.3206C26.471 35.2747 26.5055 35.2192 26.5185 35.16C26.5323 35.1017 26.5259 35.0418 26.4999 34.9858C26.4739 34.9298 26.4291 34.8797 26.3697 34.84C23.2875 32.89 16.5823 33.72 13.7435 34.19C15.4906 32.5025 17.7884 31.1708 20.4216 30.32C20.4977 30.2998 20.5653 30.2652 20.6175 30.2195C20.6697 30.1739 20.7047 30.1189 20.719 30.06C20.7356 30.0017 20.7305 29.9412 20.7043 29.8848C20.6781 29.8285 20.6319 29.7784 20.5703 29.74C16.9068 27.46 7.72775 28.07 4.34813 28.38C9.45812 24.72 17.8666 24.74 17.9477 24.74C32.7099 25.58 39.699 46.33 41.2942 51.86C38.5712 49.501 35.1088 47.6711 31.2094 46.53L31.1553 46.52ZM30.9525 55.77C30.5937 54.7876 30.5937 53.7524 30.9525 52.77C30.9777 52.7106 30.9795 52.6472 30.958 52.587C30.9365 52.5268 30.8924 52.4724 30.8309 52.43C30.772 52.3862 30.6978 52.3555 30.6165 52.3413C30.5353 52.3272 30.4503 52.3302 30.3712 52.35C29.0609 52.6954 27.8927 53.2843 26.9789 54.0602C26.0651 54.836 25.4363 55.7726 25.1531 56.78C24.6526 56.1973 24.3506 55.5336 24.2729 54.8456C24.1952 54.1577 24.3442 53.466 24.707 52.83C24.7529 52.778 24.7774 52.7172 24.7774 52.655C24.7774 52.5928 24.7529 52.532 24.707 52.48C24.649 52.4319 24.5738 52.3969 24.49 52.3792C24.4063 52.3615 24.3174 52.3618 24.2338 52.38C21.6112 52.95 19.989 56.5 19.4077 58.03C18.2367 56.612 17.8222 54.9219 18.2451 53.29C18.2619 53.2325 18.2583 53.1729 18.2346 53.1168C18.2109 53.0607 18.1679 53.0102 18.11 52.97C18.0542 52.926 17.9823 52.895 17.903 52.8808C17.8238 52.8666 17.7407 52.8698 17.6639 52.89C14.4465 53.58 12.1618 57.29 11.2426 59.06C10.4987 57.4188 10.3084 55.668 10.6883 53.96C10.7107 53.902 10.7112 53.8406 10.6898 53.7824C10.6683 53.7242 10.6258 53.6715 10.5666 53.63C10.5091 53.588 10.4371 53.5584 10.3586 53.5443C10.28 53.5302 10.1977 53.5322 10.1205 53.55C6.32182 54.39 2.72588 59.25 1.36051 61.28C0.373659 56.99 4.18586 52.73 4.21289 52.7C6.51104 50.5 10.2016 49.51 14.4194 49.24C23.9499 48.64 36.049 51.76 40.5236 53.01C37.0811 53.3515 33.7992 54.2979 30.9525 55.77ZM38.7932 53.92L38.5635 54.08H38.1579L38.7932 53.92ZM33.8861 57.92C33.8416 57.5357 33.9001 57.1488 34.0583 56.7813C34.2165 56.4138 34.4712 56.073 34.8077 55.7785C35.1443 55.484 35.5562 55.2416 36.0198 55.0651C36.4833 54.8886 36.9894 54.7815 37.509 54.75H37.9146V54.8C37.9146 54.85 37.847 54.91 37.8064 54.96C37.714 55.0962 37.6327 55.2365 37.5631 55.38L37.4819 55.59C37.4272 55.7309 37.3866 55.8746 37.3603 56.02V56.21C37.3333 56.4262 37.3333 56.6438 37.3603 56.86C37.381 57.0421 37.4217 57.2227 37.4819 57.4C37.4819 57.46 37.482 57.52 37.5496 57.58L37.7118 57.92L37.8334 58.11C37.8974 58.2098 37.9697 58.3067 38.0497 58.4L38.212 58.59C38.2899 58.6775 38.3758 58.761 38.4688 58.84L38.6716 59.01C38.7684 59.0916 38.8722 59.1684 38.9825 59.24L39.2123 59.38C39.3282 59.4522 39.4502 59.519 39.5773 59.58L39.8071 59.69C40.002 59.7719 40.2054 59.8421 40.4155 59.9C39.7907 60.2925 39.0154 60.5303 38.1984 60.58C37.6687 60.6169 37.1343 60.5748 36.627 60.4561C36.1197 60.3375 35.6498 60.1446 35.2451 59.8891C34.8404 59.6336 34.5092 59.3205 34.2711 58.9685C34.033 58.6165 33.8928 58.2328 33.859 57.84L33.8861 57.92ZM73.2925 102.21C73.6376 102.858 73.7746 103.557 73.6925 104.251C73.6103 104.945 73.3115 105.616 72.8193 106.21C71.0484 108.49 65.6951 111.42 50.284 112.4C31.3581 113.59 26.1805 110.11 24.7611 107.92C24.2853 107.238 24.0646 106.474 24.1216 105.707C24.1787 104.941 24.5114 104.2 25.0855 103.56C25.8798 102.892 26.5359 102.14 27.0322 101.33C28.384 99.33 29.8035 97.27 38.942 95.16C38.7662 95.67 38.577 96.16 38.3877 96.7C38.1646 97.3014 38.184 97.9379 38.4434 98.5313C38.7027 99.1247 39.1908 99.649 39.8477 100.04C41.199 100.837 42.7494 101.429 44.4102 101.782C46.071 102.136 47.8097 102.244 49.5269 102.1C50.577 102.034 51.6122 101.873 52.6092 101.62C54.1405 101.264 55.5007 100.588 56.5268 99.6749C57.5529 98.7616 58.2015 97.6489 58.3951 96.47V96.4C58.3951 96.19 58.2734 95.15 58.0571 93.54C61.352 93.9352 64.4641 94.9261 67.1171 96.4246C69.7701 97.923 71.882 99.8828 73.2654 102.13L73.2925 102.21ZM50.5003 56.01C50.5448 56.3935 50.4867 56.7797 50.3294 57.1465C50.1721 57.5134 49.9186 57.8538 49.5834 58.1481C49.2482 58.4425 48.8379 58.6852 48.3759 58.8622C47.9139 59.0393 47.4093 59.1473 46.8909 59.18C46.4374 59.2125 45.9797 59.1854 45.539 59.1C45.6201 59.05 45.6742 58.99 45.7553 58.93L45.8634 58.84C45.9851 58.73 46.1068 58.61 46.2149 58.49C46.3096 58.38 46.3907 58.26 46.4718 58.15L46.5529 58.02C46.5529 57.93 46.6475 57.84 46.6881 57.74C46.7286 57.64 46.6881 57.64 46.7557 57.59C46.7951 57.4982 46.8267 57.4047 46.8503 57.31V57.16V56.86C46.8565 56.8134 46.8565 56.7666 46.8503 56.72C46.8638 56.5702 46.8638 56.4198 46.8503 56.27C46.8503 56.12 46.8503 55.98 46.7557 55.83C46.661 55.68 46.7557 55.74 46.7557 55.69C46.7557 55.64 46.688 55.5 46.6475 55.41L46.5664 55.25C46.5225 55.1649 46.4729 55.0814 46.4177 55C46.387 54.948 46.3508 54.8978 46.3095 54.85C46.3095 54.77 46.1879 54.69 46.1203 54.61L45.9986 54.48C45.9157 54.3867 45.8206 54.2996 45.7147 54.22L45.6336 54.14C45.5051 54.0383 45.3698 53.9415 45.2281 53.85L45.0658 53.76L44.836 53.62C45.2392 53.4895 45.6684 53.4084 46.1068 53.38C47.1416 53.2952 48.1799 53.5153 48.9971 53.9925C49.8142 54.4697 50.3445 55.1657 50.4732 55.93L50.5003 56.01ZM75.5636 44.01C75.4839 44.0154 75.4074 44.0357 75.3412 44.0689C75.275 44.1021 75.2213 44.1472 75.1851 44.2C75.146 44.252 75.1255 44.3105 75.1255 44.37C75.1255 44.4295 75.146 44.488 75.1851 44.54C76.5373 46.2075 77.3084 48.0975 77.4291 50.04C75.5771 48.54 71.1701 45.34 67.466 45.58C67.3876 45.5841 67.3121 45.604 67.2478 45.6375C67.1835 45.671 67.1327 45.7168 67.101 45.77C67.0619 45.822 67.0415 45.8805 67.0415 45.94C67.0415 45.9995 67.0619 46.058 67.101 46.11C68.4282 47.6905 68.9102 49.5805 68.4528 51.41C67.101 50.05 63.424 46.82 60.4094 47.02C60.3215 47.0229 60.2369 47.0454 60.1669 47.0847C60.0969 47.1241 60.0447 47.1782 60.0173 47.24C59.984 47.2994 59.9765 47.365 59.9959 47.4277C60.0153 47.4904 60.0605 47.5472 60.1254 47.59C60.8586 48.1446 61.3952 48.8245 61.6876 49.5695C61.9801 50.3144 62.0193 51.1012 61.8018 51.86C60.9622 50.9115 59.8082 50.1378 58.4499 49.6127C57.0916 49.0875 55.5742 48.8284 54.0421 48.86C53.9567 48.864 53.8743 48.8846 53.8031 48.9197C53.7319 48.9549 53.6744 49.0032 53.6366 49.06C53.6034 49.1173 53.5921 49.1803 53.604 49.242C53.6159 49.3037 53.6506 49.3619 53.7041 49.41C54.6301 50.3319 55.1917 51.4258 55.3264 52.57C52.8092 52.1058 50.2045 51.9571 47.6208 52.13C46.3689 52.2154 45.1267 52.3658 43.9032 52.58C49.3106 48.93 69.3856 36.15 81.0656 41.32C81.1332 41.32 87.4734 44.63 88.7306 49.39C86.3784 47.69 79.9301 43.68 75.5636 43.96V44.01Z" fill="#E5E5E5"/>
</svg>
