<svg width="296" height="83" viewBox="0 0 296 83" fill="none" xmlns="http://www.w3.org/2000/svg">
<g clip-path="url(#clip0_2_2235)">
<path d="M294.557 51.9282C293.64 51.9282 292.895 52.6767 292.895 53.5983C292.895 54.5199 293.64 55.2684 294.557 55.2684C295.473 55.2684 296.218 54.5199 296.218 53.5983C296.218 52.6767 295.473 51.9282 294.557 51.9282ZM294.557 55.0036C293.784 55.0036 293.159 54.3715 293.159 53.5983C293.159 52.8215 293.787 52.1931 294.557 52.1931C295.329 52.1931 295.958 52.8251 295.958 53.5983C295.958 54.3715 295.329 55.0036 294.557 55.0036ZM295.097 53.3123C295.097 53.0086 294.883 52.8286 294.567 52.8286H294.036V54.3504H294.296V53.7996H294.581L294.855 54.3504H295.136L294.834 53.7432C294.996 53.6689 295.097 53.5206 295.097 53.3123ZM294.557 53.563H294.3V53.0582H294.557C294.732 53.0582 294.837 53.1464 294.837 53.3088C294.837 53.4748 294.729 53.563 294.557 53.563ZM94.3704 35.0261V30.9868H88.2096V55.0177H94.3704V40.6084C94.3704 37.9991 96.0354 36.7173 98.6311 36.7173H102.003V30.9868H99.1228C96.8678 30.9868 94.9079 32.1696 94.3704 35.0261ZM107.774 21.4818C105.667 21.4818 104.051 23.1555 104.051 25.274C104.051 27.343 105.667 29.0167 107.774 29.0167C109.882 29.0167 111.497 27.343 111.497 25.274C111.497 23.1554 109.882 21.4818 107.774 21.4818ZM104.701 55.0177H110.847V30.9868H104.701V55.0177ZM140.127 43.0022C140.127 49.8626 134.595 55.4238 127.77 55.4238C125.017 55.4238 122.519 54.5164 120.517 52.9839V62.0724H114.37V30.9868H120.517V33.0205C122.519 31.4881 125.017 30.5807 127.77 30.5807C134.595 30.5807 140.127 36.1418 140.127 43.0022ZM133.942 43.0022C133.942 39.2772 130.935 36.2548 127.23 36.2548C123.524 36.2548 120.517 39.2772 120.517 43.0022C120.517 46.7273 123.524 49.7497 127.23 49.7497C130.935 49.7497 133.942 46.7308 133.942 43.0022ZM246.963 40.8944L243.376 39.9057C241.016 39.2878 240.099 38.5604 240.099 37.307C240.099 36.0853 241.392 35.2309 243.239 35.2309C244.999 35.2309 246.38 36.389 246.38 37.8719V38.0095H252.045V37.8719C252.045 33.5112 248.508 30.5806 243.239 30.5806C238.023 30.5806 234.233 33.5077 234.233 37.5434C234.233 40.6824 236.302 43.048 239.913 44.0296L243.348 44.9723C245.958 45.6997 246.927 46.5048 246.927 47.9489C246.927 49.4707 245.526 50.4946 243.439 50.4946C241.265 50.4946 239.801 49.1105 239.801 47.0556V46.9178H233.787V47.0556C233.787 51.9847 237.735 55.4307 243.39 55.4307C248.838 55.4307 252.793 52.0659 252.793 47.4334C252.793 45.1595 251.782 42.1867 246.963 40.8944ZM161.933 30.9868H168.08V55.0177H161.933V52.9838C159.931 54.5163 157.433 55.4237 154.68 55.4237C147.855 55.4237 142.323 49.8626 142.323 43.0021C142.323 36.1416 147.855 30.5806 154.68 30.5806C157.433 30.5806 159.931 31.4881 161.933 33.0204V30.9868ZM161.933 43.0022C161.933 39.2737 158.926 36.2548 155.22 36.2548C151.515 36.2548 148.508 39.2772 148.508 43.0022C148.508 46.7273 151.515 49.7497 155.22 49.7497C158.93 49.7497 161.933 46.7308 161.933 43.0022ZM190.275 22.4351H196.422V55.0212H190.275V52.9874C188.273 54.5198 185.775 55.4273 183.022 55.4273C176.197 55.4273 170.665 49.8662 170.665 43.0057C170.665 36.1452 176.197 30.5842 183.022 30.5842C185.775 30.5842 188.273 31.4916 190.275 33.024V22.4351ZM190.275 43.0022C190.275 39.2772 187.268 36.2548 183.562 36.2548C179.857 36.2548 176.85 39.2772 176.85 43.0022C176.85 46.7273 179.853 49.7497 183.562 49.7497C187.268 49.7497 190.275 46.7308 190.275 43.0022ZM224.96 55.0177H231.107V30.9868H224.96V55.0177ZM228.034 21.4818C225.926 21.4818 224.311 23.1555 224.311 25.274C224.311 27.343 225.926 29.0167 228.034 29.0167C230.141 29.0167 231.757 27.343 231.757 25.274C231.757 23.1554 230.141 21.4818 228.034 21.4818ZM279.362 43.0022C279.362 49.8626 273.829 55.4238 267.005 55.4238C260.18 55.4238 254.648 49.8627 254.648 43.0022C254.648 36.1417 260.18 30.5807 267.005 30.5807C273.829 30.5807 279.362 36.1418 279.362 43.0022ZM273.717 43.0022C273.717 39.2772 270.71 36.2548 267.005 36.2548C263.299 36.2548 260.292 39.2772 260.292 43.0022C260.292 46.7273 263.296 49.7497 267.005 49.7497C270.71 49.7497 273.717 46.7308 273.717 43.0022ZM91.2232 22.4351H67.644V27.9468H76.3726V55.0177H82.4983V27.9468H91.2268V22.4351H91.2232ZM210.468 48.4362L204.999 30.9869H198.543L206.745 55.0177H214.142L222.393 30.9869H215.937L210.468 48.4362ZM288.367 35.0261V30.9868H282.207V55.0177H288.367V40.6084C288.367 37.9991 290.032 36.7173 292.628 36.7173H296V30.9868H293.12C290.865 30.9868 288.908 32.1696 288.367 35.0261Z" fill="black"/>
<path d="M31.8032 72.7239C49.2126 72.7239 63.3257 58.6108 63.3257 41.2014C63.3257 23.792 49.2126 9.67896 31.8032 9.67896C14.3939 9.67896 0.280762 23.792 0.280762 41.2014C0.280762 58.6108 14.3939 72.7239 31.8032 72.7239Z" fill="#34E0A1"/>
<path d="M50.9016 35.0118L54.6897 30.9052H46.2892C42.0837 28.0428 37.0048 26.3757 31.5121 26.3757C26.0263 26.3757 20.9616 28.0464 16.763 30.9052H8.34155L12.1297 35.0118C9.80773 37.1227 8.35211 40.1634 8.35211 43.5395C8.35211 49.9109 13.5363 55.0764 19.9304 55.0764C22.9679 55.0764 25.7353 53.9091 27.8012 52.0008L31.5122 56.027L35.2231 52.0043C37.2891 53.9126 40.0529 55.0764 43.0904 55.0764C49.4846 55.0764 54.6757 49.9109 54.6757 43.5395C54.6791 40.1599 53.2236 37.1193 50.9016 35.0118ZM19.9339 51.3472C15.6056 51.3472 12.0982 47.8524 12.0982 43.5395C12.0982 39.2267 15.6056 35.7318 19.9339 35.7318C24.2621 35.7318 27.7696 39.2267 27.7696 43.5395C27.7696 47.8524 24.2621 51.3472 19.9339 51.3472ZM31.5156 43.3124C31.5156 38.1747 27.7661 33.7641 22.817 31.8803C25.4932 30.7654 28.429 30.1468 31.5121 30.1468C34.5952 30.1468 37.5344 30.7654 40.2107 31.8803C35.2652 33.7676 31.5156 38.1748 31.5156 43.3124ZM43.0939 51.3472C38.7656 51.3472 35.2581 47.8524 35.2581 43.5395C35.2581 39.2267 38.7656 35.7318 43.0939 35.7318C47.4222 35.7318 50.9296 39.2267 50.9296 43.5395C50.9296 47.8524 47.4221 51.3472 43.0939 51.3472ZM43.0939 39.4434C40.8245 39.4434 38.9866 41.2748 38.9866 43.536C38.9866 45.7972 40.8245 47.6286 43.0939 47.6286C45.3632 47.6286 47.2012 45.7972 47.2012 43.536C47.2011 41.2783 45.3632 39.4434 43.0939 39.4434ZM24.0411 43.5395C24.0411 45.8007 22.2032 47.6321 19.9339 47.6321C17.6646 47.6321 15.8266 45.8007 15.8266 43.5395C15.8266 41.2783 17.6646 39.4469 19.9339 39.4469C22.2032 39.4434 24.0411 41.2783 24.0411 43.5395Z" fill="black"/>
</g>
<defs>
<clipPath id="clip0_2_2235">
<rect width="294.785" height="82.0448" fill="white" transform="translate(0.856689 0.178955)"/>
</clipPath>
</defs>
</svg>
