<svg width="308" height="86" viewBox="0 0 308 86" fill="none" xmlns="http://www.w3.org/2000/svg">
<mask id="mask0_2_1885" style="mask-type:luminance" maskUnits="userSpaceOnUse" x="60" y="12" width="189" height="63">
<path d="M60.1631 12.2393H248.44V74.22H60.1631V12.2393Z" fill="#315394"/>
</mask>
<g mask="url(#mask0_2_1885)">
<path fill-rule="evenodd" clip-rule="evenodd" d="M100.241 20.801C103.154 23.7377 102.132 28.5509 98.8793 39.3484L98.7799 39.6775L98.6395 39.5845C101.735 27.3839 100.745 22.6331 96.2102 20.9427L96.072 20.8926V20.801H100.241ZM107.827 20.801V20.8926C105.701 24.0751 104.33 27.4226 99.2176 39.4934L99.0617 39.8617L98.9213 39.7696C102.259 30.5048 103.975 25.9642 103.588 21.0968L103.573 20.9272L103.575 20.801H107.827ZM117.625 20.801V20.8926C109.457 23.3388 105.8 28.0248 99.534 39.6912L99.3434 40.0468L99.203 39.9543C104.714 28.2851 107.354 23.4747 111.703 20.8794L111.835 20.801H117.625ZM91.5671 20.801V20.8926C86.1914 21.9192 84.6113 24.8966 85.9324 31.7129L90.7009 55.931L89.284 58.8796L83.8263 31.7512C82.1176 23.6662 85.1629 21.5103 86.6021 20.801H91.5671ZM82.8758 20.801V20.8926C80.9433 22.6049 80.4309 25.6014 81.5401 31.3108L81.5893 31.5606L87.8767 61.81L86.4726 64.7331L79.3678 30.9885C78.1976 25.2736 78.4829 23.053 79.4854 20.8976L79.5305 20.801H82.8758ZM76.7242 20.801C76.1739 22.5597 75.8621 25.1231 77.1655 30.6534L77.227 30.911L85.0585 67.6772L83.6708 70.567L74.8843 29.945C73.7865 25.1377 73.6534 23.1984 73.6953 20.9231L73.6976 20.801H76.7242ZM181.257 12.2108L161.132 63.4293C160.379 65.3458 158.664 69.2591 158.471 71.425C158.396 72.2647 158.691 72.8774 158.951 73.0771L158.987 73.1013L158.921 73.2394C158.745 73.1865 158.627 73.1304 158.455 73.0479C157.515 72.598 156.797 71.476 156.838 70.542C156.932 68.4116 158.455 64.6342 159.223 62.745L159.284 62.5955L172.971 27.4586C173.195 26.799 178.535 13.6924 178.497 12.7902L178.494 12.767L181.257 12.2108ZM228.706 32.9105L228.659 33.0076C221.389 34.4655 211.712 55.9894 211.497 68.2352C211.456 70.6126 212.332 72.6075 215.209 73.1582L215.362 73.1861L215.317 73.28C210.926 72.8045 209.469 69.5759 209.518 66.7354C209.738 54.1194 219.693 34.233 228.706 32.9105ZM180.175 38.3254C181.926 38.5652 182.977 39.957 182.755 42.3317C181.899 51.4675 171.943 70.0031 161.257 73.1974L160.933 73.2895L160.994 73.1623C170.373 69.131 179.723 50.3716 180.479 42.2865C180.644 40.5278 179.818 39.435 178.568 39.2636C176.69 39.0056 174.069 40.6135 172.087 42.9357L171.966 43.0789L171.89 42.9795C174.287 39.9233 177.593 37.9712 180.175 38.3254ZM230.683 33.0349C234.911 33.7297 236.528 36.6391 236.478 39.4774C236.253 52.3715 226.831 71.6566 217.584 73.3379L217.304 73.3834L217.35 73.2877C224.858 71.8987 234.191 50.7964 234.414 38.0596C234.455 35.6932 233.434 33.9266 230.785 33.179L230.634 33.1375L230.683 33.0349ZM175.598 13.3218C176.318 14.1055 171.323 26.2104 170.902 27.3437L170.891 27.3752L157.428 61.8456C156.774 63.5957 155.247 67.4857 155.057 69.6521C154.864 71.8599 156.538 72.9371 158.728 73.3579L158.853 73.3812L158.809 73.4719C155.515 72.9636 153.063 71.4469 153.307 68.6528C153.498 66.4728 154.747 63.1449 155.508 61.1964L155.58 61.0122L168.734 27.2083C169.432 25.2991 172.846 17.2775 172.838 14.1638L172.835 14.0339V13.8784L175.598 13.3218ZM140.601 32.1697C143.357 32.1697 145.62 33.9198 145.822 37.7528C146.237 45.5903 139.124 51.958 131.343 53.2163L131.108 53.2527L131.02 53.1698C137.705 51.6695 144.319 45.6696 143.945 38.5862C143.769 35.2528 141.766 33.6695 139.343 33.6695C134.853 33.6695 130.957 37.4451 128.487 42.4333C128.468 42.6882 128.461 42.9521 128.433 43.2006C130.671 38.5853 134.13 35.0868 137.999 35.0868C140.17 35.0868 141.832 36.5033 141.986 39.4195C142.308 45.5247 136.564 51.4661 131.011 52.9596L130.843 53.0034L130.756 52.9195C135.345 51.2532 140.391 45.5867 140.109 40.2533C139.981 37.8358 138.579 36.5862 136.741 36.5862C133.382 36.5862 130.341 39.9634 128.279 44.2345C128.228 44.5518 128.178 44.8714 128.114 45.1805C129.951 41.2043 132.637 38.0031 135.396 38.0031C137.067 38.0031 138.126 39.0863 138.232 41.0862C138.467 45.5342 134.429 50.9583 130.71 52.6929L130.58 52.7526L130.492 52.6697C133.239 50.9191 136.548 45.5867 136.355 41.9196C136.275 40.4197 135.475 39.5034 134.14 39.5034C131.904 39.5034 129.558 42.6307 127.858 46.3033C127.708 46.89 127.543 47.4731 127.358 48.0552C128.957 44.3831 131.103 40.9198 132.794 40.9198C133.88 40.9198 134.337 41.6697 134.394 42.7529C134.537 45.4563 132.386 50.5753 130.418 52.4107L130.316 52.5028L130.228 52.4185C131.939 49.365 132.739 45.8037 132.564 43.6323C132.517 43.0497 132.289 42.4197 131.538 42.4197C130.552 42.4197 128.685 45.6446 127.119 48.8425L127.041 49.0026H127.037C126.644 50.1413 126.206 51.2984 125.739 52.5356L125.562 53.0034L117.71 73.502H115.538L123.466 52.8356C125.154 48.4195 126.789 44.586 126.53 39.6698C126.332 35.9197 123.756 33.003 119.079 33.003C109.406 33.003 104.345 39.6899 102.411 47.1863L102.354 47.4138H102.266C104.045 39.3179 109.423 32.1697 120.288 32.1697C125.465 32.1697 128.309 35.4201 128.53 39.5859C128.564 40.2438 128.572 40.8738 128.554 41.4824C131.216 36.1171 135.592 32.1697 140.601 32.1697ZM115.61 35.3367C118.784 35.3367 120.56 37.3366 120.701 40.003C120.895 43.6715 118.825 48.3766 117.361 52.1677L117.264 52.4185L109.023 73.502H106.768L115.171 52.3364C116.648 48.6693 118.877 43.4199 118.705 40.1694C118.582 37.8358 117.074 36.17 114.401 36.17C108.812 36.17 104.921 41.512 102.995 47.231L102.935 47.4138H102.838C104.644 41.2006 108.798 35.3367 115.61 35.3367ZM117.948 33.7529C122.124 33.7529 124.437 36.4194 124.617 39.8367C124.845 44.1543 123.148 48.3133 121.488 52.4695L121.375 52.7526L113.366 73.502H111.195L119.361 52.5858C120.899 48.502 122.832 44.0029 122.617 39.9196C122.455 36.8365 120.415 34.5863 116.739 34.5863C109.072 34.5863 104.667 40.5665 102.701 47.2119L102.643 47.4138H102.539C104.294 40.1808 109.278 33.7529 117.948 33.7529ZM113.277 37.0029C115.448 37.0029 116.687 38.3364 116.789 40.2529C116.94 43.1153 114.572 48.5471 113.155 51.9776L113.076 52.1691L104.597 73.502H102.426L111.062 52.0023C112.31 48.7527 114.924 42.9193 114.788 40.3358C114.705 38.7535 113.738 37.8358 112.068 37.8358C108.302 37.8358 105.17 42.5181 103.307 47.2392L103.238 47.4143H103.132C104.9 42.0613 108.552 37.0029 113.277 37.0029ZM110.938 38.5862C112.108 38.5862 112.811 39.2527 112.877 40.5027C112.986 42.5519 110.316 48.6324 109.033 51.7656L108.97 51.9197L100.254 73.502H98.0829L106.872 51.7529C108.059 48.9196 110.969 42.3362 110.877 40.5861C110.833 39.7528 110.397 39.4195 109.729 39.4195C108.15 39.4195 105.434 43.2936 103.634 47.2374L103.554 47.4143H103.445C105.229 42.9152 108.196 38.5862 110.938 38.5862ZM228.83 32.6511L228.786 32.7436C218.195 34.2024 207.764 52.3647 207.537 65.318C207.481 68.5502 209.453 72.6417 215.044 73.4208L215.238 73.4464L215.192 73.5403C207.983 72.954 205.494 67.5026 205.559 63.8177C205.79 50.5922 216.397 33.9654 228.83 32.6511ZM70.9614 20.801C71.2537 22.9304 71.4716 24.4585 72.7435 29.8251L72.8041 30.0795L82.2394 73.5471H80.13L70.723 30.2135C69.499 25.1997 69.0399 22.8661 67.5196 20.9906L67.4384 20.8926V20.801H70.9614ZM63.9259 20.801C65.3801 21.8513 67.0514 23.198 68.6424 30.3539L68.6939 30.5896L78.0202 73.548H75.91C75.91 73.548 66.6602 30.9844 66.6475 30.9256C65.3118 24.9317 63.6487 22.3104 60.3017 20.9477L60.1631 20.8926V20.801H63.9259ZM183.482 36.3738C186.064 36.728 187.816 38.7494 187.462 42.5314C186.395 53.9324 175.725 71.5048 161.222 73.548L160.781 73.6055L160.824 73.5175C174.145 70.7425 184.134 52.8479 185.113 42.3873C185.401 39.3092 184.041 37.6083 181.791 37.3001C178.676 36.873 174.748 39.007 171.881 42.6029L171.741 42.7807L171.665 42.6813C174.676 38.4622 179.565 35.8363 183.482 36.3738ZM230.811 32.7682C238.089 33.5815 240.501 38.7097 240.437 42.3946C240.203 55.812 230.144 71.9907 217.562 73.5977L217.18 73.6419L217.224 73.5508C228.22 72.0824 238.224 54.2575 238.456 40.9773C238.513 37.7474 236.541 33.8163 230.963 32.8909L230.767 32.8594L230.811 32.7682ZM170.114 14.436C170.991 16.9656 167.401 25.1619 166.679 27.0547L166.652 27.1254L153.725 60.2623C152.972 62.1788 151.762 65.3194 151.557 67.6521C151.343 70.0943 152.576 71.8266 155.073 72.7311C156.705 73.3224 158.133 73.5302 158.697 73.5895L158.75 73.5945L158.713 73.672C152.64 73.2439 149.385 70.5255 149.732 66.569C149.922 64.3972 151.043 61.5502 151.798 59.6314L151.878 59.4294L164.489 27.0419C165.335 24.9039 168.747 17.3226 167.491 15.2037L167.438 15.1221V14.9666L170.114 14.436ZM228.953 32.3958L228.909 32.4865C214.891 33.9567 203.816 48.8421 203.579 62.4009C203.508 66.47 206.03 72.7598 214.846 73.6757L215.115 73.7021L215.072 73.7915C204.643 73.1076 201.437 65.4238 201.516 60.9001C201.76 46.9935 213.251 33.5861 228.953 32.3958ZM164.694 15.5387C166.404 17.8409 163.296 24.6486 162.173 27.5502L162.129 27.6642L150.022 58.6791C149.276 60.5126 148.186 63.236 147.982 65.5688C147.597 69.9739 151.41 73.3369 158.437 73.7892L158.651 73.8019L158.609 73.8886C150.114 73.5667 145.798 69.5194 146.231 64.5695C146.434 62.2491 147.345 59.9537 148.083 58.0782L148.175 57.8462L159.893 27.7025C161.148 24.5966 163.725 19.0285 162.019 16.3625L161.942 16.2485V16.0935L164.694 15.5387ZM230.934 32.5107C241.352 33.3531 244.558 40.7899 244.48 45.3122C244.235 59.2407 233.551 72.4343 217.544 73.8589L217.057 73.8981L217.101 73.807C231.526 72.3295 242.258 57.6985 242.499 43.8953C242.57 39.8298 239.577 33.6285 231.149 32.6283L230.892 32.5996L230.934 32.5107ZM186.703 34.4103C190.288 34.9018 192.573 37.5313 192.096 42.633C190.808 56.3842 178.438 73.4578 161.163 73.8972L160.637 73.9054L160.681 73.8156C176.456 72.8455 188.628 55.3347 189.821 42.5879C190.24 38.1025 188.179 35.7707 185.097 35.3481C180.655 34.739 175.146 37.6284 171.653 42.2979L171.516 42.483L171.441 42.3832C175.249 36.8479 181.537 33.7019 186.703 34.4103ZM229.074 32.1428L229.032 32.2298C212.161 33.5843 199.869 45.2438 199.62 59.4828C199.535 64.3775 202.991 72.939 214.638 73.9278L214.993 73.9551L214.952 74.0413C201.381 73.2581 197.463 63.3404 197.557 57.9825C197.81 43.4814 210.181 33.3135 229.074 32.1428ZM159.436 16.5982C161.466 19.24 158.959 24.5615 157.547 28.1447L157.489 28.2929L146.319 57.0953C145.567 59.0123 144.693 61.1527 144.489 63.4863C144.017 68.8807 148.79 73.5444 158.244 74.0349L158.533 74.049L158.491 74.1366C147.512 73.8029 142.218 68.4353 142.739 62.4857C142.942 60.1702 143.663 58.261 144.378 56.4927L144.471 56.2629L155.597 27.687C157.047 23.7218 159.01 19.8172 157.001 17.3873L156.911 17.2825V17.1275L159.436 16.5982ZM231.057 32.2545C244.615 33.0418 248.532 42.8733 248.438 48.2298C248.185 62.6639 236.884 72.7726 217.525 74.1133L216.936 74.1516L216.978 74.0641C235.006 72.7056 246.125 61.1321 246.375 46.8121C246.461 41.9191 243.083 33.52 231.371 32.3776L231.013 32.3456L231.057 32.2545ZM190.008 32.4587C194.425 33.0646 197.412 36.3241 196.812 42.7447C195.336 58.5063 181.549 74.6399 161.126 74.2013L160.505 74.1831L160.559 74.0709C180.566 74.122 193.068 57.4819 194.453 42.6891C194.996 36.8839 192.319 33.9335 188.402 33.3964C182.633 32.605 175.636 36.0907 171.427 41.9889L171.29 42.184L171.216 42.085C175.64 35.3868 183.508 31.567 190.008 32.4587Z" fill="#315394"/>
</g>
</svg>
